<svg xmlns="http://www.w3.org/2000/svg" xmlns:xlink="http://www.w3.org/1999/xlink" width="44.002" height="27" viewBox="0 0 44.002 27">
  <defs>
    <clipPath id="clip-path">
      <path id="Контур_3056" data-name="Контур 3056" d="M602.225,237.7h.5a9.733,9.733,0,1,1-9.733-9.733,9.733,9.733,0,0,1,9.733,9.733h-1a8.733,8.733,0,1,0-8.733,8.733,8.745,8.745,0,0,0,8.733-8.733Z" transform="translate(-583.258 -227.964)" fill="none"/>
    </clipPath>
  </defs>
  <g id="Сгруппировать_675" data-name="Сгруппировать 675" transform="translate(-562.477 -227.464)">
    <g id="Сгруппировать_670" data-name="Сгруппировать 670" transform="translate(567 227.464)">
      <path id="Контур_3055" data-name="Контур 3055" d="M580.713,254.464a13.5,13.5,0,1,1,13.713-13.5A13.622,13.622,0,0,1,580.713,254.464Zm0-25.031a11.532,11.532,0,1,0,11.713,11.531A11.637,11.637,0,0,0,580.713,229.433Z" transform="translate(-567 -227.464)" fill="#201600"/>
    </g>
    <g id="Сгруппировать_673" data-name="Сгруппировать 673" transform="translate(582.867 227.964)">
      <g id="Сгруппировать_672" data-name="Сгруппировать 672">
        <g id="Сгруппировать_671" data-name="Сгруппировать 671" clip-path="url(#clip-path)">
          <rect id="Прямоугольник_2330" data-name="Прямоугольник 2330" width="0.042" height="19.466" transform="translate(0 0)" fill="#02070a"/>
          <rect id="Прямоугольник_2331" data-name="Прямоугольник 2331" width="0.108" height="19.466" transform="translate(0.041 0)" fill="#03080b"/>
          <rect id="Прямоугольник_2332" data-name="Прямоугольник 2332" width="0.108" height="19.466" transform="translate(0.15 0)" fill="#03090c"/>
          <rect id="Прямоугольник_2333" data-name="Прямоугольник 2333" width="0.108" height="19.466" transform="translate(0.258 0)" fill="#040a0d"/>
          <rect id="Прямоугольник_2334" data-name="Прямоугольник 2334" width="0.108" height="19.466" transform="translate(0.366 0)" fill="#040b0e"/>
          <rect id="Прямоугольник_2335" data-name="Прямоугольник 2335" width="0.108" height="19.466" transform="translate(0.475 0)" fill="#050c0f"/>
          <rect id="Прямоугольник_2336" data-name="Прямоугольник 2336" width="0.108" height="19.466" transform="translate(0.583 0)" fill="#050d10"/>
          <rect id="Прямоугольник_2337" data-name="Прямоугольник 2337" width="0.108" height="19.466" transform="translate(0.691 0)" fill="#060e11"/>
          <rect id="Прямоугольник_2338" data-name="Прямоугольник 2338" width="0.108" height="19.466" transform="translate(0.799 0)" fill="#060e12"/>
          <rect id="Прямоугольник_2339" data-name="Прямоугольник 2339" width="0.108" height="19.466" transform="translate(0.908 0)" fill="#070f13"/>
          <rect id="Прямоугольник_2340" data-name="Прямоугольник 2340" width="0.108" height="19.466" transform="translate(1.016 0)" fill="#071014"/>
          <rect id="Прямоугольник_2341" data-name="Прямоугольник 2341" width="0.108" height="19.466" transform="translate(1.124 0)" fill="#081115"/>
          <rect id="Прямоугольник_2342" data-name="Прямоугольник 2342" width="0.108" height="19.466" transform="translate(1.233 0)" fill="#081216"/>
          <rect id="Прямоугольник_2343" data-name="Прямоугольник 2343" width="0.108" height="19.466" transform="translate(1.341 0)" fill="#091317"/>
          <rect id="Прямоугольник_2344" data-name="Прямоугольник 2344" width="0.108" height="19.466" transform="translate(1.449 0)" fill="#091418"/>
          <rect id="Прямоугольник_2345" data-name="Прямоугольник 2345" width="0.108" height="19.466" transform="translate(1.558 0)" fill="#0a1519"/>
          <rect id="Прямоугольник_2346" data-name="Прямоугольник 2346" width="0.108" height="19.466" transform="translate(1.666 0)" fill="#0a161a"/>
          <rect id="Прямоугольник_2347" data-name="Прямоугольник 2347" width="0.108" height="19.466" transform="translate(1.774 0)" fill="#0b171b"/>
          <rect id="Прямоугольник_2348" data-name="Прямоугольник 2348" width="0.108" height="19.466" transform="translate(1.882 0)" fill="#0b181c"/>
          <rect id="Прямоугольник_2349" data-name="Прямоугольник 2349" width="0.108" height="19.466" transform="translate(1.991 0)" fill="#0c191d"/>
          <rect id="Прямоугольник_2350" data-name="Прямоугольник 2350" width="0.108" height="19.466" transform="translate(2.099 0)" fill="#0c1a1e"/>
          <rect id="Прямоугольник_2351" data-name="Прямоугольник 2351" width="0.108" height="19.466" transform="translate(2.207 0)" fill="#0d1b1f"/>
          <rect id="Прямоугольник_2352" data-name="Прямоугольник 2352" width="0.108" height="19.466" transform="translate(2.316 0)" fill="#0d1c20"/>
          <rect id="Прямоугольник_2353" data-name="Прямоугольник 2353" width="0.108" height="19.466" transform="translate(2.424 0)" fill="#0d1d21"/>
          <rect id="Прямоугольник_2354" data-name="Прямоугольник 2354" width="0.108" height="19.466" transform="translate(2.532 0)" fill="#0e1e22"/>
          <rect id="Прямоугольник_2355" data-name="Прямоугольник 2355" width="0.108" height="19.466" transform="translate(2.64 0)" fill="#0f1f23"/>
          <rect id="Прямоугольник_2356" data-name="Прямоугольник 2356" width="0.108" height="19.466" transform="translate(2.749 0)" fill="#0f2024"/>
          <rect id="Прямоугольник_2357" data-name="Прямоугольник 2357" width="0.108" height="19.466" transform="translate(2.857 0)" fill="#0f2125"/>
          <rect id="Прямоугольник_2358" data-name="Прямоугольник 2358" width="0.108" height="19.466" transform="translate(2.965 0)" fill="#102226"/>
          <rect id="Прямоугольник_2359" data-name="Прямоугольник 2359" width="0.108" height="19.466" transform="translate(3.074 0)" fill="#112327"/>
          <rect id="Прямоугольник_2360" data-name="Прямоугольник 2360" width="0.108" height="19.466" transform="translate(3.182 0)" fill="#112428"/>
          <rect id="Прямоугольник_2361" data-name="Прямоугольник 2361" width="0.108" height="19.466" transform="translate(3.29 0)" fill="#122529"/>
          <rect id="Прямоугольник_2362" data-name="Прямоугольник 2362" width="0.108" height="19.466" transform="translate(3.398 0)" fill="#12252a"/>
          <rect id="Прямоугольник_2363" data-name="Прямоугольник 2363" width="0.108" height="19.466" transform="translate(3.507 0)" fill="#13262b"/>
          <rect id="Прямоугольник_2364" data-name="Прямоугольник 2364" width="0.108" height="19.466" transform="translate(3.615 0)" fill="#13272c"/>
          <rect id="Прямоугольник_2365" data-name="Прямоугольник 2365" width="0.108" height="19.466" transform="translate(3.723 0)" fill="#14282d"/>
          <rect id="Прямоугольник_2366" data-name="Прямоугольник 2366" width="0.108" height="19.466" transform="translate(3.832 0)" fill="#14292e"/>
          <rect id="Прямоугольник_2367" data-name="Прямоугольник 2367" width="0.108" height="19.466" transform="translate(3.94 0)" fill="#152a2f"/>
          <rect id="Прямоугольник_2368" data-name="Прямоугольник 2368" width="0.108" height="19.466" transform="translate(4.048 0)" fill="#152b30"/>
          <rect id="Прямоугольник_2369" data-name="Прямоугольник 2369" width="0.108" height="19.466" transform="translate(4.157 0)" fill="#162c31"/>
          <rect id="Прямоугольник_2370" data-name="Прямоугольник 2370" width="0.108" height="19.466" transform="translate(4.265 0)" fill="#162d32"/>
          <rect id="Прямоугольник_2371" data-name="Прямоугольник 2371" width="0.108" height="19.466" transform="translate(4.373 0)" fill="#172e33"/>
          <rect id="Прямоугольник_2372" data-name="Прямоугольник 2372" width="0.108" height="19.466" transform="translate(4.481 0)" fill="#172f34"/>
          <rect id="Прямоугольник_2373" data-name="Прямоугольник 2373" width="0.108" height="19.466" transform="translate(4.59 0)" fill="#183035"/>
          <rect id="Прямоугольник_2374" data-name="Прямоугольник 2374" width="0.108" height="19.466" transform="translate(4.698 0)" fill="#183136"/>
          <rect id="Прямоугольник_2375" data-name="Прямоугольник 2375" width="0.108" height="19.466" transform="translate(4.806 0)" fill="#193237"/>
          <rect id="Прямоугольник_2376" data-name="Прямоугольник 2376" width="0.108" height="19.466" transform="translate(4.915 0)" fill="#193338"/>
          <rect id="Прямоугольник_2377" data-name="Прямоугольник 2377" width="0.108" height="19.466" transform="translate(5.023 0)" fill="#193439"/>
          <rect id="Прямоугольник_2378" data-name="Прямоугольник 2378" width="0.108" height="19.466" transform="translate(5.131 0)" fill="#1a353a"/>
          <rect id="Прямоугольник_2379" data-name="Прямоугольник 2379" width="0.108" height="19.466" transform="translate(5.239 0)" fill="#1b363b"/>
          <rect id="Прямоугольник_2380" data-name="Прямоугольник 2380" width="0.108" height="19.466" transform="translate(5.348 0)" fill="#1b373c"/>
          <rect id="Прямоугольник_2381" data-name="Прямоугольник 2381" width="0.108" height="19.466" transform="translate(5.456 0)" fill="#1c383d"/>
          <rect id="Прямоугольник_2382" data-name="Прямоугольник 2382" width="0.108" height="19.466" transform="translate(5.564 0)" fill="#1c393e"/>
          <rect id="Прямоугольник_2383" data-name="Прямоугольник 2383" width="0.108" height="19.466" transform="translate(5.673 0)" fill="#1c3a3f"/>
          <rect id="Прямоугольник_2384" data-name="Прямоугольник 2384" width="0.108" height="19.466" transform="translate(5.781 0)" fill="#1d3b40"/>
          <rect id="Прямоугольник_2385" data-name="Прямоугольник 2385" width="0.108" height="19.466" transform="translate(5.889 0)" fill="#1e3b41"/>
          <rect id="Прямоугольник_2386" data-name="Прямоугольник 2386" width="0.108" height="19.466" transform="translate(5.997 0)" fill="#1e3c42"/>
          <rect id="Прямоугольник_2387" data-name="Прямоугольник 2387" width="0.108" height="19.466" transform="translate(6.106 0)" fill="#1f3d43"/>
          <rect id="Прямоугольник_2388" data-name="Прямоугольник 2388" width="0.108" height="19.466" transform="translate(6.214 0)" fill="#1f3e44"/>
          <rect id="Прямоугольник_2389" data-name="Прямоугольник 2389" width="0.108" height="19.466" transform="translate(6.322 0)" fill="#203f45"/>
          <rect id="Прямоугольник_2390" data-name="Прямоугольник 2390" width="0.108" height="19.466" transform="translate(6.431 0)" fill="#204046"/>
          <rect id="Прямоугольник_2391" data-name="Прямоугольник 2391" width="0.108" height="19.466" transform="translate(6.539 0)" fill="#214147"/>
          <rect id="Прямоугольник_2392" data-name="Прямоугольник 2392" width="0.108" height="19.466" transform="translate(6.647 0)" fill="#214248"/>
          <rect id="Прямоугольник_2393" data-name="Прямоугольник 2393" width="0.108" height="19.466" transform="translate(6.756 0)" fill="#224349"/>
          <rect id="Прямоугольник_2394" data-name="Прямоугольник 2394" width="0.108" height="19.466" transform="translate(6.864 0)" fill="#22444a"/>
          <rect id="Прямоугольник_2395" data-name="Прямоугольник 2395" width="0.108" height="19.466" transform="translate(6.972 0)" fill="#23454b"/>
          <rect id="Прямоугольник_2396" data-name="Прямоугольник 2396" width="0.108" height="19.466" transform="translate(7.08 0)" fill="#23464c"/>
          <rect id="Прямоугольник_2397" data-name="Прямоугольник 2397" width="0.108" height="19.466" transform="translate(7.189 0)" fill="#24474d"/>
          <rect id="Прямоугольник_2398" data-name="Прямоугольник 2398" width="0.108" height="19.466" transform="translate(7.297 0)" fill="#24484e"/>
          <rect id="Прямоугольник_2399" data-name="Прямоугольник 2399" width="0.108" height="19.466" transform="translate(7.405 0)" fill="#25494f"/>
          <rect id="Прямоугольник_2400" data-name="Прямоугольник 2400" width="0.108" height="19.466" transform="translate(7.514 0)" fill="#254a50"/>
          <rect id="Прямоугольник_2401" data-name="Прямоугольник 2401" width="0.108" height="19.466" transform="translate(7.622 0)" fill="#264b51"/>
          <rect id="Прямоугольник_2402" data-name="Прямоугольник 2402" width="0.108" height="19.466" transform="translate(7.73 0)" fill="#264c52"/>
          <rect id="Прямоугольник_2403" data-name="Прямоугольник 2403" width="0.108" height="19.466" transform="translate(7.838 0)" fill="#274d53"/>
          <rect id="Прямоугольник_2404" data-name="Прямоугольник 2404" width="0.108" height="19.466" transform="translate(7.947 0)" fill="#274e54"/>
          <rect id="Прямоугольник_2405" data-name="Прямоугольник 2405" width="0.108" height="19.466" transform="translate(8.055 0)" fill="#284f55"/>
          <rect id="Прямоугольник_2406" data-name="Прямоугольник 2406" width="0.108" height="19.466" transform="translate(8.163 0)" fill="#285056"/>
          <rect id="Прямоугольник_2407" data-name="Прямоугольник 2407" width="0.108" height="19.466" transform="translate(8.272 0)" fill="#295157"/>
          <rect id="Прямоугольник_2408" data-name="Прямоугольник 2408" width="0.108" height="19.466" transform="translate(8.38 0)" fill="#295258"/>
          <rect id="Прямоугольник_2409" data-name="Прямоугольник 2409" width="0.108" height="19.466" transform="translate(8.488 0)" fill="#2a5259"/>
          <rect id="Прямоугольник_2410" data-name="Прямоугольник 2410" width="0.108" height="19.466" transform="translate(8.596 0)" fill="#2a535a"/>
          <rect id="Прямоугольник_2411" data-name="Прямоугольник 2411" width="0.108" height="19.466" transform="translate(8.705 0)" fill="#2b545b"/>
          <rect id="Прямоугольник_2412" data-name="Прямоугольник 2412" width="0.108" height="19.466" transform="translate(8.813 0)" fill="#2b555c"/>
          <rect id="Прямоугольник_2413" data-name="Прямоугольник 2413" width="0.108" height="19.466" transform="translate(8.921 0)" fill="#2c565d"/>
          <rect id="Прямоугольник_2414" data-name="Прямоугольник 2414" width="0.108" height="19.466" transform="translate(9.03 0)" fill="#2c575e"/>
          <rect id="Прямоугольник_2415" data-name="Прямоугольник 2415" width="0.108" height="19.466" transform="translate(9.138 0)" fill="#2d585f"/>
          <rect id="Прямоугольник_2416" data-name="Прямоугольник 2416" width="0.108" height="19.466" transform="translate(9.246 0)" fill="#2d5960"/>
          <rect id="Прямоугольник_2417" data-name="Прямоугольник 2417" width="0.108" height="19.466" transform="translate(9.355 0)" fill="#2e5a61"/>
          <rect id="Прямоугольник_2418" data-name="Прямоугольник 2418" width="0.108" height="19.466" transform="translate(9.463 0)" fill="#2e5b62"/>
          <rect id="Прямоугольник_2419" data-name="Прямоугольник 2419" width="0.108" height="19.466" transform="translate(9.571 0)" fill="#2f5c63"/>
          <rect id="Прямоугольник_2420" data-name="Прямоугольник 2420" width="0.108" height="19.466" transform="translate(9.679 0)" fill="#2f5d65"/>
          <rect id="Прямоугольник_2421" data-name="Прямоугольник 2421" width="0.108" height="19.466" transform="translate(9.788 0)" fill="#305e66"/>
          <rect id="Прямоугольник_2422" data-name="Прямоугольник 2422" width="0.108" height="19.466" transform="translate(9.896 0)" fill="#305f67"/>
          <rect id="Прямоугольник_2423" data-name="Прямоугольник 2423" width="0.108" height="19.466" transform="translate(10.004 0)" fill="#316068"/>
          <rect id="Прямоугольник_2424" data-name="Прямоугольник 2424" width="0.108" height="19.466" transform="translate(10.113 0)" fill="#316169"/>
          <rect id="Прямоугольник_2425" data-name="Прямоугольник 2425" width="0.108" height="19.466" transform="translate(10.221 0)" fill="#31626a"/>
          <rect id="Прямоугольник_2426" data-name="Прямоугольник 2426" width="0.108" height="19.466" transform="translate(10.329 0)" fill="#32636b"/>
          <rect id="Прямоугольник_2427" data-name="Прямоугольник 2427" width="0.108" height="19.466" transform="translate(10.437 0)" fill="#33646c"/>
          <rect id="Прямоугольник_2428" data-name="Прямоугольник 2428" width="0.108" height="19.466" transform="translate(10.546 0)" fill="#33656d"/>
          <rect id="Прямоугольник_2429" data-name="Прямоугольник 2429" width="0.108" height="19.466" transform="translate(10.654 0)" fill="#34666e"/>
          <rect id="Прямоугольник_2430" data-name="Прямоугольник 2430" width="0.108" height="19.466" transform="translate(10.762 0)" fill="#34676f"/>
          <rect id="Прямоугольник_2431" data-name="Прямоугольник 2431" width="0.108" height="19.466" transform="translate(10.871 0)" fill="#346870"/>
          <rect id="Прямоугольник_2432" data-name="Прямоугольник 2432" width="0.108" height="19.466" transform="translate(10.979 0)" fill="#356871"/>
          <rect id="Прямоугольник_2433" data-name="Прямоугольник 2433" width="0.108" height="19.466" transform="translate(11.087 0)" fill="#366972"/>
          <rect id="Прямоугольник_2434" data-name="Прямоугольник 2434" width="0.108" height="19.466" transform="translate(11.195 0)" fill="#366a73"/>
          <rect id="Прямоугольник_2435" data-name="Прямоугольник 2435" width="0.108" height="19.466" transform="translate(11.304 0)" fill="#376b74"/>
          <rect id="Прямоугольник_2436" data-name="Прямоугольник 2436" width="0.108" height="19.466" transform="translate(11.412 0)" fill="#376c75"/>
          <rect id="Прямоугольник_2437" data-name="Прямоугольник 2437" width="0.108" height="19.466" transform="translate(11.52 0)" fill="#376d76"/>
          <rect id="Прямоугольник_2438" data-name="Прямоугольник 2438" width="0.108" height="19.466" transform="translate(11.629 0)" fill="#386e77"/>
          <rect id="Прямоугольник_2439" data-name="Прямоугольник 2439" width="0.108" height="19.466" transform="translate(11.737 0)" fill="#396f78"/>
          <rect id="Прямоугольник_2440" data-name="Прямоугольник 2440" width="0.108" height="19.466" transform="translate(11.845 0)" fill="#397079"/>
          <rect id="Прямоугольник_2441" data-name="Прямоугольник 2441" width="0.108" height="19.466" transform="translate(11.954 0)" fill="#3a717a"/>
          <rect id="Прямоугольник_2442" data-name="Прямоугольник 2442" width="0.108" height="19.466" transform="translate(12.062 0)" fill="#3a727b"/>
          <rect id="Прямоугольник_2443" data-name="Прямоугольник 2443" width="0.108" height="19.466" transform="translate(12.17 0)" fill="#3b737c"/>
          <rect id="Прямоугольник_2444" data-name="Прямоугольник 2444" width="0.108" height="19.466" transform="translate(12.278 0)" fill="#3b747d"/>
          <rect id="Прямоугольник_2445" data-name="Прямоугольник 2445" width="0.108" height="19.466" transform="translate(12.387 0)" fill="#3c757e"/>
          <rect id="Прямоугольник_2446" data-name="Прямоугольник 2446" width="0.108" height="19.466" transform="translate(12.495 0)" fill="#3c767f"/>
          <rect id="Прямоугольник_2447" data-name="Прямоугольник 2447" width="0.108" height="19.466" transform="translate(12.603 0)" fill="#3c7780"/>
          <rect id="Прямоугольник_2448" data-name="Прямоугольник 2448" width="0.108" height="19.466" transform="translate(12.712 0)" fill="#3d7881"/>
          <rect id="Прямоугольник_2449" data-name="Прямоугольник 2449" width="0.108" height="19.466" transform="translate(12.82 0)" fill="#3e7982"/>
          <rect id="Прямоугольник_2450" data-name="Прямоугольник 2450" width="0.108" height="19.466" transform="translate(12.928 0)" fill="#3e7a83"/>
          <rect id="Прямоугольник_2451" data-name="Прямоугольник 2451" width="0.108" height="19.466" transform="translate(13.036 0)" fill="#3f7b84"/>
          <rect id="Прямоугольник_2452" data-name="Прямоугольник 2452" width="0.108" height="19.466" transform="translate(13.145 0)" fill="#3f7c85"/>
          <rect id="Прямоугольник_2453" data-name="Прямоугольник 2453" width="0.108" height="19.466" transform="translate(13.253 0)" fill="#3f7d86"/>
          <rect id="Прямоугольник_2454" data-name="Прямоугольник 2454" width="0.108" height="19.466" transform="translate(13.361 0)" fill="#407e87"/>
          <rect id="Прямоугольник_2455" data-name="Прямоугольник 2455" width="0.108" height="19.466" transform="translate(13.47 0)" fill="#417f88"/>
          <rect id="Прямоугольник_2456" data-name="Прямоугольник 2456" width="0.108" height="19.466" transform="translate(13.578 0)" fill="#417f89"/>
          <rect id="Прямоугольник_2457" data-name="Прямоугольник 2457" width="0.108" height="19.466" transform="translate(13.686 0)" fill="#42808a"/>
          <rect id="Прямоугольник_2458" data-name="Прямоугольник 2458" width="0.108" height="19.466" transform="translate(13.794 0)" fill="#42818b"/>
          <rect id="Прямоугольник_2459" data-name="Прямоугольник 2459" width="0.108" height="19.466" transform="translate(13.903 0)" fill="#43828c"/>
          <rect id="Прямоугольник_2460" data-name="Прямоугольник 2460" width="0.108" height="19.466" transform="translate(14.011 0)" fill="#43838d"/>
          <rect id="Прямоугольник_2461" data-name="Прямоугольник 2461" width="0.108" height="19.466" transform="translate(14.119 0)" fill="#44848e"/>
          <rect id="Прямоугольник_2462" data-name="Прямоугольник 2462" width="0.108" height="19.466" transform="translate(14.228 0)" fill="#44858f"/>
          <rect id="Прямоугольник_2463" data-name="Прямоугольник 2463" width="0.108" height="19.466" transform="translate(14.336 0)" fill="#458690"/>
          <rect id="Прямоугольник_2464" data-name="Прямоугольник 2464" width="0.108" height="19.466" transform="translate(14.444 0)" fill="#458791"/>
          <rect id="Прямоугольник_2465" data-name="Прямоугольник 2465" width="0.108" height="19.466" transform="translate(14.553 0)" fill="#468892"/>
          <rect id="Прямоугольник_2466" data-name="Прямоугольник 2466" width="0.108" height="19.466" transform="translate(14.661 0)" fill="#468993"/>
          <rect id="Прямоугольник_2467" data-name="Прямоугольник 2467" width="0.108" height="19.466" transform="translate(14.769 0)" fill="#478a94"/>
          <rect id="Прямоугольник_2468" data-name="Прямоугольник 2468" width="0.108" height="19.466" transform="translate(14.877 0)" fill="#478b95"/>
          <rect id="Прямоугольник_2469" data-name="Прямоугольник 2469" width="0.108" height="19.466" transform="translate(14.986 0)" fill="#488c96"/>
          <rect id="Прямоугольник_2470" data-name="Прямоугольник 2470" width="0.108" height="19.466" transform="translate(15.094 0)" fill="#488d97"/>
          <rect id="Прямоугольник_2471" data-name="Прямоугольник 2471" width="0.108" height="19.466" transform="translate(15.202 0)" fill="#498e98"/>
          <rect id="Прямоугольник_2472" data-name="Прямоугольник 2472" width="0.108" height="19.466" transform="translate(15.311 0)" fill="#498f99"/>
          <rect id="Прямоугольник_2473" data-name="Прямоугольник 2473" width="0.108" height="19.466" transform="translate(15.419 0)" fill="#4a909a"/>
          <rect id="Прямоугольник_2474" data-name="Прямоугольник 2474" width="0.108" height="19.466" transform="translate(15.527 0)" fill="#4a919b"/>
          <rect id="Прямоугольник_2475" data-name="Прямоугольник 2475" width="0.108" height="19.466" transform="translate(15.635 0)" fill="#4b929c"/>
          <rect id="Прямоугольник_2476" data-name="Прямоугольник 2476" width="0.108" height="19.466" transform="translate(15.744 0)" fill="#4b939d"/>
          <rect id="Прямоугольник_2477" data-name="Прямоугольник 2477" width="0.108" height="19.466" transform="translate(15.852 0)" fill="#4c949e"/>
          <rect id="Прямоугольник_2478" data-name="Прямоугольник 2478" width="0.108" height="19.466" transform="translate(15.96 0)" fill="#4c959f"/>
          <rect id="Прямоугольник_2479" data-name="Прямоугольник 2479" width="0.108" height="19.466" transform="translate(16.069 0)" fill="#4d95a0"/>
          <rect id="Прямоугольник_2480" data-name="Прямоугольник 2480" width="0.108" height="19.466" transform="translate(16.177 0)" fill="#4d96a1"/>
          <rect id="Прямоугольник_2481" data-name="Прямоугольник 2481" width="0.108" height="19.466" transform="translate(16.285 0)" fill="#4e97a2"/>
          <rect id="Прямоугольник_2482" data-name="Прямоугольник 2482" width="0.108" height="19.466" transform="translate(16.393 0)" fill="#4e98a3"/>
          <rect id="Прямоугольник_2483" data-name="Прямоугольник 2483" width="0.108" height="19.466" transform="translate(16.502 0)" fill="#4f99a4"/>
          <rect id="Прямоугольник_2484" data-name="Прямоугольник 2484" width="0.108" height="19.466" transform="translate(16.61 0)" fill="#4f9aa5"/>
          <rect id="Прямоугольник_2485" data-name="Прямоугольник 2485" width="0.108" height="19.466" transform="translate(16.718 0)" fill="#509ba6"/>
          <rect id="Прямоугольник_2486" data-name="Прямоугольник 2486" width="0.108" height="19.466" transform="translate(16.827 0)" fill="#509ca7"/>
          <rect id="Прямоугольник_2487" data-name="Прямоугольник 2487" width="0.108" height="19.466" transform="translate(16.935 0)" fill="#519da8"/>
          <rect id="Прямоугольник_2488" data-name="Прямоугольник 2488" width="0.108" height="19.466" transform="translate(17.043 0)" fill="#519ea9"/>
          <rect id="Прямоугольник_2489" data-name="Прямоугольник 2489" width="0.108" height="19.466" transform="translate(17.152 0)" fill="#529faa"/>
          <rect id="Прямоугольник_2490" data-name="Прямоугольник 2490" width="0.108" height="19.466" transform="translate(17.26 0)" fill="#52a0ab"/>
          <rect id="Прямоугольник_2491" data-name="Прямоугольник 2491" width="0.108" height="19.466" transform="translate(17.368 0)" fill="#53a1ac"/>
          <rect id="Прямоугольник_2492" data-name="Прямоугольник 2492" width="0.108" height="19.466" transform="translate(17.476 0)" fill="#53a2ad"/>
          <rect id="Прямоугольник_2493" data-name="Прямоугольник 2493" width="0.108" height="19.466" transform="translate(17.585 0)" fill="#54a3ae"/>
          <rect id="Прямоугольник_2494" data-name="Прямоугольник 2494" width="0.108" height="19.466" transform="translate(17.693 0)" fill="#54a4af"/>
          <rect id="Прямоугольник_2495" data-name="Прямоугольник 2495" width="0.108" height="19.466" transform="translate(17.801 0)" fill="#55a5b0"/>
          <rect id="Прямоугольник_2496" data-name="Прямоугольник 2496" width="0.108" height="19.466" transform="translate(17.91 0)" fill="#55a6b1"/>
          <rect id="Прямоугольник_2497" data-name="Прямоугольник 2497" width="0.108" height="19.466" transform="translate(18.018 0)" fill="#56a7b2"/>
          <rect id="Прямоугольник_2498" data-name="Прямоугольник 2498" width="0.108" height="19.466" transform="translate(18.126 0)" fill="#56a8b3"/>
          <rect id="Прямоугольник_2499" data-name="Прямоугольник 2499" width="0.108" height="19.466" transform="translate(18.234 0)" fill="#57a9b4"/>
          <rect id="Прямоугольник_2500" data-name="Прямоугольник 2500" width="0.108" height="19.466" transform="translate(18.343 0)" fill="#57aab5"/>
          <rect id="Прямоугольник_2501" data-name="Прямоугольник 2501" width="0.108" height="19.466" transform="translate(18.451 0)" fill="#58abb6"/>
          <rect id="Прямоугольник_2502" data-name="Прямоугольник 2502" width="0.108" height="19.466" transform="translate(18.559 0)" fill="#58acb7"/>
          <rect id="Прямоугольник_2503" data-name="Прямоугольник 2503" width="0.108" height="19.466" transform="translate(18.668 0)" fill="#59acb8"/>
          <rect id="Прямоугольник_2504" data-name="Прямоугольник 2504" width="0.108" height="19.466" transform="translate(18.776 0)" fill="#59adb9"/>
          <rect id="Прямоугольник_2505" data-name="Прямоугольник 2505" width="0.108" height="19.466" transform="translate(18.884 0)" fill="#5aaeba"/>
          <rect id="Прямоугольник_2506" data-name="Прямоугольник 2506" width="0.108" height="19.466" transform="translate(18.992 0)" fill="#5aafbb"/>
          <rect id="Прямоугольник_2507" data-name="Прямоугольник 2507" width="0.108" height="19.466" transform="translate(19.101 0)" fill="#5bb0bc"/>
          <rect id="Прямоугольник_2508" data-name="Прямоугольник 2508" width="0.108" height="19.466" transform="translate(19.209 0)" fill="#5bb1bd"/>
          <rect id="Прямоугольник_2509" data-name="Прямоугольник 2509" width="0.108" height="19.466" transform="translate(19.317 0)" fill="#5cb2be"/>
          <rect id="Прямоугольник_2510" data-name="Прямоугольник 2510" width="0.041" height="19.466" transform="translate(19.426 0)" fill="#5cb3bf"/>
        </g>
      </g>
    </g>
    <g id="Сгруппировать_674" data-name="Сгруппировать 674" transform="translate(562.478 230.928)">
      <path id="Контур_3057" data-name="Контур 3057" d="M.006.139,46.494,0l-.006,2L0,2.137Z" transform="translate(0 17.16) rotate(-21.656)" fill="#201600"/>
    </g>
  </g>
</svg>
