<svg xmlns="http://www.w3.org/2000/svg" xmlns:xlink="http://www.w3.org/1999/xlink" width="26" height="31" viewBox="0 0 26 31">
  <defs>
    <clipPath id="clip-path">
      <path id="Контур_4080" data-name="Контур 4080" d="M463.865,474.419v.485H448.252a5.138,5.138,0,0,1-5.194-5.078V453.81a5.055,5.055,0,0,1,2.386-4.273l7.679-4.828a5.3,5.3,0,0,1,5.567-.031l7.934,4.863a5.053,5.053,0,0,1,2.434,4.3v15.981a5.137,5.137,0,0,1-5.193,5.078v-.971a4.159,4.159,0,0,0,4.2-4.108V453.845a4.086,4.086,0,0,0-1.969-3.48l-7.934-4.863a4.283,4.283,0,0,0-4.5.025l-7.679,4.828a4.086,4.086,0,0,0-1.929,3.455v16.016a4.161,4.161,0,0,0,4.2,4.108h15.612Z" transform="translate(-443.058 -443.904)" fill="none"/>
    </clipPath>
  </defs>
  <g id="Сгруппировать_806" data-name="Сгруппировать 806" transform="translate(-443.058 -443.904)">
    <g id="Сгруппировать_802" data-name="Сгруппировать 802" transform="translate(443.058 443.904)">
      <g id="Сгруппировать_801" data-name="Сгруппировать 801">
        <g id="Сгруппировать_800" data-name="Сгруппировать 800" clip-path="url(#clip-path)">
          <path id="Контур_3890" data-name="Контур 3890" d="M469.058,453.048l-26-.541v-8.6h26Z" transform="translate(-443.058 -443.904)" fill="#5eb7c3"/>
          <path id="Контур_3891" data-name="Контур 3891" d="M469.058,453.4l-26-.541v-.095l26,.541Z" transform="translate(-443.058 -444.163)" fill="#5eb7c3"/>
          <path id="Контур_3892" data-name="Контур 3892" d="M469.058,453.5l-26-.541v-.095l26,.541Z" transform="translate(-443.058 -444.165)" fill="#5db6c2"/>
          <path id="Контур_3893" data-name="Контур 3893" d="M469.058,453.6l-26-.541v-.095l26,.541Z" transform="translate(-443.058 -444.168)" fill="#5db5c1"/>
          <path id="Контур_3894" data-name="Контур 3894" d="M469.058,453.7l-26-.541v-.095l26,.541Z" transform="translate(-443.058 -444.171)" fill="#5cb4bf"/>
          <path id="Контур_3895" data-name="Контур 3895" d="M469.058,453.793l-26-.541v-.095l26,.541Z" transform="translate(-443.058 -444.174)" fill="#5cb3be"/>
          <path id="Контур_3896" data-name="Контур 3896" d="M469.058,453.891l-26-.541v-.095l26,.541Z" transform="translate(-443.058 -444.177)" fill="#5bb1bd"/>
          <path id="Контур_3897" data-name="Контур 3897" d="M469.058,453.989l-26-.541v-.095l26,.541Z" transform="translate(-443.058 -444.18)" fill="#5bb0bc"/>
          <path id="Контур_3898" data-name="Контур 3898" d="M469.058,454.087l-26-.541v-.095l26,.541Z" transform="translate(-443.058 -444.183)" fill="#5aafbb"/>
          <path id="Контур_3899" data-name="Контур 3899" d="M469.058,454.184l-26-.541v-.095l26,.541Z" transform="translate(-443.058 -444.185)" fill="#5aaeba"/>
          <path id="Контур_3900" data-name="Контур 3900" d="M469.058,454.282l-26-.541v-.095l26,.541Z" transform="translate(-443.058 -444.188)" fill="#59adb8"/>
          <path id="Контур_3901" data-name="Контур 3901" d="M469.058,454.38l-26-.541v-.095l26,.541Z" transform="translate(-443.058 -444.191)" fill="#59acb7"/>
          <path id="Контур_3902" data-name="Контур 3902" d="M469.058,454.478l-26-.541v-.095l26,.541Z" transform="translate(-443.058 -444.194)" fill="#58abb6"/>
          <path id="Контур_3903" data-name="Контур 3903" d="M469.058,454.576l-26-.541v-.095l26,.541Z" transform="translate(-443.058 -444.197)" fill="#57aab5"/>
          <path id="Контур_3904" data-name="Контур 3904" d="M469.058,454.673l-26-.541v-.095l26,.541Z" transform="translate(-443.058 -444.2)" fill="#57a9b4"/>
          <path id="Контур_3905" data-name="Контур 3905" d="M469.058,454.771l-26-.541v-.095l26,.541Z" transform="translate(-443.058 -444.203)" fill="#56a8b2"/>
          <path id="Контур_3906" data-name="Контур 3906" d="M469.058,454.869l-26-.541v-.095l26,.541Z" transform="translate(-443.058 -444.206)" fill="#56a6b1"/>
          <path id="Контур_3907" data-name="Контур 3907" d="M469.058,454.967l-26-.541v-.095l26,.541Z" transform="translate(-443.058 -444.208)" fill="#55a5b0"/>
          <path id="Контур_3908" data-name="Контур 3908" d="M469.058,455.065l-26-.541v-.095l26,.541Z" transform="translate(-443.058 -444.211)" fill="#55a4af"/>
          <path id="Контур_3909" data-name="Контур 3909" d="M469.058,455.162l-26-.541v-.095l26,.541Z" transform="translate(-443.058 -444.214)" fill="#54a3ae"/>
          <path id="Контур_3910" data-name="Контур 3910" d="M469.058,455.26l-26-.541v-.095l26,.541Z" transform="translate(-443.058 -444.217)" fill="#54a2ad"/>
          <path id="Контур_3911" data-name="Контур 3911" d="M469.058,455.358l-26-.541v-.095l26,.541Z" transform="translate(-443.058 -444.22)" fill="#53a1ab"/>
          <path id="Контур_3912" data-name="Контур 3912" d="M469.058,455.456l-26-.541v-.095l26,.541Z" transform="translate(-443.058 -444.223)" fill="#53a0aa"/>
          <path id="Контур_3913" data-name="Контур 3913" d="M469.058,455.553l-26-.541v-.095l26,.541Z" transform="translate(-443.058 -444.225)" fill="#529fa9"/>
          <path id="Контур_3914" data-name="Контур 3914" d="M469.058,455.651l-26-.541v-.095l26,.541Z" transform="translate(-443.058 -444.228)" fill="#519ea8"/>
          <path id="Контур_3915" data-name="Контур 3915" d="M469.058,455.749l-26-.541v-.095l26,.541Z" transform="translate(-443.058 -444.231)" fill="#519da7"/>
          <path id="Контур_3916" data-name="Контур 3916" d="M469.058,455.847l-26-.541v-.095l26,.541Z" transform="translate(-443.058 -444.234)" fill="#509ca6"/>
          <path id="Контур_3917" data-name="Контур 3917" d="M469.058,455.945l-26-.541v-.095l26,.541Z" transform="translate(-443.058 -444.237)" fill="#509aa5"/>
          <path id="Контур_3918" data-name="Контур 3918" d="M469.058,456.043l-26-.541v-.095l26,.541Z" transform="translate(-443.058 -444.24)" fill="#4f99a3"/>
          <path id="Контур_3919" data-name="Контур 3919" d="M469.058,456.14l-26-.541V455.5l26,.541Z" transform="translate(-443.058 -444.243)" fill="#4f98a2"/>
          <path id="Контур_3920" data-name="Контур 3920" d="M469.058,456.238l-26-.541V455.6l26,.541Z" transform="translate(-443.058 -444.245)" fill="#4e97a1"/>
          <path id="Контур_3921" data-name="Контур 3921" d="M469.058,456.336l-26-.541V455.7l26,.541Z" transform="translate(-443.058 -444.248)" fill="#4e96a0"/>
          <path id="Контур_3922" data-name="Контур 3922" d="M469.058,456.434l-26-.541V455.8l26,.541Z" transform="translate(-443.058 -444.251)" fill="#4d959f"/>
          <path id="Контур_3923" data-name="Контур 3923" d="M469.058,456.531l-26-.541V455.9l26,.541Z" transform="translate(-443.058 -444.254)" fill="#4d949e"/>
          <path id="Контур_3924" data-name="Контур 3924" d="M469.058,456.629l-26-.541v-.095l26,.541Z" transform="translate(-443.058 -444.257)" fill="#4c939c"/>
          <path id="Контур_3925" data-name="Контур 3925" d="M469.058,456.727l-26-.541v-.095l26,.541Z" transform="translate(-443.058 -444.26)" fill="#4c929b"/>
          <path id="Контур_3926" data-name="Контур 3926" d="M469.058,456.825l-26-.541v-.095l26,.541Z" transform="translate(-443.058 -444.263)" fill="#4b919a"/>
          <path id="Контур_3927" data-name="Контур 3927" d="M469.058,456.923l-26-.541v-.095l26,.541Z" transform="translate(-443.058 -444.265)" fill="#4b9099"/>
          <path id="Контур_3928" data-name="Контур 3928" d="M469.058,457.02l-26-.541v-.095l26,.541Z" transform="translate(-443.058 -444.268)" fill="#4a8f98"/>
          <path id="Контур_3929" data-name="Контур 3929" d="M469.058,457.118l-26-.541v-.095l26,.541Z" transform="translate(-443.058 -444.271)" fill="#4a8e97"/>
          <path id="Контур_3930" data-name="Контур 3930" d="M469.058,457.216l-26-.541v-.095l26,.541Z" transform="translate(-443.058 -444.274)" fill="#498c96"/>
          <path id="Контур_3931" data-name="Контур 3931" d="M469.058,457.314l-26-.541v-.095l26,.541Z" transform="translate(-443.058 -444.277)" fill="#488b94"/>
          <path id="Контур_3932" data-name="Контур 3932" d="M469.058,457.412l-26-.541v-.095l26,.541Z" transform="translate(-443.058 -444.28)" fill="#488a93"/>
          <path id="Контур_3933" data-name="Контур 3933" d="M469.058,457.509l-26-.541v-.095l26,.541Z" transform="translate(-443.058 -444.283)" fill="#478992"/>
          <path id="Контур_3934" data-name="Контур 3934" d="M469.058,457.607l-26-.541v-.095l26,.541Z" transform="translate(-443.058 -444.285)" fill="#478891"/>
          <path id="Контур_3935" data-name="Контур 3935" d="M469.058,457.705l-26-.541v-.095l26,.541Z" transform="translate(-443.058 -444.288)" fill="#468790"/>
          <path id="Контур_3936" data-name="Контур 3936" d="M469.058,457.8l-26-.541v-.095l26,.541Z" transform="translate(-443.058 -444.291)" fill="#46868f"/>
          <path id="Контур_3937" data-name="Контур 3937" d="M469.058,457.9l-26-.541v-.095l26,.541Z" transform="translate(-443.058 -444.294)" fill="#45858e"/>
          <path id="Контур_3938" data-name="Контур 3938" d="M469.058,458l-26-.541v-.095l26,.541Z" transform="translate(-443.058 -444.297)" fill="#45848d"/>
          <path id="Контур_3939" data-name="Контур 3939" d="M469.058,458.1l-26-.541v-.095l26,.541Z" transform="translate(-443.058 -444.3)" fill="#44838b"/>
          <path id="Контур_3940" data-name="Контур 3940" d="M469.058,458.194l-26-.541v-.095l26,.541Z" transform="translate(-443.058 -444.303)" fill="#44828a"/>
          <path id="Контур_3941" data-name="Контур 3941" d="M469.058,458.292l-26-.541v-.095l26,.541Z" transform="translate(-443.058 -444.305)" fill="#438189"/>
          <path id="Контур_3942" data-name="Контур 3942" d="M469.058,458.39l-26-.541v-.095l26,.541Z" transform="translate(-443.058 -444.308)" fill="#438088"/>
          <path id="Контур_3943" data-name="Контур 3943" d="M469.058,458.487l-26-.541v-.095l26,.541Z" transform="translate(-443.058 -444.311)" fill="#427f87"/>
          <path id="Контур_3944" data-name="Контур 3944" d="M469.058,458.585l-26-.541v-.095l26,.541Z" transform="translate(-443.058 -444.314)" fill="#427e86"/>
          <path id="Контур_3945" data-name="Контур 3945" d="M469.058,458.683l-26-.541v-.095l26,.541Z" transform="translate(-443.058 -444.317)" fill="#417d85"/>
          <path id="Контур_3946" data-name="Контур 3946" d="M469.058,458.781l-26-.541v-.095l26,.541Z" transform="translate(-443.058 -444.32)" fill="#417c84"/>
          <path id="Контур_3947" data-name="Контур 3947" d="M469.058,458.879l-26-.541v-.095l26,.541Z" transform="translate(-443.058 -444.323)" fill="#407b82"/>
          <path id="Контур_3948" data-name="Контур 3948" d="M469.058,458.976l-26-.541v-.095l26,.541Z" transform="translate(-443.058 -444.325)" fill="#407a81"/>
          <path id="Контур_3949" data-name="Контур 3949" d="M469.058,459.074l-26-.541v-.095l26,.541Z" transform="translate(-443.058 -444.328)" fill="#3f7880"/>
          <path id="Контур_3950" data-name="Контур 3950" d="M469.058,459.172l-26-.541v-.095l26,.541Z" transform="translate(-443.058 -444.331)" fill="#3f777f"/>
          <path id="Контур_3951" data-name="Контур 3951" d="M469.058,459.27l-26-.541v-.095l26,.541Z" transform="translate(-443.058 -444.334)" fill="#3e767e"/>
          <path id="Контур_3952" data-name="Контур 3952" d="M469.058,459.368l-26-.541v-.095l26,.541Z" transform="translate(-443.058 -444.337)" fill="#3e757d"/>
          <path id="Контур_3953" data-name="Контур 3953" d="M469.058,459.465l-26-.541v-.095l26,.541Z" transform="translate(-443.058 -444.34)" fill="#3d747c"/>
          <path id="Контур_3954" data-name="Контур 3954" d="M469.058,459.563l-26-.541v-.095l26,.541Z" transform="translate(-443.058 -444.342)" fill="#3d737b"/>
          <path id="Контур_3955" data-name="Контур 3955" d="M469.058,459.661l-26-.541v-.095l26,.541Z" transform="translate(-443.058 -444.345)" fill="#3c727a"/>
          <path id="Контур_3956" data-name="Контур 3956" d="M469.058,459.759l-26-.541v-.095l26,.541Z" transform="translate(-443.058 -444.348)" fill="#3c7178"/>
          <path id="Контур_3957" data-name="Контур 3957" d="M469.058,459.857l-26-.541v-.095l26,.541Z" transform="translate(-443.058 -444.351)" fill="#3b7077"/>
          <path id="Контур_3958" data-name="Контур 3958" d="M469.058,459.954l-26-.541v-.095l26,.541Z" transform="translate(-443.058 -444.354)" fill="#3a6f76"/>
          <path id="Контур_3959" data-name="Контур 3959" d="M469.058,460.052l-26-.541v-.095l26,.541Z" transform="translate(-443.058 -444.357)" fill="#3a6e75"/>
          <path id="Контур_3960" data-name="Контур 3960" d="M469.058,460.15l-26-.541v-.095l26,.541Z" transform="translate(-443.058 -444.36)" fill="#396d74"/>
          <path id="Контур_3961" data-name="Контур 3961" d="M469.058,460.248l-26-.541v-.095l26,.541Z" transform="translate(-443.058 -444.362)" fill="#396c73"/>
          <path id="Контур_3962" data-name="Контур 3962" d="M469.058,460.346l-26-.541v-.095l26,.541Z" transform="translate(-443.058 -444.365)" fill="#386b72"/>
          <path id="Контур_3963" data-name="Контур 3963" d="M469.058,460.443l-26-.541v-.095l26,.541Z" transform="translate(-443.058 -444.368)" fill="#386a71"/>
          <path id="Контур_3964" data-name="Контур 3964" d="M469.058,460.541l-26-.541v-.095l26,.541Z" transform="translate(-443.058 -444.371)" fill="#376970"/>
          <path id="Контур_3965" data-name="Контур 3965" d="M469.058,460.639l-26-.541V460l26,.541Z" transform="translate(-443.058 -444.374)" fill="#37686f"/>
          <path id="Контур_3966" data-name="Контур 3966" d="M469.058,460.737l-26-.541V460.1l26,.541Z" transform="translate(-443.058 -444.377)" fill="#36676e"/>
          <path id="Контур_3967" data-name="Контур 3967" d="M469.058,460.835l-26-.541V460.2l26,.541Z" transform="translate(-443.058 -444.38)" fill="#36666c"/>
          <path id="Контур_3968" data-name="Контур 3968" d="M469.058,460.932l-26-.541V460.3l26,.541Z" transform="translate(-443.058 -444.382)" fill="#35656b"/>
          <path id="Контур_3969" data-name="Контур 3969" d="M469.058,461.03l-26-.541v-.095l26,.541Z" transform="translate(-443.058 -444.385)" fill="#35646a"/>
          <path id="Контур_3970" data-name="Контур 3970" d="M469.058,461.128l-26-.541v-.095l26,.541Z" transform="translate(-443.058 -444.388)" fill="#346369"/>
          <path id="Контур_3971" data-name="Контур 3971" d="M469.058,461.226l-26-.541v-.095l26,.541Z" transform="translate(-443.058 -444.391)" fill="#346268"/>
          <path id="Контур_3972" data-name="Контур 3972" d="M469.058,461.324l-26-.541v-.095l26,.541Z" transform="translate(-443.058 -444.394)" fill="#336167"/>
          <path id="Контур_3973" data-name="Контур 3973" d="M469.058,461.421l-26-.541v-.095l26,.541Z" transform="translate(-443.058 -444.397)" fill="#336066"/>
          <path id="Контур_3974" data-name="Контур 3974" d="M469.058,461.519l-26-.541v-.095l26,.541Z" transform="translate(-443.058 -444.4)" fill="#325f65"/>
          <path id="Контур_3975" data-name="Контур 3975" d="M469.058,461.617l-26-.541v-.095l26,.541Z" transform="translate(-443.058 -444.402)" fill="#325e64"/>
          <path id="Контур_3976" data-name="Контур 3976" d="M469.058,461.715l-26-.541v-.095l26,.541Z" transform="translate(-443.058 -444.405)" fill="#315d63"/>
          <path id="Контур_3977" data-name="Контур 3977" d="M469.058,461.813l-26-.541v-.095l26,.541Z" transform="translate(-443.058 -444.408)" fill="#315c62"/>
          <path id="Контур_3978" data-name="Контур 3978" d="M469.058,461.91l-26-.541v-.095l26,.541Z" transform="translate(-443.058 -444.411)" fill="#315b61"/>
          <path id="Контур_3979" data-name="Контур 3979" d="M469.058,462.008l-26-.541v-.095l26,.541Z" transform="translate(-443.058 -444.414)" fill="#305a60"/>
          <path id="Контур_3980" data-name="Контур 3980" d="M469.058,462.106l-26-.541v-.095l26,.541Z" transform="translate(-443.058 -444.417)" fill="#30595f"/>
          <path id="Контур_3981" data-name="Контур 3981" d="M469.058,462.2l-26-.541v-.095l26,.541Z" transform="translate(-443.058 -444.42)" fill="#2f585e"/>
          <path id="Контур_3982" data-name="Контур 3982" d="M469.058,462.3l-26-.541v-.095l26,.541Z" transform="translate(-443.058 -444.422)" fill="#2f575c"/>
          <path id="Контур_3983" data-name="Контур 3983" d="M469.058,462.4l-26-.541v-.095l26,.541Z" transform="translate(-443.058 -444.425)" fill="#2e565b"/>
          <path id="Контур_3984" data-name="Контур 3984" d="M469.058,462.5l-26-.541v-.095l26,.541Z" transform="translate(-443.058 -444.428)" fill="#2e555a"/>
          <path id="Контур_3985" data-name="Контур 3985" d="M469.058,462.595l-26-.541v-.095l26,.541Z" transform="translate(-443.058 -444.431)" fill="#2d5459"/>
          <path id="Контур_3986" data-name="Контур 3986" d="M469.058,462.693l-26-.541v-.095l26,.541Z" transform="translate(-443.058 -444.434)" fill="#2d5358"/>
          <path id="Контур_3987" data-name="Контур 3987" d="M469.058,462.791l-26-.541v-.095l26,.541Z" transform="translate(-443.058 -444.437)" fill="#2c5257"/>
          <path id="Контур_3988" data-name="Контур 3988" d="M469.058,462.888l-26-.541v-.095l26,.541Z" transform="translate(-443.058 -444.44)" fill="#2c5156"/>
          <path id="Контур_3989" data-name="Контур 3989" d="M469.058,462.986l-26-.541v-.095l26,.541Z" transform="translate(-443.058 -444.442)" fill="#2b5055"/>
          <path id="Контур_3990" data-name="Контур 3990" d="M469.058,463.084l-26-.541v-.095l26,.541Z" transform="translate(-443.058 -444.445)" fill="#2b4f54"/>
          <path id="Контур_3991" data-name="Контур 3991" d="M469.058,463.182l-26-.541v-.095l26,.541Z" transform="translate(-443.058 -444.448)" fill="#2a4e53"/>
          <path id="Контур_3992" data-name="Контур 3992" d="M469.058,463.28l-26-.541v-.095l26,.541Z" transform="translate(-443.058 -444.451)" fill="#2a4d52"/>
          <path id="Контур_3993" data-name="Контур 3993" d="M469.058,463.377l-26-.541v-.095l26,.541Z" transform="translate(-443.058 -444.454)" fill="#294c51"/>
          <path id="Контур_3994" data-name="Контур 3994" d="M469.058,463.475l-26-.541v-.095l26,.541Z" transform="translate(-443.058 -444.457)" fill="#294b50"/>
          <path id="Контур_3995" data-name="Контур 3995" d="M469.058,463.573l-26-.541v-.095l26,.541Z" transform="translate(-443.058 -444.46)" fill="#284a4f"/>
          <path id="Контур_3996" data-name="Контур 3996" d="M469.058,463.671l-26-.541v-.095l26,.541Z" transform="translate(-443.058 -444.462)" fill="#28494e"/>
          <path id="Контур_3997" data-name="Контур 3997" d="M469.058,463.768l-26-.541v-.095l26,.541Z" transform="translate(-443.058 -444.465)" fill="#27484d"/>
          <path id="Контур_3998" data-name="Контур 3998" d="M469.058,463.866l-26-.541v-.095l26,.541Z" transform="translate(-443.058 -444.468)" fill="#27484c"/>
          <path id="Контур_3999" data-name="Контур 3999" d="M469.058,463.964l-26-.541v-.095l26,.541Z" transform="translate(-443.058 -444.471)" fill="#26474b"/>
          <path id="Контур_4000" data-name="Контур 4000" d="M469.058,464.062l-26-.541v-.095l26,.541Z" transform="translate(-443.058 -444.474)" fill="#26464a"/>
          <path id="Контур_4001" data-name="Контур 4001" d="M469.058,464.16l-26-.541v-.095l26,.541Z" transform="translate(-443.058 -444.477)" fill="#254549"/>
          <path id="Контур_4002" data-name="Контур 4002" d="M469.058,464.257l-26-.541v-.095l26,.541Z" transform="translate(-443.058 -444.479)" fill="#254448"/>
          <path id="Контур_4003" data-name="Контур 4003" d="M469.058,464.355l-26-.541v-.095l26,.541Z" transform="translate(-443.058 -444.482)" fill="#254347"/>
          <path id="Контур_4004" data-name="Контур 4004" d="M469.058,464.453l-26-.541v-.095l26,.541Z" transform="translate(-443.058 -444.485)" fill="#244246"/>
          <path id="Контур_4005" data-name="Контур 4005" d="M469.058,464.551l-26-.541v-.095l26,.541Z" transform="translate(-443.058 -444.488)" fill="#244145"/>
          <path id="Контур_4006" data-name="Контур 4006" d="M469.058,464.649l-26-.541v-.095l26,.541Z" transform="translate(-443.058 -444.491)" fill="#234044"/>
          <path id="Контур_4007" data-name="Контур 4007" d="M469.058,464.746l-26-.541v-.095l26,.541Z" transform="translate(-443.058 -444.494)" fill="#233f43"/>
          <path id="Контур_4008" data-name="Контур 4008" d="M469.058,464.844l-26-.541v-.095l26,.541Z" transform="translate(-443.058 -444.497)" fill="#223e42"/>
          <path id="Контур_4009" data-name="Контур 4009" d="M469.058,464.942l-26-.541v-.095l26,.541Z" transform="translate(-443.058 -444.5)" fill="#223d41"/>
          <path id="Контур_4010" data-name="Контур 4010" d="M469.058,465.04l-26-.541V464.4l26,.541Z" transform="translate(-443.058 -444.502)" fill="#213c40"/>
          <path id="Контур_4011" data-name="Контур 4011" d="M469.058,465.138l-26-.541V464.5l26,.541Z" transform="translate(-443.058 -444.505)" fill="#213b3f"/>
          <path id="Контур_4012" data-name="Контур 4012" d="M469.058,465.235l-26-.541V464.6l26,.541Z" transform="translate(-443.058 -444.508)" fill="#203a3e"/>
          <path id="Контур_4013" data-name="Контур 4013" d="M469.058,465.333l-26-.541V464.7l26,.541Z" transform="translate(-443.058 -444.511)" fill="#20393d"/>
          <path id="Контур_4014" data-name="Контур 4014" d="M469.058,465.431l-26-.541V464.8l26,.541Z" transform="translate(-443.058 -444.514)" fill="#1f393c"/>
          <path id="Контур_4015" data-name="Контур 4015" d="M469.058,465.529l-26-.541v-.095l26,.541Z" transform="translate(-443.058 -444.517)" fill="#1f383b"/>
          <path id="Контур_4016" data-name="Контур 4016" d="M469.058,465.627l-26-.541v-.095l26,.541Z" transform="translate(-443.058 -444.52)" fill="#1f373a"/>
          <path id="Контур_4017" data-name="Контур 4017" d="M469.058,465.724l-26-.541v-.095l26,.541Z" transform="translate(-443.058 -444.522)" fill="#1e3639"/>
          <path id="Контур_4018" data-name="Контур 4018" d="M469.058,465.822l-26-.541v-.095l26,.541Z" transform="translate(-443.058 -444.525)" fill="#1e3538"/>
          <path id="Контур_4019" data-name="Контур 4019" d="M469.058,465.92l-26-.541v-.095l26,.541Z" transform="translate(-443.058 -444.528)" fill="#1d3437"/>
          <path id="Контур_4020" data-name="Контур 4020" d="M469.058,466.018l-26-.541v-.095l26,.541Z" transform="translate(-443.058 -444.531)" fill="#1d3336"/>
          <path id="Контур_4021" data-name="Контур 4021" d="M469.058,466.116l-26-.541v-.095l26,.541Z" transform="translate(-443.058 -444.534)" fill="#1c3235"/>
          <path id="Контур_4022" data-name="Контур 4022" d="M469.058,466.213l-26-.541v-.095l26,.541Z" transform="translate(-443.058 -444.537)" fill="#1c3134"/>
          <path id="Контур_4023" data-name="Контур 4023" d="M469.058,466.311l-26-.541v-.095l26,.541Z" transform="translate(-443.058 -444.539)" fill="#1b3033"/>
          <path id="Контур_4024" data-name="Контур 4024" d="M469.058,466.409l-26-.541v-.095l26,.541Z" transform="translate(-443.058 -444.542)" fill="#1b3032"/>
          <path id="Контур_4025" data-name="Контур 4025" d="M469.058,466.507l-26-.541v-.095l26,.541Z" transform="translate(-443.058 -444.545)" fill="#1b2f31"/>
          <path id="Контур_4026" data-name="Контур 4026" d="M469.058,466.6l-26-.541v-.095l26,.541Z" transform="translate(-443.058 -444.548)" fill="#1a2e30"/>
          <path id="Контур_4027" data-name="Контур 4027" d="M469.058,466.7l-26-.541v-.095l26,.541Z" transform="translate(-443.058 -444.551)" fill="#1a2d2f"/>
          <path id="Контур_4028" data-name="Контур 4028" d="M469.058,466.8l-26-.541v-.095l26,.541Z" transform="translate(-443.058 -444.554)" fill="#192c2f"/>
          <path id="Контур_4029" data-name="Контур 4029" d="M469.058,466.9l-26-.541v-.095l26,.541Z" transform="translate(-443.058 -444.557)" fill="#192b2e"/>
          <path id="Контур_4030" data-name="Контур 4030" d="M469.058,467l-26-.541v-.095l26,.541Z" transform="translate(-443.058 -444.559)" fill="#182a2d"/>
          <path id="Контур_4031" data-name="Контур 4031" d="M469.058,467.094l-26-.541v-.095l26,.541Z" transform="translate(-443.058 -444.562)" fill="#18292c"/>
          <path id="Контур_4032" data-name="Контур 4032" d="M469.058,467.191l-26-.541v-.095l26,.541Z" transform="translate(-443.058 -444.565)" fill="#18292b"/>
          <path id="Контур_4033" data-name="Контур 4033" d="M469.058,467.289l-26-.541v-.095l26,.541Z" transform="translate(-443.058 -444.568)" fill="#17282a"/>
          <path id="Контур_4034" data-name="Контур 4034" d="M469.058,467.387l-26-.541v-.095l26,.541Z" transform="translate(-443.058 -444.571)" fill="#172729"/>
          <path id="Контур_4035" data-name="Контур 4035" d="M469.058,467.485l-26-.541v-.095l26,.541Z" transform="translate(-443.058 -444.574)" fill="#162628"/>
          <path id="Контур_4036" data-name="Контур 4036" d="M469.058,467.583l-26-.541v-.095l26,.541Z" transform="translate(-443.058 -444.577)" fill="#162527"/>
          <path id="Контур_4037" data-name="Контур 4037" d="M469.058,467.68l-26-.541v-.095l26,.541Z" transform="translate(-443.058 -444.579)" fill="#152426"/>
          <path id="Контур_4038" data-name="Контур 4038" d="M469.058,467.778l-26-.541v-.095l26,.541Z" transform="translate(-443.058 -444.582)" fill="#152325"/>
          <path id="Контур_4039" data-name="Контур 4039" d="M469.058,467.876l-26-.541v-.095l26,.541Z" transform="translate(-443.058 -444.585)" fill="#152324"/>
          <path id="Контур_4040" data-name="Контур 4040" d="M469.058,467.974l-26-.541v-.095l26,.541Z" transform="translate(-443.058 -444.588)" fill="#142224"/>
          <path id="Контур_4041" data-name="Контур 4041" d="M469.058,468.072l-26-.541v-.095l26,.541Z" transform="translate(-443.058 -444.591)" fill="#142123"/>
          <path id="Контур_4042" data-name="Контур 4042" d="M469.058,468.169l-26-.541v-.095l26,.541Z" transform="translate(-443.058 -444.594)" fill="#132022"/>
          <path id="Контур_4043" data-name="Контур 4043" d="M469.058,468.267l-26-.541v-.095l26,.541Z" transform="translate(-443.058 -444.597)" fill="#131f21"/>
          <path id="Контур_4044" data-name="Контур 4044" d="M469.058,468.365l-26-.541v-.095l26,.541Z" transform="translate(-443.058 -444.599)" fill="#131e20"/>
          <path id="Контур_4045" data-name="Контур 4045" d="M469.058,468.463l-26-.541v-.095l26,.541Z" transform="translate(-443.058 -444.602)" fill="#121e1f"/>
          <path id="Контур_4046" data-name="Контур 4046" d="M469.058,468.561l-26-.541v-.095l26,.541Z" transform="translate(-443.058 -444.605)" fill="#121d1e"/>
          <path id="Контур_4047" data-name="Контур 4047" d="M469.058,468.658l-26-.541v-.095l26,.541Z" transform="translate(-443.058 -444.608)" fill="#111c1d"/>
          <path id="Контур_4048" data-name="Контур 4048" d="M469.058,468.756l-26-.541v-.095l26,.541Z" transform="translate(-443.058 -444.611)" fill="#111b1d"/>
          <path id="Контур_4049" data-name="Контур 4049" d="M469.058,468.854l-26-.541v-.095l26,.541Z" transform="translate(-443.058 -444.614)" fill="#111a1c"/>
          <path id="Контур_4050" data-name="Контур 4050" d="M469.058,468.952l-26-.541v-.095l26,.541Z" transform="translate(-443.058 -444.617)" fill="#101a1b"/>
          <path id="Контур_4051" data-name="Контур 4051" d="M469.058,469.05l-26-.541v-.095l26,.541Z" transform="translate(-443.058 -444.619)" fill="#10191a"/>
          <path id="Контур_4052" data-name="Контур 4052" d="M469.058,469.147l-26-.541v-.095l26,.541Z" transform="translate(-443.058 -444.622)" fill="#0f1819"/>
          <path id="Контур_4053" data-name="Контур 4053" d="M469.058,469.245l-26-.541v-.095l26,.541Z" transform="translate(-443.058 -444.625)" fill="#0f1718"/>
          <path id="Контур_4054" data-name="Контур 4054" d="M469.058,469.343l-26-.541v-.095l26,.541Z" transform="translate(-443.058 -444.628)" fill="#0f1718"/>
          <path id="Контур_4055" data-name="Контур 4055" d="M469.058,469.441l-26-.541V468.8l26,.541Z" transform="translate(-443.058 -444.631)" fill="#0e1617"/>
          <path id="Контур_4056" data-name="Контур 4056" d="M469.058,469.539l-26-.541V468.9l26,.541Z" transform="translate(-443.058 -444.634)" fill="#0e1516"/>
          <path id="Контур_4057" data-name="Контур 4057" d="M469.058,469.636l-26-.541V469l26,.541Z" transform="translate(-443.058 -444.636)" fill="#0e1415"/>
          <path id="Контур_4058" data-name="Контур 4058" d="M469.058,469.734l-26-.541V469.1l26,.541Z" transform="translate(-443.058 -444.639)" fill="#0d1414"/>
          <path id="Контур_4059" data-name="Контур 4059" d="M469.058,469.832l-26-.541V469.2l26,.541Z" transform="translate(-443.058 -444.642)" fill="#0d1314"/>
          <path id="Контур_4060" data-name="Контур 4060" d="M469.058,469.93l-26-.541v-.095l26,.541Z" transform="translate(-443.058 -444.645)" fill="#0c1213"/>
          <path id="Контур_4061" data-name="Контур 4061" d="M469.058,470.028l-26-.541v-.095l26,.541Z" transform="translate(-443.058 -444.648)" fill="#0c1112"/>
          <path id="Контур_4062" data-name="Контур 4062" d="M469.058,470.125l-26-.541v-.095l26,.541Z" transform="translate(-443.058 -444.651)" fill="#0c1111"/>
          <path id="Контур_4063" data-name="Контур 4063" d="M469.058,470.223l-26-.541v-.095l26,.541Z" transform="translate(-443.058 -444.654)" fill="#0b1011"/>
          <path id="Контур_4064" data-name="Контур 4064" d="M469.058,470.321l-26-.541v-.095l26,.541Z" transform="translate(-443.058 -444.656)" fill="#0b0f10"/>
          <path id="Контур_4065" data-name="Контур 4065" d="M469.058,470.419l-26-.541v-.095l26,.541Z" transform="translate(-443.058 -444.659)" fill="#0b0f0f"/>
          <path id="Контур_4066" data-name="Контур 4066" d="M469.058,470.517l-26-.541v-.095l26,.541Z" transform="translate(-443.058 -444.662)" fill="#0a0e0e"/>
          <path id="Контур_4067" data-name="Контур 4067" d="M469.058,470.614l-26-.541v-.095l26,.541Z" transform="translate(-443.058 -444.665)" fill="#0a0d0e"/>
          <path id="Контур_4068" data-name="Контур 4068" d="M469.058,470.712l-26-.541v-.095l26,.541Z" transform="translate(-443.058 -444.668)" fill="#0a0d0d"/>
          <path id="Контур_4069" data-name="Контур 4069" d="M469.058,470.81l-26-.541v-.095l26,.541Z" transform="translate(-443.058 -444.671)" fill="#090c0c"/>
          <path id="Контур_4070" data-name="Контур 4070" d="M469.058,470.908l-26-.541v-.095l26,.541Z" transform="translate(-443.058 -444.674)" fill="#090b0c"/>
          <path id="Контур_4071" data-name="Контур 4071" d="M469.058,471.005l-26-.541v-.095l26,.541Z" transform="translate(-443.058 -444.676)" fill="#090b0b"/>
          <path id="Контур_4072" data-name="Контур 4072" d="M469.058,471.1l-26-.541v-.095l26,.541Z" transform="translate(-443.058 -444.679)" fill="#080a0a"/>
          <path id="Контур_4073" data-name="Контур 4073" d="M469.058,471.2l-26-.541v-.095l26,.541Z" transform="translate(-443.058 -444.682)" fill="#08090a"/>
          <path id="Контур_4074" data-name="Контур 4074" d="M469.058,471.3l-26-.541v-.095l26,.541Z" transform="translate(-443.058 -444.685)" fill="#080909"/>
          <path id="Контур_4075" data-name="Контур 4075" d="M469.058,471.4l-26-.541v-.095l26,.541Z" transform="translate(-443.058 -444.688)" fill="#080808"/>
          <path id="Контур_4076" data-name="Контур 4076" d="M469.058,471.494l-26-.541v-.095l26,.541Z" transform="translate(-443.058 -444.691)" fill="#070808"/>
          <path id="Контур_4077" data-name="Контур 4077" d="M469.058,471.592l-26-.541v-.095l26,.541Z" transform="translate(-443.058 -444.694)" fill="#070707"/>
          <path id="Контур_4078" data-name="Контур 4078" d="M469.058,471.69l-26-.541v-.095l26,.541Z" transform="translate(-443.058 -444.696)" fill="#070707"/>
          <path id="Контур_4079" data-name="Контур 4079" d="M443.058,471.152l26,.541V475.7h-26Z" transform="translate(-443.058 -444.699)" fill="#070707"/>
        </g>
      </g>
    </g>
    <g id="Сгруппировать_803" data-name="Сгруппировать 803" transform="translate(450.809 455.582)">
      <rect id="Прямоугольник_5832" data-name="Прямоугольник 5832" width="2.399" height="2.398" fill="#070707"/>
    </g>
    <g id="Сгруппировать_804" data-name="Сгруппировать 804" transform="translate(458.91 464.701)">
      <rect id="Прямоугольник_5833" data-name="Прямоугольник 5833" width="2.398" height="2.398" fill="#070707"/>
    </g>
    <g id="Сгруппировать_805" data-name="Сгруппировать 805" transform="translate(448.923 453.309)">
      <rect id="Прямоугольник_5834" data-name="Прямоугольник 5834" width="19.425" height="2" transform="translate(0 14.642) rotate(-48.919)" fill="#201600"/>
    </g>
  </g>
</svg>
