<svg xmlns="http://www.w3.org/2000/svg" xmlns:xlink="http://www.w3.org/1999/xlink" width="32" height="32" viewBox="0 0 32 32">
  <defs>
    <clipPath id="clip-path">
      <path id="Контур_2489" data-name="Контур 2489" d="M510.346,357.164l.033,1.738a14.263,14.263,0,1,1,.9,28.511l.075,1.736a16,16,0,0,0-.7-31.988l-.3,0" transform="translate(-510.346 -357.161)" fill="none"/>
    </clipPath>
    <clipPath id="clip-path-2">
      <path id="Контур_2681" data-name="Контур 2681" d="M0,0,33.865.064l.039,20.85L.039,20.85Z" transform="translate(0 33.574) rotate(-82.596)" fill="none"/>
    </clipPath>
    <clipPath id="clip-path-3">
      <path id="Контур_2680" data-name="Контур 2680" d="M494.417,373.672c.28,8.7,8.075,15.643,16.9,15.487l-.033-1.737c-7.868.139-14.858-6.05-15.108-13.8s6.34-14.37,14.218-14.707l-.076-1.736c-8.839.379-16.186,7.785-15.9,16.5" transform="translate(-494.409 -357.173)" fill="none"/>
    </clipPath>
    <clipPath id="clip-path-4">
      <path id="Контур_2682" data-name="Контур 2682" d="M0,0,21.814.047l.074,34.3L.074,34.3Z" transform="matrix(0.989, -0.148, 0.148, 0.989, 0, 3.181)" fill="none"/>
    </clipPath>
  </defs>
  <g id="Сгруппировать_639" data-name="Сгруппировать 639" transform="translate(-494.409 -357.161)">
    <g id="Сгруппировать_627" data-name="Сгруппировать 627" transform="translate(509.137 368.583)">
      <rect id="Прямоугольник_1955" data-name="Прямоугольник 1955" width="2" height="13.361" transform="matrix(0.999, -0.032, 0.032, 0.999, 0, 0.064)" fill="#070707"/>
    </g>
    <g id="Сгруппировать_628" data-name="Сгруппировать 628" transform="translate(509.108 365.586)">
      <rect id="Прямоугольник_1956" data-name="Прямоугольник 1956" width="1.868" height="1.868" transform="translate(0 0.059) rotate(-1.81)" fill="#070707"/>
    </g>
    <g id="Сгруппировать_633" data-name="Сгруппировать 633" transform="translate(509.871 357.161)">
      <g id="Сгруппировать_632" data-name="Сгруппировать 632" clip-path="url(#clip-path)">
        <g id="Сгруппировать_631" data-name="Сгруппировать 631" transform="translate(-4.148 -2.117)">
          <g id="Сгруппировать_630" data-name="Сгруппировать 630" transform="translate(0 0)">
            <g id="Сгруппировать_629" data-name="Сгруппировать 629" clip-path="url(#clip-path-2)">
              <path id="Контур_2299" data-name="Контур 2299" d="M531.306,360.374,506.2,357.159v-2.146h25.109Z" transform="translate(-506.198 -355.013)" fill="#070707"/>
              <path id="Контур_2300" data-name="Контур 2300" d="M531.306,360.561,506.2,357.346v-.156l25.109,3.215Z" transform="translate(-506.198 -355.044)" fill="#070707"/>
              <path id="Контур_2301" data-name="Контур 2301" d="M531.306,360.719,506.2,357.5v-.155l25.109,3.215Z" transform="translate(-506.198 -355.047)" fill="#070707"/>
              <path id="Контур_2302" data-name="Контур 2302" d="M531.306,360.877,506.2,357.662v-.156l25.109,3.215Z" transform="translate(-506.198 -355.049)" fill="#070707"/>
              <path id="Контур_2303" data-name="Контур 2303" d="M531.306,361.035,506.2,357.819v-.155l25.109,3.215Z" transform="translate(-506.198 -355.051)" fill="#070707"/>
              <path id="Контур_2304" data-name="Контур 2304" d="M531.306,361.192,506.2,357.977v-.156l25.109,3.215Z" transform="translate(-506.198 -355.054)" fill="#070707"/>
              <path id="Контур_2305" data-name="Контур 2305" d="M531.306,361.35,506.2,358.135v-.156l25.109,3.215Z" transform="translate(-506.198 -355.056)" fill="#070707"/>
              <path id="Контур_2306" data-name="Контур 2306" d="M531.306,361.508,506.2,358.293v-.155l25.109,3.215Z" transform="translate(-506.198 -355.058)" fill="#070707"/>
              <path id="Контур_2307" data-name="Контур 2307" d="M531.306,361.666,506.2,358.451V358.3l25.109,3.215Z" transform="translate(-506.198 -355.061)" fill="#070707"/>
              <path id="Контур_2308" data-name="Контур 2308" d="M531.306,361.824,506.2,358.609v-.156l25.109,3.215Z" transform="translate(-506.198 -355.063)" fill="#070707"/>
              <path id="Контур_2309" data-name="Контур 2309" d="M531.306,361.982,506.2,358.766v-.156l25.109,3.215Z" transform="translate(-506.198 -355.065)" fill="#070707"/>
              <path id="Контур_2310" data-name="Контур 2310" d="M531.306,362.139,506.2,358.924v-.156l25.109,3.215Z" transform="translate(-506.198 -355.067)" fill="#070707"/>
              <path id="Контур_2311" data-name="Контур 2311" d="M531.306,362.3,506.2,359.082v-.156l25.109,3.215Z" transform="translate(-506.198 -355.07)" fill="#070707"/>
              <path id="Контур_2312" data-name="Контур 2312" d="M531.306,362.455,506.2,359.24v-.155l25.109,3.215Z" transform="translate(-506.198 -355.072)" fill="#070707"/>
              <path id="Контур_2313" data-name="Контур 2313" d="M531.306,362.613,506.2,359.4v-.156l25.109,3.215Z" transform="translate(-506.198 -355.074)" fill="#070707"/>
              <path id="Контур_2314" data-name="Контур 2314" d="M531.306,362.771,506.2,359.555V359.4l25.109,3.215Z" transform="translate(-506.198 -355.077)" fill="#070708"/>
              <path id="Контур_2315" data-name="Контур 2315" d="M531.306,362.928,506.2,359.713v-.155l25.109,3.215Z" transform="translate(-506.198 -355.079)" fill="#070808"/>
              <path id="Контур_2316" data-name="Контур 2316" d="M531.306,363.086,506.2,359.871v-.156l25.109,3.215Z" transform="translate(-506.198 -355.081)" fill="#070808"/>
              <path id="Контур_2317" data-name="Контур 2317" d="M531.306,363.244,506.2,360.029v-.155l25.109,3.215Z" transform="translate(-506.198 -355.084)" fill="#070808"/>
              <path id="Контур_2318" data-name="Контур 2318" d="M531.306,363.4,506.2,360.187v-.156l25.109,3.215Z" transform="translate(-506.198 -355.086)" fill="#070808"/>
              <path id="Контур_2319" data-name="Контур 2319" d="M531.306,363.56,506.2,360.344v-.155l25.109,3.215Z" transform="translate(-506.198 -355.088)" fill="#070808"/>
              <path id="Контур_2320" data-name="Контур 2320" d="M531.306,363.718,506.2,360.5v-.156l25.109,3.215Z" transform="translate(-506.198 -355.09)" fill="#080808"/>
              <path id="Контур_2321" data-name="Контур 2321" d="M531.306,363.875,506.2,360.66V360.5l25.109,3.215Z" transform="translate(-506.198 -355.093)" fill="#080808"/>
              <path id="Контур_2322" data-name="Контур 2322" d="M531.306,364.033,506.2,360.818v-.156l25.109,3.215Z" transform="translate(-506.198 -355.095)" fill="#080808"/>
              <path id="Контур_2323" data-name="Контур 2323" d="M531.306,364.191,506.2,360.976v-.156l25.109,3.215Z" transform="translate(-506.198 -355.097)" fill="#080809"/>
              <path id="Контур_2324" data-name="Контур 2324" d="M531.306,364.349,506.2,361.134v-.156l25.109,3.215Z" transform="translate(-506.198 -355.1)" fill="#080909"/>
              <path id="Контур_2325" data-name="Контур 2325" d="M531.306,364.507,506.2,361.291v-.156l25.109,3.215Z" transform="translate(-506.198 -355.102)" fill="#080909"/>
              <path id="Контур_2326" data-name="Контур 2326" d="M531.306,364.664,506.2,361.449v-.156l25.109,3.215Z" transform="translate(-506.198 -355.104)" fill="#080909"/>
              <path id="Контур_2327" data-name="Контур 2327" d="M531.306,364.822,506.2,361.607v-.156l25.109,3.215Z" transform="translate(-506.198 -355.107)" fill="#080909"/>
              <path id="Контур_2328" data-name="Контур 2328" d="M531.306,364.98,506.2,361.765v-.155l25.109,3.215Z" transform="translate(-506.198 -355.109)" fill="#08090a"/>
              <path id="Контур_2329" data-name="Контур 2329" d="M531.306,365.138,506.2,361.923v-.156l25.109,3.215Z" transform="translate(-506.198 -355.111)" fill="#080a0a"/>
              <path id="Контур_2330" data-name="Контур 2330" d="M531.306,365.3,506.2,362.08v-.155l25.109,3.215Z" transform="translate(-506.198 -355.113)" fill="#080a0a"/>
              <path id="Контур_2331" data-name="Контур 2331" d="M531.306,365.454,506.2,362.238v-.156l25.109,3.215Z" transform="translate(-506.198 -355.116)" fill="#080a0a"/>
              <path id="Контур_2332" data-name="Контур 2332" d="M531.306,365.611,506.2,362.4v-.156l25.109,3.215Z" transform="translate(-506.198 -355.118)" fill="#090a0a"/>
              <path id="Контур_2333" data-name="Контур 2333" d="M531.306,365.769,506.2,362.554V362.4l25.109,3.215Z" transform="translate(-506.198 -355.12)" fill="#090a0b"/>
              <path id="Контур_2334" data-name="Контур 2334" d="M531.306,365.927,506.2,362.712v-.156l25.109,3.215Z" transform="translate(-506.198 -355.123)" fill="#090b0b"/>
              <path id="Контур_2335" data-name="Контур 2335" d="M531.306,366.085,506.2,362.87v-.155l25.109,3.215Z" transform="translate(-506.198 -355.125)" fill="#090b0b"/>
              <path id="Контур_2336" data-name="Контур 2336" d="M531.306,366.243,506.2,363.027v-.156l25.109,3.215Z" transform="translate(-506.198 -355.127)" fill="#090b0b"/>
              <path id="Контур_2337" data-name="Контур 2337" d="M531.306,366.4,506.2,363.185v-.156l25.109,3.215Z" transform="translate(-506.198 -355.13)" fill="#090b0c"/>
              <path id="Контур_2338" data-name="Контур 2338" d="M531.306,366.558,506.2,363.343v-.156l25.109,3.215Z" transform="translate(-506.198 -355.132)" fill="#090c0c"/>
              <path id="Контур_2339" data-name="Контур 2339" d="M531.306,366.716,506.2,363.5v-.155l25.109,3.215Z" transform="translate(-506.198 -355.134)" fill="#090c0c"/>
              <path id="Контур_2340" data-name="Контур 2340" d="M531.306,366.874,506.2,363.659V363.5l25.109,3.215Z" transform="translate(-506.198 -355.137)" fill="#0a0c0d"/>
              <path id="Контур_2341" data-name="Контур 2341" d="M531.306,367.032,506.2,363.816v-.155l25.109,3.215Z" transform="translate(-506.198 -355.139)" fill="#0a0d0d"/>
              <path id="Контур_2342" data-name="Контур 2342" d="M531.306,367.19,506.2,363.974v-.156l25.109,3.215Z" transform="translate(-506.198 -355.141)" fill="#0a0d0d"/>
              <path id="Контур_2343" data-name="Контур 2343" d="M531.306,367.347,506.2,364.132v-.156l25.109,3.215Z" transform="translate(-506.198 -355.143)" fill="#0a0d0e"/>
              <path id="Контур_2344" data-name="Контур 2344" d="M531.306,367.505,506.2,364.29v-.155l25.109,3.215Z" transform="translate(-506.198 -355.146)" fill="#0a0e0e"/>
              <path id="Контур_2345" data-name="Контур 2345" d="M531.306,367.663,506.2,364.448v-.156l25.109,3.215Z" transform="translate(-506.198 -355.148)" fill="#0a0e0e"/>
              <path id="Контур_2346" data-name="Контур 2346" d="M531.306,367.821,506.2,364.606v-.155l25.109,3.215Z" transform="translate(-506.198 -355.15)" fill="#0b0e0f"/>
              <path id="Контур_2347" data-name="Контур 2347" d="M531.306,367.979,506.2,364.763v-.156l25.109,3.215Z" transform="translate(-506.198 -355.153)" fill="#0b0f0f"/>
              <path id="Контур_2348" data-name="Контур 2348" d="M531.306,368.136,506.2,364.921v-.156l25.109,3.215Z" transform="translate(-506.198 -355.155)" fill="#0b0f10"/>
              <path id="Контур_2349" data-name="Контур 2349" d="M531.306,368.294,506.2,365.079v-.156l25.109,3.215Z" transform="translate(-506.198 -355.157)" fill="#0b0f10"/>
              <path id="Контур_2350" data-name="Контур 2350" d="M531.306,368.452,506.2,365.237v-.156l25.109,3.215Z" transform="translate(-506.198 -355.16)" fill="#0b1010"/>
              <path id="Контур_2351" data-name="Контур 2351" d="M531.306,368.61,506.2,365.395v-.156l25.109,3.215Z" transform="translate(-506.198 -355.162)" fill="#0c1011"/>
              <path id="Контур_2352" data-name="Контур 2352" d="M531.306,368.768,506.2,365.552V365.4l25.109,3.215Z" transform="translate(-506.198 -355.164)" fill="#0c1111"/>
              <path id="Контур_2353" data-name="Контур 2353" d="M531.306,368.926,506.2,365.71v-.156l25.109,3.215Z" transform="translate(-506.198 -355.166)" fill="#0c1112"/>
              <path id="Контур_2354" data-name="Контур 2354" d="M531.306,369.083,506.2,365.868v-.156l25.109,3.215Z" transform="translate(-506.198 -355.169)" fill="#0c1112"/>
              <path id="Контур_2355" data-name="Контур 2355" d="M531.306,369.241,506.2,366.026v-.155l25.109,3.215Z" transform="translate(-506.198 -355.171)" fill="#0c1213"/>
              <path id="Контур_2356" data-name="Контур 2356" d="M531.306,369.4,506.2,366.184v-.156l25.109,3.215Z" transform="translate(-506.198 -355.173)" fill="#0d1213"/>
              <path id="Контур_2357" data-name="Контур 2357" d="M531.306,369.557,506.2,366.342v-.155l25.109,3.215Z" transform="translate(-506.198 -355.176)" fill="#0d1314"/>
              <path id="Контур_2358" data-name="Контур 2358" d="M531.306,369.715,506.2,366.5v-.156l25.109,3.215Z" transform="translate(-506.198 -355.178)" fill="#0d1314"/>
              <path id="Контур_2359" data-name="Контур 2359" d="M531.306,369.872,506.2,366.657V366.5l25.109,3.215Z" transform="translate(-506.198 -355.18)" fill="#0d1415"/>
              <path id="Контур_2360" data-name="Контур 2360" d="M531.306,370.03,506.2,366.815v-.156l25.109,3.215Z" transform="translate(-506.198 -355.183)" fill="#0e1415"/>
              <path id="Контур_2361" data-name="Контур 2361" d="M531.306,370.188,506.2,366.973v-.156l25.109,3.215Z" transform="translate(-506.198 -355.185)" fill="#0e1516"/>
              <path id="Контур_2362" data-name="Контур 2362" d="M531.306,370.346,506.2,367.131v-.155l25.109,3.215Z" transform="translate(-506.198 -355.187)" fill="#0e1516"/>
              <path id="Контур_2363" data-name="Контур 2363" d="M531.306,370.5,506.2,367.288v-.156l25.109,3.215Z" transform="translate(-506.198 -355.189)" fill="#0e1617"/>
              <path id="Контур_2364" data-name="Контур 2364" d="M531.306,370.661,506.2,367.446v-.156l25.109,3.215Z" transform="translate(-506.198 -355.192)" fill="#0f1617"/>
              <path id="Контур_2365" data-name="Контур 2365" d="M531.306,370.819,506.2,367.6v-.156l25.109,3.215Z" transform="translate(-506.198 -355.194)" fill="#0f1718"/>
              <path id="Контур_2366" data-name="Контур 2366" d="M531.306,370.977,506.2,367.762v-.155l25.109,3.215Z" transform="translate(-506.198 -355.196)" fill="#0f1719"/>
              <path id="Контур_2367" data-name="Контур 2367" d="M531.306,371.135,506.2,367.92v-.156l25.109,3.215Z" transform="translate(-506.198 -355.199)" fill="#0f1819"/>
              <path id="Контур_2368" data-name="Контур 2368" d="M531.306,371.293,506.2,368.078v-.155l25.109,3.215Z" transform="translate(-506.198 -355.201)" fill="#10191a"/>
              <path id="Контур_2369" data-name="Контур 2369" d="M531.306,371.451,506.2,368.235v-.156l25.109,3.215Z" transform="translate(-506.198 -355.203)" fill="#10191a"/>
              <path id="Контур_2370" data-name="Контур 2370" d="M531.306,371.608,506.2,368.393v-.155l25.109,3.215Z" transform="translate(-506.198 -355.206)" fill="#101a1b"/>
              <path id="Контур_2371" data-name="Контур 2371" d="M531.306,371.766,506.2,368.551V368.4l25.109,3.215Z" transform="translate(-506.198 -355.208)" fill="#111a1c"/>
              <path id="Контур_2372" data-name="Контур 2372" d="M531.306,371.924,506.2,368.709v-.156l25.109,3.215Z" transform="translate(-506.198 -355.21)" fill="#111b1c"/>
              <path id="Контур_2373" data-name="Контур 2373" d="M531.306,372.082,506.2,368.867v-.155l25.109,3.215Z" transform="translate(-506.198 -355.213)" fill="#111c1d"/>
              <path id="Контур_2374" data-name="Контур 2374" d="M531.306,372.24,506.2,369.025v-.156l25.109,3.215Z" transform="translate(-506.198 -355.215)" fill="#121c1e"/>
              <path id="Контур_2375" data-name="Контур 2375" d="M531.306,372.4,506.2,369.182v-.155l25.109,3.215Z" transform="translate(-506.198 -355.217)" fill="#121d1f"/>
              <path id="Контур_2376" data-name="Контур 2376" d="M531.306,372.555,506.2,369.34v-.156l25.109,3.215Z" transform="translate(-506.198 -355.219)" fill="#121e1f"/>
              <path id="Контур_2377" data-name="Контур 2377" d="M531.306,372.713,506.2,369.5v-.156l25.109,3.215Z" transform="translate(-506.198 -355.222)" fill="#131e20"/>
              <path id="Контур_2378" data-name="Контур 2378" d="M531.306,372.871,506.2,369.656V369.5l25.109,3.215Z" transform="translate(-506.198 -355.224)" fill="#131f21"/>
              <path id="Контур_2379" data-name="Контур 2379" d="M531.306,373.029,506.2,369.814v-.155l25.109,3.215Z" transform="translate(-506.198 -355.226)" fill="#132021"/>
              <path id="Контур_2380" data-name="Контур 2380" d="M531.306,373.187,506.2,369.971v-.156l25.109,3.215Z" transform="translate(-506.198 -355.229)" fill="#142122"/>
              <path id="Контур_2381" data-name="Контур 2381" d="M531.306,373.344,506.2,370.129v-.156l25.109,3.215Z" transform="translate(-506.198 -355.231)" fill="#142123"/>
              <path id="Контур_2382" data-name="Контур 2382" d="M531.306,373.5,506.2,370.287v-.155l25.109,3.215Z" transform="translate(-506.198 -355.233)" fill="#142224"/>
              <path id="Контур_2383" data-name="Контур 2383" d="M531.306,373.66,506.2,370.445v-.156l25.109,3.215Z" transform="translate(-506.198 -355.236)" fill="#152325"/>
              <path id="Контур_2384" data-name="Контур 2384" d="M531.306,373.818,506.2,370.6v-.155l25.109,3.215Z" transform="translate(-506.198 -355.238)" fill="#152425"/>
              <path id="Контур_2385" data-name="Контур 2385" d="M531.306,373.976,506.2,370.76V370.6l25.109,3.215Z" transform="translate(-506.198 -355.24)" fill="#152426"/>
              <path id="Контур_2386" data-name="Контур 2386" d="M531.306,374.133,506.2,370.918v-.155l25.109,3.215Z" transform="translate(-506.198 -355.242)" fill="#162527"/>
              <path id="Контур_2387" data-name="Контур 2387" d="M531.306,374.291,506.2,371.076v-.156l25.109,3.215Z" transform="translate(-506.198 -355.245)" fill="#162628"/>
              <path id="Контур_2388" data-name="Контур 2388" d="M531.306,374.449,506.2,371.234v-.156l25.109,3.215Z" transform="translate(-506.198 -355.247)" fill="#172729"/>
              <path id="Контур_2389" data-name="Контур 2389" d="M531.306,374.607,506.2,371.392v-.156l25.109,3.215Z" transform="translate(-506.198 -355.249)" fill="#17282a"/>
              <path id="Контур_2390" data-name="Контур 2390" d="M531.306,374.765,506.2,371.55v-.156l25.109,3.215Z" transform="translate(-506.198 -355.252)" fill="#17282b"/>
              <path id="Контур_2391" data-name="Контур 2391" d="M531.306,374.923,506.2,371.707v-.156l25.109,3.215Z" transform="translate(-506.198 -355.254)" fill="#18292c"/>
              <path id="Контур_2392" data-name="Контур 2392" d="M531.306,375.08,506.2,371.865v-.156l25.109,3.215Z" transform="translate(-506.198 -355.256)" fill="#182a2c"/>
              <path id="Контур_2393" data-name="Контур 2393" d="M531.306,375.238,506.2,372.023v-.156l25.109,3.215Z" transform="translate(-506.198 -355.259)" fill="#192b2d"/>
              <path id="Контур_2394" data-name="Контур 2394" d="M531.306,375.4,506.2,372.181v-.156l25.109,3.215Z" transform="translate(-506.198 -355.261)" fill="#192c2e"/>
              <path id="Контур_2395" data-name="Контур 2395" d="M531.306,375.554,506.2,372.339v-.155l25.109,3.215Z" transform="translate(-506.198 -355.263)" fill="#1a2d2f"/>
              <path id="Контур_2396" data-name="Контур 2396" d="M531.306,375.712,506.2,372.5v-.156l25.109,3.215Z" transform="translate(-506.198 -355.265)" fill="#1a2e30"/>
              <path id="Контур_2397" data-name="Контур 2397" d="M531.306,375.869,506.2,372.654V372.5l25.109,3.215Z" transform="translate(-506.198 -355.268)" fill="#1b2f31"/>
              <path id="Контур_2398" data-name="Контур 2398" d="M531.306,376.027,506.2,372.812v-.156l25.109,3.215Z" transform="translate(-506.198 -355.27)" fill="#1b2f32"/>
              <path id="Контур_2399" data-name="Контур 2399" d="M531.306,376.185,506.2,372.97v-.156l25.109,3.215Z" transform="translate(-506.198 -355.272)" fill="#1b3033"/>
              <path id="Контур_2400" data-name="Контур 2400" d="M531.306,376.343,506.2,373.128v-.155l25.109,3.215Z" transform="translate(-506.198 -355.275)" fill="#1c3134"/>
              <path id="Контур_2401" data-name="Контур 2401" d="M531.306,376.5,506.2,373.286v-.156l25.109,3.215Z" transform="translate(-506.198 -355.277)" fill="#1c3235"/>
              <path id="Контур_2402" data-name="Контур 2402" d="M531.306,376.659,506.2,373.443v-.155l25.109,3.215Z" transform="translate(-506.198 -355.279)" fill="#1d3336"/>
              <path id="Контур_2403" data-name="Контур 2403" d="M531.306,376.816,506.2,373.6v-.156l25.109,3.215Z" transform="translate(-506.198 -355.282)" fill="#1d3437"/>
              <path id="Контур_2404" data-name="Контур 2404" d="M531.306,376.974,506.2,373.759V373.6l25.109,3.215Z" transform="translate(-506.198 -355.284)" fill="#1e3539"/>
              <path id="Контур_2405" data-name="Контур 2405" d="M531.306,377.132,506.2,373.917v-.156l25.109,3.215Z" transform="translate(-506.198 -355.286)" fill="#1e363a"/>
              <path id="Контур_2406" data-name="Контур 2406" d="M531.306,377.29,506.2,374.075v-.155l25.109,3.215Z" transform="translate(-506.198 -355.288)" fill="#1f373b"/>
              <path id="Контур_2407" data-name="Контур 2407" d="M531.306,377.448,506.2,374.232v-.156l25.109,3.215Z" transform="translate(-506.198 -355.291)" fill="#1f383c"/>
              <path id="Контур_2408" data-name="Контур 2408" d="M531.306,377.605,506.2,374.39v-.155l25.109,3.215Z" transform="translate(-506.198 -355.293)" fill="#20393d"/>
              <path id="Контур_2409" data-name="Контур 2409" d="M531.306,377.763,506.2,374.548v-.156l25.109,3.215Z" transform="translate(-506.198 -355.295)" fill="#203b3e"/>
              <path id="Контур_2410" data-name="Контур 2410" d="M531.306,377.921,506.2,374.706v-.156l25.109,3.215Z" transform="translate(-506.198 -355.298)" fill="#213c3f"/>
              <path id="Контур_2411" data-name="Контур 2411" d="M531.306,378.079,506.2,374.864v-.155l25.109,3.215Z" transform="translate(-506.198 -355.3)" fill="#223d40"/>
              <path id="Контур_2412" data-name="Контур 2412" d="M531.306,378.237,506.2,375.022v-.156l25.109,3.215Z" transform="translate(-506.198 -355.302)" fill="#223e42"/>
              <path id="Контур_2413" data-name="Контур 2413" d="M531.306,378.395,506.2,375.179v-.155l25.109,3.215Z" transform="translate(-506.198 -355.305)" fill="#233f43"/>
              <path id="Контур_2414" data-name="Контур 2414" d="M531.306,378.552,506.2,375.337v-.156l25.109,3.215Z" transform="translate(-506.198 -355.307)" fill="#234044"/>
              <path id="Контур_2415" data-name="Контур 2415" d="M531.306,378.71,506.2,375.495v-.156l25.109,3.215Z" transform="translate(-506.198 -355.309)" fill="#244145"/>
              <path id="Контур_2416" data-name="Контур 2416" d="M531.306,378.868,506.2,375.653V375.5l25.109,3.215Z" transform="translate(-506.198 -355.311)" fill="#244246"/>
              <path id="Контур_2417" data-name="Контур 2417" d="M531.306,379.026,506.2,375.811v-.156l25.109,3.215Z" transform="translate(-506.198 -355.314)" fill="#254448"/>
              <path id="Контур_2418" data-name="Контур 2418" d="M531.306,379.184,506.2,375.968v-.156l25.109,3.215Z" transform="translate(-506.198 -355.316)" fill="#264549"/>
              <path id="Контур_2419" data-name="Контур 2419" d="M531.306,379.341,506.2,376.126v-.156l25.109,3.215Z" transform="translate(-506.198 -355.318)" fill="#26464a"/>
              <path id="Контур_2420" data-name="Контур 2420" d="M531.306,379.5,506.2,376.284v-.156l25.109,3.215Z" transform="translate(-506.198 -355.321)" fill="#27474c"/>
              <path id="Контур_2421" data-name="Контур 2421" d="M531.306,379.657,506.2,376.442v-.156l25.109,3.215Z" transform="translate(-506.198 -355.323)" fill="#27484d"/>
              <path id="Контур_2422" data-name="Контур 2422" d="M531.306,379.815,506.2,376.6v-.155l25.109,3.215Z" transform="translate(-506.198 -355.325)" fill="#284a4e"/>
              <path id="Контур_2423" data-name="Контур 2423" d="M531.306,379.973,506.2,376.758V376.6l25.109,3.215Z" transform="translate(-506.198 -355.328)" fill="#294b50"/>
              <path id="Контур_2424" data-name="Контур 2424" d="M531.306,380.131,506.2,376.915v-.155l25.109,3.215Z" transform="translate(-506.198 -355.33)" fill="#294c51"/>
              <path id="Контур_2425" data-name="Контур 2425" d="M531.306,380.288,506.2,377.073v-.156l25.109,3.215Z" transform="translate(-506.198 -355.332)" fill="#2a4d52"/>
              <path id="Контур_2426" data-name="Контур 2426" d="M531.306,380.446,506.2,377.231v-.155l25.109,3.215Z" transform="translate(-506.198 -355.335)" fill="#2a4f54"/>
              <path id="Контур_2427" data-name="Контур 2427" d="M531.306,380.6,506.2,377.389v-.156l25.109,3.215Z" transform="translate(-506.198 -355.337)" fill="#2b5055"/>
              <path id="Контур_2428" data-name="Контур 2428" d="M531.306,380.762,506.2,377.547v-.156l25.109,3.215Z" transform="translate(-506.198 -355.339)" fill="#2c5156"/>
              <path id="Контур_2429" data-name="Контур 2429" d="M531.306,380.92,506.2,377.7v-.155l25.109,3.215Z" transform="translate(-506.198 -355.341)" fill="#2c5358"/>
              <path id="Контур_2430" data-name="Контур 2430" d="M531.306,381.077,506.2,377.862v-.156l25.109,3.215Z" transform="translate(-506.198 -355.344)" fill="#2d5459"/>
              <path id="Контур_2431" data-name="Контур 2431" d="M531.306,381.235,506.2,378.02v-.156l25.109,3.215Z" transform="translate(-506.198 -355.346)" fill="#2e555b"/>
              <path id="Контур_2432" data-name="Контур 2432" d="M531.306,381.393,506.2,378.178v-.156l25.109,3.215Z" transform="translate(-506.198 -355.348)" fill="#2e575c"/>
              <path id="Контур_2433" data-name="Контур 2433" d="M531.306,381.551,506.2,378.336v-.156l25.109,3.215Z" transform="translate(-506.198 -355.351)" fill="#2f585e"/>
              <path id="Контур_2434" data-name="Контур 2434" d="M531.306,381.709,506.2,378.494v-.156l25.109,3.215Z" transform="translate(-506.198 -355.353)" fill="#30595f"/>
              <path id="Контур_2435" data-name="Контур 2435" d="M531.306,381.867,506.2,378.651V378.5l25.109,3.215Z" transform="translate(-506.198 -355.355)" fill="#305b61"/>
              <path id="Контур_2436" data-name="Контур 2436" d="M531.306,382.024,506.2,378.809v-.156l25.109,3.215Z" transform="translate(-506.198 -355.358)" fill="#315c62"/>
              <path id="Контур_2437" data-name="Контур 2437" d="M531.306,382.182,506.2,378.967v-.156l25.109,3.215Z" transform="translate(-506.198 -355.36)" fill="#325e64"/>
              <path id="Контур_2438" data-name="Контур 2438" d="M531.306,382.34,506.2,379.125v-.155l25.109,3.215Z" transform="translate(-506.198 -355.362)" fill="#335f65"/>
              <path id="Контур_2439" data-name="Контур 2439" d="M531.306,382.5,506.2,379.283v-.156l25.109,3.215Z" transform="translate(-506.198 -355.364)" fill="#336167"/>
              <path id="Контур_2440" data-name="Контур 2440" d="M531.306,382.656,506.2,379.44v-.155l25.109,3.215Z" transform="translate(-506.198 -355.367)" fill="#346268"/>
              <path id="Контур_2441" data-name="Контур 2441" d="M531.306,382.813,506.2,379.6v-.156l25.109,3.215Z" transform="translate(-506.198 -355.369)" fill="#35646a"/>
              <path id="Контур_2442" data-name="Контур 2442" d="M531.306,382.971,506.2,379.756V379.6l25.109,3.215Z" transform="translate(-506.198 -355.371)" fill="#36656c"/>
              <path id="Контур_2443" data-name="Контур 2443" d="M531.306,383.129,506.2,379.914v-.156l25.109,3.215Z" transform="translate(-506.198 -355.374)" fill="#36676d"/>
              <path id="Контур_2444" data-name="Контур 2444" d="M531.306,383.287,506.2,380.072v-.156l25.109,3.215Z" transform="translate(-506.198 -355.376)" fill="#37686f"/>
              <path id="Контур_2445" data-name="Контур 2445" d="M531.306,383.445,506.2,380.23v-.156l25.109,3.215Z" transform="translate(-506.198 -355.378)" fill="#386a70"/>
              <path id="Контур_2446" data-name="Контур 2446" d="M531.306,383.6,506.2,380.387v-.155l25.109,3.215Z" transform="translate(-506.198 -355.381)" fill="#396b72"/>
              <path id="Контур_2447" data-name="Контур 2447" d="M531.306,383.76,506.2,380.545v-.156l25.109,3.215Z" transform="translate(-506.198 -355.383)" fill="#396d74"/>
              <path id="Контур_2448" data-name="Контур 2448" d="M531.306,383.918,506.2,380.7v-.156l25.109,3.215Z" transform="translate(-506.198 -355.385)" fill="#3a6e75"/>
              <path id="Контур_2449" data-name="Контур 2449" d="M531.306,384.076,506.2,380.861v-.156l25.109,3.215Z" transform="translate(-506.198 -355.388)" fill="#3b7077"/>
              <path id="Контур_2450" data-name="Контур 2450" d="M531.306,384.234,506.2,381.019v-.156l25.109,3.215Z" transform="translate(-506.198 -355.39)" fill="#3c7279"/>
              <path id="Контур_2451" data-name="Контур 2451" d="M531.306,384.392,506.2,381.176v-.155l25.109,3.215Z" transform="translate(-506.198 -355.392)" fill="#3c737b"/>
              <path id="Контур_2452" data-name="Контур 2452" d="M531.306,384.549,506.2,381.334v-.156l25.109,3.215Z" transform="translate(-506.198 -355.394)" fill="#3d757c"/>
              <path id="Контур_2453" data-name="Контур 2453" d="M531.306,384.707,506.2,381.492v-.155l25.109,3.215Z" transform="translate(-506.198 -355.397)" fill="#3e777e"/>
              <path id="Контур_2454" data-name="Контур 2454" d="M531.306,384.865,506.2,381.65v-.156l25.109,3.215Z" transform="translate(-506.198 -355.399)" fill="#3f7880"/>
              <path id="Контур_2455" data-name="Контур 2455" d="M531.306,385.023,506.2,381.808v-.156l25.109,3.215Z" transform="translate(-506.198 -355.401)" fill="#407a82"/>
              <path id="Контур_2456" data-name="Контур 2456" d="M531.306,385.181,506.2,381.966v-.156l25.109,3.215Z" transform="translate(-506.198 -355.404)" fill="#417c83"/>
              <path id="Контур_2457" data-name="Контур 2457" d="M531.306,385.339,506.2,382.123v-.156l25.109,3.215Z" transform="translate(-506.198 -355.406)" fill="#417d85"/>
              <path id="Контур_2458" data-name="Контур 2458" d="M531.306,385.5,506.2,382.281v-.155l25.109,3.215Z" transform="translate(-506.198 -355.408)" fill="#427f87"/>
              <path id="Контур_2459" data-name="Контур 2459" d="M531.306,385.654,506.2,382.439v-.156l25.109,3.215Z" transform="translate(-506.198 -355.41)" fill="#438189"/>
              <path id="Контур_2460" data-name="Контур 2460" d="M531.306,385.812,506.2,382.6v-.156l25.109,3.215Z" transform="translate(-506.198 -355.413)" fill="#44828b"/>
              <path id="Контур_2461" data-name="Контур 2461" d="M531.306,385.97,506.2,382.755V382.6l25.109,3.215Z" transform="translate(-506.198 -355.415)" fill="#45848d"/>
              <path id="Контур_2462" data-name="Контур 2462" d="M531.306,386.128,506.2,382.912v-.155l25.109,3.215Z" transform="translate(-506.198 -355.417)" fill="#46868f"/>
              <path id="Контур_2463" data-name="Контур 2463" d="M531.306,386.285,506.2,383.07v-.156l25.109,3.215Z" transform="translate(-506.198 -355.42)" fill="#478891"/>
              <path id="Контур_2464" data-name="Контур 2464" d="M531.306,386.443,506.2,383.228v-.155l25.109,3.215Z" transform="translate(-506.198 -355.422)" fill="#488a92"/>
              <path id="Контур_2465" data-name="Контур 2465" d="M531.306,386.6,506.2,383.386v-.156l25.109,3.215Z" transform="translate(-506.198 -355.424)" fill="#488b94"/>
              <path id="Контур_2466" data-name="Контур 2466" d="M531.306,386.759,506.2,383.544v-.156l25.109,3.215Z" transform="translate(-506.198 -355.427)" fill="#498d96"/>
              <path id="Контур_2467" data-name="Контур 2467" d="M531.306,386.917,506.2,383.7v-.155l25.109,3.215Z" transform="translate(-506.198 -355.429)" fill="#4a8f98"/>
              <path id="Контур_2468" data-name="Контур 2468" d="M531.306,387.075,506.2,383.859V383.7l25.109,3.215Z" transform="translate(-506.198 -355.431)" fill="#4b919a"/>
              <path id="Контур_2469" data-name="Контур 2469" d="M531.306,387.232,506.2,384.017v-.155l25.109,3.215Z" transform="translate(-506.198 -355.434)" fill="#4c939c"/>
              <path id="Контур_2470" data-name="Контур 2470" d="M531.306,387.39,506.2,384.175v-.156l25.109,3.215Z" transform="translate(-506.198 -355.436)" fill="#4d959e"/>
              <path id="Контур_2471" data-name="Контур 2471" d="M531.306,387.548,506.2,384.333v-.156l25.109,3.215Z" transform="translate(-506.198 -355.438)" fill="#4e97a0"/>
              <path id="Контур_2472" data-name="Контур 2472" d="M531.306,387.706,506.2,384.491v-.156l25.109,3.215Z" transform="translate(-506.198 -355.44)" fill="#4f99a2"/>
              <path id="Контур_2473" data-name="Контур 2473" d="M531.306,387.864,506.2,384.648v-.156l25.109,3.215Z" transform="translate(-506.198 -355.443)" fill="#509aa5"/>
              <path id="Контур_2474" data-name="Контур 2474" d="M531.306,388.021,506.2,384.806v-.156l25.109,3.215Z" transform="translate(-506.198 -355.445)" fill="#519ca7"/>
              <path id="Контур_2475" data-name="Контур 2475" d="M531.306,388.179,506.2,384.964v-.156l25.109,3.215Z" transform="translate(-506.198 -355.447)" fill="#529ea9"/>
              <path id="Контур_2476" data-name="Контур 2476" d="M531.306,388.337,506.2,385.122v-.156l25.109,3.215Z" transform="translate(-506.198 -355.45)" fill="#53a0ab"/>
              <path id="Контур_2477" data-name="Контур 2477" d="M531.306,388.495,506.2,385.28v-.156l25.109,3.215Z" transform="translate(-506.198 -355.452)" fill="#54a2ad"/>
              <path id="Контур_2478" data-name="Контур 2478" d="M531.306,388.653,506.2,385.438v-.155l25.109,3.215Z" transform="translate(-506.198 -355.454)" fill="#55a4af"/>
              <path id="Контур_2479" data-name="Контур 2479" d="M531.306,388.811,506.2,385.6v-.156l25.109,3.215Z" transform="translate(-506.198 -355.457)" fill="#56a6b1"/>
              <path id="Контур_2480" data-name="Контур 2480" d="M531.306,388.968,506.2,385.753V385.6l25.109,3.215Z" transform="translate(-506.198 -355.459)" fill="#57a8b3"/>
              <path id="Контур_2481" data-name="Контур 2481" d="M531.306,389.126,506.2,385.911v-.156l25.109,3.215Z" transform="translate(-506.198 -355.461)" fill="#58aab6"/>
              <path id="Контур_2482" data-name="Контур 2482" d="M531.306,389.284,506.2,386.069v-.155l25.109,3.215Z" transform="translate(-506.198 -355.463)" fill="#59acb8"/>
              <path id="Контур_2483" data-name="Контур 2483" d="M531.306,389.442,506.2,386.227v-.156l25.109,3.215Z" transform="translate(-506.198 -355.466)" fill="#5aafba"/>
              <path id="Контур_2484" data-name="Контур 2484" d="M531.306,389.6,506.2,386.384v-.156l25.109,3.215Z" transform="translate(-506.198 -355.468)" fill="#5bb1bc"/>
              <path id="Контур_2485" data-name="Контур 2485" d="M531.306,389.757,506.2,386.542v-.156l25.109,3.215Z" transform="translate(-506.198 -355.47)" fill="#5cb3be"/>
              <path id="Контур_2486" data-name="Контур 2486" d="M531.306,389.915,506.2,386.7v-.156l25.109,3.215Z" transform="translate(-506.198 -355.473)" fill="#5db5c1"/>
              <path id="Контур_2487" data-name="Контур 2487" d="M531.306,390.073,506.2,386.858V386.7l25.109,3.215Z" transform="translate(-506.198 -355.475)" fill="#5eb7c3"/>
              <path id="Контур_2488" data-name="Контур 2488" d="M506.2,386.86l25.109,3.215V391.7H506.2Z" transform="translate(-506.198 -355.477)" fill="#5eb7c3"/>
            </g>
          </g>
        </g>
      </g>
    </g>
    <g id="Сгруппировать_638" data-name="Сгруппировать 638" transform="translate(494.409 357.173)">
      <g id="Сгруппировать_637" data-name="Сгруппировать 637" clip-path="url(#clip-path-3)">
        <g id="Сгруппировать_636" data-name="Сгруппировать 636" transform="translate(-5.046 -2.477)">
          <g id="Сгруппировать_635" data-name="Сгруппировать 635" transform="translate(0 0)">
            <g id="Сгруппировать_634" data-name="Сгруппировать 634" clip-path="url(#clip-path-4)">
              <path id="Контур_2490" data-name="Контур 2490" d="M504.731,392.28l11.361-1.675v1.675Z" transform="translate(-489.363 -355.183)" fill="#070707"/>
              <path id="Контур_2491" data-name="Контур 2491" d="M503.428,392.278l12.664-1.867v.192l-11.361,1.675Z" transform="translate(-489.363 -355.18)" fill="#070707"/>
              <path id="Контур_2492" data-name="Контур 2492" d="M502.125,392.275l13.967-2.059v.192l-12.664,1.867Z" transform="translate(-489.363 -355.178)" fill="#070707"/>
              <path id="Контур_2493" data-name="Контур 2493" d="M500.821,392.272l15.271-2.251v.192l-13.967,2.059Z" transform="translate(-489.363 -355.175)" fill="#070707"/>
              <path id="Контур_2494" data-name="Контур 2494" d="M499.518,392.269l16.574-2.443v.192l-15.271,2.251Z" transform="translate(-489.363 -355.172)" fill="#070707"/>
              <path id="Контур_2495" data-name="Контур 2495" d="M498.215,392.266l17.877-2.635v.192l-16.574,2.443Z" transform="translate(-489.363 -355.169)" fill="#070707"/>
              <path id="Контур_2496" data-name="Контур 2496" d="M496.912,392.263l19.18-2.827v.192l-17.877,2.635Z" transform="translate(-489.363 -355.166)" fill="#070707"/>
              <path id="Контур_2497" data-name="Контур 2497" d="M495.609,392.261l20.483-3.019v.192l-19.18,2.827Z" transform="translate(-489.363 -355.163)" fill="#070707"/>
              <path id="Контур_2498" data-name="Контур 2498" d="M494.306,392.258l21.786-3.211v.192l-20.483,3.019Z" transform="translate(-489.363 -355.161)" fill="#070707"/>
              <path id="Контур_2499" data-name="Контур 2499" d="M493,392.255l23.089-3.4v.192l-21.786,3.211Z" transform="translate(-489.363 -355.158)" fill="#070707"/>
              <path id="Контур_2500" data-name="Контур 2500" d="M491.7,392.252l24.392-3.6v.192L493,392.252Z" transform="translate(-489.363 -355.155)" fill="#070707"/>
              <path id="Контур_2501" data-name="Контур 2501" d="M490.4,392.249l25.7-3.787v.192l-24.392,3.6Z" transform="translate(-489.363 -355.152)" fill="#070707"/>
              <path id="Контур_2502" data-name="Контур 2502" d="M489.363,392.207l26.729-3.94v.192l-25.7,3.787h-1.034Z" transform="translate(-489.363 -355.149)" fill="#070707"/>
              <path id="Контур_2503" data-name="Контур 2503" d="M489.363,392.012l26.729-3.94v.192l-26.729,3.94Z" transform="translate(-489.363 -355.146)" fill="#070707"/>
              <path id="Контур_2504" data-name="Контур 2504" d="M489.363,391.817l26.729-3.94v.192l-26.729,3.94Z" transform="translate(-489.363 -355.143)" fill="#070707"/>
              <path id="Контур_2505" data-name="Контур 2505" d="M489.363,391.622l26.729-3.94v.192l-26.729,3.94Z" transform="translate(-489.363 -355.141)" fill="#070708"/>
              <path id="Контур_2506" data-name="Контур 2506" d="M489.363,391.427l26.729-3.94v.192l-26.729,3.94Z" transform="translate(-489.363 -355.138)" fill="#070808"/>
              <path id="Контур_2507" data-name="Контур 2507" d="M489.363,391.232l26.729-3.94v.192l-26.729,3.94Z" transform="translate(-489.363 -355.135)" fill="#070808"/>
              <path id="Контур_2508" data-name="Контур 2508" d="M489.363,391.037l26.729-3.94v.192l-26.729,3.94Z" transform="translate(-489.363 -355.132)" fill="#070808"/>
              <path id="Контур_2509" data-name="Контур 2509" d="M489.363,390.842l26.729-3.94v.192l-26.729,3.94Z" transform="translate(-489.363 -355.129)" fill="#070808"/>
              <path id="Контур_2510" data-name="Контур 2510" d="M489.363,390.647l26.729-3.94v.192l-26.729,3.94Z" transform="translate(-489.363 -355.126)" fill="#070808"/>
              <path id="Контур_2511" data-name="Контур 2511" d="M489.363,390.452l26.729-3.94v.192l-26.729,3.94Z" transform="translate(-489.363 -355.124)" fill="#080808"/>
              <path id="Контур_2512" data-name="Контур 2512" d="M489.363,390.258l26.729-3.94v.192l-26.729,3.94Z" transform="translate(-489.363 -355.121)" fill="#080808"/>
              <path id="Контур_2513" data-name="Контур 2513" d="M489.363,390.063l26.729-3.94v.192l-26.729,3.94Z" transform="translate(-489.363 -355.118)" fill="#080808"/>
              <path id="Контур_2514" data-name="Контур 2514" d="M489.363,389.868l26.729-3.94v.192l-26.729,3.94Z" transform="translate(-489.363 -355.115)" fill="#080809"/>
              <path id="Контур_2515" data-name="Контур 2515" d="M489.363,389.673l26.729-3.94v.192l-26.729,3.94Z" transform="translate(-489.363 -355.112)" fill="#080909"/>
              <path id="Контур_2516" data-name="Контур 2516" d="M489.363,389.478l26.729-3.94v.192l-26.729,3.94Z" transform="translate(-489.363 -355.109)" fill="#080909"/>
              <path id="Контур_2517" data-name="Контур 2517" d="M489.363,389.283l26.729-3.94v.192l-26.729,3.94Z" transform="translate(-489.363 -355.107)" fill="#080909"/>
              <path id="Контур_2518" data-name="Контур 2518" d="M489.363,389.088l26.729-3.94v.192l-26.729,3.94Z" transform="translate(-489.363 -355.104)" fill="#080909"/>
              <path id="Контур_2519" data-name="Контур 2519" d="M489.363,388.893l26.729-3.94v.192l-26.729,3.94Z" transform="translate(-489.363 -355.101)" fill="#08090a"/>
              <path id="Контур_2520" data-name="Контур 2520" d="M489.363,388.7l26.729-3.94v.192l-26.729,3.94Z" transform="translate(-489.363 -355.098)" fill="#080a0a"/>
              <path id="Контур_2521" data-name="Контур 2521" d="M489.363,388.5l26.729-3.94v.192l-26.729,3.94Z" transform="translate(-489.363 -355.095)" fill="#080a0a"/>
              <path id="Контур_2522" data-name="Контур 2522" d="M489.363,388.309l26.729-3.94v.192l-26.729,3.94Z" transform="translate(-489.363 -355.092)" fill="#080a0a"/>
              <path id="Контур_2523" data-name="Контур 2523" d="M489.363,388.114l26.729-3.94v.192l-26.729,3.94Z" transform="translate(-489.363 -355.089)" fill="#090a0a"/>
              <path id="Контур_2524" data-name="Контур 2524" d="M489.363,387.919l26.729-3.94v.192l-26.729,3.94Z" transform="translate(-489.363 -355.087)" fill="#090a0b"/>
              <path id="Контур_2525" data-name="Контур 2525" d="M489.363,387.724l26.729-3.94v.192l-26.729,3.94Z" transform="translate(-489.363 -355.084)" fill="#090b0b"/>
              <path id="Контур_2526" data-name="Контур 2526" d="M489.363,387.529l26.729-3.94v.192l-26.729,3.94Z" transform="translate(-489.363 -355.081)" fill="#090b0b"/>
              <path id="Контур_2527" data-name="Контур 2527" d="M489.363,387.334l26.729-3.94v.192l-26.729,3.94Z" transform="translate(-489.363 -355.078)" fill="#090b0b"/>
              <path id="Контур_2528" data-name="Контур 2528" d="M489.363,387.139l26.729-3.94v.192l-26.729,3.94Z" transform="translate(-489.363 -355.075)" fill="#090b0c"/>
              <path id="Контур_2529" data-name="Контур 2529" d="M489.363,386.944,516.092,383v.192l-26.729,3.94Z" transform="translate(-489.363 -355.072)" fill="#090c0c"/>
              <path id="Контур_2530" data-name="Контур 2530" d="M489.363,386.749l26.729-3.94V383l-26.729,3.94Z" transform="translate(-489.363 -355.07)" fill="#090c0c"/>
              <path id="Контур_2531" data-name="Контур 2531" d="M489.363,386.554l26.729-3.94v.192l-26.729,3.94Z" transform="translate(-489.363 -355.067)" fill="#0a0c0d"/>
              <path id="Контур_2532" data-name="Контур 2532" d="M489.363,386.359l26.729-3.94v.192l-26.729,3.94Z" transform="translate(-489.363 -355.064)" fill="#0a0d0d"/>
              <path id="Контур_2533" data-name="Контур 2533" d="M489.363,386.165l26.729-3.94v.192l-26.729,3.94Z" transform="translate(-489.363 -355.061)" fill="#0a0d0d"/>
              <path id="Контур_2534" data-name="Контур 2534" d="M489.363,385.97l26.729-3.94v.192l-26.729,3.94Z" transform="translate(-489.363 -355.058)" fill="#0a0d0e"/>
              <path id="Контур_2535" data-name="Контур 2535" d="M489.363,385.775l26.729-3.94v.192l-26.729,3.94Z" transform="translate(-489.363 -355.055)" fill="#0a0e0e"/>
              <path id="Контур_2536" data-name="Контур 2536" d="M489.363,385.58l26.729-3.94v.192l-26.729,3.94Z" transform="translate(-489.363 -355.052)" fill="#0a0e0e"/>
              <path id="Контур_2537" data-name="Контур 2537" d="M489.363,385.385l26.729-3.94v.192l-26.729,3.94Z" transform="translate(-489.363 -355.05)" fill="#0b0e0f"/>
              <path id="Контур_2538" data-name="Контур 2538" d="M489.363,385.19l26.729-3.94v.192l-26.729,3.94Z" transform="translate(-489.363 -355.047)" fill="#0b0f0f"/>
              <path id="Контур_2539" data-name="Контур 2539" d="M489.363,385l26.729-3.94v.192l-26.729,3.94Z" transform="translate(-489.363 -355.044)" fill="#0b0f10"/>
              <path id="Контур_2540" data-name="Контур 2540" d="M489.363,384.8l26.729-3.94v.192l-26.729,3.94Z" transform="translate(-489.363 -355.041)" fill="#0b0f10"/>
              <path id="Контур_2541" data-name="Контур 2541" d="M489.363,384.605l26.729-3.94v.192l-26.729,3.94Z" transform="translate(-489.363 -355.038)" fill="#0b1010"/>
              <path id="Контур_2542" data-name="Контур 2542" d="M489.363,384.41l26.729-3.94v.192l-26.729,3.94Z" transform="translate(-489.363 -355.035)" fill="#0c1011"/>
              <path id="Контур_2543" data-name="Контур 2543" d="M489.363,384.215l26.729-3.94v.192l-26.729,3.94Z" transform="translate(-489.363 -355.033)" fill="#0c1111"/>
              <path id="Контур_2544" data-name="Контур 2544" d="M489.363,384.021l26.729-3.94v.192l-26.729,3.94Z" transform="translate(-489.363 -355.03)" fill="#0c1112"/>
              <path id="Контур_2545" data-name="Контур 2545" d="M489.363,383.826l26.729-3.94v.192l-26.729,3.94Z" transform="translate(-489.363 -355.027)" fill="#0c1112"/>
              <path id="Контур_2546" data-name="Контур 2546" d="M489.363,383.631l26.729-3.94v.192l-26.729,3.94Z" transform="translate(-489.363 -355.024)" fill="#0c1213"/>
              <path id="Контур_2547" data-name="Контур 2547" d="M489.363,383.436l26.729-3.94v.192l-26.729,3.94Z" transform="translate(-489.363 -355.021)" fill="#0d1213"/>
              <path id="Контур_2548" data-name="Контур 2548" d="M489.363,383.241l26.729-3.94v.192l-26.729,3.94Z" transform="translate(-489.363 -355.018)" fill="#0d1314"/>
              <path id="Контур_2549" data-name="Контур 2549" d="M489.363,383.046l26.729-3.94v.192l-26.729,3.94Z" transform="translate(-489.363 -355.016)" fill="#0d1314"/>
              <path id="Контур_2550" data-name="Контур 2550" d="M489.363,382.851l26.729-3.94v.192l-26.729,3.94Z" transform="translate(-489.363 -355.013)" fill="#0d1415"/>
              <path id="Контур_2551" data-name="Контур 2551" d="M489.363,382.656l26.729-3.94v.192l-26.729,3.94Z" transform="translate(-489.363 -355.01)" fill="#0e1415"/>
              <path id="Контур_2552" data-name="Контур 2552" d="M489.363,382.461l26.729-3.94v.192l-26.729,3.94Z" transform="translate(-489.363 -355.007)" fill="#0e1516"/>
              <path id="Контур_2553" data-name="Контур 2553" d="M489.363,382.266l26.729-3.94v.192l-26.729,3.94Z" transform="translate(-489.363 -355.004)" fill="#0e1516"/>
              <path id="Контур_2554" data-name="Контур 2554" d="M489.363,382.071l26.729-3.94v.192l-26.729,3.94Z" transform="translate(-489.363 -355.001)" fill="#0e1617"/>
              <path id="Контур_2555" data-name="Контур 2555" d="M489.363,381.877l26.729-3.94v.192l-26.729,3.94Z" transform="translate(-489.363 -354.998)" fill="#0f1617"/>
              <path id="Контур_2556" data-name="Контур 2556" d="M489.363,381.682l26.729-3.94v.192l-26.729,3.94Z" transform="translate(-489.363 -354.996)" fill="#0f1718"/>
              <path id="Контур_2557" data-name="Контур 2557" d="M489.363,381.487l26.729-3.94v.192l-26.729,3.94Z" transform="translate(-489.363 -354.993)" fill="#0f1719"/>
              <path id="Контур_2558" data-name="Контур 2558" d="M489.363,381.292l26.729-3.94v.192l-26.729,3.94Z" transform="translate(-489.363 -354.99)" fill="#0f1819"/>
              <path id="Контур_2559" data-name="Контур 2559" d="M489.363,381.1l26.729-3.94v.192l-26.729,3.94Z" transform="translate(-489.363 -354.987)" fill="#10191a"/>
              <path id="Контур_2560" data-name="Контур 2560" d="M489.363,380.9l26.729-3.94v.192l-26.729,3.94Z" transform="translate(-489.363 -354.984)" fill="#10191a"/>
              <path id="Контур_2561" data-name="Контур 2561" d="M489.363,380.707l26.729-3.94v.192l-26.729,3.94Z" transform="translate(-489.363 -354.981)" fill="#101a1b"/>
              <path id="Контур_2562" data-name="Контур 2562" d="M489.363,380.512l26.729-3.94v.192l-26.729,3.94Z" transform="translate(-489.363 -354.979)" fill="#111a1c"/>
              <path id="Контур_2563" data-name="Контур 2563" d="M489.363,380.317l26.729-3.94v.192l-26.729,3.94Z" transform="translate(-489.363 -354.976)" fill="#111b1c"/>
              <path id="Контур_2564" data-name="Контур 2564" d="M489.363,380.122l26.729-3.94v.192l-26.729,3.94Z" transform="translate(-489.363 -354.973)" fill="#111c1d"/>
              <path id="Контур_2565" data-name="Контур 2565" d="M489.363,379.927l26.729-3.94v.192l-26.729,3.94Z" transform="translate(-489.363 -354.97)" fill="#121c1e"/>
              <path id="Контур_2566" data-name="Контур 2566" d="M489.363,379.733l26.729-3.94v.192l-26.729,3.94Z" transform="translate(-489.363 -354.967)" fill="#121d1f"/>
              <path id="Контур_2567" data-name="Контур 2567" d="M489.363,379.538l26.729-3.94v.192l-26.729,3.94Z" transform="translate(-489.363 -354.964)" fill="#121e1f"/>
              <path id="Контур_2568" data-name="Контур 2568" d="M489.363,379.343l26.729-3.94v.192l-26.729,3.94Z" transform="translate(-489.363 -354.961)" fill="#131e20"/>
              <path id="Контур_2569" data-name="Контур 2569" d="M489.363,379.148l26.729-3.94v.192l-26.729,3.94Z" transform="translate(-489.363 -354.959)" fill="#131f21"/>
              <path id="Контур_2570" data-name="Контур 2570" d="M489.363,378.953l26.729-3.94v.192l-26.729,3.94Z" transform="translate(-489.363 -354.956)" fill="#132021"/>
              <path id="Контур_2571" data-name="Контур 2571" d="M489.363,378.758l26.729-3.94v.192l-26.729,3.94Z" transform="translate(-489.363 -354.953)" fill="#142122"/>
              <path id="Контур_2572" data-name="Контур 2572" d="M489.363,378.563l26.729-3.94v.192l-26.729,3.94Z" transform="translate(-489.363 -354.95)" fill="#142123"/>
              <path id="Контур_2573" data-name="Контур 2573" d="M489.363,378.368l26.729-3.94v.192l-26.729,3.94Z" transform="translate(-489.363 -354.947)" fill="#142224"/>
              <path id="Контур_2574" data-name="Контур 2574" d="M489.363,378.173l26.729-3.94v.192l-26.729,3.94Z" transform="translate(-489.363 -354.944)" fill="#152325"/>
              <path id="Контур_2575" data-name="Контур 2575" d="M489.363,377.978l26.729-3.94v.192l-26.729,3.94Z" transform="translate(-489.363 -354.942)" fill="#152425"/>
              <path id="Контур_2576" data-name="Контур 2576" d="M489.363,377.784l26.729-3.94v.192l-26.729,3.94Z" transform="translate(-489.363 -354.939)" fill="#152426"/>
              <path id="Контур_2577" data-name="Контур 2577" d="M489.363,377.589l26.729-3.94v.192l-26.729,3.94Z" transform="translate(-489.363 -354.936)" fill="#162527"/>
              <path id="Контур_2578" data-name="Контур 2578" d="M489.363,377.394l26.729-3.94v.192l-26.729,3.94Z" transform="translate(-489.363 -354.933)" fill="#162628"/>
              <path id="Контур_2579" data-name="Контур 2579" d="M489.363,377.2l26.729-3.94v.192l-26.729,3.94Z" transform="translate(-489.363 -354.93)" fill="#172729"/>
              <path id="Контур_2580" data-name="Контур 2580" d="M489.363,377l26.729-3.94v.192l-26.729,3.94Z" transform="translate(-489.363 -354.927)" fill="#17282a"/>
              <path id="Контур_2581" data-name="Контур 2581" d="M489.363,376.809l26.729-3.94v.192L489.363,377Z" transform="translate(-489.363 -354.925)" fill="#17282b"/>
              <path id="Контур_2582" data-name="Контур 2582" d="M489.363,376.614l26.729-3.94v.192l-26.729,3.94Z" transform="translate(-489.363 -354.922)" fill="#18292c"/>
              <path id="Контур_2583" data-name="Контур 2583" d="M489.363,376.419l26.729-3.94v.192l-26.729,3.94Z" transform="translate(-489.363 -354.919)" fill="#182a2c"/>
              <path id="Контур_2584" data-name="Контур 2584" d="M489.363,376.224l26.729-3.94v.192l-26.729,3.94Z" transform="translate(-489.363 -354.916)" fill="#192b2d"/>
              <path id="Контур_2585" data-name="Контур 2585" d="M489.363,376.029l26.729-3.94v.192l-26.729,3.94Z" transform="translate(-489.363 -354.913)" fill="#192c2e"/>
              <path id="Контур_2586" data-name="Контур 2586" d="M489.363,375.834l26.729-3.94v.192l-26.729,3.94Z" transform="translate(-489.363 -354.91)" fill="#1a2d2f"/>
              <path id="Контур_2587" data-name="Контур 2587" d="M489.363,375.64l26.729-3.94v.192l-26.729,3.94Z" transform="translate(-489.363 -354.907)" fill="#1a2e30"/>
              <path id="Контур_2588" data-name="Контур 2588" d="M489.363,375.445l26.729-3.94v.192l-26.729,3.94Z" transform="translate(-489.363 -354.905)" fill="#1b2f31"/>
              <path id="Контур_2589" data-name="Контур 2589" d="M489.363,375.25l26.729-3.94v.192l-26.729,3.94Z" transform="translate(-489.363 -354.902)" fill="#1b2f32"/>
              <path id="Контур_2590" data-name="Контур 2590" d="M489.363,375.055l26.729-3.94v.192l-26.729,3.94Z" transform="translate(-489.363 -354.899)" fill="#1b3033"/>
              <path id="Контур_2591" data-name="Контур 2591" d="M489.363,374.86l26.729-3.94v.192l-26.729,3.94Z" transform="translate(-489.363 -354.896)" fill="#1c3134"/>
              <path id="Контур_2592" data-name="Контур 2592" d="M489.363,374.665l26.729-3.94v.192l-26.729,3.94Z" transform="translate(-489.363 -354.893)" fill="#1c3235"/>
              <path id="Контур_2593" data-name="Контур 2593" d="M489.363,374.47l26.729-3.94v.192l-26.729,3.94Z" transform="translate(-489.363 -354.89)" fill="#1d3336"/>
              <path id="Контур_2594" data-name="Контур 2594" d="M489.363,374.275l26.729-3.94v.192l-26.729,3.94Z" transform="translate(-489.363 -354.888)" fill="#1d3437"/>
              <path id="Контур_2595" data-name="Контур 2595" d="M489.363,374.08l26.729-3.94v.192l-26.729,3.94Z" transform="translate(-489.363 -354.885)" fill="#1e3539"/>
              <path id="Контур_2596" data-name="Контур 2596" d="M489.363,373.885l26.729-3.94v.192l-26.729,3.94Z" transform="translate(-489.363 -354.882)" fill="#1e363a"/>
              <path id="Контур_2597" data-name="Контур 2597" d="M489.363,373.69l26.729-3.94v.192l-26.729,3.94Z" transform="translate(-489.363 -354.879)" fill="#1f373b"/>
              <path id="Контур_2598" data-name="Контур 2598" d="M489.363,373.5l26.729-3.94v.192l-26.729,3.94Z" transform="translate(-489.363 -354.876)" fill="#1f383c"/>
              <path id="Контур_2599" data-name="Контур 2599" d="M489.363,373.3l26.729-3.94v.192l-26.729,3.94Z" transform="translate(-489.363 -354.873)" fill="#20393d"/>
              <path id="Контур_2600" data-name="Контур 2600" d="M489.363,373.106l26.729-3.94v.192l-26.729,3.94Z" transform="translate(-489.363 -354.871)" fill="#203b3e"/>
              <path id="Контур_2601" data-name="Контур 2601" d="M489.363,372.911l26.729-3.94v.192l-26.729,3.94Z" transform="translate(-489.363 -354.868)" fill="#213c3f"/>
              <path id="Контур_2602" data-name="Контур 2602" d="M489.363,372.716l26.729-3.94v.192l-26.729,3.94Z" transform="translate(-489.363 -354.865)" fill="#223d40"/>
              <path id="Контур_2603" data-name="Контур 2603" d="M489.363,372.521l26.729-3.94v.192l-26.729,3.94Z" transform="translate(-489.363 -354.862)" fill="#223e42"/>
              <path id="Контур_2604" data-name="Контур 2604" d="M489.363,372.326l26.729-3.94v.192l-26.729,3.94Z" transform="translate(-489.363 -354.859)" fill="#233f43"/>
              <path id="Контур_2605" data-name="Контур 2605" d="M489.363,372.131l26.729-3.94v.192l-26.729,3.94Z" transform="translate(-489.363 -354.856)" fill="#234044"/>
              <path id="Контур_2606" data-name="Контур 2606" d="M489.363,371.936,516.092,368v.192l-26.729,3.94Z" transform="translate(-489.363 -354.853)" fill="#244145"/>
              <path id="Контур_2607" data-name="Контур 2607" d="M489.363,371.741l26.729-3.94v.192l-26.729,3.94Z" transform="translate(-489.363 -354.851)" fill="#244246"/>
              <path id="Контур_2608" data-name="Контур 2608" d="M489.363,371.547l26.729-3.94v.192l-26.729,3.94Z" transform="translate(-489.363 -354.848)" fill="#254448"/>
              <path id="Контур_2609" data-name="Контур 2609" d="M489.363,371.352l26.729-3.94v.192l-26.729,3.94Z" transform="translate(-489.363 -354.845)" fill="#264549"/>
              <path id="Контур_2610" data-name="Контур 2610" d="M489.363,371.157l26.729-3.94v.192l-26.729,3.94Z" transform="translate(-489.363 -354.842)" fill="#26464a"/>
              <path id="Контур_2611" data-name="Контур 2611" d="M489.363,370.962l26.729-3.94v.192l-26.729,3.94Z" transform="translate(-489.363 -354.839)" fill="#27474c"/>
              <path id="Контур_2612" data-name="Контур 2612" d="M489.363,370.767l26.729-3.94v.192l-26.729,3.94Z" transform="translate(-489.363 -354.836)" fill="#27484d"/>
              <path id="Контур_2613" data-name="Контур 2613" d="M489.363,370.572l26.729-3.94v.192l-26.729,3.94Z" transform="translate(-489.363 -354.834)" fill="#284a4e"/>
              <path id="Контур_2614" data-name="Контур 2614" d="M489.363,370.377l26.729-3.94v.192l-26.729,3.94Z" transform="translate(-489.363 -354.831)" fill="#294b50"/>
              <path id="Контур_2615" data-name="Контур 2615" d="M489.363,370.182l26.729-3.94v.192l-26.729,3.94Z" transform="translate(-489.363 -354.828)" fill="#294c51"/>
              <path id="Контур_2616" data-name="Контур 2616" d="M489.363,369.987l26.729-3.94v.192l-26.729,3.94Z" transform="translate(-489.363 -354.825)" fill="#2a4d52"/>
              <path id="Контур_2617" data-name="Контур 2617" d="M489.363,369.792l26.729-3.94v.192l-26.729,3.94Z" transform="translate(-489.363 -354.822)" fill="#2a4f54"/>
              <path id="Контур_2618" data-name="Контур 2618" d="M489.363,369.6l26.729-3.94v.192l-26.729,3.94Z" transform="translate(-489.363 -354.819)" fill="#2b5055"/>
              <path id="Контур_2619" data-name="Контур 2619" d="M489.363,369.4l26.729-3.94v.192l-26.729,3.94Z" transform="translate(-489.363 -354.816)" fill="#2c5156"/>
              <path id="Контур_2620" data-name="Контур 2620" d="M489.363,369.208l26.729-3.94v.192l-26.729,3.94Z" transform="translate(-489.363 -354.814)" fill="#2c5358"/>
              <path id="Контур_2621" data-name="Контур 2621" d="M489.363,369.013l26.729-3.94v.192l-26.729,3.94Z" transform="translate(-489.363 -354.811)" fill="#2d5459"/>
              <path id="Контур_2622" data-name="Контур 2622" d="M489.363,368.818l26.729-3.94v.192l-26.729,3.94Z" transform="translate(-489.363 -354.808)" fill="#2e555b"/>
              <path id="Контур_2623" data-name="Контур 2623" d="M489.363,368.623l26.729-3.94v.192l-26.729,3.94Z" transform="translate(-489.363 -354.805)" fill="#2e575c"/>
              <path id="Контур_2624" data-name="Контур 2624" d="M489.363,368.428l26.729-3.94v.192l-26.729,3.94Z" transform="translate(-489.363 -354.802)" fill="#2f585e"/>
              <path id="Контур_2625" data-name="Контур 2625" d="M489.363,368.233l26.729-3.94v.192l-26.729,3.94Z" transform="translate(-489.363 -354.799)" fill="#30595f"/>
              <path id="Контур_2626" data-name="Контур 2626" d="M489.363,368.038l26.729-3.94v.192l-26.729,3.94Z" transform="translate(-489.363 -354.797)" fill="#305b61"/>
              <path id="Контур_2627" data-name="Контур 2627" d="M489.363,367.843l26.729-3.94v.192l-26.729,3.94Z" transform="translate(-489.363 -354.794)" fill="#315c62"/>
              <path id="Контур_2628" data-name="Контур 2628" d="M489.363,367.648l26.729-3.94v.192l-26.729,3.94Z" transform="translate(-489.363 -354.791)" fill="#325e64"/>
              <path id="Контур_2629" data-name="Контур 2629" d="M489.363,367.453l26.729-3.94v.192l-26.729,3.94Z" transform="translate(-489.363 -354.788)" fill="#335f65"/>
              <path id="Контур_2630" data-name="Контур 2630" d="M489.363,367.259l26.729-3.94v.192l-26.729,3.94Z" transform="translate(-489.363 -354.785)" fill="#336167"/>
              <path id="Контур_2631" data-name="Контур 2631" d="M489.363,367.064l26.729-3.94v.192l-26.729,3.94Z" transform="translate(-489.363 -354.782)" fill="#346268"/>
              <path id="Контур_2632" data-name="Контур 2632" d="M489.363,366.869l26.729-3.94v.192l-26.729,3.94Z" transform="translate(-489.363 -354.78)" fill="#35646a"/>
              <path id="Контур_2633" data-name="Контур 2633" d="M489.363,366.674l26.729-3.94v.192l-26.729,3.94Z" transform="translate(-489.363 -354.777)" fill="#36656c"/>
              <path id="Контур_2634" data-name="Контур 2634" d="M489.363,366.479l26.729-3.94v.192l-26.729,3.94Z" transform="translate(-489.363 -354.774)" fill="#36676d"/>
              <path id="Контур_2635" data-name="Контур 2635" d="M489.363,366.284l26.729-3.94v.192l-26.729,3.94Z" transform="translate(-489.363 -354.771)" fill="#37686f"/>
              <path id="Контур_2636" data-name="Контур 2636" d="M489.363,366.089l26.729-3.94v.192l-26.729,3.94Z" transform="translate(-489.363 -354.768)" fill="#386a70"/>
              <path id="Контур_2637" data-name="Контур 2637" d="M489.363,365.894l26.729-3.94v.192l-26.729,3.94Z" transform="translate(-489.363 -354.765)" fill="#396b72"/>
              <path id="Контур_2638" data-name="Контур 2638" d="M489.363,365.7l26.729-3.94v.192l-26.729,3.94Z" transform="translate(-489.363 -354.762)" fill="#396d74"/>
              <path id="Контур_2639" data-name="Контур 2639" d="M489.363,365.5l26.729-3.94v.192l-26.729,3.94Z" transform="translate(-489.363 -354.76)" fill="#3a6e75"/>
              <path id="Контур_2640" data-name="Контур 2640" d="M489.363,365.309l26.729-3.94v.192l-26.729,3.94Z" transform="translate(-489.363 -354.757)" fill="#3b7077"/>
              <path id="Контур_2641" data-name="Контур 2641" d="M489.363,365.115l26.729-3.94v.192l-26.729,3.94Z" transform="translate(-489.363 -354.754)" fill="#3c7279"/>
              <path id="Контур_2642" data-name="Контур 2642" d="M489.363,364.92l26.729-3.94v.192l-26.729,3.94Z" transform="translate(-489.363 -354.751)" fill="#3c737b"/>
              <path id="Контур_2643" data-name="Контур 2643" d="M489.363,364.725l26.729-3.94v.192l-26.729,3.94Z" transform="translate(-489.363 -354.748)" fill="#3d757c"/>
              <path id="Контур_2644" data-name="Контур 2644" d="M489.363,364.53l26.729-3.94v.192l-26.729,3.94Z" transform="translate(-489.363 -354.745)" fill="#3e777e"/>
              <path id="Контур_2645" data-name="Контур 2645" d="M489.363,364.335l26.729-3.94v.192l-26.729,3.94Z" transform="translate(-489.363 -354.743)" fill="#3f7880"/>
              <path id="Контур_2646" data-name="Контур 2646" d="M489.363,364.14l26.729-3.94v.192l-26.729,3.94Z" transform="translate(-489.363 -354.74)" fill="#407a82"/>
              <path id="Контур_2647" data-name="Контур 2647" d="M489.363,363.945l26.729-3.94v.192l-26.729,3.94Z" transform="translate(-489.363 -354.737)" fill="#417c83"/>
              <path id="Контур_2648" data-name="Контур 2648" d="M489.363,363.75l26.729-3.94V360l-26.729,3.94Z" transform="translate(-489.363 -354.734)" fill="#417d85"/>
              <path id="Контур_2649" data-name="Контур 2649" d="M489.363,363.555l26.729-3.94v.192l-26.729,3.94Z" transform="translate(-489.363 -354.731)" fill="#427f87"/>
              <path id="Контур_2650" data-name="Контур 2650" d="M489.363,363.36l26.729-3.94v.192l-26.729,3.94Z" transform="translate(-489.363 -354.728)" fill="#438189"/>
              <path id="Контур_2651" data-name="Контур 2651" d="M489.363,363.165l26.729-3.94v.192l-26.729,3.94Z" transform="translate(-489.363 -354.725)" fill="#44828b"/>
              <path id="Контур_2652" data-name="Контур 2652" d="M489.363,362.971l26.729-3.94v.192l-26.729,3.94Z" transform="translate(-489.363 -354.723)" fill="#45848d"/>
              <path id="Контур_2653" data-name="Контур 2653" d="M489.363,362.776l26.729-3.94v.192l-26.729,3.94Z" transform="translate(-489.363 -354.72)" fill="#46868f"/>
              <path id="Контур_2654" data-name="Контур 2654" d="M489.363,362.581l26.729-3.94v.192l-26.729,3.94Z" transform="translate(-489.363 -354.717)" fill="#478891"/>
              <path id="Контур_2655" data-name="Контур 2655" d="M489.363,362.386l26.729-3.94v.192l-26.729,3.94Z" transform="translate(-489.363 -354.714)" fill="#488a92"/>
              <path id="Контур_2656" data-name="Контур 2656" d="M489.363,362.191l26.729-3.94v.192l-26.729,3.94Z" transform="translate(-489.363 -354.711)" fill="#488b94"/>
              <path id="Контур_2657" data-name="Контур 2657" d="M489.363,362l26.729-3.94v.192l-26.729,3.94Z" transform="translate(-489.363 -354.708)" fill="#498d96"/>
              <path id="Контур_2658" data-name="Контур 2658" d="M489.363,361.8l26.729-3.94v.192l-26.729,3.94Z" transform="translate(-489.363 -354.706)" fill="#4a8f98"/>
              <path id="Контур_2659" data-name="Контур 2659" d="M489.363,361.606l26.729-3.94v.192l-26.729,3.94Z" transform="translate(-489.363 -354.703)" fill="#4b919a"/>
              <path id="Контур_2660" data-name="Контур 2660" d="M489.363,361.411l26.729-3.94v.192l-26.729,3.94Z" transform="translate(-489.363 -354.7)" fill="#4c939c"/>
              <path id="Контур_2661" data-name="Контур 2661" d="M489.363,361.216l26.729-3.94v.192l-26.729,3.94Z" transform="translate(-489.363 -354.697)" fill="#4d959e"/>
              <path id="Контур_2662" data-name="Контур 2662" d="M489.363,361.022l26.729-3.94v.192l-26.729,3.94Z" transform="translate(-489.363 -354.694)" fill="#4e97a0"/>
              <path id="Контур_2663" data-name="Контур 2663" d="M489.363,360.827l26.729-3.94v.192l-26.729,3.94Z" transform="translate(-489.363 -354.691)" fill="#4f99a2"/>
              <path id="Контур_2664" data-name="Контур 2664" d="M489.363,360.632l26.729-3.94v.192l-26.729,3.94Z" transform="translate(-489.363 -354.689)" fill="#509aa5"/>
              <path id="Контур_2665" data-name="Контур 2665" d="M489.363,360.437l26.729-3.94v.192l-26.729,3.94Z" transform="translate(-489.363 -354.686)" fill="#519ca7"/>
              <path id="Контур_2666" data-name="Контур 2666" d="M489.363,360.242l26.729-3.94v.192l-26.729,3.94Z" transform="translate(-489.363 -354.683)" fill="#529ea9"/>
              <path id="Контур_2667" data-name="Контур 2667" d="M489.363,360.047l26.729-3.94v.192l-26.729,3.94Z" transform="translate(-489.363 -354.68)" fill="#53a0ab"/>
              <path id="Контур_2668" data-name="Контур 2668" d="M489.363,359.852l26.729-3.94v.192l-26.729,3.94Z" transform="translate(-489.363 -354.677)" fill="#54a2ad"/>
              <path id="Контур_2669" data-name="Контур 2669" d="M489.363,359.657l26.729-3.94v.192l-26.729,3.94Z" transform="translate(-489.363 -354.674)" fill="#55a4af"/>
              <path id="Контур_2670" data-name="Контур 2670" d="M489.363,359.462l26.729-3.94v.192l-26.729,3.94Z" transform="translate(-489.363 -354.671)" fill="#56a6b1"/>
              <path id="Контур_2671" data-name="Контур 2671" d="M489.363,359.267l26.729-3.94v.192l-26.729,3.94Z" transform="translate(-489.363 -354.669)" fill="#57a8b3"/>
              <path id="Контур_2672" data-name="Контур 2672" d="M489.363,359.072l26.729-3.94v.192l-26.729,3.94Z" transform="translate(-489.363 -354.666)" fill="#58aab6"/>
              <path id="Контур_2673" data-name="Контур 2673" d="M489.363,358.878l26.729-3.94v.192l-26.729,3.94Z" transform="translate(-489.363 -354.663)" fill="#59acb8"/>
              <path id="Контур_2674" data-name="Контур 2674" d="M489.363,358.683l26.729-3.94v.192l-26.729,3.94Z" transform="translate(-489.363 -354.66)" fill="#5aafba"/>
              <path id="Контур_2675" data-name="Контур 2675" d="M489.363,358.489l25.988-3.83h.741v.083l-26.729,3.94Z" transform="translate(-489.363 -354.659)" fill="#5bb1bc"/>
              <path id="Контур_2676" data-name="Контур 2676" d="M489.363,358.3l24.685-3.638h1.3l-25.988,3.83Z" transform="translate(-489.363 -354.659)" fill="#5cb3be"/>
              <path id="Контур_2677" data-name="Контур 2677" d="M489.363,358.105l23.382-3.446h1.3L489.363,358.3Z" transform="translate(-489.363 -354.659)" fill="#5db5c1"/>
              <path id="Контур_2678" data-name="Контур 2678" d="M489.363,357.913l22.079-3.254h1.3l-23.382,3.446Z" transform="translate(-489.363 -354.659)" fill="#5eb7c3"/>
              <path id="Контур_2679" data-name="Контур 2679" d="M511.442,354.659l-22.079,3.254v-3.254Z" transform="translate(-489.363 -354.659)" fill="#5eb7c3"/>
            </g>
          </g>
        </g>
      </g>
    </g>
  </g>
</svg>
