<svg xmlns="http://www.w3.org/2000/svg" xmlns:xlink="http://www.w3.org/1999/xlink" width="32" height="32" viewBox="0 0 32 32">
  <defs>
    <clipPath id="clip-path">
      <path id="Контур_3053" data-name="Контур 3053" d="M500.527,256.226a10.119,10.119,0,0,1,20.239,0h-1a9.119,9.119,0,0,0-18.239,0Z" transform="translate(-500.527 -246.107)" fill="none"/>
    </clipPath>
  </defs>
  <g id="Сгруппировать_669" data-name="Сгруппировать 669" transform="translate(-494.629 -224.528)">
    <g id="Сгруппировать_664" data-name="Сгруппировать 664" transform="translate(494.629 224.528)">
      <path id="Контур_3052" data-name="Контур 3052" d="M510.628,256.528a16,16,0,1,1,16-16A16.017,16.017,0,0,1,510.628,256.528Zm0-30a14,14,0,1,0,14,14A14.018,14.018,0,0,0,510.628,226.526Z" transform="translate(-494.629 -224.528)" fill="#070707"/>
    </g>
    <g id="Сгруппировать_667" data-name="Сгруппировать 667" transform="translate(500.51 246.071)">
      <g id="Сгруппировать_666" data-name="Сгруппировать 666">
        <g id="Сгруппировать_665" data-name="Сгруппировать 665" clip-path="url(#clip-path)">
          <rect id="Прямоугольник_2150" data-name="Прямоугольник 2150" width="0.09" height="10.119" transform="translate(20.149 0)" fill="#5cb3bf"/>
          <rect id="Прямоугольник_2151" data-name="Прямоугольник 2151" width="0.113" height="10.119" transform="translate(20.036 0)" fill="#5bb2bd"/>
          <rect id="Прямоугольник_2152" data-name="Прямоугольник 2152" width="0.113" height="10.119" transform="translate(19.923 0)" fill="#5bb1bc"/>
          <rect id="Прямоугольник_2153" data-name="Прямоугольник 2153" width="0.113" height="10.119" transform="translate(19.81 0)" fill="#5ab0bb"/>
          <rect id="Прямоугольник_2154" data-name="Прямоугольник 2154" width="0.113" height="10.119" transform="translate(19.698 0)" fill="#5aafba"/>
          <rect id="Прямоугольник_2155" data-name="Прямоугольник 2155" width="0.113" height="10.119" transform="translate(19.585 0)" fill="#59aeb9"/>
          <rect id="Прямоугольник_2156" data-name="Прямоугольник 2156" width="0.113" height="10.119" transform="translate(19.472 0)" fill="#59adb8"/>
          <rect id="Прямоугольник_2157" data-name="Прямоугольник 2157" width="0.113" height="10.119" transform="translate(19.359 0)" fill="#58acb7"/>
          <rect id="Прямоугольник_2158" data-name="Прямоугольник 2158" width="0.113" height="10.119" transform="translate(19.246 0)" fill="#58abb6"/>
          <rect id="Прямоугольник_2159" data-name="Прямоугольник 2159" width="0.113" height="10.119" transform="translate(19.133 0)" fill="#57aab5"/>
          <rect id="Прямоугольник_2160" data-name="Прямоугольник 2160" width="0.113" height="10.119" transform="translate(19.02 0)" fill="#57a8b3"/>
          <rect id="Прямоугольник_2161" data-name="Прямоугольник 2161" width="0.113" height="10.119" transform="translate(18.908 0)" fill="#56a7b2"/>
          <rect id="Прямоугольник_2162" data-name="Прямоугольник 2162" width="0.113" height="10.119" transform="translate(18.795 0)" fill="#56a6b1"/>
          <rect id="Прямоугольник_2163" data-name="Прямоугольник 2163" width="0.113" height="10.119" transform="translate(18.682 0)" fill="#55a5b0"/>
          <rect id="Прямоугольник_2164" data-name="Прямоугольник 2164" width="0.113" height="10.119" transform="translate(18.569 0)" fill="#55a4af"/>
          <rect id="Прямоугольник_2165" data-name="Прямоугольник 2165" width="0.113" height="10.119" transform="translate(18.456 0)" fill="#54a3ae"/>
          <rect id="Прямоугольник_2166" data-name="Прямоугольник 2166" width="0.113" height="10.119" transform="translate(18.343 0)" fill="#54a2ad"/>
          <rect id="Прямоугольник_2167" data-name="Прямоугольник 2167" width="0.113" height="10.119" transform="translate(18.231 0)" fill="#53a1ac"/>
          <rect id="Прямоугольник_2168" data-name="Прямоугольник 2168" width="0.113" height="10.119" transform="translate(18.118 0)" fill="#53a0ab"/>
          <rect id="Прямоугольник_2169" data-name="Прямоугольник 2169" width="0.113" height="10.119" transform="translate(18.005 0)" fill="#529faa"/>
          <rect id="Прямоугольник_2170" data-name="Прямоугольник 2170" width="0.113" height="10.119" transform="translate(17.892 0)" fill="#529ea8"/>
          <rect id="Прямоугольник_2171" data-name="Прямоугольник 2171" width="0.113" height="10.119" transform="translate(17.779 0)" fill="#519da7"/>
          <rect id="Прямоугольник_2172" data-name="Прямоугольник 2172" width="0.113" height="10.119" transform="translate(17.666 0)" fill="#519ca6"/>
          <rect id="Прямоугольник_2173" data-name="Прямоугольник 2173" width="0.113" height="10.119" transform="translate(17.554 0)" fill="#509ba5"/>
          <rect id="Прямоугольник_2174" data-name="Прямоугольник 2174" width="0.113" height="10.119" transform="translate(17.441 0)" fill="#509aa4"/>
          <rect id="Прямоугольник_2175" data-name="Прямоугольник 2175" width="0.113" height="10.119" transform="translate(17.328 0)" fill="#4f99a3"/>
          <rect id="Прямоугольник_2176" data-name="Прямоугольник 2176" width="0.113" height="10.119" transform="translate(17.215 0)" fill="#4f98a2"/>
          <rect id="Прямоугольник_2177" data-name="Прямоугольник 2177" width="0.113" height="10.119" transform="translate(17.102 0)" fill="#4e97a1"/>
          <rect id="Прямоугольник_2178" data-name="Прямоугольник 2178" width="0.113" height="10.119" transform="translate(16.989 0)" fill="#4e96a0"/>
          <rect id="Прямоугольник_2179" data-name="Прямоугольник 2179" width="0.113" height="10.119" transform="translate(16.877 0)" fill="#4d959f"/>
          <rect id="Прямоугольник_2180" data-name="Прямоугольник 2180" width="0.113" height="10.119" transform="translate(16.764 0)" fill="#4d949e"/>
          <rect id="Прямоугольник_2181" data-name="Прямоугольник 2181" width="0.113" height="10.119" transform="translate(16.651 0)" fill="#4c939c"/>
          <rect id="Прямоугольник_2182" data-name="Прямоугольник 2182" width="0.113" height="10.119" transform="translate(16.538 0)" fill="#4c929b"/>
          <rect id="Прямоугольник_2183" data-name="Прямоугольник 2183" width="0.113" height="10.119" transform="translate(16.425 0)" fill="#4b919a"/>
          <rect id="Прямоугольник_2184" data-name="Прямоугольник 2184" width="0.113" height="10.119" transform="translate(16.312 0)" fill="#4b9099"/>
          <rect id="Прямоугольник_2185" data-name="Прямоугольник 2185" width="0.113" height="10.119" transform="translate(16.199 0)" fill="#4a8f98"/>
          <rect id="Прямоугольник_2186" data-name="Прямоугольник 2186" width="0.113" height="10.119" transform="translate(16.087 0)" fill="#4a8e97"/>
          <rect id="Прямоугольник_2187" data-name="Прямоугольник 2187" width="0.113" height="10.119" transform="translate(15.974 0)" fill="#498d96"/>
          <rect id="Прямоугольник_2188" data-name="Прямоугольник 2188" width="0.113" height="10.119" transform="translate(15.861 0)" fill="#498c95"/>
          <rect id="Прямоугольник_2189" data-name="Прямоугольник 2189" width="0.113" height="10.119" transform="translate(15.748 0)" fill="#488b94"/>
          <rect id="Прямоугольник_2190" data-name="Прямоугольник 2190" width="0.113" height="10.119" transform="translate(15.635 0)" fill="#488a93"/>
          <rect id="Прямоугольник_2191" data-name="Прямоугольник 2191" width="0.113" height="10.119" transform="translate(15.522 0)" fill="#478992"/>
          <rect id="Прямоугольник_2192" data-name="Прямоугольник 2192" width="0.113" height="10.119" transform="translate(15.41 0)" fill="#478891"/>
          <rect id="Прямоугольник_2193" data-name="Прямоугольник 2193" width="0.113" height="10.119" transform="translate(15.297 0)" fill="#46878f"/>
          <rect id="Прямоугольник_2194" data-name="Прямоугольник 2194" width="0.113" height="10.119" transform="translate(15.184 0)" fill="#46868e"/>
          <rect id="Прямоугольник_2195" data-name="Прямоугольник 2195" width="0.113" height="10.119" transform="translate(15.071 0)" fill="#45858d"/>
          <rect id="Прямоугольник_2196" data-name="Прямоугольник 2196" width="0.113" height="10.119" transform="translate(14.958 0)" fill="#45848c"/>
          <rect id="Прямоугольник_2197" data-name="Прямоугольник 2197" width="0.113" height="10.119" transform="translate(14.845 0)" fill="#44838b"/>
          <rect id="Прямоугольник_2198" data-name="Прямоугольник 2198" width="0.113" height="10.119" transform="translate(14.733 0)" fill="#44828a"/>
          <rect id="Прямоугольник_2199" data-name="Прямоугольник 2199" width="0.113" height="10.119" transform="translate(14.62 0)" fill="#438189"/>
          <rect id="Прямоугольник_2200" data-name="Прямоугольник 2200" width="0.113" height="10.119" transform="translate(14.507 0)" fill="#438088"/>
          <rect id="Прямоугольник_2201" data-name="Прямоугольник 2201" width="0.113" height="10.119" transform="translate(14.394 0)" fill="#427f87"/>
          <rect id="Прямоугольник_2202" data-name="Прямоугольник 2202" width="0.113" height="10.119" transform="translate(14.281 0)" fill="#427e86"/>
          <rect id="Прямоугольник_2203" data-name="Прямоугольник 2203" width="0.113" height="10.119" transform="translate(14.168 0)" fill="#417d85"/>
          <rect id="Прямоугольник_2204" data-name="Прямоугольник 2204" width="0.113" height="10.119" transform="translate(14.056 0)" fill="#417c84"/>
          <rect id="Прямоугольник_2205" data-name="Прямоугольник 2205" width="0.113" height="10.119" transform="translate(13.943 0)" fill="#407b83"/>
          <rect id="Прямоугольник_2206" data-name="Прямоугольник 2206" width="0.113" height="10.119" transform="translate(13.83 0)" fill="#407a81"/>
          <rect id="Прямоугольник_2207" data-name="Прямоугольник 2207" width="0.113" height="10.119" transform="translate(13.717 0)" fill="#3f7980"/>
          <rect id="Прямоугольник_2208" data-name="Прямоугольник 2208" width="0.113" height="10.119" transform="translate(13.604 0)" fill="#3f787f"/>
          <rect id="Прямоугольник_2209" data-name="Прямоугольник 2209" width="0.113" height="10.119" transform="translate(13.491 0)" fill="#3e777e"/>
          <rect id="Прямоугольник_2210" data-name="Прямоугольник 2210" width="0.113" height="10.119" transform="translate(13.379 0)" fill="#3e767d"/>
          <rect id="Прямоугольник_2211" data-name="Прямоугольник 2211" width="0.113" height="10.119" transform="translate(13.266 0)" fill="#3d757c"/>
          <rect id="Прямоугольник_2212" data-name="Прямоугольник 2212" width="0.113" height="10.119" transform="translate(13.153 0)" fill="#3d747b"/>
          <rect id="Прямоугольник_2213" data-name="Прямоугольник 2213" width="0.113" height="10.119" transform="translate(13.04 0)" fill="#3c737a"/>
          <rect id="Прямоугольник_2214" data-name="Прямоугольник 2214" width="0.113" height="10.119" transform="translate(12.927 0)" fill="#3c7279"/>
          <rect id="Прямоугольник_2215" data-name="Прямоугольник 2215" width="0.113" height="10.119" transform="translate(12.814 0)" fill="#3b7178"/>
          <rect id="Прямоугольник_2216" data-name="Прямоугольник 2216" width="0.113" height="10.119" transform="translate(12.702 0)" fill="#3b7077"/>
          <rect id="Прямоугольник_2217" data-name="Прямоугольник 2217" width="0.113" height="10.119" transform="translate(12.589 0)" fill="#3a6f76"/>
          <rect id="Прямоугольник_2218" data-name="Прямоугольник 2218" width="0.113" height="10.119" transform="translate(12.476 0)" fill="#3a6e75"/>
          <rect id="Прямоугольник_2219" data-name="Прямоугольник 2219" width="0.113" height="10.119" transform="translate(12.363 0)" fill="#396d74"/>
          <rect id="Прямоугольник_2220" data-name="Прямоугольник 2220" width="0.113" height="10.119" transform="translate(12.25 0)" fill="#396c73"/>
          <rect id="Прямоугольник_2221" data-name="Прямоугольник 2221" width="0.113" height="10.119" transform="translate(12.137 0)" fill="#386b72"/>
          <rect id="Прямоугольник_2222" data-name="Прямоугольник 2222" width="0.113" height="10.119" transform="translate(12.024 0)" fill="#386a71"/>
          <rect id="Прямоугольник_2223" data-name="Прямоугольник 2223" width="0.113" height="10.119" transform="translate(11.912 0)" fill="#37696f"/>
          <rect id="Прямоугольник_2224" data-name="Прямоугольник 2224" width="0.113" height="10.119" transform="translate(11.799 0)" fill="#37686e"/>
          <rect id="Прямоугольник_2225" data-name="Прямоугольник 2225" width="0.113" height="10.119" transform="translate(11.686 0)" fill="#36676d"/>
          <rect id="Прямоугольник_2226" data-name="Прямоугольник 2226" width="0.113" height="10.119" transform="translate(11.573 0)" fill="#36666c"/>
          <rect id="Прямоугольник_2227" data-name="Прямоугольник 2227" width="0.113" height="10.119" transform="translate(11.46 0)" fill="#35656b"/>
          <rect id="Прямоугольник_2228" data-name="Прямоугольник 2228" width="0.113" height="10.119" transform="translate(11.347 0)" fill="#35646a"/>
          <rect id="Прямоугольник_2229" data-name="Прямоугольник 2229" width="0.113" height="10.119" transform="translate(11.235 0)" fill="#346369"/>
          <rect id="Прямоугольник_2230" data-name="Прямоугольник 2230" width="0.113" height="10.119" transform="translate(11.122 0)" fill="#346268"/>
          <rect id="Прямоугольник_2231" data-name="Прямоугольник 2231" width="0.113" height="10.119" transform="translate(11.009 0)" fill="#336167"/>
          <rect id="Прямоугольник_2232" data-name="Прямоугольник 2232" width="0.113" height="10.119" transform="translate(10.896 0)" fill="#336066"/>
          <rect id="Прямоугольник_2233" data-name="Прямоугольник 2233" width="0.113" height="10.119" transform="translate(10.783 0)" fill="#325f65"/>
          <rect id="Прямоугольник_2234" data-name="Прямоугольник 2234" width="0.113" height="10.119" transform="translate(10.67 0)" fill="#325e64"/>
          <rect id="Прямоугольник_2235" data-name="Прямоугольник 2235" width="0.113" height="10.119" transform="translate(10.558 0)" fill="#325d63"/>
          <rect id="Прямоугольник_2236" data-name="Прямоугольник 2236" width="0.113" height="10.119" transform="translate(10.445 0)" fill="#315c62"/>
          <rect id="Прямоугольник_2237" data-name="Прямоугольник 2237" width="0.113" height="10.119" transform="translate(10.332 0)" fill="#315b61"/>
          <rect id="Прямоугольник_2238" data-name="Прямоугольник 2238" width="0.113" height="10.119" transform="translate(10.219 0)" fill="#305a60"/>
          <rect id="Прямоугольник_2239" data-name="Прямоугольник 2239" width="0.113" height="10.119" transform="translate(10.106 0)" fill="#30595f"/>
          <rect id="Прямоугольник_2240" data-name="Прямоугольник 2240" width="0.113" height="10.119" transform="translate(9.993 0)" fill="#2f585e"/>
          <rect id="Прямоугольник_2241" data-name="Прямоугольник 2241" width="0.113" height="10.119" transform="translate(9.88 0)" fill="#2f575d"/>
          <rect id="Прямоугольник_2242" data-name="Прямоугольник 2242" width="0.113" height="10.119" transform="translate(9.768 0)" fill="#2e565c"/>
          <rect id="Прямоугольник_2243" data-name="Прямоугольник 2243" width="0.113" height="10.119" transform="translate(9.655 0)" fill="#2e555b"/>
          <rect id="Прямоугольник_2244" data-name="Прямоугольник 2244" width="0.113" height="10.119" transform="translate(9.542 0)" fill="#2d545a"/>
          <rect id="Прямоугольник_2245" data-name="Прямоугольник 2245" width="0.113" height="10.119" transform="translate(9.429 0)" fill="#2d5359"/>
          <rect id="Прямоугольник_2246" data-name="Прямоугольник 2246" width="0.113" height="10.119" transform="translate(9.316 0)" fill="#2c5258"/>
          <rect id="Прямоугольник_2247" data-name="Прямоугольник 2247" width="0.113" height="10.119" transform="translate(9.203 0)" fill="#2c5157"/>
          <rect id="Прямоугольник_2248" data-name="Прямоугольник 2248" width="0.113" height="10.119" transform="translate(9.091 0)" fill="#2b5056"/>
          <rect id="Прямоугольник_2249" data-name="Прямоугольник 2249" width="0.113" height="10.119" transform="translate(8.978 0)" fill="#2b5054"/>
          <rect id="Прямоугольник_2250" data-name="Прямоугольник 2250" width="0.113" height="10.119" transform="translate(8.865 0)" fill="#2a4f53"/>
          <rect id="Прямоугольник_2251" data-name="Прямоугольник 2251" width="0.113" height="10.119" transform="translate(8.752 0)" fill="#2a4e52"/>
          <rect id="Прямоугольник_2252" data-name="Прямоугольник 2252" width="0.113" height="10.119" transform="translate(8.639 0)" fill="#294d51"/>
          <rect id="Прямоугольник_2253" data-name="Прямоугольник 2253" width="0.113" height="10.119" transform="translate(8.526 0)" fill="#294c50"/>
          <rect id="Прямоугольник_2254" data-name="Прямоугольник 2254" width="0.113" height="10.119" transform="translate(8.414 0)" fill="#294b4f"/>
          <rect id="Прямоугольник_2255" data-name="Прямоугольник 2255" width="0.113" height="10.119" transform="translate(8.301 0)" fill="#284a4e"/>
          <rect id="Прямоугольник_2256" data-name="Прямоугольник 2256" width="0.113" height="10.119" transform="translate(8.188 0)" fill="#28494d"/>
          <rect id="Прямоугольник_2257" data-name="Прямоугольник 2257" width="0.113" height="10.119" transform="translate(8.075 0)" fill="#27484c"/>
          <rect id="Прямоугольник_2258" data-name="Прямоугольник 2258" width="0.113" height="10.119" transform="translate(7.962 0)" fill="#27474b"/>
          <rect id="Прямоугольник_2259" data-name="Прямоугольник 2259" width="0.113" height="10.119" transform="translate(7.849 0)" fill="#26464a"/>
          <rect id="Прямоугольник_2260" data-name="Прямоугольник 2260" width="0.113" height="10.119" transform="translate(7.737 0)" fill="#264549"/>
          <rect id="Прямоугольник_2261" data-name="Прямоугольник 2261" width="0.113" height="10.119" transform="translate(7.624 0)" fill="#254448"/>
          <rect id="Прямоугольник_2262" data-name="Прямоугольник 2262" width="0.113" height="10.119" transform="translate(7.511 0)" fill="#254347"/>
          <rect id="Прямоугольник_2263" data-name="Прямоугольник 2263" width="0.113" height="10.119" transform="translate(7.398 0)" fill="#244246"/>
          <rect id="Прямоугольник_2264" data-name="Прямоугольник 2264" width="0.113" height="10.119" transform="translate(7.285 0)" fill="#244145"/>
          <rect id="Прямоугольник_2265" data-name="Прямоугольник 2265" width="0.113" height="10.119" transform="translate(7.172 0)" fill="#234044"/>
          <rect id="Прямоугольник_2266" data-name="Прямоугольник 2266" width="0.113" height="10.119" transform="translate(7.06 0)" fill="#233f43"/>
          <rect id="Прямоугольник_2267" data-name="Прямоугольник 2267" width="0.113" height="10.119" transform="translate(6.947 0)" fill="#223f42"/>
          <rect id="Прямоугольник_2268" data-name="Прямоугольник 2268" width="0.113" height="10.119" transform="translate(6.834 0)" fill="#223e41"/>
          <rect id="Прямоугольник_2269" data-name="Прямоугольник 2269" width="0.113" height="10.119" transform="translate(6.721 0)" fill="#223d40"/>
          <rect id="Прямоугольник_2270" data-name="Прямоугольник 2270" width="0.113" height="10.119" transform="translate(6.608 0)" fill="#213c3f"/>
          <rect id="Прямоугольник_2271" data-name="Прямоугольник 2271" width="0.113" height="10.119" transform="translate(6.495 0)" fill="#213b3e"/>
          <rect id="Прямоугольник_2272" data-name="Прямоугольник 2272" width="0.113" height="10.119" transform="translate(6.382 0)" fill="#203a3d"/>
          <rect id="Прямоугольник_2273" data-name="Прямоугольник 2273" width="0.113" height="10.119" transform="translate(6.27 0)" fill="#20393c"/>
          <rect id="Прямоугольник_2274" data-name="Прямоугольник 2274" width="0.113" height="10.119" transform="translate(6.157 0)" fill="#1f383b"/>
          <rect id="Прямоугольник_2275" data-name="Прямоугольник 2275" width="0.113" height="10.119" transform="translate(6.044 0)" fill="#1f373a"/>
          <rect id="Прямоугольник_2276" data-name="Прямоугольник 2276" width="0.113" height="10.119" transform="translate(5.931 0)" fill="#1e3639"/>
          <rect id="Прямоугольник_2277" data-name="Прямоугольник 2277" width="0.113" height="10.119" transform="translate(5.818 0)" fill="#1e3538"/>
          <rect id="Прямоугольник_2278" data-name="Прямоугольник 2278" width="0.113" height="10.119" transform="translate(5.705 0)" fill="#1d3437"/>
          <rect id="Прямоугольник_2279" data-name="Прямоугольник 2279" width="0.113" height="10.119" transform="translate(5.593 0)" fill="#1d3336"/>
          <rect id="Прямоугольник_2280" data-name="Прямоугольник 2280" width="0.113" height="10.119" transform="translate(5.48 0)" fill="#1d3336"/>
          <rect id="Прямоугольник_2281" data-name="Прямоугольник 2281" width="0.113" height="10.119" transform="translate(5.367 0)" fill="#1c3235"/>
          <rect id="Прямоугольник_2282" data-name="Прямоугольник 2282" width="0.113" height="10.119" transform="translate(5.254 0)" fill="#1c3134"/>
          <rect id="Прямоугольник_2283" data-name="Прямоугольник 2283" width="0.113" height="10.119" transform="translate(5.141 0)" fill="#1b3033"/>
          <rect id="Прямоугольник_2284" data-name="Прямоугольник 2284" width="0.113" height="10.119" transform="translate(5.028 0)" fill="#1b2f32"/>
          <rect id="Прямоугольник_2285" data-name="Прямоугольник 2285" width="0.113" height="10.119" transform="translate(4.916 0)" fill="#1a2e31"/>
          <rect id="Прямоугольник_2286" data-name="Прямоугольник 2286" width="0.113" height="10.119" transform="translate(4.803 0)" fill="#1a2d30"/>
          <rect id="Прямоугольник_2287" data-name="Прямоугольник 2287" width="0.113" height="10.119" transform="translate(4.69 0)" fill="#192c2f"/>
          <rect id="Прямоугольник_2288" data-name="Прямоугольник 2288" width="0.113" height="10.119" transform="translate(4.577 0)" fill="#192b2e"/>
          <rect id="Прямоугольник_2289" data-name="Прямоугольник 2289" width="0.113" height="10.119" transform="translate(4.464 0)" fill="#192a2d"/>
          <rect id="Прямоугольник_2290" data-name="Прямоугольник 2290" width="0.113" height="10.119" transform="translate(4.351 0)" fill="#182a2c"/>
          <rect id="Прямоугольник_2291" data-name="Прямоугольник 2291" width="0.113" height="10.119" transform="translate(4.239 0)" fill="#18292b"/>
          <rect id="Прямоугольник_2292" data-name="Прямоугольник 2292" width="0.113" height="10.119" transform="translate(4.126 0)" fill="#17282a"/>
          <rect id="Прямоугольник_2293" data-name="Прямоугольник 2293" width="0.113" height="10.119" transform="translate(4.013 0)" fill="#172729"/>
          <rect id="Прямоугольник_2294" data-name="Прямоугольник 2294" width="0.113" height="10.119" transform="translate(3.9 0)" fill="#162628"/>
          <rect id="Прямоугольник_2295" data-name="Прямоугольник 2295" width="0.113" height="10.119" transform="translate(3.787 0)" fill="#162527"/>
          <rect id="Прямоугольник_2296" data-name="Прямоугольник 2296" width="0.113" height="10.119" transform="translate(3.674 0)" fill="#152426"/>
          <rect id="Прямоугольник_2297" data-name="Прямоугольник 2297" width="0.113" height="10.119" transform="translate(3.561 0)" fill="#152325"/>
          <rect id="Прямоугольник_2298" data-name="Прямоугольник 2298" width="0.113" height="10.119" transform="translate(3.449 0)" fill="#152324"/>
          <rect id="Прямоугольник_2299" data-name="Прямоугольник 2299" width="0.113" height="10.119" transform="translate(3.336 0)" fill="#142223"/>
          <rect id="Прямоугольник_2300" data-name="Прямоугольник 2300" width="0.113" height="10.119" transform="translate(3.223 0)" fill="#142123"/>
          <rect id="Прямоугольник_2301" data-name="Прямоугольник 2301" width="0.113" height="10.119" transform="translate(3.11 0)" fill="#132022"/>
          <rect id="Прямоугольник_2302" data-name="Прямоугольник 2302" width="0.113" height="10.119" transform="translate(2.997 0)" fill="#131f21"/>
          <rect id="Прямоугольник_2303" data-name="Прямоугольник 2303" width="0.113" height="10.119" transform="translate(2.884 0)" fill="#121e20"/>
          <rect id="Прямоугольник_2304" data-name="Прямоугольник 2304" width="0.113" height="10.119" transform="translate(2.772 0)" fill="#121d1f"/>
          <rect id="Прямоугольник_2305" data-name="Прямоугольник 2305" width="0.113" height="10.119" transform="translate(2.659 0)" fill="#121c1e"/>
          <rect id="Прямоугольник_2306" data-name="Прямоугольник 2306" width="0.113" height="10.119" transform="translate(2.546 0)" fill="#111c1d"/>
          <rect id="Прямоугольник_2307" data-name="Прямоугольник 2307" width="0.113" height="10.119" transform="translate(2.433 0)" fill="#111b1c"/>
          <rect id="Прямоугольник_2308" data-name="Прямоугольник 2308" width="0.113" height="10.119" transform="translate(2.32 0)" fill="#101a1b"/>
          <rect id="Прямоугольник_2309" data-name="Прямоугольник 2309" width="0.113" height="10.119" transform="translate(2.207 0)" fill="#10191a"/>
          <rect id="Прямоугольник_2310" data-name="Прямоугольник 2310" width="0.113" height="10.119" transform="translate(2.095 0)" fill="#101819"/>
          <rect id="Прямоугольник_2311" data-name="Прямоугольник 2311" width="0.113" height="10.119" transform="translate(1.982 0)" fill="#0f1719"/>
          <rect id="Прямоугольник_2312" data-name="Прямоугольник 2312" width="0.113" height="10.119" transform="translate(1.869 0)" fill="#0f1718"/>
          <rect id="Прямоугольник_2313" data-name="Прямоугольник 2313" width="0.113" height="10.119" transform="translate(1.756 0)" fill="#0e1617"/>
          <rect id="Прямоугольник_2314" data-name="Прямоугольник 2314" width="0.113" height="10.119" transform="translate(1.643 0)" fill="#0e1516"/>
          <rect id="Прямоугольник_2315" data-name="Прямоугольник 2315" width="0.113" height="10.119" transform="translate(1.53 0)" fill="#0e1415"/>
          <rect id="Прямоугольник_2316" data-name="Прямоугольник 2316" width="0.113" height="10.119" transform="translate(1.418 0)" fill="#0d1314"/>
          <rect id="Прямоугольник_2317" data-name="Прямоугольник 2317" width="0.113" height="10.119" transform="translate(1.305 0)" fill="#0d1313"/>
          <rect id="Прямоугольник_2318" data-name="Прямоугольник 2318" width="0.113" height="10.119" transform="translate(1.192 0)" fill="#0c1212"/>
          <rect id="Прямоугольник_2319" data-name="Прямоугольник 2319" width="0.113" height="10.119" transform="translate(1.079 0)" fill="#0c1112"/>
          <rect id="Прямоугольник_2320" data-name="Прямоугольник 2320" width="0.113" height="10.119" transform="translate(0.966 0)" fill="#0c1011"/>
          <rect id="Прямоугольник_2321" data-name="Прямоугольник 2321" width="0.113" height="10.119" transform="translate(0.853 0)" fill="#0b0f10"/>
          <rect id="Прямоугольник_2322" data-name="Прямоугольник 2322" width="0.113" height="10.119" transform="translate(0.741 0)" fill="#0b0f0f"/>
          <rect id="Прямоугольник_2323" data-name="Прямоугольник 2323" width="0.113" height="10.119" transform="translate(0.628 0)" fill="#0a0e0e"/>
          <rect id="Прямоугольник_2324" data-name="Прямоугольник 2324" width="0.113" height="10.119" transform="translate(0.515 0)" fill="#0a0d0e"/>
          <rect id="Прямоугольник_2325" data-name="Прямоугольник 2325" width="0.113" height="10.119" transform="translate(0.402 0)" fill="#0a0c0d"/>
          <rect id="Прямоугольник_2326" data-name="Прямоугольник 2326" width="0.113" height="10.119" transform="translate(0.289 0)" fill="#090c0c"/>
          <rect id="Прямоугольник_2327" data-name="Прямоугольник 2327" width="0.113" height="10.119" transform="translate(0.176 0)" fill="#090b0b"/>
          <rect id="Прямоугольник_2328" data-name="Прямоугольник 2328" width="0.113" height="10.119" transform="translate(0.063 0)" fill="#090a0a"/>
          <rect id="Прямоугольник_2329" data-name="Прямоугольник 2329" width="0.064" height="10.119" transform="translate(0 0)" fill="#08090a"/>
        </g>
      </g>
    </g>
    <g id="Сгруппировать_668" data-name="Сгруппировать 668" transform="translate(504.78 232.184)">
      <path id="Контур_3054" data-name="Контур 3054" d="M510.646,243.9a5.85,5.85,0,1,1,5.85-5.849A5.856,5.856,0,0,1,510.646,243.9Zm0-9.7a3.85,3.85,0,1,0,3.85,3.85A3.853,3.853,0,0,0,510.646,234.2Z" transform="translate(-504.798 -232.198)" fill="#201600"/>
    </g>
  </g>
</svg>
