<svg xmlns="http://www.w3.org/2000/svg" xmlns:xlink="http://www.w3.org/1999/xlink" width="19.003" height="19" viewBox="0 0 19.003 19">
  <defs>
    <clipPath id="clip-path">
      <path id="Контур_3487" data-name="Контур 3487" d="M532.36,109a9.5,9.5,0,0,1,19,0H550.7a8.836,8.836,0,0,0-17.672,0Z" transform="translate(-532.36 -99.503)" fill="#865dcf"/>
    </clipPath>
  </defs>
  <g id="Сгруппировать_751" data-name="Сгруппировать 751" transform="translate(-532.36 -99.503)">
    <g id="Сгруппировать_747" data-name="Сгруппировать 747" transform="translate(532.36 99.503)">
      <g id="Сгруппировать_746" data-name="Сгруппировать 746">
        <g id="Сгруппировать_745" data-name="Сгруппировать 745" clip-path="url(#clip-path)">
          <rect id="Прямоугольник_4572" data-name="Прямоугольник 4572" width="0.004" height="9.501" transform="translate(0 0)" fill="#865dcf"/>
          <rect id="Прямоугольник_4573" data-name="Прямоугольник 4573" width="0.104" height="9.501" transform="translate(0.005 0)" fill="#865dcf"/>
          <rect id="Прямоугольник_4574" data-name="Прямоугольник 4574" width="0.104" height="9.501" transform="translate(0.109 0)" fill="#865dcf"/>
          <rect id="Прямоугольник_4575" data-name="Прямоугольник 4575" width="0.104" height="9.501" transform="translate(0.214 0)" fill="#865dcf"/>
          <rect id="Прямоугольник_4576" data-name="Прямоугольник 4576" width="0.104" height="9.501" transform="translate(0.318 0)" fill="#865dcf"/>
          <rect id="Прямоугольник_4577" data-name="Прямоугольник 4577" width="0.104" height="9.501" transform="translate(0.423 0)" fill="#865dcf"/>
          <rect id="Прямоугольник_4578" data-name="Прямоугольник 4578" width="0.104" height="9.501" transform="translate(0.527 0)" fill="#865dcf"/>
          <rect id="Прямоугольник_4579" data-name="Прямоугольник 4579" width="0.104" height="9.501" transform="translate(0.632 0)" fill="#865dcf"/>
          <rect id="Прямоугольник_4580" data-name="Прямоугольник 4580" width="0.104" height="9.501" transform="translate(0.736 0)" fill="#865dcf"/>
          <rect id="Прямоугольник_4581" data-name="Прямоугольник 4581" width="0.104" height="9.501" transform="translate(0.841 0)" fill="#865dcf"/>
          <rect id="Прямоугольник_4582" data-name="Прямоугольник 4582" width="0.104" height="9.501" transform="translate(0.945 0)" fill="#865dcf"/>
          <rect id="Прямоугольник_4583" data-name="Прямоугольник 4583" width="0.104" height="9.501" transform="translate(1.05 0)" fill="#865dcf"/>
          <rect id="Прямоугольник_4584" data-name="Прямоугольник 4584" width="0.104" height="9.501" transform="translate(1.154 0)" fill="#865dcf"/>
          <rect id="Прямоугольник_4585" data-name="Прямоугольник 4585" width="0.104" height="9.501" transform="translate(1.259 0)" fill="#865dcf"/>
          <rect id="Прямоугольник_4586" data-name="Прямоугольник 4586" width="0.104" height="9.501" transform="translate(1.363 0)" fill="#865dcf"/>
          <rect id="Прямоугольник_4587" data-name="Прямоугольник 4587" width="0.104" height="9.501" transform="translate(1.468 0)" fill="#865dcf"/>
          <rect id="Прямоугольник_4588" data-name="Прямоугольник 4588" width="0.104" height="9.501" transform="translate(1.572 0)" fill="#865dcf"/>
          <rect id="Прямоугольник_4589" data-name="Прямоугольник 4589" width="0.104" height="9.501" transform="translate(1.677 0)" fill="#865dcf"/>
          <rect id="Прямоугольник_4590" data-name="Прямоугольник 4590" width="0.104" height="9.501" transform="translate(1.781 0)" fill="#865dcf"/>
          <rect id="Прямоугольник_4591" data-name="Прямоугольник 4591" width="0.104" height="9.501" transform="translate(1.886 0)" fill="#865dcf"/>
          <rect id="Прямоугольник_4592" data-name="Прямоугольник 4592" width="0.104" height="9.501" transform="translate(1.99 0)" fill="#865dcf"/>
          <rect id="Прямоугольник_4593" data-name="Прямоугольник 4593" width="0.104" height="9.501" transform="translate(2.094 0)" fill="#865dcf"/>
          <rect id="Прямоугольник_4594" data-name="Прямоугольник 4594" width="0.104" height="9.501" transform="translate(2.199 0)" fill="#865dcf"/>
          <rect id="Прямоугольник_4595" data-name="Прямоугольник 4595" width="0.104" height="9.501" transform="translate(2.303 0)" fill="#865dcf"/>
          <rect id="Прямоугольник_4596" data-name="Прямоугольник 4596" width="0.104" height="9.501" transform="translate(2.408 0)" fill="#865dcf"/>
          <rect id="Прямоугольник_4597" data-name="Прямоугольник 4597" width="0.104" height="9.501" transform="translate(2.512 0)" fill="#865dcf"/>
          <rect id="Прямоугольник_4598" data-name="Прямоугольник 4598" width="0.104" height="9.501" transform="translate(2.617 0)" fill="#865dcf"/>
          <rect id="Прямоугольник_4599" data-name="Прямоугольник 4599" width="0.104" height="9.501" transform="translate(2.721 0)" fill="#865dcf"/>
          <rect id="Прямоугольник_4600" data-name="Прямоугольник 4600" width="0.104" height="9.501" transform="translate(2.826 0)" fill="#865dcf"/>
          <rect id="Прямоугольник_4601" data-name="Прямоугольник 4601" width="0.104" height="9.501" transform="translate(2.93 0)" fill="#865dcf"/>
          <rect id="Прямоугольник_4602" data-name="Прямоугольник 4602" width="0.104" height="9.501" transform="translate(3.035 0)" fill="#865dcf"/>
          <rect id="Прямоугольник_4603" data-name="Прямоугольник 4603" width="0.104" height="9.501" transform="translate(3.139 0)" fill="#865dcf"/>
          <rect id="Прямоугольник_4604" data-name="Прямоугольник 4604" width="0.104" height="9.501" transform="translate(3.244 0)" fill="#865dcf"/>
          <rect id="Прямоугольник_4605" data-name="Прямоугольник 4605" width="0.104" height="9.501" transform="translate(3.348 0)" fill="#865dcf"/>
          <rect id="Прямоугольник_4606" data-name="Прямоугольник 4606" width="0.104" height="9.501" transform="translate(3.453 0)" fill="#865dcf"/>
          <rect id="Прямоугольник_4607" data-name="Прямоугольник 4607" width="0.104" height="9.501" transform="translate(3.557 0)" fill="#865dcf"/>
          <rect id="Прямоугольник_4608" data-name="Прямоугольник 4608" width="0.104" height="9.501" transform="translate(3.662 0)" fill="#865dcf"/>
          <rect id="Прямоугольник_4609" data-name="Прямоугольник 4609" width="0.104" height="9.501" transform="translate(3.766 0)" fill="#865dcf"/>
          <rect id="Прямоугольник_4610" data-name="Прямоугольник 4610" width="0.104" height="9.501" transform="translate(3.871 0)" fill="#865dcf"/>
          <rect id="Прямоугольник_4611" data-name="Прямоугольник 4611" width="0.104" height="9.501" transform="translate(3.975 0)" fill="#865dcf"/>
          <rect id="Прямоугольник_4612" data-name="Прямоугольник 4612" width="0.104" height="9.501" transform="translate(4.08 0)" fill="#865dcf"/>
          <rect id="Прямоугольник_4613" data-name="Прямоугольник 4613" width="0.104" height="9.501" transform="translate(4.184 0)" fill="#865dcf"/>
          <rect id="Прямоугольник_4614" data-name="Прямоугольник 4614" width="0.104" height="9.501" transform="translate(4.289 0)" fill="#865dcf"/>
          <rect id="Прямоугольник_4615" data-name="Прямоугольник 4615" width="0.104" height="9.501" transform="translate(4.393 0)" fill="#865dcf"/>
          <rect id="Прямоугольник_4616" data-name="Прямоугольник 4616" width="0.104" height="9.501" transform="translate(4.498 0)" fill="#865dcf"/>
          <rect id="Прямоугольник_4617" data-name="Прямоугольник 4617" width="0.104" height="9.501" transform="translate(4.602 0)" fill="#865dcf"/>
          <rect id="Прямоугольник_4618" data-name="Прямоугольник 4618" width="0.104" height="9.501" transform="translate(4.707 0)" fill="#865dcf"/>
          <rect id="Прямоугольник_4619" data-name="Прямоугольник 4619" width="0.104" height="9.501" transform="translate(4.811 0)" fill="#865dcf"/>
          <rect id="Прямоугольник_4620" data-name="Прямоугольник 4620" width="0.104" height="9.501" transform="translate(4.916 0)" fill="#865dcf"/>
          <rect id="Прямоугольник_4621" data-name="Прямоугольник 4621" width="0.104" height="9.501" transform="translate(5.02 0)" fill="#865dcf"/>
          <rect id="Прямоугольник_4622" data-name="Прямоугольник 4622" width="0.104" height="9.501" transform="translate(5.125 0)" fill="#865dcf"/>
          <rect id="Прямоугольник_4623" data-name="Прямоугольник 4623" width="0.104" height="9.501" transform="translate(5.229 0)" fill="#865dcf"/>
          <rect id="Прямоугольник_4624" data-name="Прямоугольник 4624" width="0.104" height="9.501" transform="translate(5.334 0)" fill="#865dcf"/>
          <rect id="Прямоугольник_4625" data-name="Прямоугольник 4625" width="0.104" height="9.501" transform="translate(5.438 0)" fill="#865dcf"/>
          <rect id="Прямоугольник_4626" data-name="Прямоугольник 4626" width="0.104" height="9.501" transform="translate(5.543 0)" fill="#865dcf"/>
          <rect id="Прямоугольник_4627" data-name="Прямоугольник 4627" width="0.104" height="9.501" transform="translate(5.647 0)" fill="#865dcf"/>
          <rect id="Прямоугольник_4628" data-name="Прямоугольник 4628" width="0.104" height="9.501" transform="translate(5.752 0)" fill="#865dcf"/>
          <rect id="Прямоугольник_4629" data-name="Прямоугольник 4629" width="0.104" height="9.501" transform="translate(5.856 0)" fill="#865dcf"/>
          <rect id="Прямоугольник_4630" data-name="Прямоугольник 4630" width="0.104" height="9.501" transform="translate(5.961 0)" fill="#865dcf"/>
          <rect id="Прямоугольник_4631" data-name="Прямоугольник 4631" width="0.104" height="9.501" transform="translate(6.065 0)" fill="#865dcf"/>
          <rect id="Прямоугольник_4632" data-name="Прямоугольник 4632" width="0.104" height="9.501" transform="translate(6.169 0)" fill="#865dcf"/>
          <rect id="Прямоугольник_4633" data-name="Прямоугольник 4633" width="0.104" height="9.501" transform="translate(6.274 0)" fill="#865dcf"/>
          <rect id="Прямоугольник_4634" data-name="Прямоугольник 4634" width="0.104" height="9.501" transform="translate(6.378 0)" fill="#865dcf"/>
          <rect id="Прямоугольник_4635" data-name="Прямоугольник 4635" width="0.104" height="9.501" transform="translate(6.483 0)" fill="#865dcf"/>
          <rect id="Прямоугольник_4636" data-name="Прямоугольник 4636" width="0.104" height="9.501" transform="translate(6.587 0)" fill="#865dcf"/>
          <rect id="Прямоугольник_4637" data-name="Прямоугольник 4637" width="0.104" height="9.501" transform="translate(6.692 0)" fill="#865dcf"/>
          <rect id="Прямоугольник_4638" data-name="Прямоугольник 4638" width="0.104" height="9.501" transform="translate(6.796 0)" fill="#865dcf"/>
          <rect id="Прямоугольник_4639" data-name="Прямоугольник 4639" width="0.104" height="9.501" transform="translate(6.901 0)" fill="#865dcf"/>
          <rect id="Прямоугольник_4640" data-name="Прямоугольник 4640" width="0.104" height="9.501" transform="translate(7.005 0)" fill="#865dcf"/>
          <rect id="Прямоугольник_4641" data-name="Прямоугольник 4641" width="0.104" height="9.501" transform="translate(7.11 0)" fill="#865dcf"/>
          <rect id="Прямоугольник_4642" data-name="Прямоугольник 4642" width="0.104" height="9.501" transform="translate(7.214 0)" fill="#865dcf"/>
          <rect id="Прямоугольник_4643" data-name="Прямоугольник 4643" width="0.104" height="9.501" transform="translate(7.319 0)" fill="#865dcf"/>
          <rect id="Прямоугольник_4644" data-name="Прямоугольник 4644" width="0.104" height="9.501" transform="translate(7.423 0)" fill="#865dcf"/>
          <rect id="Прямоугольник_4645" data-name="Прямоугольник 4645" width="0.104" height="9.501" transform="translate(7.528 0)" fill="#865dcf"/>
          <rect id="Прямоугольник_4646" data-name="Прямоугольник 4646" width="0.104" height="9.501" transform="translate(7.632 0)" fill="#865dcf"/>
          <rect id="Прямоугольник_4647" data-name="Прямоугольник 4647" width="0.104" height="9.501" transform="translate(7.737 0)" fill="#865dcf"/>
          <rect id="Прямоугольник_4648" data-name="Прямоугольник 4648" width="0.104" height="9.501" transform="translate(7.841 0)" fill="#865dcf"/>
          <rect id="Прямоугольник_4649" data-name="Прямоугольник 4649" width="0.104" height="9.501" transform="translate(7.946 0)" fill="#865dcf"/>
          <rect id="Прямоугольник_4650" data-name="Прямоугольник 4650" width="0.104" height="9.501" transform="translate(8.05 0)" fill="#865dcf"/>
          <rect id="Прямоугольник_4651" data-name="Прямоугольник 4651" width="0.104" height="9.501" transform="translate(8.155 0)" fill="#865dcf"/>
          <rect id="Прямоугольник_4652" data-name="Прямоугольник 4652" width="0.104" height="9.501" transform="translate(8.259 0)" fill="#865dcf"/>
          <rect id="Прямоугольник_4653" data-name="Прямоугольник 4653" width="0.104" height="9.501" transform="translate(8.364 0)" fill="#865dcf"/>
          <rect id="Прямоугольник_4654" data-name="Прямоугольник 4654" width="0.104" height="9.501" transform="translate(8.468 0)" fill="#865dcf"/>
          <rect id="Прямоугольник_4655" data-name="Прямоугольник 4655" width="0.104" height="9.501" transform="translate(8.573 0)" fill="#865dcf"/>
          <rect id="Прямоугольник_4656" data-name="Прямоугольник 4656" width="0.104" height="9.501" transform="translate(8.677 0)" fill="#865dcf"/>
          <rect id="Прямоугольник_4657" data-name="Прямоугольник 4657" width="0.104" height="9.501" transform="translate(8.782 0)" fill="#865dcf"/>
          <rect id="Прямоугольник_4658" data-name="Прямоугольник 4658" width="0.104" height="9.501" transform="translate(8.886 0)" fill="#865dcf"/>
          <rect id="Прямоугольник_4659" data-name="Прямоугольник 4659" width="0.104" height="9.501" transform="translate(8.991 0)" fill="#865dcf"/>
          <rect id="Прямоугольник_4660" data-name="Прямоугольник 4660" width="0.104" height="9.501" transform="translate(9.095 0)" fill="#865dcf"/>
          <rect id="Прямоугольник_4661" data-name="Прямоугольник 4661" width="0.104" height="9.501" transform="translate(9.2 0)" fill="#865dcf"/>
          <rect id="Прямоугольник_4662" data-name="Прямоугольник 4662" width="0.104" height="9.501" transform="translate(9.304 0)" fill="#865dcf"/>
          <rect id="Прямоугольник_4663" data-name="Прямоугольник 4663" width="0.104" height="9.501" transform="translate(9.409 0)" fill="#865dcf"/>
          <rect id="Прямоугольник_4664" data-name="Прямоугольник 4664" width="0.104" height="9.501" transform="translate(9.513 0)" fill="#865dcf"/>
          <rect id="Прямоугольник_4665" data-name="Прямоугольник 4665" width="0.104" height="9.501" transform="translate(9.618 0)" fill="#865dcf"/>
          <rect id="Прямоугольник_4666" data-name="Прямоугольник 4666" width="0.104" height="9.501" transform="translate(9.722 0)" fill="#865dcf"/>
          <rect id="Прямоугольник_4667" data-name="Прямоугольник 4667" width="0.104" height="9.501" transform="translate(9.827 0)" fill="#865dcf"/>
          <rect id="Прямоугольник_4668" data-name="Прямоугольник 4668" width="0.104" height="9.501" transform="translate(9.931 0)" fill="#865dcf"/>
          <rect id="Прямоугольник_4669" data-name="Прямоугольник 4669" width="0.104" height="9.501" transform="translate(10.036 0)" fill="#865dcf"/>
          <rect id="Прямоугольник_4670" data-name="Прямоугольник 4670" width="0.104" height="9.501" transform="translate(10.14 0)" fill="#865dcf"/>
          <rect id="Прямоугольник_4671" data-name="Прямоугольник 4671" width="0.104" height="9.501" transform="translate(10.245 0)" fill="#865dcf"/>
          <rect id="Прямоугольник_4672" data-name="Прямоугольник 4672" width="0.104" height="9.501" transform="translate(10.349 0)" fill="#865dcf"/>
          <rect id="Прямоугольник_4673" data-name="Прямоугольник 4673" width="0.104" height="9.501" transform="translate(10.453 0)" fill="#865dcf"/>
          <rect id="Прямоугольник_4674" data-name="Прямоугольник 4674" width="0.104" height="9.501" transform="translate(10.558 0)" fill="#865dcf"/>
          <rect id="Прямоугольник_4675" data-name="Прямоугольник 4675" width="0.104" height="9.501" transform="translate(10.662 0)" fill="#865dcf"/>
          <rect id="Прямоугольник_4676" data-name="Прямоугольник 4676" width="0.104" height="9.501" transform="translate(10.767 0)" fill="#865dcf"/>
          <rect id="Прямоугольник_4677" data-name="Прямоугольник 4677" width="0.104" height="9.501" transform="translate(10.871 0)" fill="#865dcf"/>
          <rect id="Прямоугольник_4678" data-name="Прямоугольник 4678" width="0.104" height="9.501" transform="translate(10.976 0)" fill="#865dcf"/>
          <rect id="Прямоугольник_4679" data-name="Прямоугольник 4679" width="0.104" height="9.501" transform="translate(11.08 0)" fill="#865dcf"/>
          <rect id="Прямоугольник_4680" data-name="Прямоугольник 4680" width="0.104" height="9.501" transform="translate(11.185 0)" fill="#865dcf"/>
          <rect id="Прямоугольник_4681" data-name="Прямоугольник 4681" width="0.104" height="9.501" transform="translate(11.289 0)" fill="#865dcf"/>
          <rect id="Прямоугольник_4682" data-name="Прямоугольник 4682" width="0.104" height="9.501" transform="translate(11.394 0)" fill="#865dcf"/>
          <rect id="Прямоугольник_4683" data-name="Прямоугольник 4683" width="0.104" height="9.501" transform="translate(11.498 0)" fill="#865dcf"/>
          <rect id="Прямоугольник_4684" data-name="Прямоугольник 4684" width="0.104" height="9.501" transform="translate(11.603 0)" fill="#865dcf"/>
          <rect id="Прямоугольник_4685" data-name="Прямоугольник 4685" width="0.104" height="9.501" transform="translate(11.707 0)" fill="#865dcf"/>
          <rect id="Прямоугольник_4686" data-name="Прямоугольник 4686" width="0.104" height="9.501" transform="translate(11.812 0)" fill="#865dcf"/>
          <rect id="Прямоугольник_4687" data-name="Прямоугольник 4687" width="0.104" height="9.501" transform="translate(11.916 0)" fill="#865dcf"/>
          <rect id="Прямоугольник_4688" data-name="Прямоугольник 4688" width="0.104" height="9.501" transform="translate(12.021 0)" fill="#865dcf"/>
          <rect id="Прямоугольник_4689" data-name="Прямоугольник 4689" width="0.104" height="9.501" transform="translate(12.125 0)" fill="#865dcf"/>
          <rect id="Прямоугольник_4690" data-name="Прямоугольник 4690" width="0.104" height="9.501" transform="translate(12.23 0)" fill="#865dcf"/>
          <rect id="Прямоугольник_4691" data-name="Прямоугольник 4691" width="0.104" height="9.501" transform="translate(12.334 0)" fill="#865dcf"/>
          <rect id="Прямоугольник_4692" data-name="Прямоугольник 4692" width="0.104" height="9.501" transform="translate(12.439 0)" fill="#865dcf"/>
          <rect id="Прямоугольник_4693" data-name="Прямоугольник 4693" width="0.104" height="9.501" transform="translate(12.543 0)" fill="#865dcf"/>
          <rect id="Прямоугольник_4694" data-name="Прямоугольник 4694" width="0.104" height="9.501" transform="translate(12.648 0)" fill="#865dcf"/>
          <rect id="Прямоугольник_4695" data-name="Прямоугольник 4695" width="0.104" height="9.501" transform="translate(12.752 0)" fill="#865dcf"/>
          <rect id="Прямоугольник_4696" data-name="Прямоугольник 4696" width="0.104" height="9.501" transform="translate(12.857 0)" fill="#865dcf"/>
          <rect id="Прямоугольник_4697" data-name="Прямоугольник 4697" width="0.104" height="9.501" transform="translate(12.961 0)" fill="#865dcf"/>
          <rect id="Прямоугольник_4698" data-name="Прямоугольник 4698" width="0.104" height="9.501" transform="translate(13.066 0)" fill="#865dcf"/>
          <rect id="Прямоугольник_4699" data-name="Прямоугольник 4699" width="0.104" height="9.501" transform="translate(13.17 0)" fill="#865dcf"/>
          <rect id="Прямоугольник_4700" data-name="Прямоугольник 4700" width="0.104" height="9.501" transform="translate(13.275 0)" fill="#865dcf"/>
          <rect id="Прямоугольник_4701" data-name="Прямоугольник 4701" width="0.104" height="9.501" transform="translate(13.379 0)" fill="#865dcf"/>
          <rect id="Прямоугольник_4702" data-name="Прямоугольник 4702" width="0.104" height="9.501" transform="translate(13.484 0)" fill="#865dcf"/>
          <rect id="Прямоугольник_4703" data-name="Прямоугольник 4703" width="0.104" height="9.501" transform="translate(13.588 0)" fill="#865dcf"/>
          <rect id="Прямоугольник_4704" data-name="Прямоугольник 4704" width="0.104" height="9.501" transform="translate(13.693 0)" fill="#865dcf"/>
          <rect id="Прямоугольник_4705" data-name="Прямоугольник 4705" width="0.104" height="9.501" transform="translate(13.797 0)" fill="#865dcf"/>
          <rect id="Прямоугольник_4706" data-name="Прямоугольник 4706" width="0.104" height="9.501" transform="translate(13.902 0)" fill="#865dcf"/>
          <rect id="Прямоугольник_4707" data-name="Прямоугольник 4707" width="0.104" height="9.501" transform="translate(14.006 0)" fill="#865dcf"/>
          <rect id="Прямоугольник_4708" data-name="Прямоугольник 4708" width="0.104" height="9.501" transform="translate(14.111 0)" fill="#865dcf"/>
          <rect id="Прямоугольник_4709" data-name="Прямоугольник 4709" width="0.104" height="9.501" transform="translate(14.215 0)" fill="#865dcf"/>
          <rect id="Прямоугольник_4710" data-name="Прямоугольник 4710" width="0.104" height="9.501" transform="translate(14.32 0)" fill="#865dcf"/>
          <rect id="Прямоугольник_4711" data-name="Прямоугольник 4711" width="0.104" height="9.501" transform="translate(14.424 0)" fill="#865dcf"/>
          <rect id="Прямоугольник_4712" data-name="Прямоугольник 4712" width="0.104" height="9.501" transform="translate(14.529 0)" fill="#865dcf"/>
          <rect id="Прямоугольник_4713" data-name="Прямоугольник 4713" width="0.104" height="9.501" transform="translate(14.633 0)" fill="#865dcf"/>
          <rect id="Прямоугольник_4714" data-name="Прямоугольник 4714" width="0.104" height="9.501" transform="translate(14.737 0)" fill="#865dcf"/>
          <rect id="Прямоугольник_4715" data-name="Прямоугольник 4715" width="0.104" height="9.501" transform="translate(14.842 0)" fill="#865dcf"/>
          <rect id="Прямоугольник_4716" data-name="Прямоугольник 4716" width="0.104" height="9.501" transform="translate(14.946 0)" fill="#865dcf"/>
          <rect id="Прямоугольник_4717" data-name="Прямоугольник 4717" width="0.104" height="9.501" transform="translate(15.051 0)" fill="#865dcf"/>
          <rect id="Прямоугольник_4718" data-name="Прямоугольник 4718" width="0.104" height="9.501" transform="translate(15.155 0)" fill="#865dcf"/>
          <rect id="Прямоугольник_4719" data-name="Прямоугольник 4719" width="0.104" height="9.501" transform="translate(15.26 0)" fill="#865dcf"/>
          <rect id="Прямоугольник_4720" data-name="Прямоугольник 4720" width="0.104" height="9.501" transform="translate(15.364 0)" fill="#865dcf"/>
          <rect id="Прямоугольник_4721" data-name="Прямоугольник 4721" width="0.104" height="9.501" transform="translate(15.469 0)" fill="#865dcf"/>
          <rect id="Прямоугольник_4722" data-name="Прямоугольник 4722" width="0.104" height="9.501" transform="translate(15.573 0)" fill="#865dcf"/>
          <rect id="Прямоугольник_4723" data-name="Прямоугольник 4723" width="0.104" height="9.501" transform="translate(15.678 0)" fill="#865dcf"/>
          <rect id="Прямоугольник_4724" data-name="Прямоугольник 4724" width="0.104" height="9.501" transform="translate(15.782 0)" fill="#865dcf"/>
          <rect id="Прямоугольник_4725" data-name="Прямоугольник 4725" width="0.104" height="9.501" transform="translate(15.887 0)" fill="#865dcf"/>
          <rect id="Прямоугольник_4726" data-name="Прямоугольник 4726" width="0.104" height="9.501" transform="translate(15.991 0)" fill="#865dcf"/>
          <rect id="Прямоугольник_4727" data-name="Прямоугольник 4727" width="0.104" height="9.501" transform="translate(16.096 0)" fill="#865dcf"/>
          <rect id="Прямоугольник_4728" data-name="Прямоугольник 4728" width="0.104" height="9.501" transform="translate(16.2 0)" fill="#865dcf"/>
          <rect id="Прямоугольник_4729" data-name="Прямоугольник 4729" width="0.104" height="9.501" transform="translate(16.305 0)" fill="#865dcf"/>
          <rect id="Прямоугольник_4730" data-name="Прямоугольник 4730" width="0.104" height="9.501" transform="translate(16.409 0)" fill="#865dcf"/>
          <rect id="Прямоугольник_4731" data-name="Прямоугольник 4731" width="0.104" height="9.501" transform="translate(16.514 0)" fill="#865dcf"/>
          <rect id="Прямоугольник_4732" data-name="Прямоугольник 4732" width="0.104" height="9.501" transform="translate(16.618 0)" fill="#865dcf"/>
          <rect id="Прямоугольник_4733" data-name="Прямоугольник 4733" width="0.104" height="9.501" transform="translate(16.723 0)" fill="#865dcf"/>
          <rect id="Прямоугольник_4734" data-name="Прямоугольник 4734" width="0.104" height="9.501" transform="translate(16.827 0)" fill="#865dcf"/>
          <rect id="Прямоугольник_4735" data-name="Прямоугольник 4735" width="0.104" height="9.501" transform="translate(16.932 0)" fill="#865dcf"/>
          <rect id="Прямоугольник_4736" data-name="Прямоугольник 4736" width="0.104" height="9.501" transform="translate(17.036 0)" fill="#865dcf"/>
          <rect id="Прямоугольник_4737" data-name="Прямоугольник 4737" width="0.104" height="9.501" transform="translate(17.141 0)" fill="#865dcf"/>
          <rect id="Прямоугольник_4738" data-name="Прямоугольник 4738" width="0.104" height="9.501" transform="translate(17.245 0)" fill="#865dcf"/>
          <rect id="Прямоугольник_4739" data-name="Прямоугольник 4739" width="0.104" height="9.501" transform="translate(17.35 0)" fill="#865dcf"/>
          <rect id="Прямоугольник_4740" data-name="Прямоугольник 4740" width="0.104" height="9.501" transform="translate(17.454 0)" fill="#865dcf"/>
          <rect id="Прямоугольник_4741" data-name="Прямоугольник 4741" width="0.104" height="9.501" transform="translate(17.559 0)" fill="#865dcf"/>
          <rect id="Прямоугольник_4742" data-name="Прямоугольник 4742" width="0.104" height="9.501" transform="translate(17.663 0)" fill="#865dcf"/>
          <rect id="Прямоугольник_4743" data-name="Прямоугольник 4743" width="0.104" height="9.501" transform="translate(17.768 0)" fill="#865dcf"/>
          <rect id="Прямоугольник_4744" data-name="Прямоугольник 4744" width="0.104" height="9.501" transform="translate(17.872 0)" fill="#865dcf"/>
          <rect id="Прямоугольник_4745" data-name="Прямоугольник 4745" width="0.104" height="9.501" transform="translate(17.977 0)" fill="#865dcf"/>
          <rect id="Прямоугольник_4746" data-name="Прямоугольник 4746" width="0.104" height="9.501" transform="translate(18.081 0)" fill="#865dcf"/>
          <rect id="Прямоугольник_4747" data-name="Прямоугольник 4747" width="0.104" height="9.501" transform="translate(18.186 0)" fill="#865dcf"/>
          <rect id="Прямоугольник_4748" data-name="Прямоугольник 4748" width="0.104" height="9.501" transform="translate(18.29 0)" fill="#865dcf"/>
          <rect id="Прямоугольник_4749" data-name="Прямоугольник 4749" width="0.104" height="9.501" transform="translate(18.395 0)" fill="#865dcf"/>
          <rect id="Прямоугольник_4750" data-name="Прямоугольник 4750" width="0.104" height="9.501" transform="translate(18.499 0)" fill="#865dcf"/>
          <rect id="Прямоугольник_4751" data-name="Прямоугольник 4751" width="0.104" height="9.501" transform="translate(18.604 0)" fill="#865dcf"/>
          <rect id="Прямоугольник_4752" data-name="Прямоугольник 4752" width="0.104" height="9.501" transform="translate(18.708 0)" fill="#865dcf"/>
          <rect id="Прямоугольник_4753" data-name="Прямоугольник 4753" width="0.104" height="9.501" transform="translate(18.812 0)" fill="#865dcf"/>
          <rect id="Прямоугольник_4754" data-name="Прямоугольник 4754" width="0.086" height="9.501" transform="translate(18.917 0)" fill="#865dcf"/>
        </g>
      </g>
    </g>
    <g id="Сгруппировать_748" data-name="Сгруппировать 748" transform="translate(535.633 102.516)">
      <path id="Контур_3488" data-name="Контур 3488" d="M543.507,116.878a6.227,6.227,0,1,1,6.228-6.228A6.235,6.235,0,0,1,543.507,116.878Zm0-11.124a4.9,4.9,0,1,0,4.9,4.9A4.9,4.9,0,0,0,543.507,105.754Z" transform="translate(-537.279 -104.423)" fill="#865dcf"/>
    </g>
    <g id="Сгруппировать_749" data-name="Сгруппировать 749" transform="translate(541.196 114.001)">
      <rect id="Прямоугольник_4755" data-name="Прямоугольник 4755" width="1.331" height="3.407" transform="translate(0)" fill="#865dcf"/>
    </g>
    <g id="Сгруппировать_750" data-name="Сгруппировать 750" transform="translate(539.926 117.172)">
      <rect id="Прямоугольник_4756" data-name="Прямоугольник 4756" width="3.87" height="1.331" transform="translate(0)" fill="#865dcf"/>
    </g>
  </g>
</svg>
