<svg xmlns="http://www.w3.org/2000/svg" xmlns:xlink="http://www.w3.org/1999/xlink" width="32" height="32" viewBox="0 0 32 32">
  <defs>
    <clipPath id="clip-path">
      <path id="Контур_3696" data-name="Контур 3696" d="M534.993,470.809a16.423,16.423,0,0,0,22.8.609l-1.205-1.274a14.638,14.638,0,0,1-20.327-.543,14.262,14.262,0,0,1,.3-20.136l-1.236-1.245a16,16,0,0,0-.332,22.59" transform="translate(-530.49 -448.219)" fill="none"/>
    </clipPath>
    <clipPath id="clip-path-2">
      <path id="Контур_3888" data-name="Контур 3888" d="M0,0,40.422.2l.2,40.409L.2,40.409Z" transform="translate(0 22.796) rotate(-34.611)" fill="none"/>
    </clipPath>
    <clipPath id="clip-path-3">
      <path id="Контур_3887" data-name="Контур 3887" d="M535.342,448.145l1.205,1.277c5.752-5.317,15.148-5.328,20.6.291s5.05,14.922-.574,20.391l1.236,1.246c6.309-6.137,6.738-16.528.61-22.845a16.077,16.077,0,0,0-11.607-4.781,16.916,16.916,0,0,0-11.471,4.421" transform="translate(-535.342 -443.724)" fill="none"/>
    </clipPath>
    <clipPath id="clip-path-4">
      <path id="Контур_3889" data-name="Контур 3889" d="M0,0,39.868.206l.207,40.123L.207,40.123Z" transform="translate(0 30.642) rotate(-50.521)" fill="none"/>
    </clipPath>
  </defs>
  <g id="Сгруппировать_799" data-name="Сгруппировать 799" transform="translate(-530.49 -443.724)">
    <g id="Сгруппировать_791" data-name="Сгруппировать 791" transform="translate(530.49 448.219)">
      <g id="Сгруппировать_790" data-name="Сгруппировать 790" clip-path="url(#clip-path)">
        <g id="Сгруппировать_789" data-name="Сгруппировать 789" transform="translate(-15.409 -13.385)">
          <g id="Сгруппировать_788" data-name="Сгруппировать 788">
            <g id="Сгруппировать_787" data-name="Сгруппировать 787" clip-path="url(#clip-path-2)">
              <path id="Контур_3506" data-name="Контур 3506" d="M528.465,490.913l43.114-29.442v29.442Z" transform="translate(-515.081 -434.973)" fill="#070707"/>
              <path id="Контур_3507" data-name="Контур 3507" d="M528.189,490.911l43.389-29.63v.188l-43.114,29.442Z" transform="translate(-515.081 -434.971)" fill="#070707"/>
              <path id="Контур_3508" data-name="Контур 3508" d="M527.913,490.909l43.665-29.818v.188l-43.389,29.63Z" transform="translate(-515.081 -434.969)" fill="#070707"/>
              <path id="Контур_3509" data-name="Контур 3509" d="M527.638,490.907l43.94-30.006v.188l-43.665,29.818Z" transform="translate(-515.081 -434.967)" fill="#070707"/>
              <path id="Контур_3510" data-name="Контур 3510" d="M527.362,490.905l44.216-30.194v.188l-43.94,30.006Z" transform="translate(-515.081 -434.965)" fill="#070707"/>
              <path id="Контур_3511" data-name="Контур 3511" d="M527.087,490.9l44.491-30.383v.188L527.362,490.9Z" transform="translate(-515.081 -434.964)" fill="#070707"/>
              <path id="Контур_3512" data-name="Контур 3512" d="M526.811,490.9l44.767-30.571v.188L527.087,490.9Z" transform="translate(-515.081 -434.962)" fill="#070707"/>
              <path id="Контур_3513" data-name="Контур 3513" d="M526.536,490.9l45.042-30.759v.188L526.811,490.9Z" transform="translate(-515.081 -434.96)" fill="#070707"/>
              <path id="Контур_3514" data-name="Контур 3514" d="M526.26,490.9l45.318-30.947v.188L526.536,490.9Z" transform="translate(-515.081 -434.958)" fill="#070707"/>
              <path id="Контур_3515" data-name="Контур 3515" d="M525.985,490.9l45.594-31.135v.188L526.26,490.9Z" transform="translate(-515.081 -434.956)" fill="#070707"/>
              <path id="Контур_3516" data-name="Контур 3516" d="M525.709,490.893l45.869-31.323v.188l-45.594,31.135Z" transform="translate(-515.081 -434.954)" fill="#070707"/>
              <path id="Контур_3517" data-name="Контур 3517" d="M525.434,490.891l46.145-31.512v.188l-45.869,31.323Z" transform="translate(-515.081 -434.952)" fill="#070707"/>
              <path id="Контур_3518" data-name="Контур 3518" d="M525.158,490.889l46.42-31.7v.188l-46.145,31.512Z" transform="translate(-515.081 -434.95)" fill="#070707"/>
              <path id="Контур_3519" data-name="Контур 3519" d="M524.883,490.887,571.578,459v.188l-46.42,31.7Z" transform="translate(-515.081 -434.948)" fill="#070707"/>
              <path id="Контур_3520" data-name="Контур 3520" d="M524.607,490.885l46.971-32.076V459l-46.7,31.888Z" transform="translate(-515.081 -434.946)" fill="#070707"/>
              <path id="Контур_3521" data-name="Контур 3521" d="M524.332,490.883l47.247-32.264v.188l-46.971,32.076Z" transform="translate(-515.081 -434.944)" fill="#070708"/>
              <path id="Контур_3522" data-name="Контур 3522" d="M524.056,490.881l47.522-32.452v.188l-47.247,32.264Z" transform="translate(-515.081 -434.942)" fill="#070808"/>
              <path id="Контур_3523" data-name="Контур 3523" d="M523.78,490.879l47.8-32.641v.188l-47.522,32.452Z" transform="translate(-515.081 -434.94)" fill="#070808"/>
              <path id="Контур_3524" data-name="Контур 3524" d="M523.5,490.877l48.073-32.829v.188l-47.8,32.641Z" transform="translate(-515.081 -434.938)" fill="#070808"/>
              <path id="Контур_3525" data-name="Контур 3525" d="M523.229,490.875l48.349-33.017v.188L523.5,490.875Z" transform="translate(-515.081 -434.936)" fill="#070808"/>
              <path id="Контур_3526" data-name="Контур 3526" d="M522.954,490.873l48.624-33.205v.188l-48.349,33.017Z" transform="translate(-515.081 -434.934)" fill="#070808"/>
              <path id="Контур_3527" data-name="Контур 3527" d="M522.678,490.871l48.9-33.393v.188l-48.624,33.2Z" transform="translate(-515.081 -434.932)" fill="#080808"/>
              <path id="Контур_3528" data-name="Контур 3528" d="M522.4,490.869l49.175-33.581v.188l-48.9,33.393Z" transform="translate(-515.081 -434.93)" fill="#080808"/>
              <path id="Контур_3529" data-name="Контур 3529" d="M522.127,490.867,571.578,457.1v.188L522.4,490.867Z" transform="translate(-515.081 -434.928)" fill="#080808"/>
              <path id="Контур_3530" data-name="Контур 3530" d="M521.852,490.865l49.727-33.958v.188l-49.451,33.769Z" transform="translate(-515.081 -434.926)" fill="#080809"/>
              <path id="Контур_3531" data-name="Контур 3531" d="M521.576,490.863l50-34.146v.188l-49.727,33.958Z" transform="translate(-515.081 -434.924)" fill="#080909"/>
              <path id="Контур_3532" data-name="Контур 3532" d="M521.3,490.861l50.278-34.334v.188l-50,34.146Z" transform="translate(-515.081 -434.922)" fill="#080909"/>
              <path id="Контур_3533" data-name="Контур 3533" d="M521.025,490.859l50.553-34.522v.188L521.3,490.859Z" transform="translate(-515.081 -434.92)" fill="#080909"/>
              <path id="Контур_3534" data-name="Контур 3534" d="M520.75,490.858l50.829-34.71v.188l-50.553,34.522Z" transform="translate(-515.081 -434.918)" fill="#080909"/>
              <path id="Контур_3535" data-name="Контур 3535" d="M520.474,490.855l51.1-34.9v.188l-50.829,34.71Z" transform="translate(-515.081 -434.916)" fill="#08090a"/>
              <path id="Контур_3536" data-name="Контур 3536" d="M520.2,490.854l51.38-35.087v.188l-51.1,34.9Z" transform="translate(-515.081 -434.914)" fill="#080a0a"/>
              <path id="Контур_3537" data-name="Контур 3537" d="M519.923,490.852l51.655-35.275v.188L520.2,490.852Z" transform="translate(-515.081 -434.912)" fill="#080a0a"/>
              <path id="Контур_3538" data-name="Контур 3538" d="M519.647,490.85l51.931-35.463v.188L519.923,490.85Z" transform="translate(-515.081 -434.91)" fill="#080a0a"/>
              <path id="Контур_3539" data-name="Контур 3539" d="M519.372,490.848,571.578,455.2v.188l-51.931,35.463Z" transform="translate(-515.081 -434.908)" fill="#090a0a"/>
              <path id="Контур_3540" data-name="Контур 3540" d="M519.1,490.846l52.482-35.839v.188l-52.206,35.651Z" transform="translate(-515.081 -434.906)" fill="#090a0b"/>
              <path id="Контур_3541" data-name="Контур 3541" d="M518.821,490.844l52.757-36.027V455L519.1,490.844Z" transform="translate(-515.081 -434.904)" fill="#090b0b"/>
              <path id="Контур_3542" data-name="Контур 3542" d="M518.545,490.842l53.033-36.216v.188l-52.757,36.027Z" transform="translate(-515.081 -434.902)" fill="#090b0b"/>
              <path id="Контур_3543" data-name="Контур 3543" d="M518.27,490.84l53.308-36.4v.188L518.545,490.84Z" transform="translate(-515.081 -434.9)" fill="#090b0b"/>
              <path id="Контур_3544" data-name="Контур 3544" d="M517.994,490.838l53.584-36.592v.188l-53.308,36.4Z" transform="translate(-515.081 -434.898)" fill="#090b0c"/>
              <path id="Контур_3545" data-name="Контур 3545" d="M517.719,490.836l53.86-36.78v.188l-53.584,36.592Z" transform="translate(-515.081 -434.896)" fill="#090c0c"/>
              <path id="Контур_3546" data-name="Контур 3546" d="M517.443,490.834l54.135-36.968v.188l-53.86,36.78Z" transform="translate(-515.081 -434.894)" fill="#090c0c"/>
              <path id="Контур_3547" data-name="Контур 3547" d="M517.168,490.832l54.411-37.156v.188l-54.135,36.968Z" transform="translate(-515.081 -434.892)" fill="#0a0c0d"/>
              <path id="Контур_3548" data-name="Контур 3548" d="M516.892,490.83l54.686-37.344v.188L517.168,490.83Z" transform="translate(-515.081 -434.89)" fill="#0a0d0d"/>
              <path id="Контур_3549" data-name="Контур 3549" d="M516.617,490.828l54.962-37.533v.188l-54.686,37.344Z" transform="translate(-515.081 -434.888)" fill="#0a0d0d"/>
              <path id="Контур_3550" data-name="Контур 3550" d="M516.341,490.826,571.578,453.1v.188l-54.962,37.533Z" transform="translate(-515.081 -434.886)" fill="#0a0d0e"/>
              <path id="Контур_3551" data-name="Контур 3551" d="M516.065,490.824l55.513-37.909v.188l-55.237,37.721Z" transform="translate(-515.081 -434.884)" fill="#0a0e0e"/>
              <path id="Контур_3552" data-name="Контур 3552" d="M515.79,490.822l55.788-38.1v.188l-55.513,37.909Z" transform="translate(-515.081 -434.882)" fill="#0a0e0e"/>
              <path id="Контур_3553" data-name="Контур 3553" d="M515.514,490.82l56.064-38.285v.188l-55.788,38.1Z" transform="translate(-515.081 -434.88)" fill="#0b0e0f"/>
              <path id="Контур_3554" data-name="Контур 3554" d="M515.239,490.818l56.339-38.473v.188l-56.064,38.285Z" transform="translate(-515.081 -434.878)" fill="#0b0f0f"/>
              <path id="Контур_3555" data-name="Контур 3555" d="M515.081,490.736l56.5-38.581v.188l-56.339,38.473h-.158Z" transform="translate(-515.081 -434.876)" fill="#0b0f10"/>
              <path id="Контур_3556" data-name="Контур 3556" d="M515.081,490.545l56.5-38.581v.188l-56.5,38.581Z" transform="translate(-515.081 -434.874)" fill="#0b0f10"/>
              <path id="Контур_3557" data-name="Контур 3557" d="M515.081,490.355l56.5-38.581v.188l-56.5,38.581Z" transform="translate(-515.081 -434.872)" fill="#0b1010"/>
              <path id="Контур_3558" data-name="Контур 3558" d="M515.081,490.165l56.5-38.581v.188l-56.5,38.581Z" transform="translate(-515.081 -434.87)" fill="#0c1011"/>
              <path id="Контур_3559" data-name="Контур 3559" d="M515.081,489.975l56.5-38.581v.188l-56.5,38.581Z" transform="translate(-515.081 -434.868)" fill="#0c1111"/>
              <path id="Контур_3560" data-name="Контур 3560" d="M515.081,489.785l56.5-38.581v.188l-56.5,38.581Z" transform="translate(-515.081 -434.866)" fill="#0c1112"/>
              <path id="Контур_3561" data-name="Контур 3561" d="M515.081,489.595l56.5-38.581v.188l-56.5,38.581Z" transform="translate(-515.081 -434.864)" fill="#0c1112"/>
              <path id="Контур_3562" data-name="Контур 3562" d="M515.081,489.4l56.5-38.581v.188l-56.5,38.581Z" transform="translate(-515.081 -434.862)" fill="#0c1213"/>
              <path id="Контур_3563" data-name="Контур 3563" d="M515.081,489.214l56.5-38.581v.188l-56.5,38.581Z" transform="translate(-515.081 -434.86)" fill="#0d1213"/>
              <path id="Контур_3564" data-name="Контур 3564" d="M515.081,489.024l56.5-38.581v.188l-56.5,38.581Z" transform="translate(-515.081 -434.858)" fill="#0d1314"/>
              <path id="Контур_3565" data-name="Контур 3565" d="M515.081,488.834l56.5-38.581v.188l-56.5,38.581Z" transform="translate(-515.081 -434.856)" fill="#0d1314"/>
              <path id="Контур_3566" data-name="Контур 3566" d="M515.081,488.644l56.5-38.581v.188l-56.5,38.581Z" transform="translate(-515.081 -434.854)" fill="#0d1415"/>
              <path id="Контур_3567" data-name="Контур 3567" d="M515.081,488.454l56.5-38.581v.188l-56.5,38.581Z" transform="translate(-515.081 -434.852)" fill="#0e1415"/>
              <path id="Контур_3568" data-name="Контур 3568" d="M515.081,488.264l56.5-38.581v.188l-56.5,38.581Z" transform="translate(-515.081 -434.85)" fill="#0e1516"/>
              <path id="Контур_3569" data-name="Контур 3569" d="M515.081,488.073l56.5-38.581v.188l-56.5,38.581Z" transform="translate(-515.081 -434.848)" fill="#0e1516"/>
              <path id="Контур_3570" data-name="Контур 3570" d="M515.081,487.883l56.5-38.581v.188l-56.5,38.581Z" transform="translate(-515.081 -434.846)" fill="#0e1617"/>
              <path id="Контур_3571" data-name="Контур 3571" d="M515.081,487.693l56.5-38.581v.188l-56.5,38.581Z" transform="translate(-515.081 -434.844)" fill="#0f1617"/>
              <path id="Контур_3572" data-name="Контур 3572" d="M515.081,487.5l56.5-38.581v.188l-56.5,38.581Z" transform="translate(-515.081 -434.842)" fill="#0f1718"/>
              <path id="Контур_3573" data-name="Контур 3573" d="M515.081,487.313l56.5-38.581v.188l-56.5,38.581Z" transform="translate(-515.081 -434.84)" fill="#0f1719"/>
              <path id="Контур_3574" data-name="Контур 3574" d="M515.081,487.123l56.5-38.581v.188l-56.5,38.581Z" transform="translate(-515.081 -434.838)" fill="#0f1819"/>
              <path id="Контур_3575" data-name="Контур 3575" d="M515.081,486.932l56.5-38.581v.188l-56.5,38.581Z" transform="translate(-515.081 -434.836)" fill="#10191a"/>
              <path id="Контур_3576" data-name="Контур 3576" d="M515.081,486.742l56.5-38.581v.188l-56.5,38.581Z" transform="translate(-515.081 -434.834)" fill="#10191a"/>
              <path id="Контур_3577" data-name="Контур 3577" d="M515.081,486.552l56.5-38.581v.188l-56.5,38.581Z" transform="translate(-515.081 -434.832)" fill="#101a1b"/>
              <path id="Контур_3578" data-name="Контур 3578" d="M515.081,486.362l56.5-38.581v.188l-56.5,38.581Z" transform="translate(-515.081 -434.83)" fill="#111a1c"/>
              <path id="Контур_3579" data-name="Контур 3579" d="M515.081,486.172l56.5-38.581v.188l-56.5,38.581Z" transform="translate(-515.081 -434.828)" fill="#111b1c"/>
              <path id="Контур_3580" data-name="Контур 3580" d="M515.081,485.982l56.5-38.581v.188l-56.5,38.581Z" transform="translate(-515.081 -434.826)" fill="#111c1d"/>
              <path id="Контур_3581" data-name="Контур 3581" d="M515.081,485.792l56.5-38.581v.188l-56.5,38.581Z" transform="translate(-515.081 -434.824)" fill="#121c1e"/>
              <path id="Контур_3582" data-name="Контур 3582" d="M515.081,485.6l56.5-38.581v.188l-56.5,38.581Z" transform="translate(-515.081 -434.822)" fill="#121d1f"/>
              <path id="Контур_3583" data-name="Контур 3583" d="M515.081,485.411l56.5-38.581v.188l-56.5,38.581Z" transform="translate(-515.081 -434.82)" fill="#121e1f"/>
              <path id="Контур_3584" data-name="Контур 3584" d="M515.081,485.221l56.5-38.581v.188l-56.5,38.581Z" transform="translate(-515.081 -434.818)" fill="#131e20"/>
              <path id="Контур_3585" data-name="Контур 3585" d="M515.081,485.031l56.5-38.581v.188l-56.5,38.581Z" transform="translate(-515.081 -434.816)" fill="#131f21"/>
              <path id="Контур_3586" data-name="Контур 3586" d="M515.081,484.841l56.5-38.581v.188l-56.5,38.581Z" transform="translate(-515.081 -434.814)" fill="#132021"/>
              <path id="Контур_3587" data-name="Контур 3587" d="M515.081,484.651l56.5-38.581v.188l-56.5,38.581Z" transform="translate(-515.081 -434.812)" fill="#142122"/>
              <path id="Контур_3588" data-name="Контур 3588" d="M515.081,484.46l56.5-38.581v.188l-56.5,38.581Z" transform="translate(-515.081 -434.81)" fill="#142123"/>
              <path id="Контур_3589" data-name="Контур 3589" d="M515.081,484.27l56.5-38.581v.188l-56.5,38.581Z" transform="translate(-515.081 -434.808)" fill="#142224"/>
              <path id="Контур_3590" data-name="Контур 3590" d="M515.081,484.08l56.5-38.581v.188l-56.5,38.581Z" transform="translate(-515.081 -434.806)" fill="#152325"/>
              <path id="Контур_3591" data-name="Контур 3591" d="M515.081,483.89l56.5-38.581v.188l-56.5,38.581Z" transform="translate(-515.081 -434.804)" fill="#152425"/>
              <path id="Контур_3592" data-name="Контур 3592" d="M515.081,483.7l56.5-38.581v.188l-56.5,38.581Z" transform="translate(-515.081 -434.802)" fill="#152426"/>
              <path id="Контур_3593" data-name="Контур 3593" d="M515.081,483.51l56.5-38.581v.188l-56.5,38.581Z" transform="translate(-515.081 -434.8)" fill="#162527"/>
              <path id="Контур_3594" data-name="Контур 3594" d="M515.081,483.32l56.5-38.581v.188l-56.5,38.581Z" transform="translate(-515.081 -434.798)" fill="#162628"/>
              <path id="Контур_3595" data-name="Контур 3595" d="M515.081,483.129l56.5-38.581v.188l-56.5,38.581Z" transform="translate(-515.081 -434.796)" fill="#172729"/>
              <path id="Контур_3596" data-name="Контур 3596" d="M515.081,482.939l56.5-38.581v.188l-56.5,38.581Z" transform="translate(-515.081 -434.794)" fill="#17282a"/>
              <path id="Контур_3597" data-name="Контур 3597" d="M515.081,482.749l56.5-38.581v.188l-56.5,38.581Z" transform="translate(-515.081 -434.792)" fill="#17282b"/>
              <path id="Контур_3598" data-name="Контур 3598" d="M515.081,482.559l56.5-38.581v.188l-56.5,38.581Z" transform="translate(-515.081 -434.79)" fill="#18292c"/>
              <path id="Контур_3599" data-name="Контур 3599" d="M515.081,482.369l56.5-38.581v.188l-56.5,38.581Z" transform="translate(-515.081 -434.788)" fill="#182a2c"/>
              <path id="Контур_3600" data-name="Контур 3600" d="M515.081,482.179l56.5-38.581v.188l-56.5,38.581Z" transform="translate(-515.081 -434.786)" fill="#192b2d"/>
              <path id="Контур_3601" data-name="Контур 3601" d="M515.081,481.988l56.5-38.581v.188l-56.5,38.581Z" transform="translate(-515.081 -434.784)" fill="#192c2e"/>
              <path id="Контур_3602" data-name="Контур 3602" d="M515.081,481.8l56.5-38.581v.188l-56.5,38.581Z" transform="translate(-515.081 -434.782)" fill="#1a2d2f"/>
              <path id="Контур_3603" data-name="Контур 3603" d="M515.081,481.608l56.5-38.581v.188l-56.5,38.581Z" transform="translate(-515.081 -434.78)" fill="#1a2e30"/>
              <path id="Контур_3604" data-name="Контур 3604" d="M515.081,481.418l56.5-38.581v.188l-56.5,38.581Z" transform="translate(-515.081 -434.778)" fill="#1b2f31"/>
              <path id="Контур_3605" data-name="Контур 3605" d="M515.081,481.228l56.5-38.581v.188l-56.5,38.581Z" transform="translate(-515.081 -434.776)" fill="#1b2f32"/>
              <path id="Контур_3606" data-name="Контур 3606" d="M515.081,481.038l56.5-38.581v.188l-56.5,38.581Z" transform="translate(-515.081 -434.774)" fill="#1b3033"/>
              <path id="Контур_3607" data-name="Контур 3607" d="M515.081,480.848l56.5-38.581v.188l-56.5,38.581Z" transform="translate(-515.081 -434.772)" fill="#1c3134"/>
              <path id="Контур_3608" data-name="Контур 3608" d="M515.081,480.657l56.5-38.581v.188l-56.5,38.581Z" transform="translate(-515.081 -434.77)" fill="#1c3235"/>
              <path id="Контур_3609" data-name="Контур 3609" d="M515.081,480.467l56.5-38.581v.188l-56.5,38.581Z" transform="translate(-515.081 -434.768)" fill="#1d3336"/>
              <path id="Контур_3610" data-name="Контур 3610" d="M515.081,480.277l56.5-38.581v.188l-56.5,38.581Z" transform="translate(-515.081 -434.766)" fill="#1d3437"/>
              <path id="Контур_3611" data-name="Контур 3611" d="M515.081,480.087l56.5-38.581v.188l-56.5,38.581Z" transform="translate(-515.081 -434.764)" fill="#1e3539"/>
              <path id="Контур_3612" data-name="Контур 3612" d="M515.081,479.9l56.5-38.581v.188l-56.5,38.581Z" transform="translate(-515.081 -434.762)" fill="#1e363a"/>
              <path id="Контур_3613" data-name="Контур 3613" d="M515.081,479.707l56.5-38.581v.188l-56.5,38.581Z" transform="translate(-515.081 -434.76)" fill="#1f373b"/>
              <path id="Контур_3614" data-name="Контур 3614" d="M515.081,479.516l56.5-38.581v.188l-56.5,38.581Z" transform="translate(-515.081 -434.758)" fill="#1f383c"/>
              <path id="Контур_3615" data-name="Контур 3615" d="M515.081,479.326l56.5-38.581v.188l-56.5,38.581Z" transform="translate(-515.081 -434.756)" fill="#20393d"/>
              <path id="Контур_3616" data-name="Контур 3616" d="M515.081,479.136l56.5-38.581v.188l-56.5,38.581Z" transform="translate(-515.081 -434.754)" fill="#203b3e"/>
              <path id="Контур_3617" data-name="Контур 3617" d="M515.081,478.946l56.5-38.581v.188l-56.5,38.581Z" transform="translate(-515.081 -434.752)" fill="#213c3f"/>
              <path id="Контур_3618" data-name="Контур 3618" d="M515.081,478.756l56.5-38.581v.188l-56.5,38.581Z" transform="translate(-515.081 -434.75)" fill="#223d40"/>
              <path id="Контур_3619" data-name="Контур 3619" d="M515.081,478.566l56.5-38.581v.188l-56.5,38.581Z" transform="translate(-515.081 -434.748)" fill="#223e42"/>
              <path id="Контур_3620" data-name="Контур 3620" d="M515.081,478.376l56.5-38.581v.188l-56.5,38.581Z" transform="translate(-515.081 -434.746)" fill="#233f43"/>
              <path id="Контур_3621" data-name="Контур 3621" d="M515.081,478.185l56.5-38.581v.188l-56.5,38.581Z" transform="translate(-515.081 -434.744)" fill="#234044"/>
              <path id="Контур_3622" data-name="Контур 3622" d="M515.081,478l56.5-38.581v.188l-56.5,38.581Z" transform="translate(-515.081 -434.742)" fill="#244145"/>
              <path id="Контур_3623" data-name="Контур 3623" d="M515.081,477.805l56.5-38.581v.188l-56.5,38.581Z" transform="translate(-515.081 -434.74)" fill="#244246"/>
              <path id="Контур_3624" data-name="Контур 3624" d="M515.081,477.615l56.5-38.581v.188l-56.5,38.581Z" transform="translate(-515.081 -434.738)" fill="#254448"/>
              <path id="Контур_3625" data-name="Контур 3625" d="M515.081,477.425l56.5-38.581v.188l-56.5,38.581Z" transform="translate(-515.081 -434.736)" fill="#264549"/>
              <path id="Контур_3626" data-name="Контур 3626" d="M515.081,477.235l56.5-38.581v.188l-56.5,38.581Z" transform="translate(-515.081 -434.734)" fill="#26464a"/>
              <path id="Контур_3627" data-name="Контур 3627" d="M515.081,477.044l56.5-38.581v.188l-56.5,38.581Z" transform="translate(-515.081 -434.732)" fill="#27474c"/>
              <path id="Контур_3628" data-name="Контур 3628" d="M515.081,476.854l56.5-38.581v.188l-56.5,38.581Z" transform="translate(-515.081 -434.73)" fill="#27484d"/>
              <path id="Контур_3629" data-name="Контур 3629" d="M515.081,476.664l56.5-38.581v.188l-56.5,38.581Z" transform="translate(-515.081 -434.728)" fill="#284a4e"/>
              <path id="Контур_3630" data-name="Контур 3630" d="M515.081,476.474l56.5-38.581v.188l-56.5,38.581Z" transform="translate(-515.081 -434.726)" fill="#294b50"/>
              <path id="Контур_3631" data-name="Контур 3631" d="M515.081,476.284l56.5-38.581v.188l-56.5,38.581Z" transform="translate(-515.081 -434.724)" fill="#294c51"/>
              <path id="Контур_3632" data-name="Контур 3632" d="M515.081,476.094l56.5-38.581v.188l-56.5,38.581Z" transform="translate(-515.081 -434.722)" fill="#2a4d52"/>
              <path id="Контур_3633" data-name="Контур 3633" d="M515.081,475.9l56.5-38.581v.188l-56.5,38.581Z" transform="translate(-515.081 -434.72)" fill="#2a4f54"/>
              <path id="Контур_3634" data-name="Контур 3634" d="M515.081,475.713l56.5-38.581v.188l-56.5,38.581Z" transform="translate(-515.081 -434.718)" fill="#2b5055"/>
              <path id="Контур_3635" data-name="Контур 3635" d="M515.081,475.523l56.5-38.581v.188l-56.5,38.581Z" transform="translate(-515.081 -434.716)" fill="#2c5156"/>
              <path id="Контур_3636" data-name="Контур 3636" d="M515.081,475.333l56.5-38.581v.188l-56.5,38.581Z" transform="translate(-515.081 -434.714)" fill="#2c5358"/>
              <path id="Контур_3637" data-name="Контур 3637" d="M515.081,475.143l56.5-38.581v.188l-56.5,38.581Z" transform="translate(-515.081 -434.712)" fill="#2d5459"/>
              <path id="Контур_3638" data-name="Контур 3638" d="M515.081,474.953l56.5-38.581v.188l-56.5,38.581Z" transform="translate(-515.081 -434.71)" fill="#2e555b"/>
              <path id="Контур_3639" data-name="Контур 3639" d="M515.081,474.763l56.5-38.581v.188l-56.5,38.581Z" transform="translate(-515.081 -434.708)" fill="#2e575c"/>
              <path id="Контур_3640" data-name="Контур 3640" d="M515.081,474.572l56.5-38.581v.188l-56.5,38.581Z" transform="translate(-515.081 -434.706)" fill="#2f585e"/>
              <path id="Контур_3641" data-name="Контур 3641" d="M515.081,474.382l56.5-38.581v.188l-56.5,38.581Z" transform="translate(-515.081 -434.704)" fill="#30595f"/>
              <path id="Контур_3642" data-name="Контур 3642" d="M515.081,474.192l56.5-38.581v.188l-56.5,38.581Z" transform="translate(-515.081 -434.702)" fill="#305b61"/>
              <path id="Контур_3643" data-name="Контур 3643" d="M515.081,474l56.5-38.581v.188l-56.5,38.581Z" transform="translate(-515.081 -434.7)" fill="#315c62"/>
              <path id="Контур_3644" data-name="Контур 3644" d="M515.081,473.812l56.5-38.581v.188L515.081,474Z" transform="translate(-515.081 -434.698)" fill="#325e64"/>
              <path id="Контур_3645" data-name="Контур 3645" d="M515.081,473.622l56.5-38.581v.188l-56.5,38.581Z" transform="translate(-515.081 -434.696)" fill="#335f65"/>
              <path id="Контур_3646" data-name="Контур 3646" d="M515.081,473.432l56.5-38.581v.188l-56.5,38.581Z" transform="translate(-515.081 -434.694)" fill="#336167"/>
              <path id="Контур_3647" data-name="Контур 3647" d="M515.081,473.242l56.45-38.549h.047v.156l-56.5,38.581Z" transform="translate(-515.081 -434.693)" fill="#346268"/>
              <path id="Контур_3648" data-name="Контур 3648" d="M515.081,473.054l56.175-38.361h.276l-56.45,38.549Z" transform="translate(-515.081 -434.693)" fill="#35646a"/>
              <path id="Контур_3649" data-name="Контур 3649" d="M515.081,472.865l55.9-38.173h.276l-56.175,38.361Z" transform="translate(-515.081 -434.693)" fill="#36656c"/>
              <path id="Контур_3650" data-name="Контур 3650" d="M515.081,472.677,570.7,434.693h.276l-55.9,38.173Z" transform="translate(-515.081 -434.693)" fill="#36676d"/>
              <path id="Контур_3651" data-name="Контур 3651" d="M515.081,472.489l55.348-37.8h.276l-55.624,37.985Z" transform="translate(-515.081 -434.693)" fill="#37686f"/>
              <path id="Контур_3652" data-name="Контур 3652" d="M515.081,472.3l55.073-37.608h.276l-55.348,37.8Z" transform="translate(-515.081 -434.693)" fill="#386a70"/>
              <path id="Контур_3653" data-name="Контур 3653" d="M515.081,472.113l54.8-37.42h.276L515.081,472.3Z" transform="translate(-515.081 -434.693)" fill="#396b72"/>
              <path id="Контур_3654" data-name="Контур 3654" d="M515.081,471.925,569.6,434.693h.276l-54.8,37.42Z" transform="translate(-515.081 -434.693)" fill="#396d74"/>
              <path id="Контур_3655" data-name="Контур 3655" d="M515.081,471.736l54.246-37.044h.276l-54.522,37.232Z" transform="translate(-515.081 -434.693)" fill="#3a6e75"/>
              <path id="Контур_3656" data-name="Контур 3656" d="M515.081,471.548l53.971-36.856h.276l-54.246,37.044Z" transform="translate(-515.081 -434.693)" fill="#3b7077"/>
              <path id="Контур_3657" data-name="Контур 3657" d="M515.081,471.36l53.7-36.668h.276l-53.971,36.856Z" transform="translate(-515.081 -434.693)" fill="#3c7279"/>
              <path id="Контур_3658" data-name="Контур 3658" d="M515.081,471.172,568.5,434.693h.276l-53.7,36.668Z" transform="translate(-515.081 -434.693)" fill="#3c737b"/>
              <path id="Контур_3659" data-name="Контур 3659" d="M515.081,470.984l53.144-36.291h.276l-53.419,36.479Z" transform="translate(-515.081 -434.693)" fill="#3d757c"/>
              <path id="Контур_3660" data-name="Контур 3660" d="M515.081,470.8l52.868-36.1h.276l-53.144,36.291Z" transform="translate(-515.081 -434.693)" fill="#3e777e"/>
              <path id="Контур_3661" data-name="Контур 3661" d="M515.081,470.608l52.593-35.915h.276l-52.868,36.1Z" transform="translate(-515.081 -434.693)" fill="#3f7880"/>
              <path id="Контур_3662" data-name="Контур 3662" d="M515.081,470.419,567.4,434.693h.276l-52.593,35.915Z" transform="translate(-515.081 -434.693)" fill="#407a82"/>
              <path id="Контур_3663" data-name="Контур 3663" d="M515.081,470.231l52.042-35.539h.276l-52.317,35.727Z" transform="translate(-515.081 -434.693)" fill="#417c83"/>
              <path id="Контур_3664" data-name="Контур 3664" d="M515.081,470.043l51.766-35.351h.276l-52.042,35.539Z" transform="translate(-515.081 -434.693)" fill="#417d85"/>
              <path id="Контур_3665" data-name="Контур 3665" d="M515.081,469.855l51.491-35.162h.276l-51.766,35.351Z" transform="translate(-515.081 -434.693)" fill="#427f87"/>
              <path id="Контур_3666" data-name="Контур 3666" d="M515.081,469.667,566.3,434.693h.276l-51.491,35.162Z" transform="translate(-515.081 -434.693)" fill="#438189"/>
              <path id="Контур_3667" data-name="Контур 3667" d="M515.081,469.479l50.94-34.786h.276l-51.215,34.974Z" transform="translate(-515.081 -434.693)" fill="#44828b"/>
              <path id="Контур_3668" data-name="Контур 3668" d="M515.081,469.29l50.664-34.6h.276l-50.94,34.786Z" transform="translate(-515.081 -434.693)" fill="#45848d"/>
              <path id="Контур_3669" data-name="Контур 3669" d="M515.081,469.1l50.389-34.41h.276l-50.664,34.6Z" transform="translate(-515.081 -434.693)" fill="#46868f"/>
              <path id="Контур_3670" data-name="Контур 3670" d="M515.081,468.914l50.113-34.222h.276L515.081,469.1Z" transform="translate(-515.081 -434.693)" fill="#478891"/>
              <path id="Контур_3671" data-name="Контур 3671" d="M515.081,468.726l49.838-34.033h.276l-50.113,34.222Z" transform="translate(-515.081 -434.693)" fill="#488a92"/>
              <path id="Контур_3672" data-name="Контур 3672" d="M515.081,468.538l49.562-33.845h.276l-49.838,34.033Z" transform="translate(-515.081 -434.693)" fill="#488b94"/>
              <path id="Контур_3673" data-name="Контур 3673" d="M515.081,468.35l49.286-33.657h.276l-49.562,33.845Z" transform="translate(-515.081 -434.693)" fill="#498d96"/>
              <path id="Контур_3674" data-name="Контур 3674" d="M515.081,468.161l49.011-33.469h.276L515.081,468.35Z" transform="translate(-515.081 -434.693)" fill="#4a8f98"/>
              <path id="Контур_3675" data-name="Контур 3675" d="M515.081,467.973l48.735-33.281h.276l-49.011,33.469Z" transform="translate(-515.081 -434.693)" fill="#4b919a"/>
              <path id="Контур_3676" data-name="Контур 3676" d="M515.081,467.785l48.46-33.093h.276l-48.735,33.281Z" transform="translate(-515.081 -434.693)" fill="#4c939c"/>
              <path id="Контур_3677" data-name="Контур 3677" d="M515.081,467.6l48.184-32.9h.276l-48.46,33.093Z" transform="translate(-515.081 -434.693)" fill="#4d959e"/>
              <path id="Контур_3678" data-name="Контур 3678" d="M515.081,467.409l47.909-32.716h.276l-48.184,32.9Z" transform="translate(-515.081 -434.693)" fill="#4e97a0"/>
              <path id="Контур_3679" data-name="Контур 3679" d="M515.081,467.221l47.633-32.528h.276l-47.909,32.716Z" transform="translate(-515.081 -434.693)" fill="#4f99a2"/>
              <path id="Контур_3680" data-name="Контур 3680" d="M515.081,467.033l47.358-32.34h.276l-47.633,32.528Z" transform="translate(-515.081 -434.693)" fill="#509aa5"/>
              <path id="Контур_3681" data-name="Контур 3681" d="M515.081,466.844l47.082-32.152h.276l-47.358,32.34Z" transform="translate(-515.081 -434.693)" fill="#519ca7"/>
              <path id="Контур_3682" data-name="Контур 3682" d="M515.081,466.656l46.807-31.964h.276l-47.082,32.152Z" transform="translate(-515.081 -434.693)" fill="#529ea9"/>
              <path id="Контур_3683" data-name="Контур 3683" d="M515.081,466.468l46.531-31.776h.276l-46.807,31.964Z" transform="translate(-515.081 -434.693)" fill="#53a0ab"/>
              <path id="Контур_3684" data-name="Контур 3684" d="M515.081,466.28l46.256-31.587h.276l-46.531,31.776Z" transform="translate(-515.081 -434.693)" fill="#54a2ad"/>
              <path id="Контур_3685" data-name="Контур 3685" d="M515.081,466.092l45.98-31.4h.276L515.081,466.28Z" transform="translate(-515.081 -434.693)" fill="#55a4af"/>
              <path id="Контур_3686" data-name="Контур 3686" d="M515.081,465.9l45.7-31.211h.276l-45.98,31.4Z" transform="translate(-515.081 -434.693)" fill="#56a6b1"/>
              <path id="Контур_3687" data-name="Контур 3687" d="M515.081,465.715l45.429-31.023h.276l-45.7,31.211Z" transform="translate(-515.081 -434.693)" fill="#57a8b3"/>
              <path id="Контур_3688" data-name="Контур 3688" d="M515.081,465.527l45.154-30.835h.276l-45.429,31.023Z" transform="translate(-515.081 -434.693)" fill="#58aab6"/>
              <path id="Контур_3689" data-name="Контур 3689" d="M515.081,465.339l44.878-30.647h.276l-45.154,30.835Z" transform="translate(-515.081 -434.693)" fill="#59acb8"/>
              <path id="Контур_3690" data-name="Контур 3690" d="M515.081,465.151l44.6-30.458h.276l-44.878,30.647Z" transform="translate(-515.081 -434.693)" fill="#5aafba"/>
              <path id="Контур_3691" data-name="Контур 3691" d="M515.081,464.963l44.327-30.27h.276l-44.6,30.458Z" transform="translate(-515.081 -434.693)" fill="#5bb1bc"/>
              <path id="Контур_3692" data-name="Контур 3692" d="M515.081,464.775l44.051-30.082h.276l-44.327,30.27Z" transform="translate(-515.081 -434.693)" fill="#5cb3be"/>
              <path id="Контур_3693" data-name="Контур 3693" d="M515.081,464.586l43.776-29.894h.276l-44.051,30.082Z" transform="translate(-515.081 -434.693)" fill="#5db5c1"/>
              <path id="Контур_3694" data-name="Контур 3694" d="M515.081,464.4l43.5-29.706h.276l-43.776,29.894Z" transform="translate(-515.081 -434.693)" fill="#5eb7c3"/>
              <path id="Контур_3695" data-name="Контур 3695" d="M558.581,434.693l-43.5,29.706V434.693Z" transform="translate(-515.081 -434.693)" fill="#5eb7c3"/>
            </g>
          </g>
        </g>
      </g>
    </g>
    <g id="Сгруппировать_796" data-name="Сгруппировать 796" transform="translate(535.045 443.724)">
      <g id="Сгруппировать_795" data-name="Сгруппировать 795" clip-path="url(#clip-path-3)">
        <g id="Сгруппировать_794" data-name="Сгруппировать 794" transform="translate(-13.701 -14.184)">
          <g id="Сгруппировать_793" data-name="Сгруппировать 793" transform="translate(0 0)">
            <g id="Сгруппировать_792" data-name="Сгруппировать 792" clip-path="url(#clip-path-4)">
              <path id="Контур_3697" data-name="Контур 3697" d="M548.667,429.39l-27.026,32.467V429.39Z" transform="translate(-521.641 -429.39)" fill="#070707"/>
              <path id="Контур_3698" data-name="Контур 3698" d="M548.917,429.39l-27.276,32.767v-.3l27.026-32.467Z" transform="translate(-521.641 -429.39)" fill="#070707"/>
              <path id="Контур_3699" data-name="Контур 3699" d="M549.167,429.39l-27.525,33.067v-.3l27.276-32.767Z" transform="translate(-521.641 -429.39)" fill="#070707"/>
              <path id="Контур_3700" data-name="Контур 3700" d="M549.416,429.39l-27.775,33.367v-.3l27.525-33.067Z" transform="translate(-521.641 -429.39)" fill="#070707"/>
              <path id="Контур_3701" data-name="Контур 3701" d="M549.666,429.39l-28.025,33.667v-.3l27.775-33.367Z" transform="translate(-521.641 -429.39)" fill="#070707"/>
              <path id="Контур_3702" data-name="Контур 3702" d="M549.916,429.39l-28.274,33.967v-.3l28.025-33.667Z" transform="translate(-521.641 -429.39)" fill="#070707"/>
              <path id="Контур_3703" data-name="Контур 3703" d="M550.166,429.39l-28.524,34.267v-.3l28.274-33.967Z" transform="translate(-521.641 -429.39)" fill="#070707"/>
              <path id="Контур_3704" data-name="Контур 3704" d="M550.415,429.39l-28.774,34.567v-.3l28.524-34.267Z" transform="translate(-521.641 -429.39)" fill="#070707"/>
              <path id="Контур_3705" data-name="Контур 3705" d="M550.665,429.39l-29.024,34.867v-.3l28.774-34.567Z" transform="translate(-521.641 -429.39)" fill="#070707"/>
              <path id="Контур_3706" data-name="Контур 3706" d="M550.915,429.39l-29.273,35.167v-.3l29.024-34.867Z" transform="translate(-521.641 -429.39)" fill="#070707"/>
              <path id="Контур_3707" data-name="Контур 3707" d="M551.165,429.39l-29.523,35.467v-.3l29.273-35.167Z" transform="translate(-521.641 -429.39)" fill="#070707"/>
              <path id="Контур_3708" data-name="Контур 3708" d="M551.414,429.39l-29.773,35.767v-.3l29.523-35.467Z" transform="translate(-521.641 -429.39)" fill="#070707"/>
              <path id="Контур_3709" data-name="Контур 3709" d="M551.664,429.39l-30.023,36.067v-.3l29.773-35.767Z" transform="translate(-521.641 -429.39)" fill="#070707"/>
              <path id="Контур_3710" data-name="Контур 3710" d="M551.914,429.39l-30.272,36.367v-.3l30.023-36.067Z" transform="translate(-521.641 -429.39)" fill="#070707"/>
              <path id="Контур_3711" data-name="Контур 3711" d="M552.164,429.39l-30.522,36.667v-.3l30.272-36.367Z" transform="translate(-521.641 -429.39)" fill="#070707"/>
              <path id="Контур_3712" data-name="Контур 3712" d="M552.413,429.39l-30.772,36.967v-.3l30.522-36.667Z" transform="translate(-521.641 -429.39)" fill="#070708"/>
              <path id="Контур_3713" data-name="Контур 3713" d="M552.663,429.39l-31.022,37.268v-.3l30.772-36.967Z" transform="translate(-521.641 -429.39)" fill="#070808"/>
              <path id="Контур_3714" data-name="Контур 3714" d="M552.913,429.39l-31.271,37.568v-.3l31.022-37.268Z" transform="translate(-521.641 -429.39)" fill="#070808"/>
              <path id="Контур_3715" data-name="Контур 3715" d="M553.162,429.39l-31.521,37.868v-.3l31.271-37.568Z" transform="translate(-521.641 -429.39)" fill="#070808"/>
              <path id="Контур_3716" data-name="Контур 3716" d="M553.412,429.39l-31.771,38.168v-.3l31.521-37.868Z" transform="translate(-521.641 -429.39)" fill="#070808"/>
              <path id="Контур_3717" data-name="Контур 3717" d="M553.662,429.39l-32.021,38.468v-.3l31.771-38.168Z" transform="translate(-521.641 -429.39)" fill="#070808"/>
              <path id="Контур_3718" data-name="Контур 3718" d="M553.912,429.39l-32.27,38.768v-.3l32.021-38.468Z" transform="translate(-521.641 -429.39)" fill="#080808"/>
              <path id="Контур_3719" data-name="Контур 3719" d="M554.161,429.39l-32.52,39.068v-.3l32.27-38.768Z" transform="translate(-521.641 -429.39)" fill="#080808"/>
              <path id="Контур_3720" data-name="Контур 3720" d="M554.411,429.39l-32.77,39.368v-.3l32.52-39.068Z" transform="translate(-521.641 -429.39)" fill="#080808"/>
              <path id="Контур_3721" data-name="Контур 3721" d="M554.661,429.39l-33.019,39.668v-.3l32.77-39.368Z" transform="translate(-521.641 -429.39)" fill="#080809"/>
              <path id="Контур_3722" data-name="Контур 3722" d="M554.911,429.39l-33.269,39.968v-.3l33.019-39.668Z" transform="translate(-521.641 -429.39)" fill="#080909"/>
              <path id="Контур_3723" data-name="Контур 3723" d="M555.16,429.39l-33.519,40.268v-.3l33.269-39.968Z" transform="translate(-521.641 -429.39)" fill="#080909"/>
              <path id="Контур_3724" data-name="Контур 3724" d="M555.41,429.39l-33.769,40.568v-.3L555.16,429.39Z" transform="translate(-521.641 -429.39)" fill="#080909"/>
              <path id="Контур_3725" data-name="Контур 3725" d="M555.66,429.39l-34.018,40.868v-.3L555.41,429.39Z" transform="translate(-521.641 -429.39)" fill="#080909"/>
              <path id="Контур_3726" data-name="Контур 3726" d="M555.91,429.39l-34.268,41.168v-.3L555.66,429.39Z" transform="translate(-521.641 -429.39)" fill="#08090a"/>
              <path id="Контур_3727" data-name="Контур 3727" d="M556.159,429.39l-34.518,41.468v-.3L555.91,429.39Z" transform="translate(-521.641 -429.39)" fill="#080a0a"/>
              <path id="Контур_3728" data-name="Контур 3728" d="M556.409,429.39l-34.768,41.768v-.3l34.518-41.468Z" transform="translate(-521.641 -429.39)" fill="#080a0a"/>
              <path id="Контур_3729" data-name="Контур 3729" d="M556.659,429.39l-35.017,42.068v-.3l34.768-41.768Z" transform="translate(-521.641 -429.39)" fill="#080a0a"/>
              <path id="Контур_3730" data-name="Контур 3730" d="M556.909,429.39l-35.267,42.368v-.3l35.017-42.068Z" transform="translate(-521.641 -429.39)" fill="#090a0a"/>
              <path id="Контур_3731" data-name="Контур 3731" d="M557.158,429.39l-35.517,42.668v-.3l35.267-42.368Z" transform="translate(-521.641 -429.39)" fill="#090a0b"/>
              <path id="Контур_3732" data-name="Контур 3732" d="M557.408,429.39l-35.767,42.968v-.3l35.517-42.668Z" transform="translate(-521.641 -429.39)" fill="#090b0b"/>
              <path id="Контур_3733" data-name="Контур 3733" d="M557.658,429.39l-36.016,43.268v-.3l35.767-42.968Z" transform="translate(-521.641 -429.39)" fill="#090b0b"/>
              <path id="Контур_3734" data-name="Контур 3734" d="M557.907,429.39l-36.266,43.568v-.3l36.016-43.268Z" transform="translate(-521.641 -429.39)" fill="#090b0b"/>
              <path id="Контур_3735" data-name="Контур 3735" d="M558.157,429.39l-36.516,43.868v-.3l36.266-43.568Z" transform="translate(-521.641 -429.39)" fill="#090b0c"/>
              <path id="Контур_3736" data-name="Контур 3736" d="M558.407,429.39l-36.766,44.168v-.3l36.516-43.868Z" transform="translate(-521.641 -429.39)" fill="#090c0c"/>
              <path id="Контур_3737" data-name="Контур 3737" d="M558.657,429.39l-37.015,44.468v-.3l36.766-44.168Z" transform="translate(-521.641 -429.39)" fill="#090c0c"/>
              <path id="Контур_3738" data-name="Контур 3738" d="M558.906,429.39l-37.265,44.768v-.3l37.015-44.468Z" transform="translate(-521.641 -429.39)" fill="#0a0c0d"/>
              <path id="Контур_3739" data-name="Контур 3739" d="M559.156,429.39l-37.515,45.068v-.3l37.265-44.768Z" transform="translate(-521.641 -429.39)" fill="#0a0d0d"/>
              <path id="Контур_3740" data-name="Контур 3740" d="M559.406,429.39l-37.764,45.368v-.3l37.515-45.068Z" transform="translate(-521.641 -429.39)" fill="#0a0d0d"/>
              <path id="Контур_3741" data-name="Контур 3741" d="M559.656,429.39l-38.014,45.668v-.3l37.764-45.368Z" transform="translate(-521.641 -429.39)" fill="#0a0d0e"/>
              <path id="Контур_3742" data-name="Контур 3742" d="M559.905,429.39l-38.264,45.968v-.3l38.014-45.668Z" transform="translate(-521.641 -429.39)" fill="#0a0e0e"/>
              <path id="Контур_3743" data-name="Контур 3743" d="M560.155,429.39l-38.514,46.268v-.3l38.264-45.968Z" transform="translate(-521.641 -429.39)" fill="#0a0e0e"/>
              <path id="Контур_3744" data-name="Контур 3744" d="M560.4,429.39l-38.763,46.568v-.3l38.514-46.268Z" transform="translate(-521.641 -429.39)" fill="#0b0e0f"/>
              <path id="Контур_3745" data-name="Контур 3745" d="M560.655,429.39l-39.013,46.868v-.3L560.4,429.39Z" transform="translate(-521.641 -429.39)" fill="#0b0f0f"/>
              <path id="Контур_3746" data-name="Контур 3746" d="M560.9,429.39l-39.263,47.168v-.3l39.013-46.868Z" transform="translate(-521.641 -429.39)" fill="#0b0f10"/>
              <path id="Контур_3747" data-name="Контур 3747" d="M561.154,429.39l-39.513,47.468v-.3L560.9,429.39Z" transform="translate(-521.641 -429.39)" fill="#0b0f10"/>
              <path id="Контур_3748" data-name="Контур 3748" d="M561.4,429.39l-39.762,47.768v-.3l39.513-47.468Z" transform="translate(-521.641 -429.39)" fill="#0b1010"/>
              <path id="Контур_3749" data-name="Контур 3749" d="M561.654,429.39l-40.012,48.068v-.3L561.4,429.39Z" transform="translate(-521.641 -429.39)" fill="#0c1011"/>
              <path id="Контур_3750" data-name="Контур 3750" d="M561.9,429.39l-40.262,48.368v-.3l40.012-48.068Z" transform="translate(-521.641 -429.39)" fill="#0c1111"/>
              <path id="Контур_3751" data-name="Контур 3751" d="M562.153,429.39l-40.512,48.668v-.3L561.9,429.39Z" transform="translate(-521.641 -429.39)" fill="#0c1112"/>
              <path id="Контур_3752" data-name="Контур 3752" d="M562.4,429.39l-40.761,48.968v-.3l40.512-48.668Z" transform="translate(-521.641 -429.39)" fill="#0c1112"/>
              <path id="Контур_3753" data-name="Контур 3753" d="M562.652,429.39l-41.011,49.268v-.3L562.4,429.39Z" transform="translate(-521.641 -429.39)" fill="#0c1213"/>
              <path id="Контур_3754" data-name="Контур 3754" d="M562.9,429.39l-41.261,49.568v-.3l41.011-49.268Z" transform="translate(-521.641 -429.39)" fill="#0d1213"/>
              <path id="Контур_3755" data-name="Контур 3755" d="M563.152,429.39l-41.511,49.868v-.3L562.9,429.39Z" transform="translate(-521.641 -429.39)" fill="#0d1314"/>
              <path id="Контур_3756" data-name="Контур 3756" d="M563.4,429.39l-41.76,50.168v-.3l41.511-49.868Z" transform="translate(-521.641 -429.39)" fill="#0d1314"/>
              <path id="Контур_3757" data-name="Контур 3757" d="M563.651,429.39l-42.01,50.468v-.3L563.4,429.39Z" transform="translate(-521.641 -429.39)" fill="#0d1415"/>
              <path id="Контур_3758" data-name="Контур 3758" d="M563.9,429.39l-42.26,50.768v-.3l42.01-50.468Z" transform="translate(-521.641 -429.39)" fill="#0e1415"/>
              <path id="Контур_3759" data-name="Контур 3759" d="M564.151,429.39l-42.509,51.068v-.3L563.9,429.39Z" transform="translate(-521.641 -429.39)" fill="#0e1516"/>
              <path id="Контур_3760" data-name="Контур 3760" d="M564.4,429.39l-42.759,51.368v-.3l42.509-51.068Z" transform="translate(-521.641 -429.39)" fill="#0e1516"/>
              <path id="Контур_3761" data-name="Контур 3761" d="M564.65,429.39l-43.009,51.668v-.3L564.4,429.39Z" transform="translate(-521.641 -429.39)" fill="#0e1617"/>
              <path id="Контур_3762" data-name="Контур 3762" d="M564.9,429.39l-43.259,51.968v-.3L564.65,429.39Z" transform="translate(-521.641 -429.39)" fill="#0f1617"/>
              <path id="Контур_3763" data-name="Контур 3763" d="M565.15,429.39l-43.508,52.268v-.3L564.9,429.39Z" transform="translate(-521.641 -429.39)" fill="#0f1718"/>
              <path id="Контур_3764" data-name="Контур 3764" d="M565.4,429.39l-43.758,52.568v-.3L565.15,429.39Z" transform="translate(-521.641 -429.39)" fill="#0f1719"/>
              <path id="Контур_3765" data-name="Контур 3765" d="M565.649,429.39l-44.008,52.868v-.3L565.4,429.39Z" transform="translate(-521.641 -429.39)" fill="#0f1819"/>
              <path id="Контур_3766" data-name="Контур 3766" d="M565.9,429.39l-44.258,53.169v-.3l44.008-52.868Z" transform="translate(-521.641 -429.39)" fill="#10191a"/>
              <path id="Контур_3767" data-name="Контур 3767" d="M566.149,429.39l-44.507,53.469v-.3L565.9,429.39Z" transform="translate(-521.641 -429.39)" fill="#10191a"/>
              <path id="Контур_3768" data-name="Контур 3768" d="M566.4,429.39l-44.757,53.769v-.3l44.507-53.469Z" transform="translate(-521.641 -429.39)" fill="#101a1b"/>
              <path id="Контур_3769" data-name="Контур 3769" d="M566.648,429.39l-45.007,54.069v-.3L566.4,429.39Z" transform="translate(-521.641 -429.39)" fill="#111a1c"/>
              <path id="Контур_3770" data-name="Контур 3770" d="M566.9,429.39l-45.257,54.369v-.3l45.007-54.069Z" transform="translate(-521.641 -429.39)" fill="#111b1c"/>
              <path id="Контур_3771" data-name="Контур 3771" d="M567.148,429.39l-45.506,54.669v-.3L566.9,429.39Z" transform="translate(-521.641 -429.39)" fill="#111c1d"/>
              <path id="Контур_3772" data-name="Контур 3772" d="M567.4,429.39l-45.756,54.969v-.3l45.506-54.669Z" transform="translate(-521.641 -429.39)" fill="#121c1e"/>
              <path id="Контур_3773" data-name="Контур 3773" d="M567.647,429.39l-46.006,55.269v-.3L567.4,429.39Z" transform="translate(-521.641 -429.39)" fill="#121d1f"/>
              <path id="Контур_3774" data-name="Контур 3774" d="M567.9,429.39l-46.256,55.569v-.3l46.006-55.269Z" transform="translate(-521.641 -429.39)" fill="#121e1f"/>
              <path id="Контур_3775" data-name="Контур 3775" d="M568.147,429.39l-46.505,55.869v-.3L567.9,429.39Z" transform="translate(-521.641 -429.39)" fill="#131e20"/>
              <path id="Контур_3776" data-name="Контур 3776" d="M568.4,429.39l-46.608,55.992h-.147v-.123l46.505-55.869Z" transform="translate(-521.641 -429.39)" fill="#131f21"/>
              <path id="Контур_3777" data-name="Контур 3777" d="M568.646,429.39l-46.608,55.992h-.25L568.4,429.39Z" transform="translate(-521.641 -429.39)" fill="#132021"/>
              <path id="Контур_3778" data-name="Контур 3778" d="M568.9,429.39l-46.608,55.992h-.25l46.608-55.992Z" transform="translate(-521.641 -429.39)" fill="#142122"/>
              <path id="Контур_3779" data-name="Контур 3779" d="M569.146,429.39l-46.608,55.992h-.25L568.9,429.39Z" transform="translate(-521.641 -429.39)" fill="#142123"/>
              <path id="Контур_3780" data-name="Контур 3780" d="M569.4,429.39l-46.608,55.992h-.25l46.608-55.992Z" transform="translate(-521.641 -429.39)" fill="#142224"/>
              <path id="Контур_3781" data-name="Контур 3781" d="M569.645,429.39l-46.608,55.992h-.25L569.4,429.39Z" transform="translate(-521.641 -429.39)" fill="#152325"/>
              <path id="Контур_3782" data-name="Контур 3782" d="M569.895,429.39l-46.608,55.992h-.25l46.608-55.992Z" transform="translate(-521.641 -429.39)" fill="#152425"/>
              <path id="Контур_3783" data-name="Контур 3783" d="M570.145,429.39l-46.608,55.992h-.25l46.608-55.992Z" transform="translate(-521.641 -429.39)" fill="#152426"/>
              <path id="Контур_3784" data-name="Контур 3784" d="M570.394,429.39l-46.608,55.992h-.25l46.608-55.992Z" transform="translate(-521.641 -429.39)" fill="#162527"/>
              <path id="Контур_3785" data-name="Контур 3785" d="M570.644,429.39l-46.608,55.992h-.25l46.608-55.992Z" transform="translate(-521.641 -429.39)" fill="#162628"/>
              <path id="Контур_3786" data-name="Контур 3786" d="M570.894,429.39l-46.608,55.992h-.25l46.608-55.992Z" transform="translate(-521.641 -429.39)" fill="#172729"/>
              <path id="Контур_3787" data-name="Контур 3787" d="M571.144,429.39l-46.608,55.992h-.25l46.608-55.992Z" transform="translate(-521.641 -429.39)" fill="#17282a"/>
              <path id="Контур_3788" data-name="Контур 3788" d="M571.393,429.39l-46.608,55.992h-.25l46.608-55.992Z" transform="translate(-521.641 -429.39)" fill="#17282b"/>
              <path id="Контур_3789" data-name="Контур 3789" d="M571.643,429.39l-46.608,55.992h-.25l46.608-55.992Z" transform="translate(-521.641 -429.39)" fill="#18292c"/>
              <path id="Контур_3790" data-name="Контур 3790" d="M571.893,429.39l-46.608,55.992h-.25l46.608-55.992Z" transform="translate(-521.641 -429.39)" fill="#182a2c"/>
              <path id="Контур_3791" data-name="Контур 3791" d="M572.142,429.39l-46.608,55.992h-.25l46.608-55.992Z" transform="translate(-521.641 -429.39)" fill="#192b2d"/>
              <path id="Контур_3792" data-name="Контур 3792" d="M572.392,429.39l-46.608,55.992h-.25l46.608-55.992Z" transform="translate(-521.641 -429.39)" fill="#192c2e"/>
              <path id="Контур_3793" data-name="Контур 3793" d="M572.642,429.39l-46.608,55.992h-.25l46.608-55.992Z" transform="translate(-521.641 -429.39)" fill="#1a2d2f"/>
              <path id="Контур_3794" data-name="Контур 3794" d="M572.892,429.39l-46.608,55.992h-.25l46.608-55.992Z" transform="translate(-521.641 -429.39)" fill="#1a2e30"/>
              <path id="Контур_3795" data-name="Контур 3795" d="M573.141,429.39l-46.608,55.992h-.25l46.608-55.992Z" transform="translate(-521.641 -429.39)" fill="#1b2f31"/>
              <path id="Контур_3796" data-name="Контур 3796" d="M573.391,429.39l-46.608,55.992h-.25l46.608-55.992Z" transform="translate(-521.641 -429.39)" fill="#1b2f32"/>
              <path id="Контур_3797" data-name="Контур 3797" d="M573.641,429.39l-46.608,55.992h-.25l46.608-55.992Z" transform="translate(-521.641 -429.39)" fill="#1b3033"/>
              <path id="Контур_3798" data-name="Контур 3798" d="M573.891,429.39l-46.608,55.992h-.25l46.608-55.992Z" transform="translate(-521.641 -429.39)" fill="#1c3134"/>
              <path id="Контур_3799" data-name="Контур 3799" d="M574.14,429.39l-46.608,55.992h-.25l46.608-55.992Z" transform="translate(-521.641 -429.39)" fill="#1c3235"/>
              <path id="Контур_3800" data-name="Контур 3800" d="M574.39,429.39l-46.608,55.992h-.25L574.14,429.39Z" transform="translate(-521.641 -429.39)" fill="#1d3336"/>
              <path id="Контур_3801" data-name="Контур 3801" d="M574.64,429.39l-46.608,55.992h-.25L574.39,429.39Z" transform="translate(-521.641 -429.39)" fill="#1d3437"/>
              <path id="Контур_3802" data-name="Контур 3802" d="M574.89,429.39l-46.608,55.992h-.25L574.64,429.39Z" transform="translate(-521.641 -429.39)" fill="#1e3539"/>
              <path id="Контур_3803" data-name="Контур 3803" d="M575.139,429.39l-46.608,55.992h-.25L574.89,429.39Z" transform="translate(-521.641 -429.39)" fill="#1e363a"/>
              <path id="Контур_3804" data-name="Контур 3804" d="M575.389,429.39l-46.608,55.992h-.25l46.608-55.992Z" transform="translate(-521.641 -429.39)" fill="#1f373b"/>
              <path id="Контур_3805" data-name="Контур 3805" d="M575.639,429.39l-46.608,55.992h-.25l46.608-55.992Z" transform="translate(-521.641 -429.39)" fill="#1f383c"/>
              <path id="Контур_3806" data-name="Контур 3806" d="M575.889,429.39l-46.608,55.992h-.25l46.608-55.992Z" transform="translate(-521.641 -429.39)" fill="#20393d"/>
              <path id="Контур_3807" data-name="Контур 3807" d="M576.138,429.39,529.53,485.383h-.25l46.608-55.992Z" transform="translate(-521.641 -429.39)" fill="#203b3e"/>
              <path id="Контур_3808" data-name="Контур 3808" d="M576.388,429.39,529.78,485.383h-.25l46.608-55.992Z" transform="translate(-521.641 -429.39)" fill="#213c3f"/>
              <path id="Контур_3809" data-name="Контур 3809" d="M576.638,429.39,530.03,485.383h-.25l46.608-55.992Z" transform="translate(-521.641 -429.39)" fill="#223d40"/>
              <path id="Контур_3810" data-name="Контур 3810" d="M576.887,429.39l-46.608,55.992h-.25l46.608-55.992Z" transform="translate(-521.641 -429.39)" fill="#223e42"/>
              <path id="Контур_3811" data-name="Контур 3811" d="M577.137,429.39l-46.608,55.992h-.25l46.608-55.992Z" transform="translate(-521.641 -429.39)" fill="#233f43"/>
              <path id="Контур_3812" data-name="Контур 3812" d="M577.387,429.39l-46.608,55.992h-.25l46.608-55.992Z" transform="translate(-521.641 -429.39)" fill="#234044"/>
              <path id="Контур_3813" data-name="Контур 3813" d="M577.637,429.39l-46.608,55.992h-.25l46.608-55.992Z" transform="translate(-521.641 -429.39)" fill="#244145"/>
              <path id="Контур_3814" data-name="Контур 3814" d="M577.886,429.39l-46.608,55.992h-.25l46.608-55.992Z" transform="translate(-521.641 -429.39)" fill="#244246"/>
              <path id="Контур_3815" data-name="Контур 3815" d="M578.136,429.39l-46.608,55.992h-.25l46.608-55.992Z" transform="translate(-521.641 -429.39)" fill="#254448"/>
              <path id="Контур_3816" data-name="Контур 3816" d="M578.248,429.556l-46.471,55.827h-.25l46.608-55.992h.112Z" transform="translate(-521.641 -429.39)" fill="#264549"/>
              <path id="Контур_3817" data-name="Контур 3817" d="M578.248,429.857l-46.221,55.527h-.25l46.471-55.827Z" transform="translate(-521.641 -429.392)" fill="#26464a"/>
              <path id="Контур_3818" data-name="Контур 3818" d="M578.248,430.16l-45.971,55.227h-.25l46.221-55.527Z" transform="translate(-521.641 -429.395)" fill="#27474c"/>
              <path id="Контур_3819" data-name="Контур 3819" d="M578.248,430.464l-45.721,54.927h-.25l45.971-55.227Z" transform="translate(-521.641 -429.399)" fill="#27484d"/>
              <path id="Контур_3820" data-name="Контур 3820" d="M578.248,430.767l-45.472,54.627h-.25l45.721-54.927Z" transform="translate(-521.641 -429.402)" fill="#284a4e"/>
              <path id="Контур_3821" data-name="Контур 3821" d="M578.248,431.07,533.027,485.4h-.25l45.472-54.627Z" transform="translate(-521.641 -429.405)" fill="#294b50"/>
              <path id="Контур_3822" data-name="Контур 3822" d="M578.248,431.373,533.276,485.4h-.25l45.222-54.327Z" transform="translate(-521.641 -429.408)" fill="#294c51"/>
              <path id="Контур_3823" data-name="Контур 3823" d="M578.248,431.676,533.526,485.4h-.25l44.972-54.027Z" transform="translate(-521.641 -429.411)" fill="#2a4d52"/>
              <path id="Контур_3824" data-name="Контур 3824" d="M578.248,431.98l-44.473,53.427h-.25l44.722-53.727Z" transform="translate(-521.641 -429.414)" fill="#2a4f54"/>
              <path id="Контур_3825" data-name="Контур 3825" d="M578.248,432.283,534.026,485.41h-.25l44.473-53.427Z" transform="translate(-521.641 -429.418)" fill="#2b5055"/>
              <path id="Контур_3826" data-name="Контур 3826" d="M578.248,432.586l-43.973,52.827h-.25l44.223-53.127Z" transform="translate(-521.641 -429.421)" fill="#2c5156"/>
              <path id="Контур_3827" data-name="Контур 3827" d="M578.248,432.889l-43.724,52.527h-.25l43.973-52.827Z" transform="translate(-521.641 -429.424)" fill="#2c5358"/>
              <path id="Контур_3828" data-name="Контур 3828" d="M578.248,433.192l-43.474,52.227h-.25l43.724-52.527Z" transform="translate(-521.641 -429.427)" fill="#2d5459"/>
              <path id="Контур_3829" data-name="Контур 3829" d="M578.248,433.5l-43.224,51.927h-.25L578.248,433.2Z" transform="translate(-521.641 -429.43)" fill="#2e555b"/>
              <path id="Контур_3830" data-name="Контур 3830" d="M578.248,433.8l-42.974,51.627h-.25L578.248,433.5Z" transform="translate(-521.641 -429.433)" fill="#2e575c"/>
              <path id="Контур_3831" data-name="Контур 3831" d="M578.248,434.1l-42.725,51.327h-.25L578.248,433.8Z" transform="translate(-521.641 -429.437)" fill="#2f585e"/>
              <path id="Контур_3832" data-name="Контур 3832" d="M578.248,434.405l-42.475,51.027h-.25l42.725-51.327Z" transform="translate(-521.641 -429.44)" fill="#30595f"/>
              <path id="Контур_3833" data-name="Контур 3833" d="M578.248,434.708l-42.225,50.727h-.25l42.475-51.027Z" transform="translate(-521.641 -429.443)" fill="#305b61"/>
              <path id="Контур_3834" data-name="Контур 3834" d="M578.248,435.011l-41.975,50.427h-.25l42.225-50.727Z" transform="translate(-521.641 -429.446)" fill="#315c62"/>
              <path id="Контур_3835" data-name="Контур 3835" d="M578.248,435.315l-41.726,50.127h-.25l41.975-50.427Z" transform="translate(-521.641 -429.449)" fill="#325e64"/>
              <path id="Контур_3836" data-name="Контур 3836" d="M578.248,435.618l-41.476,49.827h-.25l41.726-50.127Z" transform="translate(-521.641 -429.452)" fill="#335f65"/>
              <path id="Контур_3837" data-name="Контур 3837" d="M578.248,435.921l-41.226,49.527h-.25l41.476-49.827Z" transform="translate(-521.641 -429.456)" fill="#336167"/>
              <path id="Контур_3838" data-name="Контур 3838" d="M578.248,436.224l-40.976,49.227h-.25l41.226-49.527Z" transform="translate(-521.641 -429.459)" fill="#346268"/>
              <path id="Контур_3839" data-name="Контур 3839" d="M578.248,436.527l-40.727,48.927h-.25l40.976-49.227Z" transform="translate(-521.641 -429.462)" fill="#35646a"/>
              <path id="Контур_3840" data-name="Контур 3840" d="M578.248,436.831l-40.477,48.627h-.25l40.727-48.927Z" transform="translate(-521.641 -429.465)" fill="#36656c"/>
              <path id="Контур_3841" data-name="Контур 3841" d="M578.248,437.134,538.021,485.46h-.25l40.477-48.627Z" transform="translate(-521.641 -429.468)" fill="#36676d"/>
              <path id="Контур_3842" data-name="Контур 3842" d="M578.248,437.437l-39.977,48.027h-.25l40.227-48.327Z" transform="translate(-521.641 -429.471)" fill="#37686f"/>
              <path id="Контур_3843" data-name="Контур 3843" d="M578.248,437.74l-39.728,47.727h-.25l39.977-48.027Z" transform="translate(-521.641 -429.475)" fill="#386a70"/>
              <path id="Контур_3844" data-name="Контур 3844" d="M578.248,438.043,538.771,485.47h-.25l39.728-47.727Z" transform="translate(-521.641 -429.478)" fill="#396b72"/>
              <path id="Контур_3845" data-name="Контур 3845" d="M578.248,438.347,539.02,485.473h-.25l39.478-47.427Z" transform="translate(-521.641 -429.481)" fill="#396d74"/>
              <path id="Контур_3846" data-name="Контур 3846" d="M578.248,438.65,539.27,485.476h-.25l39.228-47.126Z" transform="translate(-521.641 -429.484)" fill="#3a6e75"/>
              <path id="Контур_3847" data-name="Контур 3847" d="M578.248,438.953,539.52,485.479h-.25l38.979-46.826Z" transform="translate(-521.641 -429.487)" fill="#3b7077"/>
              <path id="Контур_3848" data-name="Контур 3848" d="M578.248,439.256l-38.479,46.226h-.25l38.729-46.526Z" transform="translate(-521.641 -429.49)" fill="#3c7279"/>
              <path id="Контур_3849" data-name="Контур 3849" d="M578.248,439.559l-38.229,45.926h-.25l38.479-46.226Z" transform="translate(-521.641 -429.494)" fill="#3c737b"/>
              <path id="Контур_3850" data-name="Контур 3850" d="M578.248,439.862l-37.98,45.626h-.25l38.229-45.926Z" transform="translate(-521.641 -429.497)" fill="#3d757c"/>
              <path id="Контур_3851" data-name="Контур 3851" d="M578.248,440.166l-37.73,45.326h-.25l37.98-45.626Z" transform="translate(-521.641 -429.5)" fill="#3e777e"/>
              <path id="Контур_3852" data-name="Контур 3852" d="M578.248,440.469,540.768,485.5h-.25l37.73-45.326Z" transform="translate(-521.641 -429.503)" fill="#3f7880"/>
              <path id="Контур_3853" data-name="Контур 3853" d="M578.248,440.772,541.018,485.5h-.25l37.48-45.026Z" transform="translate(-521.641 -429.506)" fill="#407a82"/>
              <path id="Контур_3854" data-name="Контур 3854" d="M578.248,441.075,541.268,485.5h-.25l37.23-44.726Z" transform="translate(-521.641 -429.509)" fill="#417c83"/>
              <path id="Контур_3855" data-name="Контур 3855" d="M578.248,441.378,541.518,485.5h-.25l36.981-44.426Z" transform="translate(-521.641 -429.513)" fill="#417d85"/>
              <path id="Контур_3856" data-name="Контур 3856" d="M578.248,441.682l-36.481,43.826h-.25l36.731-44.126Z" transform="translate(-521.641 -429.516)" fill="#427f87"/>
              <path id="Контур_3857" data-name="Контур 3857" d="M578.248,441.985l-36.231,43.526h-.25l36.481-43.826Z" transform="translate(-521.641 -429.519)" fill="#438189"/>
              <path id="Контур_3858" data-name="Контур 3858" d="M578.248,442.288l-35.982,43.226h-.25l36.231-43.526Z" transform="translate(-521.641 -429.522)" fill="#44828b"/>
              <path id="Контур_3859" data-name="Контур 3859" d="M578.248,442.591l-35.732,42.926h-.25l35.982-43.226Z" transform="translate(-521.641 -429.525)" fill="#45848d"/>
              <path id="Контур_3860" data-name="Контур 3860" d="M578.248,442.894,542.766,485.52h-.25l35.732-42.926Z" transform="translate(-521.641 -429.528)" fill="#46868f"/>
              <path id="Контур_3861" data-name="Контур 3861" d="M578.248,443.2l-35.232,42.326h-.25L578.248,442.9Z" transform="translate(-521.641 -429.532)" fill="#478891"/>
              <path id="Контур_3862" data-name="Контур 3862" d="M578.248,443.5l-34.983,42.026h-.25L578.248,443.2Z" transform="translate(-521.641 -429.535)" fill="#488a92"/>
              <path id="Контур_3863" data-name="Контур 3863" d="M578.248,443.8,543.516,485.53h-.25L578.248,443.5Z" transform="translate(-521.641 -429.538)" fill="#488b94"/>
              <path id="Контур_3864" data-name="Контур 3864" d="M578.248,444.107l-34.483,41.426h-.25l34.733-41.726Z" transform="translate(-521.641 -429.541)" fill="#498d96"/>
              <path id="Контур_3865" data-name="Контур 3865" d="M578.248,444.41l-34.234,41.126h-.25l34.483-41.426Z" transform="translate(-521.641 -429.544)" fill="#4a8f98"/>
              <path id="Контур_3866" data-name="Контур 3866" d="M578.248,444.713l-33.984,40.826h-.25l34.234-41.126Z" transform="translate(-521.641 -429.547)" fill="#4b919a"/>
              <path id="Контур_3867" data-name="Контур 3867" d="M578.248,445.017l-33.734,40.526h-.25l33.984-40.826Z" transform="translate(-521.641 -429.551)" fill="#4c939c"/>
              <path id="Контур_3868" data-name="Контур 3868" d="M578.248,445.32l-33.484,40.226h-.25l33.734-40.526Z" transform="translate(-521.641 -429.554)" fill="#4d959e"/>
              <path id="Контур_3869" data-name="Контур 3869" d="M578.248,445.623l-33.235,39.926h-.25l33.484-40.226Z" transform="translate(-521.641 -429.557)" fill="#4e97a0"/>
              <path id="Контур_3870" data-name="Контур 3870" d="M578.248,445.926l-32.985,39.626h-.25l33.235-39.926Z" transform="translate(-521.641 -429.56)" fill="#4f99a2"/>
              <path id="Контур_3871" data-name="Контур 3871" d="M578.248,446.229l-32.735,39.326h-.25l32.985-39.626Z" transform="translate(-521.641 -429.563)" fill="#509aa5"/>
              <path id="Контур_3872" data-name="Контур 3872" d="M578.248,446.533l-32.485,39.026h-.25l32.735-39.326Z" transform="translate(-521.641 -429.566)" fill="#519ca7"/>
              <path id="Контур_3873" data-name="Контур 3873" d="M578.248,446.836l-32.236,38.726h-.25l32.485-39.026Z" transform="translate(-521.641 -429.57)" fill="#529ea9"/>
              <path id="Контур_3874" data-name="Контур 3874" d="M578.248,447.139l-31.986,38.426h-.25l32.236-38.726Z" transform="translate(-521.641 -429.573)" fill="#53a0ab"/>
              <path id="Контур_3875" data-name="Контур 3875" d="M578.248,447.442l-31.736,38.126h-.25l31.986-38.426Z" transform="translate(-521.641 -429.576)" fill="#54a2ad"/>
              <path id="Контур_3876" data-name="Контур 3876" d="M578.248,447.745l-31.486,37.826h-.25l31.736-38.126Z" transform="translate(-521.641 -429.579)" fill="#55a4af"/>
              <path id="Контур_3877" data-name="Контур 3877" d="M578.248,448.048l-31.237,37.526h-.25l31.486-37.826Z" transform="translate(-521.641 -429.582)" fill="#56a6b1"/>
              <path id="Контур_3878" data-name="Контур 3878" d="M578.248,448.352l-30.987,37.226h-.25l31.237-37.526Z" transform="translate(-521.641 -429.585)" fill="#57a8b3"/>
              <path id="Контур_3879" data-name="Контур 3879" d="M578.248,448.655l-30.737,36.926h-.25l30.987-37.226Z" transform="translate(-521.641 -429.589)" fill="#58aab6"/>
              <path id="Контур_3880" data-name="Контур 3880" d="M578.248,448.958l-30.487,36.626h-.25l30.737-36.926Z" transform="translate(-521.641 -429.592)" fill="#59acb8"/>
              <path id="Контур_3881" data-name="Контур 3881" d="M578.248,449.261l-30.238,36.326h-.25l30.487-36.626Z" transform="translate(-521.641 -429.595)" fill="#5aafba"/>
              <path id="Контур_3882" data-name="Контур 3882" d="M578.248,449.564,548.26,485.59h-.25l30.238-36.326Z" transform="translate(-521.641 -429.598)" fill="#5bb1bc"/>
              <path id="Контур_3883" data-name="Контур 3883" d="M578.248,449.868,548.51,485.593h-.25l29.988-36.026Z" transform="translate(-521.641 -429.601)" fill="#5cb3be"/>
              <path id="Контур_3884" data-name="Контур 3884" d="M578.248,450.171,548.76,485.6h-.25l29.738-35.726Z" transform="translate(-521.641 -429.604)" fill="#5db5c1"/>
              <path id="Контур_3885" data-name="Контур 3885" d="M578.248,450.474,549.01,485.6h-.25l29.488-35.426Z" transform="translate(-521.641 -429.608)" fill="#5eb7c3"/>
              <path id="Контур_3886" data-name="Контур 3886" d="M549.01,485.6l29.239-35.126V485.6Z" transform="translate(-521.641 -429.611)" fill="#5eb7c3"/>
            </g>
          </g>
        </g>
      </g>
    </g>
    <g id="Сгруппировать_797" data-name="Сгруппировать 797" transform="translate(539.545 458.724)">
      <rect id="Прямоугольник_5830" data-name="Прямоугольник 5830" width="13.891" height="2" fill="#201600"/>
    </g>
    <g id="Сгруппировать_798" data-name="Сгруппировать 798" transform="translate(545.49 452.779)">
      <rect id="Прямоугольник_5831" data-name="Прямоугольник 5831" width="2" height="13.891" fill="#201600"/>
    </g>
  </g>
</svg>
