<svg xmlns="http://www.w3.org/2000/svg" xmlns:xlink="http://www.w3.org/1999/xlink" width="22" height="11" viewBox="0 0 22 11">
  <defs>
    <clipPath id="clip-path">
      <path id="Контур_3492" data-name="Контур 3492" d="M456.585,112.738h.308a1.958,1.958,0,1,1-1.958-1.958,1.958,1.958,0,0,1,1.958,1.958h-.617a1.341,1.341,0,1,0-1.341,1.341,1.343,1.343,0,0,0,1.341-1.341Z" transform="translate(-452.978 -110.78)" fill="#865dcf"/>
    </clipPath>
  </defs>
  <g id="Сгруппировать_758" data-name="Сгруппировать 758" transform="translate(-437.343 -104.382)">
    <g id="Сгруппировать_752" data-name="Сгруппировать 752" transform="translate(437.343 104.382)">
      <path id="Контур_3489" data-name="Контур 3489" d="M448.343,115.382c-5.829,0-10.447-4.9-10.641-5.113l-.359-.387.359-.387c.194-.209,4.812-5.113,10.641-5.113s10.448,4.9,10.641,5.113l.359.387-.359.387C458.791,110.478,454.173,115.382,448.343,115.382Zm-9.385-5.5c1.2,1.131,4.989,4.352,9.385,4.352s8.191-3.219,9.385-4.35c-1.2-1.131-4.988-4.352-9.385-4.352S440.152,108.75,438.958,109.882Z" transform="translate(-437.343 -104.382)" fill="#865dcf"/>
    </g>
    <g id="Сгруппировать_753" data-name="Сгруппировать 753" transform="translate(450.649 105.6)">
      <path id="Контур_3490" data-name="Контур 3490" d="M461.437,114.845l-.786-.869a4.032,4.032,0,0,0,1.664-3.223,4.089,4.089,0,0,0-2.016-3.464l.69-.933a5.19,5.19,0,0,1,2.559,4.4A5.122,5.122,0,0,1,461.437,114.845Z" transform="translate(-460.3 -106.357)" fill="#865dcf"/>
    </g>
    <g id="Сгруппировать_754" data-name="Сгруппировать 754" transform="translate(442.787 105.6)">
      <path id="Контур_3491" data-name="Контур 3491" d="M448.905,114.892a5.126,5.126,0,0,1-2.169-4.136,5.193,5.193,0,0,1,2.56-4.4l.69.934a4.092,4.092,0,0,0-2.017,3.465,4.035,4.035,0,0,0,1.709,3.257Z" transform="translate(-446.736 -106.357)" fill="#865dcf"/>
    </g>
    <g id="Сгруппировать_757" data-name="Сгруппировать 757" transform="translate(446.385 107.925)">
      <g id="Сгруппировать_756" data-name="Сгруппировать 756" transform="translate(0)">
        <g id="Сгруппировать_755" data-name="Сгруппировать 755" clip-path="url(#clip-path)">
          <rect id="Прямоугольник_4757" data-name="Прямоугольник 4757" width="0.01" height="3.915" transform="translate(0 0)" fill="#865dcf"/>
          <rect id="Прямоугольник_4758" data-name="Прямоугольник 4758" width="0.024" height="3.915" transform="translate(0.01 0)" fill="#865dcf"/>
          <rect id="Прямоугольник_4759" data-name="Прямоугольник 4759" width="0.024" height="3.915" transform="translate(0.034 0)" fill="#865dcf"/>
          <rect id="Прямоугольник_4760" data-name="Прямоугольник 4760" width="0.024" height="3.915" transform="translate(0.058 0)" fill="#865dcf"/>
          <rect id="Прямоугольник_4761" data-name="Прямоугольник 4761" width="0.024" height="3.915" transform="translate(0.082 0)" fill="#865dcf"/>
          <rect id="Прямоугольник_4762" data-name="Прямоугольник 4762" width="0.024" height="3.915" transform="translate(0.107 0)" fill="#865dcf"/>
          <rect id="Прямоугольник_4763" data-name="Прямоугольник 4763" width="0.024" height="3.915" transform="translate(0.131 0)" fill="#865dcf"/>
          <rect id="Прямоугольник_4764" data-name="Прямоугольник 4764" width="0.024" height="3.915" transform="translate(0.155 0)" fill="#865dcf"/>
          <rect id="Прямоугольник_4765" data-name="Прямоугольник 4765" width="0.024" height="3.915" transform="translate(0.179 0)" fill="#865dcf"/>
          <rect id="Прямоугольник_4766" data-name="Прямоугольник 4766" width="0.024" height="3.915" transform="translate(0.203 0)" fill="#865dcf"/>
          <rect id="Прямоугольник_4767" data-name="Прямоугольник 4767" width="0.024" height="3.915" transform="translate(0.227 0)" fill="#865dcf"/>
          <rect id="Прямоугольник_4768" data-name="Прямоугольник 4768" width="0.024" height="3.915" transform="translate(0.251 0)" fill="#865dcf"/>
          <rect id="Прямоугольник_4769" data-name="Прямоугольник 4769" width="0.024" height="3.915" transform="translate(0.275 0)" fill="#865dcf"/>
          <rect id="Прямоугольник_4770" data-name="Прямоугольник 4770" width="0.024" height="3.915" transform="translate(0.299 0)" fill="#865dcf"/>
          <rect id="Прямоугольник_4771" data-name="Прямоугольник 4771" width="0.024" height="3.915" transform="translate(0.323 0)" fill="#865dcf"/>
          <rect id="Прямоугольник_4772" data-name="Прямоугольник 4772" width="0.024" height="3.915" transform="translate(0.347 0)" fill="#865dcf"/>
          <rect id="Прямоугольник_4773" data-name="Прямоугольник 4773" width="0.024" height="3.915" transform="translate(0.371 0)" fill="#865dcf"/>
          <rect id="Прямоугольник_4774" data-name="Прямоугольник 4774" width="0.024" height="3.915" transform="translate(0.395 0)" fill="#865dcf"/>
          <rect id="Прямоугольник_4775" data-name="Прямоугольник 4775" width="0.024" height="3.915" transform="translate(0.419 0)" fill="#865dcf"/>
          <rect id="Прямоугольник_4776" data-name="Прямоугольник 4776" width="0.024" height="3.915" transform="translate(0.444 0)" fill="#865dcf"/>
          <rect id="Прямоугольник_4777" data-name="Прямоугольник 4777" width="0.024" height="3.915" transform="translate(0.468 0)" fill="#865dcf"/>
          <rect id="Прямоугольник_4778" data-name="Прямоугольник 4778" width="0.024" height="3.915" transform="translate(0.492 0)" fill="#865dcf"/>
          <rect id="Прямоугольник_4779" data-name="Прямоугольник 4779" width="0.024" height="3.915" transform="translate(0.516 0)" fill="#865dcf"/>
          <rect id="Прямоугольник_4780" data-name="Прямоугольник 4780" width="0.024" height="3.915" transform="translate(0.54 0)" fill="#865dcf"/>
          <rect id="Прямоугольник_4781" data-name="Прямоугольник 4781" width="0.024" height="3.915" transform="translate(0.564 0)" fill="#865dcf"/>
          <rect id="Прямоугольник_4782" data-name="Прямоугольник 4782" width="0.024" height="3.915" transform="translate(0.588 0)" fill="#865dcf"/>
          <rect id="Прямоугольник_4783" data-name="Прямоугольник 4783" width="0.024" height="3.915" transform="translate(0.612 0)" fill="#865dcf"/>
          <rect id="Прямоугольник_4784" data-name="Прямоугольник 4784" width="0.024" height="3.915" transform="translate(0.636 0)" fill="#865dcf"/>
          <rect id="Прямоугольник_4785" data-name="Прямоугольник 4785" width="0.024" height="3.915" transform="translate(0.66 0)" fill="#865dcf"/>
          <rect id="Прямоугольник_4786" data-name="Прямоугольник 4786" width="0.024" height="3.915" transform="translate(0.684 0)" fill="#865dcf"/>
          <rect id="Прямоугольник_4787" data-name="Прямоугольник 4787" width="0.024" height="3.915" transform="translate(0.708 0)" fill="#865dcf"/>
          <rect id="Прямоугольник_4788" data-name="Прямоугольник 4788" width="0.024" height="3.915" transform="translate(0.732 0)" fill="#865dcf"/>
          <rect id="Прямоугольник_4789" data-name="Прямоугольник 4789" width="0.024" height="3.915" transform="translate(0.757 0)" fill="#865dcf"/>
          <rect id="Прямоугольник_4790" data-name="Прямоугольник 4790" width="0.024" height="3.915" transform="translate(0.781 0)" fill="#865dcf"/>
          <rect id="Прямоугольник_4791" data-name="Прямоугольник 4791" width="0.024" height="3.915" transform="translate(0.805 0)" fill="#865dcf"/>
          <rect id="Прямоугольник_4792" data-name="Прямоугольник 4792" width="0.024" height="3.915" transform="translate(0.829 0)" fill="#865dcf"/>
          <rect id="Прямоугольник_4793" data-name="Прямоугольник 4793" width="0.024" height="3.915" transform="translate(0.853 0)" fill="#865dcf"/>
          <rect id="Прямоугольник_4794" data-name="Прямоугольник 4794" width="0.024" height="3.915" transform="translate(0.877 0)" fill="#865dcf"/>
          <rect id="Прямоугольник_4795" data-name="Прямоугольник 4795" width="0.024" height="3.915" transform="translate(0.901 0)" fill="#865dcf"/>
          <rect id="Прямоугольник_4796" data-name="Прямоугольник 4796" width="0.024" height="3.915" transform="translate(0.925 0)" fill="#865dcf"/>
          <rect id="Прямоугольник_4797" data-name="Прямоугольник 4797" width="0.024" height="3.915" transform="translate(0.949 0)" fill="#865dcf"/>
          <rect id="Прямоугольник_4798" data-name="Прямоугольник 4798" width="0.024" height="3.915" transform="translate(0.973 0)" fill="#865dcf"/>
          <rect id="Прямоугольник_4799" data-name="Прямоугольник 4799" width="0.024" height="3.915" transform="translate(0.997 0)" fill="#865dcf"/>
          <rect id="Прямоугольник_4800" data-name="Прямоугольник 4800" width="0.024" height="3.915" transform="translate(1.021 0)" fill="#865dcf"/>
          <rect id="Прямоугольник_4801" data-name="Прямоугольник 4801" width="0.024" height="3.915" transform="translate(1.045 0)" fill="#865dcf"/>
          <rect id="Прямоугольник_4802" data-name="Прямоугольник 4802" width="0.024" height="3.915" transform="translate(1.069 0)" fill="#865dcf"/>
          <rect id="Прямоугольник_4803" data-name="Прямоугольник 4803" width="0.024" height="3.915" transform="translate(1.094 0)" fill="#865dcf"/>
          <rect id="Прямоугольник_4804" data-name="Прямоугольник 4804" width="0.024" height="3.915" transform="translate(1.118 0)" fill="#865dcf"/>
          <rect id="Прямоугольник_4805" data-name="Прямоугольник 4805" width="0.024" height="3.915" transform="translate(1.142 0)" fill="#865dcf"/>
          <rect id="Прямоугольник_4806" data-name="Прямоугольник 4806" width="0.024" height="3.915" transform="translate(1.166 0)" fill="#865dcf"/>
          <rect id="Прямоугольник_4807" data-name="Прямоугольник 4807" width="0.024" height="3.915" transform="translate(1.19 0)" fill="#865dcf"/>
          <rect id="Прямоугольник_4808" data-name="Прямоугольник 4808" width="0.024" height="3.915" transform="translate(1.214 0)" fill="#865dcf"/>
          <rect id="Прямоугольник_4809" data-name="Прямоугольник 4809" width="0.024" height="3.915" transform="translate(1.238 0)" fill="#865dcf"/>
          <rect id="Прямоугольник_4810" data-name="Прямоугольник 4810" width="0.024" height="3.915" transform="translate(1.262 0)" fill="#865dcf"/>
          <rect id="Прямоугольник_4811" data-name="Прямоугольник 4811" width="0.024" height="3.915" transform="translate(1.286 0)" fill="#865dcf"/>
          <rect id="Прямоугольник_4812" data-name="Прямоугольник 4812" width="0.024" height="3.915" transform="translate(1.31 0)" fill="#865dcf"/>
          <rect id="Прямоугольник_4813" data-name="Прямоугольник 4813" width="0.024" height="3.915" transform="translate(1.334 0)" fill="#865dcf"/>
          <rect id="Прямоугольник_4814" data-name="Прямоугольник 4814" width="0.024" height="3.915" transform="translate(1.358 0)" fill="#865dcf"/>
          <rect id="Прямоугольник_4815" data-name="Прямоугольник 4815" width="0.024" height="3.915" transform="translate(1.382 0)" fill="#865dcf"/>
          <rect id="Прямоугольник_4816" data-name="Прямоугольник 4816" width="0.024" height="3.915" transform="translate(1.407 0)" fill="#865dcf"/>
          <rect id="Прямоугольник_4817" data-name="Прямоугольник 4817" width="0.024" height="3.915" transform="translate(1.431 0)" fill="#865dcf"/>
          <rect id="Прямоугольник_4818" data-name="Прямоугольник 4818" width="0.024" height="3.915" transform="translate(1.455 0)" fill="#865dcf"/>
          <rect id="Прямоугольник_4819" data-name="Прямоугольник 4819" width="0.024" height="3.915" transform="translate(1.479 0)" fill="#865dcf"/>
          <rect id="Прямоугольник_4820" data-name="Прямоугольник 4820" width="0.024" height="3.915" transform="translate(1.503 0)" fill="#865dcf"/>
          <rect id="Прямоугольник_4821" data-name="Прямоугольник 4821" width="0.024" height="3.915" transform="translate(1.527 0)" fill="#865dcf"/>
          <rect id="Прямоугольник_4822" data-name="Прямоугольник 4822" width="0.024" height="3.915" transform="translate(1.551 0)" fill="#865dcf"/>
          <rect id="Прямоугольник_4823" data-name="Прямоугольник 4823" width="0.024" height="3.915" transform="translate(1.575 0)" fill="#865dcf"/>
          <rect id="Прямоугольник_4824" data-name="Прямоугольник 4824" width="0.024" height="3.915" transform="translate(1.599 0)" fill="#865dcf"/>
          <rect id="Прямоугольник_4825" data-name="Прямоугольник 4825" width="0.024" height="3.915" transform="translate(1.623 0)" fill="#865dcf"/>
          <rect id="Прямоугольник_4826" data-name="Прямоугольник 4826" width="0.024" height="3.915" transform="translate(1.647 0)" fill="#865dcf"/>
          <rect id="Прямоугольник_4827" data-name="Прямоугольник 4827" width="0.024" height="3.915" transform="translate(1.671 0)" fill="#865dcf"/>
          <rect id="Прямоугольник_4828" data-name="Прямоугольник 4828" width="0.024" height="3.915" transform="translate(1.695 0)" fill="#865dcf"/>
          <rect id="Прямоугольник_4829" data-name="Прямоугольник 4829" width="0.024" height="3.915" transform="translate(1.72 0)" fill="#865dcf"/>
          <rect id="Прямоугольник_4830" data-name="Прямоугольник 4830" width="0.024" height="3.915" transform="translate(1.744 0)" fill="#865dcf"/>
          <rect id="Прямоугольник_4831" data-name="Прямоугольник 4831" width="0.024" height="3.915" transform="translate(1.768 0)" fill="#865dcf"/>
          <rect id="Прямоугольник_4832" data-name="Прямоугольник 4832" width="0.024" height="3.915" transform="translate(1.792 0)" fill="#865dcf"/>
          <rect id="Прямоугольник_4833" data-name="Прямоугольник 4833" width="0.024" height="3.915" transform="translate(1.816 0)" fill="#865dcf"/>
          <rect id="Прямоугольник_4834" data-name="Прямоугольник 4834" width="0.024" height="3.915" transform="translate(1.84 0)" fill="#865dcf"/>
          <rect id="Прямоугольник_4835" data-name="Прямоугольник 4835" width="0.024" height="3.915" transform="translate(1.864 0)" fill="#865dcf"/>
          <rect id="Прямоугольник_4836" data-name="Прямоугольник 4836" width="0.024" height="3.915" transform="translate(1.888 0)" fill="#865dcf"/>
          <rect id="Прямоугольник_4837" data-name="Прямоугольник 4837" width="0.024" height="3.915" transform="translate(1.912 0)" fill="#865dcf"/>
          <rect id="Прямоугольник_4838" data-name="Прямоугольник 4838" width="0.024" height="3.915" transform="translate(1.936 0)" fill="#865dcf"/>
          <rect id="Прямоугольник_4839" data-name="Прямоугольник 4839" width="0.024" height="3.915" transform="translate(1.96 0)" fill="#865dcf"/>
          <rect id="Прямоугольник_4840" data-name="Прямоугольник 4840" width="0.024" height="3.915" transform="translate(1.984 0)" fill="#865dcf"/>
          <rect id="Прямоугольник_4841" data-name="Прямоугольник 4841" width="0.024" height="3.915" transform="translate(2.008 0)" fill="#865dcf"/>
          <rect id="Прямоугольник_4842" data-name="Прямоугольник 4842" width="0.024" height="3.915" transform="translate(2.032 0)" fill="#865dcf"/>
          <rect id="Прямоугольник_4843" data-name="Прямоугольник 4843" width="0.024" height="3.915" transform="translate(2.057 0)" fill="#865dcf"/>
          <rect id="Прямоугольник_4844" data-name="Прямоугольник 4844" width="0.024" height="3.915" transform="translate(2.081 0)" fill="#865dcf"/>
          <rect id="Прямоугольник_4845" data-name="Прямоугольник 4845" width="0.024" height="3.915" transform="translate(2.105 0)" fill="#865dcf"/>
          <rect id="Прямоугольник_4846" data-name="Прямоугольник 4846" width="0.024" height="3.915" transform="translate(2.129 0)" fill="#865dcf"/>
          <rect id="Прямоугольник_4847" data-name="Прямоугольник 4847" width="0.024" height="3.915" transform="translate(2.153 0)" fill="#865dcf"/>
          <rect id="Прямоугольник_4848" data-name="Прямоугольник 4848" width="0.024" height="3.915" transform="translate(2.177 0)" fill="#865dcf"/>
          <rect id="Прямоугольник_4849" data-name="Прямоугольник 4849" width="0.024" height="3.915" transform="translate(2.201 0)" fill="#865dcf"/>
          <rect id="Прямоугольник_4850" data-name="Прямоугольник 4850" width="0.024" height="3.915" transform="translate(2.225 0)" fill="#865dcf"/>
          <rect id="Прямоугольник_4851" data-name="Прямоугольник 4851" width="0.024" height="3.915" transform="translate(2.249 0)" fill="#865dcf"/>
          <rect id="Прямоугольник_4852" data-name="Прямоугольник 4852" width="0.024" height="3.915" transform="translate(2.273 0)" fill="#865dcf"/>
          <rect id="Прямоугольник_4853" data-name="Прямоугольник 4853" width="0.024" height="3.915" transform="translate(2.297 0)" fill="#865dcf"/>
          <rect id="Прямоугольник_4854" data-name="Прямоугольник 4854" width="0.024" height="3.915" transform="translate(2.321 0)" fill="#865dcf"/>
          <rect id="Прямоугольник_4855" data-name="Прямоугольник 4855" width="0.024" height="3.915" transform="translate(2.345 0)" fill="#865dcf"/>
          <rect id="Прямоугольник_4856" data-name="Прямоугольник 4856" width="0.024" height="3.915" transform="translate(2.37 0)" fill="#865dcf"/>
          <rect id="Прямоугольник_4857" data-name="Прямоугольник 4857" width="0.024" height="3.915" transform="translate(2.394 0)" fill="#865dcf"/>
          <rect id="Прямоугольник_4858" data-name="Прямоугольник 4858" width="0.024" height="3.915" transform="translate(2.418 0)" fill="#865dcf"/>
          <rect id="Прямоугольник_4859" data-name="Прямоугольник 4859" width="0.024" height="3.915" transform="translate(2.442 0)" fill="#865dcf"/>
          <rect id="Прямоугольник_4860" data-name="Прямоугольник 4860" width="0.024" height="3.915" transform="translate(2.466 0)" fill="#865dcf"/>
          <rect id="Прямоугольник_4861" data-name="Прямоугольник 4861" width="0.024" height="3.915" transform="translate(2.49 0)" fill="#865dcf"/>
          <rect id="Прямоугольник_4862" data-name="Прямоугольник 4862" width="0.024" height="3.915" transform="translate(2.514 0)" fill="#865dcf"/>
          <rect id="Прямоугольник_4863" data-name="Прямоугольник 4863" width="0.024" height="3.915" transform="translate(2.538 0)" fill="#865dcf"/>
          <rect id="Прямоугольник_4864" data-name="Прямоугольник 4864" width="0.024" height="3.915" transform="translate(2.562 0)" fill="#865dcf"/>
          <rect id="Прямоугольник_4865" data-name="Прямоугольник 4865" width="0.024" height="3.915" transform="translate(2.586 0)" fill="#865dcf"/>
          <rect id="Прямоугольник_4866" data-name="Прямоугольник 4866" width="0.024" height="3.915" transform="translate(2.61 0)" fill="#865dcf"/>
          <rect id="Прямоугольник_4867" data-name="Прямоугольник 4867" width="0.024" height="3.915" transform="translate(2.634 0)" fill="#865dcf"/>
          <rect id="Прямоугольник_4868" data-name="Прямоугольник 4868" width="0.024" height="3.915" transform="translate(2.658 0)" fill="#865dcf"/>
          <rect id="Прямоугольник_4869" data-name="Прямоугольник 4869" width="0.024" height="3.915" transform="translate(2.682 0)" fill="#865dcf"/>
          <rect id="Прямоугольник_4870" data-name="Прямоугольник 4870" width="0.024" height="3.915" transform="translate(2.707 0)" fill="#865dcf"/>
          <rect id="Прямоугольник_4871" data-name="Прямоугольник 4871" width="0.024" height="3.915" transform="translate(2.731 0)" fill="#865dcf"/>
          <rect id="Прямоугольник_4872" data-name="Прямоугольник 4872" width="0.024" height="3.915" transform="translate(2.755 0)" fill="#865dcf"/>
          <rect id="Прямоугольник_4873" data-name="Прямоугольник 4873" width="0.024" height="3.915" transform="translate(2.779 0)" fill="#865dcf"/>
          <rect id="Прямоугольник_4874" data-name="Прямоугольник 4874" width="0.024" height="3.915" transform="translate(2.803 0)" fill="#865dcf"/>
          <rect id="Прямоугольник_4875" data-name="Прямоугольник 4875" width="0.024" height="3.915" transform="translate(2.827 0)" fill="#865dcf"/>
          <rect id="Прямоугольник_4876" data-name="Прямоугольник 4876" width="0.024" height="3.915" transform="translate(2.851 0)" fill="#865dcf"/>
          <rect id="Прямоугольник_4877" data-name="Прямоугольник 4877" width="0.024" height="3.915" transform="translate(2.875 0)" fill="#865dcf"/>
          <rect id="Прямоугольник_4878" data-name="Прямоугольник 4878" width="0.024" height="3.915" transform="translate(2.899 0)" fill="#865dcf"/>
          <rect id="Прямоугольник_4879" data-name="Прямоугольник 4879" width="0.024" height="3.915" transform="translate(2.923 0)" fill="#865dcf"/>
          <rect id="Прямоугольник_4880" data-name="Прямоугольник 4880" width="0.024" height="3.915" transform="translate(2.947 0)" fill="#865dcf"/>
          <rect id="Прямоугольник_4881" data-name="Прямоугольник 4881" width="0.024" height="3.915" transform="translate(2.971 0)" fill="#865dcf"/>
          <rect id="Прямоугольник_4882" data-name="Прямоугольник 4882" width="0.024" height="3.915" transform="translate(2.995 0)" fill="#865dcf"/>
          <rect id="Прямоугольник_4883" data-name="Прямоугольник 4883" width="0.024" height="3.915" transform="translate(3.02 0)" fill="#865dcf"/>
          <rect id="Прямоугольник_4884" data-name="Прямоугольник 4884" width="0.024" height="3.915" transform="translate(3.044 0)" fill="#865dcf"/>
          <rect id="Прямоугольник_4885" data-name="Прямоугольник 4885" width="0.024" height="3.915" transform="translate(3.068 0)" fill="#865dcf"/>
          <rect id="Прямоугольник_4886" data-name="Прямоугольник 4886" width="0.024" height="3.915" transform="translate(3.092 0)" fill="#865dcf"/>
          <rect id="Прямоугольник_4887" data-name="Прямоугольник 4887" width="0.024" height="3.915" transform="translate(3.116 0)" fill="#865dcf"/>
          <rect id="Прямоугольник_4888" data-name="Прямоугольник 4888" width="0.024" height="3.915" transform="translate(3.14 0)" fill="#865dcf"/>
          <rect id="Прямоугольник_4889" data-name="Прямоугольник 4889" width="0.024" height="3.915" transform="translate(3.164 0)" fill="#865dcf"/>
          <rect id="Прямоугольник_4890" data-name="Прямоугольник 4890" width="0.024" height="3.915" transform="translate(3.188 0)" fill="#865dcf"/>
          <rect id="Прямоугольник_4891" data-name="Прямоугольник 4891" width="0.024" height="3.915" transform="translate(3.212 0)" fill="#865dcf"/>
          <rect id="Прямоугольник_4892" data-name="Прямоугольник 4892" width="0.024" height="3.915" transform="translate(3.236 0)" fill="#865dcf"/>
          <rect id="Прямоугольник_4893" data-name="Прямоугольник 4893" width="0.024" height="3.915" transform="translate(3.26 0)" fill="#865dcf"/>
          <rect id="Прямоугольник_4894" data-name="Прямоугольник 4894" width="0.024" height="3.915" transform="translate(3.284 0)" fill="#865dcf"/>
          <rect id="Прямоугольник_4895" data-name="Прямоугольник 4895" width="0.024" height="3.915" transform="translate(3.308 0)" fill="#865dcf"/>
          <rect id="Прямоугольник_4896" data-name="Прямоугольник 4896" width="0.024" height="3.915" transform="translate(3.333 0)" fill="#865dcf"/>
          <rect id="Прямоугольник_4897" data-name="Прямоугольник 4897" width="0.024" height="3.915" transform="translate(3.357 0)" fill="#865dcf"/>
          <rect id="Прямоугольник_4898" data-name="Прямоугольник 4898" width="0.024" height="3.915" transform="translate(3.381 0)" fill="#865dcf"/>
          <rect id="Прямоугольник_4899" data-name="Прямоугольник 4899" width="0.024" height="3.915" transform="translate(3.405 0)" fill="#865dcf"/>
          <rect id="Прямоугольник_4900" data-name="Прямоугольник 4900" width="0.024" height="3.915" transform="translate(3.429 0)" fill="#865dcf"/>
          <rect id="Прямоугольник_4901" data-name="Прямоугольник 4901" width="0.024" height="3.915" transform="translate(3.453 0)" fill="#865dcf"/>
          <rect id="Прямоугольник_4902" data-name="Прямоугольник 4902" width="0.024" height="3.915" transform="translate(3.477 0)" fill="#865dcf"/>
          <rect id="Прямоугольник_4903" data-name="Прямоугольник 4903" width="0.024" height="3.915" transform="translate(3.501 0)" fill="#865dcf"/>
          <rect id="Прямоугольник_4904" data-name="Прямоугольник 4904" width="0.024" height="3.915" transform="translate(3.525 0)" fill="#865dcf"/>
          <rect id="Прямоугольник_4905" data-name="Прямоугольник 4905" width="0.024" height="3.915" transform="translate(3.549 0)" fill="#865dcf"/>
          <rect id="Прямоугольник_4906" data-name="Прямоугольник 4906" width="0.024" height="3.915" transform="translate(3.573 0)" fill="#865dcf"/>
          <rect id="Прямоугольник_4907" data-name="Прямоугольник 4907" width="0.024" height="3.915" transform="translate(3.597 0)" fill="#865dcf"/>
          <rect id="Прямоугольник_4908" data-name="Прямоугольник 4908" width="0.024" height="3.915" transform="translate(3.621 0)" fill="#865dcf"/>
          <rect id="Прямоугольник_4909" data-name="Прямоугольник 4909" width="0.024" height="3.915" transform="translate(3.645 0)" fill="#865dcf"/>
          <rect id="Прямоугольник_4910" data-name="Прямоугольник 4910" width="0.024" height="3.915" transform="translate(3.67 0)" fill="#865dcf"/>
          <rect id="Прямоугольник_4911" data-name="Прямоугольник 4911" width="0.024" height="3.915" transform="translate(3.694 0)" fill="#865dcf"/>
          <rect id="Прямоугольник_4912" data-name="Прямоугольник 4912" width="0.024" height="3.915" transform="translate(3.718 0)" fill="#865dcf"/>
          <rect id="Прямоугольник_4913" data-name="Прямоугольник 4913" width="0.024" height="3.915" transform="translate(3.742 0)" fill="#865dcf"/>
          <rect id="Прямоугольник_4914" data-name="Прямоугольник 4914" width="0.024" height="3.915" transform="translate(3.766 0)" fill="#865dcf"/>
          <rect id="Прямоугольник_4915" data-name="Прямоугольник 4915" width="0.024" height="3.915" transform="translate(3.79 0)" fill="#865dcf"/>
          <rect id="Прямоугольник_4916" data-name="Прямоугольник 4916" width="0.024" height="3.915" transform="translate(3.814 0)" fill="#865dcf"/>
          <rect id="Прямоугольник_4917" data-name="Прямоугольник 4917" width="0.024" height="3.915" transform="translate(3.838 0)" fill="#865dcf"/>
          <rect id="Прямоугольник_4918" data-name="Прямоугольник 4918" width="0.024" height="3.915" transform="translate(3.862 0)" fill="#865dcf"/>
          <rect id="Прямоугольник_4919" data-name="Прямоугольник 4919" width="0.024" height="3.915" transform="translate(3.886 0)" fill="#865dcf"/>
          <rect id="Прямоугольник_4920" data-name="Прямоугольник 4920" width="0.005" height="3.915" transform="translate(3.91 0)" fill="#865dcf"/>
        </g>
      </g>
    </g>
  </g>
</svg>
