<svg xmlns="http://www.w3.org/2000/svg" xmlns:xlink="http://www.w3.org/1999/xlink" width="23" height="23" viewBox="0 0 23 23">
  <defs>
    <clipPath id="clip-path">
      <path id="Контур_3265" data-name="Контур 3265" d="M371.832,160.838h.058a1.445,1.445,0,0,1,1.314.893l2.311,5.118a.876.876,0,0,0,.65.516l5.168.82a1.564,1.564,0,0,1,1.256,1.592,1.658,1.658,0,0,1-.444,1.14l-3.74,3.983a.99.99,0,0,0-.261.676,1.013,1.013,0,0,0,.013.159l.883,5.625a1.842,1.842,0,0,1,.022.28,1.541,1.541,0,0,1-1.466,1.6,1.369,1.369,0,0,1-.683-.187l-4.622-2.656a.809.809,0,0,0-.4-.109v-.658a1.365,1.365,0,0,1,.681.184l4.623,2.656a.8.8,0,0,0,.4.111.915.915,0,0,0,.864-.937,1.09,1.09,0,0,0-.013-.169l-.883-5.625a1.782,1.782,0,0,1-.021-.271,1.68,1.68,0,0,1,.443-1.147l3.74-3.984a.963.963,0,0,0,.262-.668.919.919,0,0,0-.74-.941l-5.168-.82a1.484,1.484,0,0,1-1.1-.876l-2.311-5.118a.844.844,0,0,0-.775-.526h-.035l-.023-.658Z" transform="translate(-371.832 -160.837)" fill="#865dcf"/>
    </clipPath>
  </defs>
  <g id="Сгруппировать_706" data-name="Сгруппировать 706" transform="translate(-353.668 -160.337)">
    <g id="Сгруппировать_702" data-name="Сгруппировать 702" transform="translate(353.668 160.337)">
      <path id="Контур_3264" data-name="Контур 3264" d="M359.2,183.337a1.794,1.794,0,0,1-1.084-.37,1.953,1.953,0,0,1-.734-1.884l.922-5.611a.631.631,0,0,0-.169-.543l-3.909-3.974a1.97,1.97,0,0,1-.468-1.973,1.859,1.859,0,0,1,1.491-1.313l5.4-.818a.59.59,0,0,0,.442-.336l2.417-5.105a1.814,1.814,0,0,1,3.312,0l2.416,5.105a.6.6,0,0,0,.443.336l5.4.818a1.858,1.858,0,0,1,1.49,1.311,1.971,1.971,0,0,1-.467,1.974l-3.909,3.974a.63.63,0,0,0-.169.543l.923,5.611a1.953,1.953,0,0,1-.735,1.884,1.773,1.773,0,0,1-1.946.146l-4.831-2.648a.565.565,0,0,0-.547,0l-4.833,2.649A1.793,1.793,0,0,1,359.2,183.337Zm5.967-21.687a.574.574,0,0,0-.526.341l-2.417,5.106a1.856,1.856,0,0,1-1.39,1.053l-5.4.818a.586.586,0,0,0-.475.418.619.619,0,0,0,.149.627l3.909,3.975a1.973,1.973,0,0,1,.53,1.7l-.922,5.611a.614.614,0,0,0,.234.6.558.558,0,0,0,.618.047l4.833-2.649a1.778,1.778,0,0,1,1.719,0l4.831,2.649a.553.553,0,0,0,.619-.047.613.613,0,0,0,.234-.6l-.924-5.612a1.979,1.979,0,0,1,.531-1.7l3.909-3.974a.62.62,0,0,0,.149-.628.584.584,0,0,0-.474-.417l-5.4-.818a1.859,1.859,0,0,1-1.39-1.054l-2.417-5.106A.574.574,0,0,0,365.168,161.65Z" transform="translate(-353.668 -160.337)" fill="#865dcf"/>
    </g>
    <g id="Сгруппировать_705" data-name="Сгруппировать 705" transform="translate(365.608 160.638)">
      <g id="Сгруппировать_704" data-name="Сгруппировать 704" transform="translate(0)">
        <g id="Сгруппировать_703" data-name="Сгруппировать 703" clip-path="url(#clip-path)">
          <rect id="Прямоугольник_2705" data-name="Прямоугольник 2705" width="0.478" height="22.401" transform="translate(0 -0.003)" fill="#865dcf"/>
          <rect id="Прямоугольник_2706" data-name="Прямоугольник 2706" width="0.056" height="22.401" transform="translate(0.478 -0.003)" fill="#865dcf"/>
          <rect id="Прямоугольник_2707" data-name="Прямоугольник 2707" width="0.056" height="22.401" transform="translate(0.535 -0.003)" fill="#865dcf"/>
          <rect id="Прямоугольник_2708" data-name="Прямоугольник 2708" width="0.056" height="22.401" transform="translate(0.591 -0.003)" fill="#865dcf"/>
          <rect id="Прямоугольник_2709" data-name="Прямоугольник 2709" width="0.056" height="22.401" transform="translate(0.647 -0.003)" fill="#865dcf"/>
          <rect id="Прямоугольник_2710" data-name="Прямоугольник 2710" width="0.056" height="22.401" transform="translate(0.703 -0.003)" fill="#865dcf"/>
          <rect id="Прямоугольник_2711" data-name="Прямоугольник 2711" width="0.056" height="22.401" transform="translate(0.76 -0.003)" fill="#865dcf"/>
          <rect id="Прямоугольник_2712" data-name="Прямоугольник 2712" width="0.056" height="22.401" transform="translate(0.816 -0.003)" fill="#865dcf"/>
          <rect id="Прямоугольник_2713" data-name="Прямоугольник 2713" width="0.056" height="22.401" transform="translate(0.872 -0.003)" fill="#865dcf"/>
          <rect id="Прямоугольник_2714" data-name="Прямоугольник 2714" width="0.056" height="22.401" transform="translate(0.928 -0.003)" fill="#865dcf"/>
          <rect id="Прямоугольник_2715" data-name="Прямоугольник 2715" width="0.056" height="22.401" transform="translate(0.985 -0.003)" fill="#865dcf"/>
          <rect id="Прямоугольник_2716" data-name="Прямоугольник 2716" width="0.056" height="22.401" transform="translate(1.041 -0.003)" fill="#865dcf"/>
          <rect id="Прямоугольник_2717" data-name="Прямоугольник 2717" width="0.056" height="22.401" transform="translate(1.097 -0.003)" fill="#865dcf"/>
          <rect id="Прямоугольник_2718" data-name="Прямоугольник 2718" width="0.056" height="22.401" transform="translate(1.154 -0.003)" fill="#865dcf"/>
          <rect id="Прямоугольник_2719" data-name="Прямоугольник 2719" width="0.056" height="22.401" transform="translate(1.21 -0.003)" fill="#865dcf"/>
          <rect id="Прямоугольник_2720" data-name="Прямоугольник 2720" width="0.056" height="22.401" transform="translate(1.266 -0.003)" fill="#865dcf"/>
          <rect id="Прямоугольник_2721" data-name="Прямоугольник 2721" width="0.056" height="22.401" transform="translate(1.322 -0.003)" fill="#865dcf"/>
          <rect id="Прямоугольник_2722" data-name="Прямоугольник 2722" width="0.056" height="22.401" transform="translate(1.379 -0.003)" fill="#865dcf"/>
          <rect id="Прямоугольник_2723" data-name="Прямоугольник 2723" width="0.056" height="22.401" transform="translate(1.435 -0.003)" fill="#865dcf"/>
          <rect id="Прямоугольник_2724" data-name="Прямоугольник 2724" width="0.056" height="22.401" transform="translate(1.491 -0.003)" fill="#865dcf"/>
          <rect id="Прямоугольник_2725" data-name="Прямоугольник 2725" width="0.056" height="22.401" transform="translate(1.548 -0.003)" fill="#865dcf"/>
          <rect id="Прямоугольник_2726" data-name="Прямоугольник 2726" width="0.056" height="22.401" transform="translate(1.604 -0.003)" fill="#865dcf"/>
          <rect id="Прямоугольник_2727" data-name="Прямоугольник 2727" width="0.056" height="22.401" transform="translate(1.66 -0.003)" fill="#865dcf"/>
          <rect id="Прямоугольник_2728" data-name="Прямоугольник 2728" width="0.056" height="22.401" transform="translate(1.716 -0.003)" fill="#865dcf"/>
          <rect id="Прямоугольник_2729" data-name="Прямоугольник 2729" width="0.056" height="22.401" transform="translate(1.773 -0.003)" fill="#865dcf"/>
          <rect id="Прямоугольник_2730" data-name="Прямоугольник 2730" width="0.056" height="22.401" transform="translate(1.829 -0.003)" fill="#865dcf"/>
          <rect id="Прямоугольник_2731" data-name="Прямоугольник 2731" width="0.056" height="22.401" transform="translate(1.885 -0.003)" fill="#865dcf"/>
          <rect id="Прямоугольник_2732" data-name="Прямоугольник 2732" width="0.056" height="22.401" transform="translate(1.942 -0.003)" fill="#865dcf"/>
          <rect id="Прямоугольник_2733" data-name="Прямоугольник 2733" width="0.056" height="22.401" transform="translate(1.998 -0.003)" fill="#865dcf"/>
          <rect id="Прямоугольник_2734" data-name="Прямоугольник 2734" width="0.056" height="22.401" transform="translate(2.054 -0.003)" fill="#865dcf"/>
          <rect id="Прямоугольник_2735" data-name="Прямоугольник 2735" width="0.056" height="22.401" transform="translate(2.11 -0.003)" fill="#865dcf"/>
          <rect id="Прямоугольник_2736" data-name="Прямоугольник 2736" width="0.056" height="22.401" transform="translate(2.167 -0.003)" fill="#865dcf"/>
          <rect id="Прямоугольник_2737" data-name="Прямоугольник 2737" width="0.056" height="22.401" transform="translate(2.223 -0.003)" fill="#865dcf"/>
          <rect id="Прямоугольник_2738" data-name="Прямоугольник 2738" width="0.056" height="22.401" transform="translate(2.279 -0.003)" fill="#865dcf"/>
          <rect id="Прямоугольник_2739" data-name="Прямоугольник 2739" width="0.056" height="22.401" transform="translate(2.336 -0.003)" fill="#865dcf"/>
          <rect id="Прямоугольник_2740" data-name="Прямоугольник 2740" width="0.056" height="22.401" transform="translate(2.392 -0.003)" fill="#865dcf"/>
          <rect id="Прямоугольник_2741" data-name="Прямоугольник 2741" width="0.056" height="22.401" transform="translate(2.448 -0.003)" fill="#865dcf"/>
          <rect id="Прямоугольник_2742" data-name="Прямоугольник 2742" width="0.056" height="22.401" transform="translate(2.504 -0.003)" fill="#865dcf"/>
          <rect id="Прямоугольник_2743" data-name="Прямоугольник 2743" width="0.056" height="22.401" transform="translate(2.561 -0.003)" fill="#865dcf"/>
          <rect id="Прямоугольник_2744" data-name="Прямоугольник 2744" width="0.056" height="22.401" transform="translate(2.617 -0.003)" fill="#865dcf"/>
          <rect id="Прямоугольник_2745" data-name="Прямоугольник 2745" width="0.056" height="22.401" transform="translate(2.673 -0.003)" fill="#865dcf"/>
          <rect id="Прямоугольник_2746" data-name="Прямоугольник 2746" width="0.056" height="22.401" transform="translate(2.73 -0.003)" fill="#865dcf"/>
          <rect id="Прямоугольник_2747" data-name="Прямоугольник 2747" width="0.056" height="22.401" transform="translate(2.786 -0.003)" fill="#865dcf"/>
          <rect id="Прямоугольник_2748" data-name="Прямоугольник 2748" width="0.056" height="22.401" transform="translate(2.842 -0.003)" fill="#865dcf"/>
          <rect id="Прямоугольник_2749" data-name="Прямоугольник 2749" width="0.056" height="22.401" transform="translate(2.898 -0.003)" fill="#865dcf"/>
          <rect id="Прямоугольник_2750" data-name="Прямоугольник 2750" width="0.056" height="22.401" transform="translate(2.955 -0.003)" fill="#865dcf"/>
          <rect id="Прямоугольник_2751" data-name="Прямоугольник 2751" width="0.056" height="22.401" transform="translate(3.011 -0.003)" fill="#865dcf"/>
          <rect id="Прямоугольник_2752" data-name="Прямоугольник 2752" width="0.056" height="22.401" transform="translate(3.067 -0.003)" fill="#865dcf"/>
          <rect id="Прямоугольник_2753" data-name="Прямоугольник 2753" width="0.056" height="22.401" transform="translate(3.124 -0.003)" fill="#865dcf"/>
          <rect id="Прямоугольник_2754" data-name="Прямоугольник 2754" width="0.056" height="22.401" transform="translate(3.18 -0.003)" fill="#865dcf"/>
          <rect id="Прямоугольник_2755" data-name="Прямоугольник 2755" width="0.056" height="22.401" transform="translate(3.236 -0.003)" fill="#865dcf"/>
          <rect id="Прямоугольник_2756" data-name="Прямоугольник 2756" width="0.056" height="22.401" transform="translate(3.292 -0.003)" fill="#865dcf"/>
          <rect id="Прямоугольник_2757" data-name="Прямоугольник 2757" width="0.056" height="22.401" transform="translate(3.349 -0.003)" fill="#865dcf"/>
          <rect id="Прямоугольник_2758" data-name="Прямоугольник 2758" width="0.056" height="22.401" transform="translate(3.405 -0.003)" fill="#865dcf"/>
          <rect id="Прямоугольник_2759" data-name="Прямоугольник 2759" width="0.056" height="22.401" transform="translate(3.461 -0.003)" fill="#865dcf"/>
          <rect id="Прямоугольник_2760" data-name="Прямоугольник 2760" width="0.056" height="22.401" transform="translate(3.518 -0.003)" fill="#865dcf"/>
          <rect id="Прямоугольник_2761" data-name="Прямоугольник 2761" width="0.056" height="22.401" transform="translate(3.574 -0.003)" fill="#865dcf"/>
          <rect id="Прямоугольник_2762" data-name="Прямоугольник 2762" width="0.056" height="22.401" transform="translate(3.63 -0.003)" fill="#865dcf"/>
          <rect id="Прямоугольник_2763" data-name="Прямоугольник 2763" width="0.056" height="22.401" transform="translate(3.686 -0.003)" fill="#865dcf"/>
          <rect id="Прямоугольник_2764" data-name="Прямоугольник 2764" width="0.056" height="22.401" transform="translate(3.743 -0.003)" fill="#865dcf"/>
          <rect id="Прямоугольник_2765" data-name="Прямоугольник 2765" width="0.056" height="22.401" transform="translate(3.799 -0.003)" fill="#865dcf"/>
          <rect id="Прямоугольник_2766" data-name="Прямоугольник 2766" width="0.056" height="22.401" transform="translate(3.855 -0.003)" fill="#865dcf"/>
          <rect id="Прямоугольник_2767" data-name="Прямоугольник 2767" width="0.056" height="22.401" transform="translate(3.912 -0.003)" fill="#865dcf"/>
          <rect id="Прямоугольник_2768" data-name="Прямоугольник 2768" width="0.056" height="22.401" transform="translate(3.968 -0.003)" fill="#865dcf"/>
          <rect id="Прямоугольник_2769" data-name="Прямоугольник 2769" width="0.056" height="22.401" transform="translate(4.024 -0.003)" fill="#865dcf"/>
          <rect id="Прямоугольник_2770" data-name="Прямоугольник 2770" width="0.056" height="22.401" transform="translate(4.08 -0.003)" fill="#865dcf"/>
          <rect id="Прямоугольник_2771" data-name="Прямоугольник 2771" width="0.056" height="22.401" transform="translate(4.137 -0.003)" fill="#865dcf"/>
          <rect id="Прямоугольник_2772" data-name="Прямоугольник 2772" width="0.056" height="22.401" transform="translate(4.193 -0.003)" fill="#865dcf"/>
          <rect id="Прямоугольник_2773" data-name="Прямоугольник 2773" width="0.056" height="22.401" transform="translate(4.249 -0.003)" fill="#865dcf"/>
          <rect id="Прямоугольник_2774" data-name="Прямоугольник 2774" width="0.056" height="22.401" transform="translate(4.306 -0.003)" fill="#865dcf"/>
          <rect id="Прямоугольник_2775" data-name="Прямоугольник 2775" width="0.056" height="22.401" transform="translate(4.362 -0.003)" fill="#865dcf"/>
          <rect id="Прямоугольник_2776" data-name="Прямоугольник 2776" width="0.056" height="22.401" transform="translate(4.418 -0.003)" fill="#865dcf"/>
          <rect id="Прямоугольник_2777" data-name="Прямоугольник 2777" width="0.056" height="22.401" transform="translate(4.474 -0.003)" fill="#865dcf"/>
          <rect id="Прямоугольник_2778" data-name="Прямоугольник 2778" width="0.056" height="22.401" transform="translate(4.531 -0.003)" fill="#865dcf"/>
          <rect id="Прямоугольник_2779" data-name="Прямоугольник 2779" width="0.056" height="22.401" transform="translate(4.587 -0.003)" fill="#865dcf"/>
          <rect id="Прямоугольник_2780" data-name="Прямоугольник 2780" width="0.056" height="22.401" transform="translate(4.643 -0.003)" fill="#865dcf"/>
          <rect id="Прямоугольник_2781" data-name="Прямоугольник 2781" width="0.056" height="22.401" transform="translate(4.7 -0.003)" fill="#865dcf"/>
          <rect id="Прямоугольник_2782" data-name="Прямоугольник 2782" width="0.056" height="22.401" transform="translate(4.756 -0.003)" fill="#865dcf"/>
          <rect id="Прямоугольник_2783" data-name="Прямоугольник 2783" width="0.056" height="22.401" transform="translate(4.812 -0.003)" fill="#865dcf"/>
          <rect id="Прямоугольник_2784" data-name="Прямоугольник 2784" width="0.056" height="22.401" transform="translate(4.868 -0.003)" fill="#865dcf"/>
          <rect id="Прямоугольник_2785" data-name="Прямоугольник 2785" width="0.056" height="22.401" transform="translate(4.925 -0.003)" fill="#865dcf"/>
          <rect id="Прямоугольник_2786" data-name="Прямоугольник 2786" width="0.056" height="22.401" transform="translate(4.981 -0.003)" fill="#865dcf"/>
          <rect id="Прямоугольник_2787" data-name="Прямоугольник 2787" width="0.056" height="22.401" transform="translate(5.037 -0.003)" fill="#865dcf"/>
          <rect id="Прямоугольник_2788" data-name="Прямоугольник 2788" width="0.056" height="22.401" transform="translate(5.094 -0.003)" fill="#865dcf"/>
          <rect id="Прямоугольник_2789" data-name="Прямоугольник 2789" width="0.056" height="22.401" transform="translate(5.15 -0.003)" fill="#865dcf"/>
          <rect id="Прямоугольник_2790" data-name="Прямоугольник 2790" width="0.056" height="22.401" transform="translate(5.206 -0.003)" fill="#865dcf"/>
          <rect id="Прямоугольник_2791" data-name="Прямоугольник 2791" width="0.056" height="22.401" transform="translate(5.262 -0.003)" fill="#865dcf"/>
          <rect id="Прямоугольник_2792" data-name="Прямоугольник 2792" width="0.056" height="22.401" transform="translate(5.319 -0.003)" fill="#865dcf"/>
          <rect id="Прямоугольник_2793" data-name="Прямоугольник 2793" width="0.056" height="22.401" transform="translate(5.375 -0.003)" fill="#865dcf"/>
          <rect id="Прямоугольник_2794" data-name="Прямоугольник 2794" width="0.056" height="22.401" transform="translate(5.431 -0.003)" fill="#865dcf"/>
          <rect id="Прямоугольник_2795" data-name="Прямоугольник 2795" width="0.056" height="22.401" transform="translate(5.488 -0.003)" fill="#865dcf"/>
          <rect id="Прямоугольник_2796" data-name="Прямоугольник 2796" width="0.056" height="22.401" transform="translate(5.544 -0.003)" fill="#865dcf"/>
          <rect id="Прямоугольник_2797" data-name="Прямоугольник 2797" width="0.056" height="22.401" transform="translate(5.6 -0.003)" fill="#865dcf"/>
          <rect id="Прямоугольник_2798" data-name="Прямоугольник 2798" width="0.056" height="22.401" transform="translate(5.656 -0.003)" fill="#865dcf"/>
          <rect id="Прямоугольник_2799" data-name="Прямоугольник 2799" width="0.056" height="22.401" transform="translate(5.713 -0.003)" fill="#865dcf"/>
          <rect id="Прямоугольник_2800" data-name="Прямоугольник 2800" width="0.056" height="22.401" transform="translate(5.769 -0.003)" fill="#865dcf"/>
          <rect id="Прямоугольник_2801" data-name="Прямоугольник 2801" width="0.056" height="22.401" transform="translate(5.825 -0.003)" fill="#865dcf"/>
          <rect id="Прямоугольник_2802" data-name="Прямоугольник 2802" width="0.056" height="22.401" transform="translate(5.882 -0.003)" fill="#865dcf"/>
          <rect id="Прямоугольник_2803" data-name="Прямоугольник 2803" width="0.056" height="22.401" transform="translate(5.938 -0.003)" fill="#865dcf"/>
          <rect id="Прямоугольник_2804" data-name="Прямоугольник 2804" width="0.056" height="22.401" transform="translate(5.994 -0.003)" fill="#865dcf"/>
          <rect id="Прямоугольник_2805" data-name="Прямоугольник 2805" width="0.056" height="22.401" transform="translate(6.05 -0.003)" fill="#865dcf"/>
          <rect id="Прямоугольник_2806" data-name="Прямоугольник 2806" width="0.056" height="22.401" transform="translate(6.107 -0.003)" fill="#865dcf"/>
          <rect id="Прямоугольник_2807" data-name="Прямоугольник 2807" width="0.056" height="22.401" transform="translate(6.163 -0.003)" fill="#865dcf"/>
          <rect id="Прямоугольник_2808" data-name="Прямоугольник 2808" width="0.056" height="22.401" transform="translate(6.219 -0.003)" fill="#865dcf"/>
          <rect id="Прямоугольник_2809" data-name="Прямоугольник 2809" width="0.056" height="22.401" transform="translate(6.276 -0.003)" fill="#865dcf"/>
          <rect id="Прямоугольник_2810" data-name="Прямоугольник 2810" width="0.056" height="22.401" transform="translate(6.332 -0.003)" fill="#865dcf"/>
          <rect id="Прямоугольник_2811" data-name="Прямоугольник 2811" width="0.056" height="22.401" transform="translate(6.388 -0.003)" fill="#865dcf"/>
          <rect id="Прямоугольник_2812" data-name="Прямоугольник 2812" width="0.056" height="22.401" transform="translate(6.444 -0.003)" fill="#865dcf"/>
          <rect id="Прямоугольник_2813" data-name="Прямоугольник 2813" width="0.056" height="22.401" transform="translate(6.501 -0.003)" fill="#865dcf"/>
          <rect id="Прямоугольник_2814" data-name="Прямоугольник 2814" width="0.056" height="22.401" transform="translate(6.557 -0.003)" fill="#865dcf"/>
          <rect id="Прямоугольник_2815" data-name="Прямоугольник 2815" width="0.056" height="22.401" transform="translate(6.613 -0.003)" fill="#865dcf"/>
          <rect id="Прямоугольник_2816" data-name="Прямоугольник 2816" width="0.056" height="22.401" transform="translate(6.67 -0.003)" fill="#865dcf"/>
          <rect id="Прямоугольник_2817" data-name="Прямоугольник 2817" width="0.056" height="22.401" transform="translate(6.726 -0.003)" fill="#865dcf"/>
          <rect id="Прямоугольник_2818" data-name="Прямоугольник 2818" width="0.056" height="22.401" transform="translate(6.782 -0.003)" fill="#865dcf"/>
          <rect id="Прямоугольник_2819" data-name="Прямоугольник 2819" width="0.056" height="22.401" transform="translate(6.838 -0.003)" fill="#865dcf"/>
          <rect id="Прямоугольник_2820" data-name="Прямоугольник 2820" width="0.056" height="22.401" transform="translate(6.895 -0.003)" fill="#865dcf"/>
          <rect id="Прямоугольник_2821" data-name="Прямоугольник 2821" width="0.056" height="22.401" transform="translate(6.951 -0.003)" fill="#865dcf"/>
          <rect id="Прямоугольник_2822" data-name="Прямоугольник 2822" width="0.056" height="22.401" transform="translate(7.007 -0.003)" fill="#865dcf"/>
          <rect id="Прямоугольник_2823" data-name="Прямоугольник 2823" width="0.056" height="22.401" transform="translate(7.064 -0.003)" fill="#865dcf"/>
          <rect id="Прямоугольник_2824" data-name="Прямоугольник 2824" width="0.056" height="22.401" transform="translate(7.12 -0.003)" fill="#865dcf"/>
          <rect id="Прямоугольник_2825" data-name="Прямоугольник 2825" width="0.056" height="22.401" transform="translate(7.176 -0.003)" fill="#865dcf"/>
          <rect id="Прямоугольник_2826" data-name="Прямоугольник 2826" width="0.056" height="22.401" transform="translate(7.232 -0.003)" fill="#865dcf"/>
          <rect id="Прямоугольник_2827" data-name="Прямоугольник 2827" width="0.056" height="22.401" transform="translate(7.289 -0.003)" fill="#865dcf"/>
          <rect id="Прямоугольник_2828" data-name="Прямоугольник 2828" width="0.056" height="22.401" transform="translate(7.345 -0.003)" fill="#865dcf"/>
          <rect id="Прямоугольник_2829" data-name="Прямоугольник 2829" width="0.056" height="22.401" transform="translate(7.401 -0.003)" fill="#865dcf"/>
          <rect id="Прямоугольник_2830" data-name="Прямоугольник 2830" width="0.056" height="22.401" transform="translate(7.458 -0.003)" fill="#865dcf"/>
          <rect id="Прямоугольник_2831" data-name="Прямоугольник 2831" width="0.056" height="22.401" transform="translate(7.514 -0.003)" fill="#865dcf"/>
          <rect id="Прямоугольник_2832" data-name="Прямоугольник 2832" width="0.056" height="22.401" transform="translate(7.57 -0.003)" fill="#865dcf"/>
          <rect id="Прямоугольник_2833" data-name="Прямоугольник 2833" width="0.056" height="22.401" transform="translate(7.626 -0.003)" fill="#865dcf"/>
          <rect id="Прямоугольник_2834" data-name="Прямоугольник 2834" width="0.056" height="22.401" transform="translate(7.683 -0.003)" fill="#865dcf"/>
          <rect id="Прямоугольник_2835" data-name="Прямоугольник 2835" width="0.056" height="22.401" transform="translate(7.739 -0.003)" fill="#865dcf"/>
          <rect id="Прямоугольник_2836" data-name="Прямоугольник 2836" width="0.056" height="22.401" transform="translate(7.795 -0.003)" fill="#865dcf"/>
          <rect id="Прямоугольник_2837" data-name="Прямоугольник 2837" width="0.056" height="22.401" transform="translate(7.852 -0.003)" fill="#865dcf"/>
          <rect id="Прямоугольник_2838" data-name="Прямоугольник 2838" width="0.056" height="22.401" transform="translate(7.908 -0.003)" fill="#865dcf"/>
          <rect id="Прямоугольник_2839" data-name="Прямоугольник 2839" width="0.056" height="22.401" transform="translate(7.964 -0.003)" fill="#865dcf"/>
          <rect id="Прямоугольник_2840" data-name="Прямоугольник 2840" width="0.056" height="22.401" transform="translate(8.02 -0.003)" fill="#865dcf"/>
          <rect id="Прямоугольник_2841" data-name="Прямоугольник 2841" width="0.056" height="22.401" transform="translate(8.077 -0.003)" fill="#865dcf"/>
          <rect id="Прямоугольник_2842" data-name="Прямоугольник 2842" width="0.056" height="22.401" transform="translate(8.133 -0.003)" fill="#865dcf"/>
          <rect id="Прямоугольник_2843" data-name="Прямоугольник 2843" width="0.056" height="22.401" transform="translate(8.189 -0.003)" fill="#865dcf"/>
          <rect id="Прямоугольник_2844" data-name="Прямоугольник 2844" width="0.056" height="22.401" transform="translate(8.246 -0.003)" fill="#865dcf"/>
          <rect id="Прямоугольник_2845" data-name="Прямоугольник 2845" width="0.056" height="22.401" transform="translate(8.302 -0.003)" fill="#865dcf"/>
          <rect id="Прямоугольник_2846" data-name="Прямоугольник 2846" width="0.056" height="22.401" transform="translate(8.358 -0.003)" fill="#865dcf"/>
          <rect id="Прямоугольник_2847" data-name="Прямоугольник 2847" width="0.056" height="22.401" transform="translate(8.414 -0.003)" fill="#865dcf"/>
          <rect id="Прямоугольник_2848" data-name="Прямоугольник 2848" width="0.056" height="22.401" transform="translate(8.471 -0.003)" fill="#865dcf"/>
          <rect id="Прямоугольник_2849" data-name="Прямоугольник 2849" width="0.056" height="22.401" transform="translate(8.527 -0.003)" fill="#865dcf"/>
          <rect id="Прямоугольник_2850" data-name="Прямоугольник 2850" width="0.056" height="22.401" transform="translate(8.583 -0.003)" fill="#865dcf"/>
          <rect id="Прямоугольник_2851" data-name="Прямоугольник 2851" width="0.056" height="22.401" transform="translate(8.64 -0.003)" fill="#865dcf"/>
          <rect id="Прямоугольник_2852" data-name="Прямоугольник 2852" width="0.056" height="22.401" transform="translate(8.696 -0.003)" fill="#865dcf"/>
          <rect id="Прямоугольник_2853" data-name="Прямоугольник 2853" width="0.056" height="22.401" transform="translate(8.752 -0.003)" fill="#865dcf"/>
          <rect id="Прямоугольник_2854" data-name="Прямоугольник 2854" width="0.056" height="22.401" transform="translate(8.808 -0.003)" fill="#865dcf"/>
          <rect id="Прямоугольник_2855" data-name="Прямоугольник 2855" width="0.056" height="22.401" transform="translate(8.865 -0.003)" fill="#865dcf"/>
          <rect id="Прямоугольник_2856" data-name="Прямоугольник 2856" width="0.056" height="22.401" transform="translate(8.921 -0.003)" fill="#865dcf"/>
          <rect id="Прямоугольник_2857" data-name="Прямоугольник 2857" width="0.056" height="22.401" transform="translate(8.977 -0.003)" fill="#865dcf"/>
          <rect id="Прямоугольник_2858" data-name="Прямоугольник 2858" width="0.056" height="22.401" transform="translate(9.034 -0.003)" fill="#865dcf"/>
          <rect id="Прямоугольник_2859" data-name="Прямоугольник 2859" width="0.056" height="22.401" transform="translate(9.09 -0.003)" fill="#865dcf"/>
          <rect id="Прямоугольник_2860" data-name="Прямоугольник 2860" width="0.056" height="22.401" transform="translate(9.146 -0.003)" fill="#865dcf"/>
          <rect id="Прямоугольник_2861" data-name="Прямоугольник 2861" width="0.056" height="22.401" transform="translate(9.202 -0.003)" fill="#865dcf"/>
          <rect id="Прямоугольник_2862" data-name="Прямоугольник 2862" width="0.056" height="22.401" transform="translate(9.259 -0.003)" fill="#865dcf"/>
          <rect id="Прямоугольник_2863" data-name="Прямоугольник 2863" width="0.056" height="22.401" transform="translate(9.315 -0.003)" fill="#865dcf"/>
          <rect id="Прямоугольник_2864" data-name="Прямоугольник 2864" width="0.056" height="22.401" transform="translate(9.371 -0.003)" fill="#865dcf"/>
          <rect id="Прямоугольник_2865" data-name="Прямоугольник 2865" width="0.056" height="22.401" transform="translate(9.428 -0.003)" fill="#865dcf"/>
          <rect id="Прямоугольник_2866" data-name="Прямоугольник 2866" width="0.056" height="22.401" transform="translate(9.484 -0.003)" fill="#865dcf"/>
          <rect id="Прямоугольник_2867" data-name="Прямоугольник 2867" width="0.056" height="22.401" transform="translate(9.54 -0.003)" fill="#865dcf"/>
          <rect id="Прямоугольник_2868" data-name="Прямоугольник 2868" width="0.056" height="22.401" transform="translate(9.596 -0.003)" fill="#865dcf"/>
          <rect id="Прямоугольник_2869" data-name="Прямоугольник 2869" width="0.056" height="22.401" transform="translate(9.653 -0.003)" fill="#865dcf"/>
          <rect id="Прямоугольник_2870" data-name="Прямоугольник 2870" width="0.056" height="22.401" transform="translate(9.709 -0.003)" fill="#865dcf"/>
          <rect id="Прямоугольник_2871" data-name="Прямоугольник 2871" width="0.056" height="22.401" transform="translate(9.765 -0.003)" fill="#865dcf"/>
          <rect id="Прямоугольник_2872" data-name="Прямоугольник 2872" width="0.056" height="22.401" transform="translate(9.822 -0.003)" fill="#865dcf"/>
          <rect id="Прямоугольник_2873" data-name="Прямоугольник 2873" width="0.056" height="22.401" transform="translate(9.878 -0.003)" fill="#865dcf"/>
          <rect id="Прямоугольник_2874" data-name="Прямоугольник 2874" width="0.056" height="22.401" transform="translate(9.934 -0.003)" fill="#865dcf"/>
          <rect id="Прямоугольник_2875" data-name="Прямоугольник 2875" width="0.056" height="22.401" transform="translate(9.99 -0.003)" fill="#865dcf"/>
          <rect id="Прямоугольник_2876" data-name="Прямоугольник 2876" width="0.056" height="22.401" transform="translate(10.047 -0.003)" fill="#865dcf"/>
          <rect id="Прямоугольник_2877" data-name="Прямоугольник 2877" width="0.056" height="22.401" transform="translate(10.103 -0.003)" fill="#865dcf"/>
          <rect id="Прямоугольник_2878" data-name="Прямоугольник 2878" width="0.056" height="22.401" transform="translate(10.159 -0.003)" fill="#865dcf"/>
          <rect id="Прямоугольник_2879" data-name="Прямоугольник 2879" width="0.056" height="22.401" transform="translate(10.216 -0.003)" fill="#865dcf"/>
          <rect id="Прямоугольник_2880" data-name="Прямоугольник 2880" width="0.056" height="22.401" transform="translate(10.272 -0.003)" fill="#865dcf"/>
          <rect id="Прямоугольник_2881" data-name="Прямоугольник 2881" width="0.056" height="22.401" transform="translate(10.328 -0.003)" fill="#865dcf"/>
          <rect id="Прямоугольник_2882" data-name="Прямоугольник 2882" width="0.056" height="22.401" transform="translate(10.384 -0.003)" fill="#865dcf"/>
          <rect id="Прямоугольник_2883" data-name="Прямоугольник 2883" width="0.056" height="22.401" transform="translate(10.441 -0.003)" fill="#865dcf"/>
          <rect id="Прямоугольник_2884" data-name="Прямоугольник 2884" width="0.056" height="22.401" transform="translate(10.497 -0.003)" fill="#865dcf"/>
          <rect id="Прямоугольник_2885" data-name="Прямоугольник 2885" width="0.056" height="22.401" transform="translate(10.553 -0.003)" fill="#865dcf"/>
          <rect id="Прямоугольник_2886" data-name="Прямоугольник 2886" width="0.056" height="22.401" transform="translate(10.61 -0.003)" fill="#865dcf"/>
          <rect id="Прямоугольник_2887" data-name="Прямоугольник 2887" width="0.056" height="22.401" transform="translate(10.666 -0.003)" fill="#865dcf"/>
          <rect id="Прямоугольник_2888" data-name="Прямоугольник 2888" width="0.04" height="22.401" transform="translate(10.722 -0.003)" fill="#865dcf"/>
        </g>
      </g>
    </g>
  </g>
</svg>
