<svg xmlns="http://www.w3.org/2000/svg" xmlns:xlink="http://www.w3.org/1999/xlink" width="21" height="32.123" viewBox="0 0 21 32.123">
  <defs>
    <clipPath id="clip-path">
      <path id="Контур_3498" data-name="Контур 3498" d="M443.954,306.2v-6.516a3.214,3.214,0,0,1,3.213-3.214h13.747a3.215,3.215,0,0,1,3.213,3.214v6.771H463.3v-6.771a2.391,2.391,0,0,0-2.386-2.387H447.167a2.39,2.39,0,0,0-2.386,2.387V306.2Z" transform="translate(-443.954 -296.467)" fill="none"/>
    </clipPath>
  </defs>
  <g id="Сгруппировать_774" data-name="Сгруппировать 774" transform="translate(-443.453 -296.467)">
    <g id="Сгруппировать_768" data-name="Сгруппировать 768" transform="translate(443.453 300.211)">
      <path id="Контур_3497" data-name="Контур 3497" d="M460.827,329.374H447.08a3.631,3.631,0,0,1-3.627-3.627V301h1.654v24.751a1.975,1.975,0,0,0,1.974,1.974h13.747a1.975,1.975,0,0,0,1.973-1.974V301h1.654v24.751A3.631,3.631,0,0,1,460.827,329.374Z" transform="translate(-443.453 -300.996)" fill="#070707"/>
    </g>
    <g id="Сгруппировать_771" data-name="Сгруппировать 771" transform="translate(443.867 296.467)">
      <g id="Сгруппировать_770" data-name="Сгруппировать 770">
        <g id="Сгруппировать_769" data-name="Сгруппировать 769" clip-path="url(#clip-path)">
          <rect id="Прямоугольник_5281" data-name="Прямоугольник 5281" width="20.172" height="0.042" transform="translate(0 0)" fill="#58abb6"/>
          <rect id="Прямоугольник_5282" data-name="Прямоугольник 5282" width="20.172" height="0.055" transform="translate(0 0.042)" fill="#57a9b4"/>
          <rect id="Прямоугольник_5283" data-name="Прямоугольник 5283" width="20.172" height="0.055" transform="translate(0 0.097)" fill="#56a8b3"/>
          <rect id="Прямоугольник_5284" data-name="Прямоугольник 5284" width="20.172" height="0.055" transform="translate(0 0.152)" fill="#56a6b1"/>
          <rect id="Прямоугольник_5285" data-name="Прямоугольник 5285" width="20.172" height="0.055" transform="translate(0 0.208)" fill="#55a4af"/>
          <rect id="Прямоугольник_5286" data-name="Прямоугольник 5286" width="20.172" height="0.055" transform="translate(0 0.263)" fill="#54a3ad"/>
          <rect id="Прямоугольник_5287" data-name="Прямоугольник 5287" width="20.172" height="0.055" transform="translate(0 0.318)" fill="#53a1ab"/>
          <rect id="Прямоугольник_5288" data-name="Прямоугольник 5288" width="20.172" height="0.055" transform="translate(0 0.373)" fill="#529faa"/>
          <rect id="Прямоугольник_5289" data-name="Прямоугольник 5289" width="20.172" height="0.055" transform="translate(0 0.429)" fill="#529ea8"/>
          <rect id="Прямоугольник_5290" data-name="Прямоугольник 5290" width="20.172" height="0.055" transform="translate(0 0.484)" fill="#519ca6"/>
          <rect id="Прямоугольник_5291" data-name="Прямоугольник 5291" width="20.172" height="0.055" transform="translate(0 0.539)" fill="#509aa5"/>
          <rect id="Прямоугольник_5292" data-name="Прямоугольник 5292" width="20.172" height="0.055" transform="translate(0 0.594)" fill="#4f99a3"/>
          <rect id="Прямоугольник_5293" data-name="Прямоугольник 5293" width="20.172" height="0.055" transform="translate(0 0.65)" fill="#4e97a1"/>
          <rect id="Прямоугольник_5294" data-name="Прямоугольник 5294" width="20.172" height="0.055" transform="translate(0 0.705)" fill="#4e969f"/>
          <rect id="Прямоугольник_5295" data-name="Прямоугольник 5295" width="20.172" height="0.055" transform="translate(0 0.76)" fill="#4d949e"/>
          <rect id="Прямоугольник_5296" data-name="Прямоугольник 5296" width="20.172" height="0.055" transform="translate(0 0.815)" fill="#4c939c"/>
          <rect id="Прямоугольник_5297" data-name="Прямоугольник 5297" width="20.172" height="0.055" transform="translate(0 0.871)" fill="#4b919a"/>
          <rect id="Прямоугольник_5298" data-name="Прямоугольник 5298" width="20.172" height="0.055" transform="translate(0 0.926)" fill="#4a8f99"/>
          <rect id="Прямоугольник_5299" data-name="Прямоугольник 5299" width="20.172" height="0.055" transform="translate(0 0.981)" fill="#4a8e97"/>
          <rect id="Прямоугольник_5300" data-name="Прямоугольник 5300" width="20.172" height="0.055" transform="translate(0 1.036)" fill="#498c95"/>
          <rect id="Прямоугольник_5301" data-name="Прямоугольник 5301" width="20.172" height="0.055" transform="translate(0 1.092)" fill="#488b94"/>
          <rect id="Прямоугольник_5302" data-name="Прямоугольник 5302" width="20.172" height="0.055" transform="translate(0 1.147)" fill="#478992"/>
          <rect id="Прямоугольник_5303" data-name="Прямоугольник 5303" width="20.172" height="0.055" transform="translate(0 1.202)" fill="#478891"/>
          <rect id="Прямоугольник_5304" data-name="Прямоугольник 5304" width="20.172" height="0.055" transform="translate(0 1.257)" fill="#46868f"/>
          <rect id="Прямоугольник_5305" data-name="Прямоугольник 5305" width="20.172" height="0.055" transform="translate(0 1.313)" fill="#45858d"/>
          <rect id="Прямоугольник_5306" data-name="Прямоугольник 5306" width="20.172" height="0.055" transform="translate(0 1.368)" fill="#44838c"/>
          <rect id="Прямоугольник_5307" data-name="Прямоугольник 5307" width="20.172" height="0.055" transform="translate(0 1.423)" fill="#44828a"/>
          <rect id="Прямоугольник_5308" data-name="Прямоугольник 5308" width="20.172" height="0.055" transform="translate(0 1.478)" fill="#438089"/>
          <rect id="Прямоугольник_5309" data-name="Прямоугольник 5309" width="20.172" height="0.055" transform="translate(0 1.533)" fill="#427f87"/>
          <rect id="Прямоугольник_5310" data-name="Прямоугольник 5310" width="20.172" height="0.055" transform="translate(0 1.589)" fill="#427d85"/>
          <rect id="Прямоугольник_5311" data-name="Прямоугольник 5311" width="20.172" height="0.055" transform="translate(0 1.644)" fill="#417c84"/>
          <rect id="Прямоугольник_5312" data-name="Прямоугольник 5312" width="20.172" height="0.055" transform="translate(0 1.699)" fill="#407a82"/>
          <rect id="Прямоугольник_5313" data-name="Прямоугольник 5313" width="20.172" height="0.055" transform="translate(0 1.754)" fill="#3f7981"/>
          <rect id="Прямоугольник_5314" data-name="Прямоугольник 5314" width="20.172" height="0.055" transform="translate(0 1.81)" fill="#3f787f"/>
          <rect id="Прямоугольник_5315" data-name="Прямоугольник 5315" width="20.172" height="0.055" transform="translate(0 1.865)" fill="#3e767e"/>
          <rect id="Прямоугольник_5316" data-name="Прямоугольник 5316" width="20.172" height="0.055" transform="translate(0 1.92)" fill="#3d757c"/>
          <rect id="Прямоугольник_5317" data-name="Прямоугольник 5317" width="20.172" height="0.055" transform="translate(0 1.975)" fill="#3d737b"/>
          <rect id="Прямоугольник_5318" data-name="Прямоугольник 5318" width="20.172" height="0.055" transform="translate(0 2.031)" fill="#3c7279"/>
          <rect id="Прямоугольник_5319" data-name="Прямоугольник 5319" width="20.172" height="0.055" transform="translate(0 2.086)" fill="#3b7178"/>
          <rect id="Прямоугольник_5320" data-name="Прямоугольник 5320" width="20.172" height="0.055" transform="translate(0 2.141)" fill="#3b6f76"/>
          <rect id="Прямоугольник_5321" data-name="Прямоугольник 5321" width="20.172" height="0.055" transform="translate(0 2.196)" fill="#3a6e75"/>
          <rect id="Прямоугольник_5322" data-name="Прямоугольник 5322" width="20.172" height="0.055" transform="translate(0 2.252)" fill="#396d73"/>
          <rect id="Прямоугольник_5323" data-name="Прямоугольник 5323" width="20.172" height="0.055" transform="translate(0 2.307)" fill="#396b72"/>
          <rect id="Прямоугольник_5324" data-name="Прямоугольник 5324" width="20.172" height="0.055" transform="translate(0 2.362)" fill="#386a71"/>
          <rect id="Прямоугольник_5325" data-name="Прямоугольник 5325" width="20.172" height="0.055" transform="translate(0 2.417)" fill="#37686f"/>
          <rect id="Прямоугольник_5326" data-name="Прямоугольник 5326" width="20.172" height="0.055" transform="translate(0 2.473)" fill="#37676e"/>
          <rect id="Прямоугольник_5327" data-name="Прямоугольник 5327" width="20.172" height="0.055" transform="translate(0 2.528)" fill="#36666c"/>
          <rect id="Прямоугольник_5328" data-name="Прямоугольник 5328" width="20.172" height="0.055" transform="translate(0 2.583)" fill="#35656b"/>
          <rect id="Прямоугольник_5329" data-name="Прямоугольник 5329" width="20.172" height="0.055" transform="translate(0 2.638)" fill="#35636a"/>
          <rect id="Прямоугольник_5330" data-name="Прямоугольник 5330" width="20.172" height="0.055" transform="translate(0 2.693)" fill="#346268"/>
          <rect id="Прямоугольник_5331" data-name="Прямоугольник 5331" width="20.172" height="0.055" transform="translate(0 2.749)" fill="#336167"/>
          <rect id="Прямоугольник_5332" data-name="Прямоугольник 5332" width="20.172" height="0.055" transform="translate(0 2.804)" fill="#335f65"/>
          <rect id="Прямоугольник_5333" data-name="Прямоугольник 5333" width="20.172" height="0.055" transform="translate(0 2.859)" fill="#325e64"/>
          <rect id="Прямоугольник_5334" data-name="Прямоугольник 5334" width="20.172" height="0.055" transform="translate(0 2.914)" fill="#315d63"/>
          <rect id="Прямоугольник_5335" data-name="Прямоугольник 5335" width="20.172" height="0.055" transform="translate(0 2.97)" fill="#315c61"/>
          <rect id="Прямоугольник_5336" data-name="Прямоугольник 5336" width="20.172" height="0.055" transform="translate(0 3.025)" fill="#305a60"/>
          <rect id="Прямоугольник_5337" data-name="Прямоугольник 5337" width="20.172" height="0.055" transform="translate(0 3.08)" fill="#30595f"/>
          <rect id="Прямоугольник_5338" data-name="Прямоугольник 5338" width="20.172" height="0.055" transform="translate(0 3.135)" fill="#2f585d"/>
          <rect id="Прямоугольник_5339" data-name="Прямоугольник 5339" width="20.172" height="0.055" transform="translate(0 3.191)" fill="#2e575c"/>
          <rect id="Прямоугольник_5340" data-name="Прямоугольник 5340" width="20.172" height="0.055" transform="translate(0 3.246)" fill="#2e555b"/>
          <rect id="Прямоугольник_5341" data-name="Прямоугольник 5341" width="20.172" height="0.055" transform="translate(0 3.301)" fill="#2d545a"/>
          <rect id="Прямоугольник_5342" data-name="Прямоугольник 5342" width="20.172" height="0.055" transform="translate(0 3.356)" fill="#2d5358"/>
          <rect id="Прямоугольник_5343" data-name="Прямоугольник 5343" width="20.172" height="0.055" transform="translate(0 3.412)" fill="#2c5257"/>
          <rect id="Прямоугольник_5344" data-name="Прямоугольник 5344" width="20.172" height="0.055" transform="translate(0 3.467)" fill="#2b5156"/>
          <rect id="Прямоугольник_5345" data-name="Прямоугольник 5345" width="20.172" height="0.055" transform="translate(0 3.522)" fill="#2b5055"/>
          <rect id="Прямоугольник_5346" data-name="Прямоугольник 5346" width="20.172" height="0.055" transform="translate(0 3.577)" fill="#2a4e53"/>
          <rect id="Прямоугольник_5347" data-name="Прямоугольник 5347" width="20.172" height="0.055" transform="translate(0 3.633)" fill="#2a4d52"/>
          <rect id="Прямоугольник_5348" data-name="Прямоугольник 5348" width="20.172" height="0.055" transform="translate(0 3.688)" fill="#294c51"/>
          <rect id="Прямоугольник_5349" data-name="Прямоугольник 5349" width="20.172" height="0.055" transform="translate(0 3.743)" fill="#294b50"/>
          <rect id="Прямоугольник_5350" data-name="Прямоугольник 5350" width="20.172" height="0.055" transform="translate(0 3.798)" fill="#284a4e"/>
          <rect id="Прямоугольник_5351" data-name="Прямоугольник 5351" width="20.172" height="0.055" transform="translate(0 3.853)" fill="#28494d"/>
          <rect id="Прямоугольник_5352" data-name="Прямоугольник 5352" width="20.172" height="0.055" transform="translate(0 3.909)" fill="#27484c"/>
          <rect id="Прямоугольник_5353" data-name="Прямоугольник 5353" width="20.172" height="0.055" transform="translate(0 3.964)" fill="#26474b"/>
          <rect id="Прямоугольник_5354" data-name="Прямоугольник 5354" width="20.172" height="0.055" transform="translate(0 4.019)" fill="#26454a"/>
          <rect id="Прямоугольник_5355" data-name="Прямоугольник 5355" width="20.172" height="0.055" transform="translate(0 4.074)" fill="#254449"/>
          <rect id="Прямоугольник_5356" data-name="Прямоугольник 5356" width="20.172" height="0.055" transform="translate(0 4.13)" fill="#254347"/>
          <rect id="Прямоугольник_5357" data-name="Прямоугольник 5357" width="20.172" height="0.055" transform="translate(0 4.185)" fill="#244246"/>
          <rect id="Прямоугольник_5358" data-name="Прямоугольник 5358" width="20.172" height="0.055" transform="translate(0 4.24)" fill="#244145"/>
          <rect id="Прямоугольник_5359" data-name="Прямоугольник 5359" width="20.172" height="0.055" transform="translate(0 4.295)" fill="#234044"/>
          <rect id="Прямоугольник_5360" data-name="Прямоугольник 5360" width="20.172" height="0.055" transform="translate(0 4.351)" fill="#233f43"/>
          <rect id="Прямоугольник_5361" data-name="Прямоугольник 5361" width="20.172" height="0.055" transform="translate(0 4.406)" fill="#223e42"/>
          <rect id="Прямоугольник_5362" data-name="Прямоугольник 5362" width="20.172" height="0.055" transform="translate(0 4.461)" fill="#223d41"/>
          <rect id="Прямоугольник_5363" data-name="Прямоугольник 5363" width="20.172" height="0.055" transform="translate(0 4.516)" fill="#213c40"/>
          <rect id="Прямоугольник_5364" data-name="Прямоугольник 5364" width="20.172" height="0.055" transform="translate(0 4.572)" fill="#213b3f"/>
          <rect id="Прямоугольник_5365" data-name="Прямоугольник 5365" width="20.172" height="0.055" transform="translate(0 4.627)" fill="#203a3e"/>
          <rect id="Прямоугольник_5366" data-name="Прямоугольник 5366" width="20.172" height="0.055" transform="translate(0 4.682)" fill="#20393d"/>
          <rect id="Прямоугольник_5367" data-name="Прямоугольник 5367" width="20.172" height="0.055" transform="translate(0 4.737)" fill="#1f383b"/>
          <rect id="Прямоугольник_5368" data-name="Прямоугольник 5368" width="20.172" height="0.055" transform="translate(0 4.793)" fill="#1f373a"/>
          <rect id="Прямоугольник_5369" data-name="Прямоугольник 5369" width="20.172" height="0.055" transform="translate(0 4.848)" fill="#1e3639"/>
          <rect id="Прямоугольник_5370" data-name="Прямоугольник 5370" width="20.172" height="0.055" transform="translate(0 4.903)" fill="#1e3538"/>
          <rect id="Прямоугольник_5371" data-name="Прямоугольник 5371" width="20.172" height="0.055" transform="translate(0 4.958)" fill="#1d3437"/>
          <rect id="Прямоугольник_5372" data-name="Прямоугольник 5372" width="20.172" height="0.055" transform="translate(0 5.014)" fill="#1d3336"/>
          <rect id="Прямоугольник_5373" data-name="Прямоугольник 5373" width="20.172" height="0.055" transform="translate(0 5.069)" fill="#1c3235"/>
          <rect id="Прямоугольник_5374" data-name="Прямоугольник 5374" width="20.172" height="0.055" transform="translate(0 5.124)" fill="#1c3234"/>
          <rect id="Прямоугольник_5375" data-name="Прямоугольник 5375" width="20.172" height="0.055" transform="translate(0 5.179)" fill="#1c3134"/>
          <rect id="Прямоугольник_5376" data-name="Прямоугольник 5376" width="20.172" height="0.055" transform="translate(0 5.234)" fill="#1b3033"/>
          <rect id="Прямоугольник_5377" data-name="Прямоугольник 5377" width="20.172" height="0.055" transform="translate(0 5.29)" fill="#1b2f32"/>
          <rect id="Прямоугольник_5378" data-name="Прямоугольник 5378" width="20.172" height="0.055" transform="translate(0 5.345)" fill="#1a2e31"/>
          <rect id="Прямоугольник_5379" data-name="Прямоугольник 5379" width="20.172" height="0.055" transform="translate(0 5.4)" fill="#1a2d30"/>
          <rect id="Прямоугольник_5380" data-name="Прямоугольник 5380" width="20.172" height="0.055" transform="translate(0 5.455)" fill="#192c2f"/>
          <rect id="Прямоугольник_5381" data-name="Прямоугольник 5381" width="20.172" height="0.055" transform="translate(0 5.511)" fill="#192b2e"/>
          <rect id="Прямоугольник_5382" data-name="Прямоугольник 5382" width="20.172" height="0.055" transform="translate(0 5.566)" fill="#192b2d"/>
          <rect id="Прямоугольник_5383" data-name="Прямоугольник 5383" width="20.172" height="0.055" transform="translate(0 5.621)" fill="#182a2c"/>
          <rect id="Прямоугольник_5384" data-name="Прямоугольник 5384" width="20.172" height="0.055" transform="translate(0 5.676)" fill="#18292b"/>
          <rect id="Прямоугольник_5385" data-name="Прямоугольник 5385" width="20.172" height="0.055" transform="translate(0 5.732)" fill="#17282a"/>
          <rect id="Прямоугольник_5386" data-name="Прямоугольник 5386" width="20.172" height="0.055" transform="translate(0 5.787)" fill="#17272a"/>
          <rect id="Прямоугольник_5387" data-name="Прямоугольник 5387" width="20.172" height="0.055" transform="translate(0 5.842)" fill="#172729"/>
          <rect id="Прямоугольник_5388" data-name="Прямоугольник 5388" width="20.172" height="0.055" transform="translate(0 5.897)" fill="#162628"/>
          <rect id="Прямоугольник_5389" data-name="Прямоугольник 5389" width="20.172" height="0.055" transform="translate(0 5.953)" fill="#162527"/>
          <rect id="Прямоугольник_5390" data-name="Прямоугольник 5390" width="20.172" height="0.055" transform="translate(0 6.008)" fill="#152426"/>
          <rect id="Прямоугольник_5391" data-name="Прямоугольник 5391" width="20.172" height="0.055" transform="translate(0 6.063)" fill="#152325"/>
          <rect id="Прямоугольник_5392" data-name="Прямоугольник 5392" width="20.172" height="0.055" transform="translate(0 6.118)" fill="#152325"/>
          <rect id="Прямоугольник_5393" data-name="Прямоугольник 5393" width="20.172" height="0.055" transform="translate(0 6.174)" fill="#142224"/>
          <rect id="Прямоугольник_5394" data-name="Прямоугольник 5394" width="20.172" height="0.055" transform="translate(0 6.229)" fill="#142123"/>
          <rect id="Прямоугольник_5395" data-name="Прямоугольник 5395" width="20.172" height="0.055" transform="translate(0 6.284)" fill="#142122"/>
          <rect id="Прямоугольник_5396" data-name="Прямоугольник 5396" width="20.172" height="0.055" transform="translate(0 6.339)" fill="#132021"/>
          <rect id="Прямоугольник_5397" data-name="Прямоугольник 5397" width="20.172" height="0.055" transform="translate(0 6.394)" fill="#131f21"/>
          <rect id="Прямоугольник_5398" data-name="Прямоугольник 5398" width="20.172" height="0.055" transform="translate(0 6.45)" fill="#131e20"/>
          <rect id="Прямоугольник_5399" data-name="Прямоугольник 5399" width="20.172" height="0.055" transform="translate(0 6.505)" fill="#121e1f"/>
          <rect id="Прямоугольник_5400" data-name="Прямоугольник 5400" width="20.172" height="0.055" transform="translate(0 6.56)" fill="#121d1f"/>
          <rect id="Прямоугольник_5401" data-name="Прямоугольник 5401" width="20.172" height="0.055" transform="translate(0 6.615)" fill="#121c1e"/>
          <rect id="Прямоугольник_5402" data-name="Прямоугольник 5402" width="20.172" height="0.055" transform="translate(0 6.671)" fill="#111c1d"/>
          <rect id="Прямоугольник_5403" data-name="Прямоугольник 5403" width="20.172" height="0.055" transform="translate(0 6.726)" fill="#111b1c"/>
          <rect id="Прямоугольник_5404" data-name="Прямоугольник 5404" width="20.172" height="0.055" transform="translate(0 6.781)" fill="#111a1c"/>
          <rect id="Прямоугольник_5405" data-name="Прямоугольник 5405" width="20.172" height="0.055" transform="translate(0 6.836)" fill="#101a1b"/>
          <rect id="Прямоугольник_5406" data-name="Прямоугольник 5406" width="20.172" height="0.055" transform="translate(0 6.892)" fill="#10191a"/>
          <rect id="Прямоугольник_5407" data-name="Прямоугольник 5407" width="20.172" height="0.055" transform="translate(0 6.947)" fill="#10191a"/>
          <rect id="Прямоугольник_5408" data-name="Прямоугольник 5408" width="20.172" height="0.055" transform="translate(0 7.002)" fill="#0f1819"/>
          <rect id="Прямоугольник_5409" data-name="Прямоугольник 5409" width="20.172" height="0.055" transform="translate(0 7.057)" fill="#0f1719"/>
          <rect id="Прямоугольник_5410" data-name="Прямоугольник 5410" width="20.172" height="0.055" transform="translate(0 7.113)" fill="#0f1718"/>
          <rect id="Прямоугольник_5411" data-name="Прямоугольник 5411" width="20.172" height="0.055" transform="translate(0 7.168)" fill="#0f1617"/>
          <rect id="Прямоугольник_5412" data-name="Прямоугольник 5412" width="20.172" height="0.055" transform="translate(0 7.223)" fill="#0e1617"/>
          <rect id="Прямоугольник_5413" data-name="Прямоугольник 5413" width="20.172" height="0.055" transform="translate(0 7.278)" fill="#0e1516"/>
          <rect id="Прямоугольник_5414" data-name="Прямоугольник 5414" width="20.172" height="0.055" transform="translate(0 7.334)" fill="#0e1516"/>
          <rect id="Прямоугольник_5415" data-name="Прямоугольник 5415" width="20.172" height="0.055" transform="translate(0 7.389)" fill="#0d1415"/>
          <rect id="Прямоугольник_5416" data-name="Прямоугольник 5416" width="20.172" height="0.055" transform="translate(0 7.444)" fill="#0d1414"/>
          <rect id="Прямоугольник_5417" data-name="Прямоугольник 5417" width="20.172" height="0.055" transform="translate(0 7.499)" fill="#0d1314"/>
          <rect id="Прямоугольник_5418" data-name="Прямоугольник 5418" width="20.172" height="0.055" transform="translate(0 7.554)" fill="#0d1313"/>
          <rect id="Прямоугольник_5419" data-name="Прямоугольник 5419" width="20.172" height="0.055" transform="translate(0 7.61)" fill="#0c1213"/>
          <rect id="Прямоугольник_5420" data-name="Прямоугольник 5420" width="20.172" height="0.055" transform="translate(0 7.665)" fill="#0c1212"/>
          <rect id="Прямоугольник_5421" data-name="Прямоугольник 5421" width="20.172" height="0.055" transform="translate(0 7.72)" fill="#0c1112"/>
          <rect id="Прямоугольник_5422" data-name="Прямоугольник 5422" width="20.172" height="0.055" transform="translate(0 7.775)" fill="#0c1111"/>
          <rect id="Прямоугольник_5423" data-name="Прямоугольник 5423" width="20.172" height="0.055" transform="translate(0 7.831)" fill="#0c1011"/>
          <rect id="Прямоугольник_5424" data-name="Прямоугольник 5424" width="20.172" height="0.055" transform="translate(0 7.886)" fill="#0b1010"/>
          <rect id="Прямоугольник_5425" data-name="Прямоугольник 5425" width="20.172" height="0.055" transform="translate(0 7.941)" fill="#0b0f10"/>
          <rect id="Прямоугольник_5426" data-name="Прямоугольник 5426" width="20.172" height="0.055" transform="translate(0 7.996)" fill="#0b0f0f"/>
          <rect id="Прямоугольник_5427" data-name="Прямоугольник 5427" width="20.172" height="0.055" transform="translate(0 8.052)" fill="#0b0e0f"/>
          <rect id="Прямоугольник_5428" data-name="Прямоугольник 5428" width="20.172" height="0.055" transform="translate(0 8.107)" fill="#0a0e0f"/>
          <rect id="Прямоугольник_5429" data-name="Прямоугольник 5429" width="20.172" height="0.055" transform="translate(0 8.162)" fill="#0a0e0e"/>
          <rect id="Прямоугольник_5430" data-name="Прямоугольник 5430" width="20.172" height="0.055" transform="translate(0 8.217)" fill="#0a0d0e"/>
          <rect id="Прямоугольник_5431" data-name="Прямоугольник 5431" width="20.172" height="0.055" transform="translate(0 8.273)" fill="#0a0d0d"/>
          <rect id="Прямоугольник_5432" data-name="Прямоугольник 5432" width="20.172" height="0.055" transform="translate(0 8.328)" fill="#0a0d0d"/>
          <rect id="Прямоугольник_5433" data-name="Прямоугольник 5433" width="20.172" height="0.055" transform="translate(0 8.383)" fill="#0a0c0d"/>
          <rect id="Прямоугольник_5434" data-name="Прямоугольник 5434" width="20.172" height="0.055" transform="translate(0 8.438)" fill="#090c0c"/>
          <rect id="Прямоугольник_5435" data-name="Прямоугольник 5435" width="20.172" height="0.055" transform="translate(0 8.494)" fill="#090c0c"/>
          <rect id="Прямоугольник_5436" data-name="Прямоугольник 5436" width="20.172" height="0.055" transform="translate(0 8.549)" fill="#090b0c"/>
          <rect id="Прямоугольник_5437" data-name="Прямоугольник 5437" width="20.172" height="0.055" transform="translate(0 8.604)" fill="#090b0b"/>
          <rect id="Прямоугольник_5438" data-name="Прямоугольник 5438" width="20.172" height="0.055" transform="translate(0 8.659)" fill="#090b0b"/>
          <rect id="Прямоугольник_5439" data-name="Прямоугольник 5439" width="20.172" height="0.055" transform="translate(0 8.715)" fill="#090a0b"/>
          <rect id="Прямоугольник_5440" data-name="Прямоугольник 5440" width="20.172" height="0.055" transform="translate(0 8.77)" fill="#090a0a"/>
          <rect id="Прямоугольник_5441" data-name="Прямоугольник 5441" width="20.172" height="0.055" transform="translate(0 8.825)" fill="#080a0a"/>
          <rect id="Прямоугольник_5442" data-name="Прямоугольник 5442" width="20.172" height="0.055" transform="translate(0 8.88)" fill="#080a0a"/>
          <rect id="Прямоугольник_5443" data-name="Прямоугольник 5443" width="20.172" height="0.055" transform="translate(0 8.935)" fill="#080909"/>
          <rect id="Прямоугольник_5444" data-name="Прямоугольник 5444" width="20.172" height="0.055" transform="translate(0 8.991)" fill="#080909"/>
          <rect id="Прямоугольник_5445" data-name="Прямоугольник 5445" width="20.172" height="0.055" transform="translate(0 9.046)" fill="#080909"/>
          <rect id="Прямоугольник_5446" data-name="Прямоугольник 5446" width="20.172" height="0.055" transform="translate(0 9.101)" fill="#080909"/>
          <rect id="Прямоугольник_5447" data-name="Прямоугольник 5447" width="20.172" height="0.055" transform="translate(0 9.156)" fill="#080809"/>
          <rect id="Прямоугольник_5448" data-name="Прямоугольник 5448" width="20.172" height="0.055" transform="translate(0 9.212)" fill="#080808"/>
          <rect id="Прямоугольник_5449" data-name="Прямоугольник 5449" width="20.172" height="0.055" transform="translate(0 9.267)" fill="#080808"/>
          <rect id="Прямоугольник_5450" data-name="Прямоугольник 5450" width="20.172" height="0.055" transform="translate(0 9.322)" fill="#070808"/>
          <rect id="Прямоугольник_5451" data-name="Прямоугольник 5451" width="20.172" height="0.055" transform="translate(0 9.377)" fill="#070808"/>
          <rect id="Прямоугольник_5452" data-name="Прямоугольник 5452" width="20.172" height="0.055" transform="translate(0 9.433)" fill="#070808"/>
          <rect id="Прямоугольник_5453" data-name="Прямоугольник 5453" width="20.172" height="0.055" transform="translate(0 9.488)" fill="#070808"/>
          <rect id="Прямоугольник_5454" data-name="Прямоугольник 5454" width="20.172" height="0.055" transform="translate(0 9.543)" fill="#070707"/>
          <rect id="Прямоугольник_5455" data-name="Прямоугольник 5455" width="20.172" height="0.055" transform="translate(0 9.598)" fill="#070707"/>
          <rect id="Прямоугольник_5456" data-name="Прямоугольник 5456" width="20.172" height="0.055" transform="translate(0 9.654)" fill="#070707"/>
          <rect id="Прямоугольник_5457" data-name="Прямоугольник 5457" width="20.172" height="0.055" transform="translate(0 9.709)" fill="#070707"/>
          <rect id="Прямоугольник_5458" data-name="Прямоугольник 5458" width="20.172" height="0.055" transform="translate(0 9.764)" fill="#070707"/>
          <rect id="Прямоугольник_5459" data-name="Прямоугольник 5459" width="20.172" height="0.055" transform="translate(0 9.819)" fill="#070707"/>
          <rect id="Прямоугольник_5460" data-name="Прямоугольник 5460" width="20.172" height="0.055" transform="translate(0 9.875)" fill="#070707"/>
          <rect id="Прямоугольник_5461" data-name="Прямоугольник 5461" width="20.172" height="0.055" transform="translate(0 9.93)" fill="#070707"/>
          <rect id="Прямоугольник_5462" data-name="Прямоугольник 5462" width="20.172" transform="translate(0 9.985)" fill="#070707"/>
        </g>
      </g>
    </g>
    <g id="Сгруппировать_772" data-name="Сгруппировать 772" transform="translate(449.383 310.283)">
      <path id="Контур_3499" data-name="Контур 3499" d="M456.8,319.356h-1.654v-.827a3.7,3.7,0,0,0-3.7-3.7h-.827v-1.654h.827a5.357,5.357,0,0,1,5.35,5.351Z" transform="translate(-450.625 -313.178)" fill="#070707"/>
    </g>
    <g id="Сгруппировать_773" data-name="Сгруппировать 773" transform="translate(449.383 306.402)">
      <path id="Контур_3500" data-name="Контур 3500" d="M460.683,318.542h-1.654v-.827a7.586,7.586,0,0,0-7.577-7.578h-.827v-1.654h.827a9.242,9.242,0,0,1,9.231,9.232Z" transform="translate(-450.625 -308.483)" fill="#070707"/>
    </g>
  </g>
</svg>
