<svg xmlns="http://www.w3.org/2000/svg" xmlns:xlink="http://www.w3.org/1999/xlink" width="36" height="18" viewBox="0 0 36 18">
  <defs>
    <clipPath id="clip-path">
      <path id="Контур_3501" data-name="Контур 3501" d="M473.348,385.278l.366.333c-.042.024-7.825,8.637-17.695,8.667-9.869-.03-17.653-8.643-17.7-8.666l-.3-.334.3-.334c.043-.024,7.827-8.637,17.7-8.666,9.87.029,17.653,8.642,17.695,8.666l.3.334-.3.333-.366-.333-.367.333c0-.023-7.689-8.371-16.961-8.341-9.271-.03-16.929,8.348-16.962,8.342l-.366-.334.366-.334c0,.024,7.691,8.371,16.962,8.342,9.272.029,16.928-8.348,16.961-8.342l.367.334-.367.333Z" transform="translate(-438.019 -376.278)" fill="none"/>
    </clipPath>
  </defs>
  <g id="Сгруппировать_781" data-name="Сгруппировать 781" transform="translate(-438.019 -376.278)">
    <g id="Сгруппировать_777" data-name="Сгруппировать 777" transform="translate(438.019 376.278)">
      <g id="Сгруппировать_776" data-name="Сгруппировать 776">
        <g id="Сгруппировать_775" data-name="Сгруппировать 775" clip-path="url(#clip-path)">
          <rect id="Прямоугольник_5463" data-name="Прямоугольник 5463" width="36" height="0.031" transform="translate(0 0)" fill="#5bb0bc"/>
          <rect id="Прямоугольник_5464" data-name="Прямоугольник 5464" width="36" height="0.101" transform="translate(0 0.031)" fill="#5aaeba"/>
          <rect id="Прямоугольник_5465" data-name="Прямоугольник 5465" width="36" height="0.101" transform="translate(0 0.132)" fill="#59adb8"/>
          <rect id="Прямоугольник_5466" data-name="Прямоугольник 5466" width="36" height="0.101" transform="translate(0 0.232)" fill="#58abb6"/>
          <rect id="Прямоугольник_5467" data-name="Прямоугольник 5467" width="36" height="0.101" transform="translate(0 0.333)" fill="#57a9b4"/>
          <rect id="Прямоугольник_5468" data-name="Прямоугольник 5468" width="36" height="0.101" transform="translate(0 0.434)" fill="#56a8b3"/>
          <rect id="Прямоугольник_5469" data-name="Прямоугольник 5469" width="36" height="0.101" transform="translate(0 0.535)" fill="#56a6b1"/>
          <rect id="Прямоугольник_5470" data-name="Прямоугольник 5470" width="36" height="0.101" transform="translate(0 0.636)" fill="#55a4af"/>
          <rect id="Прямоугольник_5471" data-name="Прямоугольник 5471" width="36" height="0.101" transform="translate(0 0.737)" fill="#54a3ad"/>
          <rect id="Прямоугольник_5472" data-name="Прямоугольник 5472" width="36" height="0.101" transform="translate(0 0.838)" fill="#53a1ab"/>
          <rect id="Прямоугольник_5473" data-name="Прямоугольник 5473" width="36" height="0.101" transform="translate(0 0.939)" fill="#529faa"/>
          <rect id="Прямоугольник_5474" data-name="Прямоугольник 5474" width="36" height="0.101" transform="translate(0 1.04)" fill="#529ea8"/>
          <rect id="Прямоугольник_5475" data-name="Прямоугольник 5475" width="36" height="0.101" transform="translate(0 1.141)" fill="#519ca6"/>
          <rect id="Прямоугольник_5476" data-name="Прямоугольник 5476" width="36" height="0.101" transform="translate(0 1.241)" fill="#509aa5"/>
          <rect id="Прямоугольник_5477" data-name="Прямоугольник 5477" width="36" height="0.101" transform="translate(0 1.342)" fill="#4f99a3"/>
          <rect id="Прямоугольник_5478" data-name="Прямоугольник 5478" width="36" height="0.101" transform="translate(0 1.443)" fill="#4e97a1"/>
          <rect id="Прямоугольник_5479" data-name="Прямоугольник 5479" width="36" height="0.101" transform="translate(0 1.544)" fill="#4e969f"/>
          <rect id="Прямоугольник_5480" data-name="Прямоугольник 5480" width="36" height="0.101" transform="translate(0 1.645)" fill="#4d949e"/>
          <rect id="Прямоугольник_5481" data-name="Прямоугольник 5481" width="36" height="0.101" transform="translate(0 1.746)" fill="#4c939c"/>
          <rect id="Прямоугольник_5482" data-name="Прямоугольник 5482" width="36" height="0.101" transform="translate(0 1.847)" fill="#4b919a"/>
          <rect id="Прямоугольник_5483" data-name="Прямоугольник 5483" width="36" height="0.101" transform="translate(0 1.948)" fill="#4a8f99"/>
          <rect id="Прямоугольник_5484" data-name="Прямоугольник 5484" width="36" height="0.101" transform="translate(0 2.049)" fill="#4a8e97"/>
          <rect id="Прямоугольник_5485" data-name="Прямоугольник 5485" width="36" height="0.101" transform="translate(0 2.15)" fill="#498c95"/>
          <rect id="Прямоугольник_5486" data-name="Прямоугольник 5486" width="36" height="0.101" transform="translate(0 2.25)" fill="#488b94"/>
          <rect id="Прямоугольник_5487" data-name="Прямоугольник 5487" width="36" height="0.101" transform="translate(0 2.351)" fill="#478992"/>
          <rect id="Прямоугольник_5488" data-name="Прямоугольник 5488" width="36" height="0.101" transform="translate(0 2.452)" fill="#478891"/>
          <rect id="Прямоугольник_5489" data-name="Прямоугольник 5489" width="36" height="0.101" transform="translate(0 2.553)" fill="#46868f"/>
          <rect id="Прямоугольник_5490" data-name="Прямоугольник 5490" width="36" height="0.101" transform="translate(0 2.654)" fill="#45858d"/>
          <rect id="Прямоугольник_5491" data-name="Прямоугольник 5491" width="36" height="0.101" transform="translate(0 2.755)" fill="#44838c"/>
          <rect id="Прямоугольник_5492" data-name="Прямоугольник 5492" width="36" height="0.101" transform="translate(0 2.856)" fill="#44828a"/>
          <rect id="Прямоугольник_5493" data-name="Прямоугольник 5493" width="36" height="0.101" transform="translate(0 2.957)" fill="#438089"/>
          <rect id="Прямоугольник_5494" data-name="Прямоугольник 5494" width="36" height="0.101" transform="translate(0 3.058)" fill="#427f87"/>
          <rect id="Прямоугольник_5495" data-name="Прямоугольник 5495" width="36" height="0.101" transform="translate(0 3.159)" fill="#427d85"/>
          <rect id="Прямоугольник_5496" data-name="Прямоугольник 5496" width="36" height="0.101" transform="translate(0 3.259)" fill="#417c84"/>
          <rect id="Прямоугольник_5497" data-name="Прямоугольник 5497" width="36" height="0.101" transform="translate(0 3.36)" fill="#407a82"/>
          <rect id="Прямоугольник_5498" data-name="Прямоугольник 5498" width="36" height="0.101" transform="translate(0 3.461)" fill="#3f7981"/>
          <rect id="Прямоугольник_5499" data-name="Прямоугольник 5499" width="36" height="0.101" transform="translate(0 3.562)" fill="#3f787f"/>
          <rect id="Прямоугольник_5500" data-name="Прямоугольник 5500" width="36" height="0.101" transform="translate(0 3.663)" fill="#3e767e"/>
          <rect id="Прямоугольник_5501" data-name="Прямоугольник 5501" width="36" height="0.101" transform="translate(0 3.764)" fill="#3d757c"/>
          <rect id="Прямоугольник_5502" data-name="Прямоугольник 5502" width="36" height="0.101" transform="translate(0 3.865)" fill="#3d737b"/>
          <rect id="Прямоугольник_5503" data-name="Прямоугольник 5503" width="36" height="0.101" transform="translate(0 3.966)" fill="#3c7279"/>
          <rect id="Прямоугольник_5504" data-name="Прямоугольник 5504" width="36" height="0.101" transform="translate(0 4.067)" fill="#3b7178"/>
          <rect id="Прямоугольник_5505" data-name="Прямоугольник 5505" width="36" height="0.101" transform="translate(0 4.168)" fill="#3b6f76"/>
          <rect id="Прямоугольник_5506" data-name="Прямоугольник 5506" width="36" height="0.101" transform="translate(0 4.268)" fill="#3a6e75"/>
          <rect id="Прямоугольник_5507" data-name="Прямоугольник 5507" width="36" height="0.101" transform="translate(0 4.369)" fill="#396d73"/>
          <rect id="Прямоугольник_5508" data-name="Прямоугольник 5508" width="36" height="0.101" transform="translate(0 4.47)" fill="#396b72"/>
          <rect id="Прямоугольник_5509" data-name="Прямоугольник 5509" width="36" height="0.101" transform="translate(0 4.571)" fill="#386a71"/>
          <rect id="Прямоугольник_5510" data-name="Прямоугольник 5510" width="36" height="0.101" transform="translate(0 4.672)" fill="#37686f"/>
          <rect id="Прямоугольник_5511" data-name="Прямоугольник 5511" width="36" height="0.101" transform="translate(0 4.773)" fill="#37676e"/>
          <rect id="Прямоугольник_5512" data-name="Прямоугольник 5512" width="36" height="0.101" transform="translate(0 4.874)" fill="#36666c"/>
          <rect id="Прямоугольник_5513" data-name="Прямоугольник 5513" width="36" height="0.101" transform="translate(0 4.975)" fill="#35656b"/>
          <rect id="Прямоугольник_5514" data-name="Прямоугольник 5514" width="36" height="0.101" transform="translate(0 5.076)" fill="#35636a"/>
          <rect id="Прямоугольник_5515" data-name="Прямоугольник 5515" width="36" height="0.101" transform="translate(0 5.177)" fill="#346268"/>
          <rect id="Прямоугольник_5516" data-name="Прямоугольник 5516" width="36" height="0.101" transform="translate(0 5.277)" fill="#336167"/>
          <rect id="Прямоугольник_5517" data-name="Прямоугольник 5517" width="36" height="0.101" transform="translate(0 5.378)" fill="#335f65"/>
          <rect id="Прямоугольник_5518" data-name="Прямоугольник 5518" width="36" height="0.101" transform="translate(0 5.479)" fill="#325e64"/>
          <rect id="Прямоугольник_5519" data-name="Прямоугольник 5519" width="36" height="0.101" transform="translate(0 5.58)" fill="#315d63"/>
          <rect id="Прямоугольник_5520" data-name="Прямоугольник 5520" width="36" height="0.101" transform="translate(0 5.681)" fill="#315c61"/>
          <rect id="Прямоугольник_5521" data-name="Прямоугольник 5521" width="36" height="0.101" transform="translate(0 5.782)" fill="#305a60"/>
          <rect id="Прямоугольник_5522" data-name="Прямоугольник 5522" width="36" height="0.101" transform="translate(0 5.883)" fill="#30595f"/>
          <rect id="Прямоугольник_5523" data-name="Прямоугольник 5523" width="36" height="0.101" transform="translate(0 5.984)" fill="#2f585d"/>
          <rect id="Прямоугольник_5524" data-name="Прямоугольник 5524" width="36" height="0.101" transform="translate(0 6.085)" fill="#2e575c"/>
          <rect id="Прямоугольник_5525" data-name="Прямоугольник 5525" width="36" height="0.101" transform="translate(0 6.185)" fill="#2e555b"/>
          <rect id="Прямоугольник_5526" data-name="Прямоугольник 5526" width="36" height="0.101" transform="translate(0 6.286)" fill="#2d545a"/>
          <rect id="Прямоугольник_5527" data-name="Прямоугольник 5527" width="36" height="0.101" transform="translate(0 6.387)" fill="#2d5358"/>
          <rect id="Прямоугольник_5528" data-name="Прямоугольник 5528" width="36" height="0.101" transform="translate(0 6.488)" fill="#2c5257"/>
          <rect id="Прямоугольник_5529" data-name="Прямоугольник 5529" width="36" height="0.101" transform="translate(0 6.589)" fill="#2b5156"/>
          <rect id="Прямоугольник_5530" data-name="Прямоугольник 5530" width="36" height="0.101" transform="translate(0 6.69)" fill="#2b5055"/>
          <rect id="Прямоугольник_5531" data-name="Прямоугольник 5531" width="36" height="0.101" transform="translate(0 6.791)" fill="#2a4e53"/>
          <rect id="Прямоугольник_5532" data-name="Прямоугольник 5532" width="36" height="0.101" transform="translate(0 6.892)" fill="#2a4d52"/>
          <rect id="Прямоугольник_5533" data-name="Прямоугольник 5533" width="36" height="0.101" transform="translate(0 6.993)" fill="#294c51"/>
          <rect id="Прямоугольник_5534" data-name="Прямоугольник 5534" width="36" height="0.101" transform="translate(0 7.094)" fill="#294b50"/>
          <rect id="Прямоугольник_5535" data-name="Прямоугольник 5535" width="36" height="0.101" transform="translate(0 7.194)" fill="#284a4e"/>
          <rect id="Прямоугольник_5536" data-name="Прямоугольник 5536" width="36" height="0.101" transform="translate(0 7.295)" fill="#28494d"/>
          <rect id="Прямоугольник_5537" data-name="Прямоугольник 5537" width="36" height="0.101" transform="translate(0 7.396)" fill="#27484c"/>
          <rect id="Прямоугольник_5538" data-name="Прямоугольник 5538" width="36" height="0.101" transform="translate(0 7.497)" fill="#26474b"/>
          <rect id="Прямоугольник_5539" data-name="Прямоугольник 5539" width="36" height="0.101" transform="translate(0 7.598)" fill="#26454a"/>
          <rect id="Прямоугольник_5540" data-name="Прямоугольник 5540" width="36" height="0.101" transform="translate(0 7.699)" fill="#254449"/>
          <rect id="Прямоугольник_5541" data-name="Прямоугольник 5541" width="36" height="0.101" transform="translate(0 7.8)" fill="#254347"/>
          <rect id="Прямоугольник_5542" data-name="Прямоугольник 5542" width="36" height="0.101" transform="translate(0 7.901)" fill="#244246"/>
          <rect id="Прямоугольник_5543" data-name="Прямоугольник 5543" width="36" height="0.101" transform="translate(0 8.002)" fill="#244145"/>
          <rect id="Прямоугольник_5544" data-name="Прямоугольник 5544" width="36" height="0.101" transform="translate(0 8.103)" fill="#234044"/>
          <rect id="Прямоугольник_5545" data-name="Прямоугольник 5545" width="36" height="0.101" transform="translate(0 8.203)" fill="#233f43"/>
          <rect id="Прямоугольник_5546" data-name="Прямоугольник 5546" width="36" height="0.101" transform="translate(0 8.304)" fill="#223e42"/>
          <rect id="Прямоугольник_5547" data-name="Прямоугольник 5547" width="36" height="0.101" transform="translate(0 8.405)" fill="#223d41"/>
          <rect id="Прямоугольник_5548" data-name="Прямоугольник 5548" width="36" height="0.101" transform="translate(0 8.506)" fill="#213c40"/>
          <rect id="Прямоугольник_5549" data-name="Прямоугольник 5549" width="36" height="0.101" transform="translate(0 8.607)" fill="#213b3f"/>
          <rect id="Прямоугольник_5550" data-name="Прямоугольник 5550" width="36" height="0.101" transform="translate(0 8.708)" fill="#203a3e"/>
          <rect id="Прямоугольник_5551" data-name="Прямоугольник 5551" width="36" height="0.101" transform="translate(0 8.809)" fill="#20393d"/>
          <rect id="Прямоугольник_5552" data-name="Прямоугольник 5552" width="36" height="0.101" transform="translate(0 8.91)" fill="#1f383b"/>
          <rect id="Прямоугольник_5553" data-name="Прямоугольник 5553" width="36" height="0.101" transform="translate(0 9.011)" fill="#1f373a"/>
          <rect id="Прямоугольник_5554" data-name="Прямоугольник 5554" width="36" height="0.101" transform="translate(0 9.112)" fill="#1e3639"/>
          <rect id="Прямоугольник_5555" data-name="Прямоугольник 5555" width="36" height="0.101" transform="translate(0 9.212)" fill="#1e3538"/>
          <rect id="Прямоугольник_5556" data-name="Прямоугольник 5556" width="36" height="0.101" transform="translate(0 9.313)" fill="#1d3437"/>
          <rect id="Прямоугольник_5557" data-name="Прямоугольник 5557" width="36" height="0.101" transform="translate(0 9.414)" fill="#1d3336"/>
          <rect id="Прямоугольник_5558" data-name="Прямоугольник 5558" width="36" height="0.101" transform="translate(0 9.515)" fill="#1c3235"/>
          <rect id="Прямоугольник_5559" data-name="Прямоугольник 5559" width="36" height="0.101" transform="translate(0 9.616)" fill="#1c3234"/>
          <rect id="Прямоугольник_5560" data-name="Прямоугольник 5560" width="36" height="0.101" transform="translate(0 9.717)" fill="#1c3134"/>
          <rect id="Прямоугольник_5561" data-name="Прямоугольник 5561" width="36" height="0.101" transform="translate(0 9.818)" fill="#1b3033"/>
          <rect id="Прямоугольник_5562" data-name="Прямоугольник 5562" width="36" height="0.101" transform="translate(0 9.919)" fill="#1b2f32"/>
          <rect id="Прямоугольник_5563" data-name="Прямоугольник 5563" width="36" height="0.101" transform="translate(0 10.02)" fill="#1a2e31"/>
          <rect id="Прямоугольник_5564" data-name="Прямоугольник 5564" width="36" height="0.101" transform="translate(0 10.121)" fill="#1a2d30"/>
          <rect id="Прямоугольник_5565" data-name="Прямоугольник 5565" width="36" height="0.101" transform="translate(0 10.221)" fill="#192c2f"/>
          <rect id="Прямоугольник_5566" data-name="Прямоугольник 5566" width="36" height="0.101" transform="translate(0 10.322)" fill="#192b2e"/>
          <rect id="Прямоугольник_5567" data-name="Прямоугольник 5567" width="36" height="0.101" transform="translate(0 10.423)" fill="#192b2d"/>
          <rect id="Прямоугольник_5568" data-name="Прямоугольник 5568" width="36" height="0.101" transform="translate(0 10.524)" fill="#182a2c"/>
          <rect id="Прямоугольник_5569" data-name="Прямоугольник 5569" width="36" height="0.101" transform="translate(0 10.625)" fill="#18292b"/>
          <rect id="Прямоугольник_5570" data-name="Прямоугольник 5570" width="36" height="0.101" transform="translate(0 10.726)" fill="#17282a"/>
          <rect id="Прямоугольник_5571" data-name="Прямоугольник 5571" width="36" height="0.101" transform="translate(0 10.827)" fill="#17272a"/>
          <rect id="Прямоугольник_5572" data-name="Прямоугольник 5572" width="36" height="0.101" transform="translate(0 10.928)" fill="#172729"/>
          <rect id="Прямоугольник_5573" data-name="Прямоугольник 5573" width="36" height="0.101" transform="translate(0 11.029)" fill="#162628"/>
          <rect id="Прямоугольник_5574" data-name="Прямоугольник 5574" width="36" height="0.101" transform="translate(0 11.13)" fill="#162527"/>
          <rect id="Прямоугольник_5575" data-name="Прямоугольник 5575" width="36" height="0.101" transform="translate(0 11.23)" fill="#152426"/>
          <rect id="Прямоугольник_5576" data-name="Прямоугольник 5576" width="36" height="0.101" transform="translate(0 11.331)" fill="#152325"/>
          <rect id="Прямоугольник_5577" data-name="Прямоугольник 5577" width="36" height="0.101" transform="translate(0 11.432)" fill="#152325"/>
          <rect id="Прямоугольник_5578" data-name="Прямоугольник 5578" width="36" height="0.101" transform="translate(0 11.533)" fill="#142224"/>
          <rect id="Прямоугольник_5579" data-name="Прямоугольник 5579" width="36" height="0.101" transform="translate(0 11.634)" fill="#142123"/>
          <rect id="Прямоугольник_5580" data-name="Прямоугольник 5580" width="36" height="0.101" transform="translate(0 11.735)" fill="#142122"/>
          <rect id="Прямоугольник_5581" data-name="Прямоугольник 5581" width="36" height="0.101" transform="translate(0 11.836)" fill="#132021"/>
          <rect id="Прямоугольник_5582" data-name="Прямоугольник 5582" width="36" height="0.101" transform="translate(0 11.937)" fill="#131f21"/>
          <rect id="Прямоугольник_5583" data-name="Прямоугольник 5583" width="36" height="0.101" transform="translate(0 12.038)" fill="#131e20"/>
          <rect id="Прямоугольник_5584" data-name="Прямоугольник 5584" width="36" height="0.101" transform="translate(0 12.138)" fill="#121e1f"/>
          <rect id="Прямоугольник_5585" data-name="Прямоугольник 5585" width="36" height="0.101" transform="translate(0 12.239)" fill="#121d1f"/>
          <rect id="Прямоугольник_5586" data-name="Прямоугольник 5586" width="36" height="0.101" transform="translate(0 12.34)" fill="#121c1e"/>
          <rect id="Прямоугольник_5587" data-name="Прямоугольник 5587" width="36" height="0.101" transform="translate(0 12.441)" fill="#111c1d"/>
          <rect id="Прямоугольник_5588" data-name="Прямоугольник 5588" width="36" height="0.101" transform="translate(0 12.542)" fill="#111b1c"/>
          <rect id="Прямоугольник_5589" data-name="Прямоугольник 5589" width="36" height="0.101" transform="translate(0 12.643)" fill="#111a1c"/>
          <rect id="Прямоугольник_5590" data-name="Прямоугольник 5590" width="36" height="0.101" transform="translate(0 12.744)" fill="#101a1b"/>
          <rect id="Прямоугольник_5591" data-name="Прямоугольник 5591" width="36" height="0.101" transform="translate(0 12.845)" fill="#10191a"/>
          <rect id="Прямоугольник_5592" data-name="Прямоугольник 5592" width="36" height="0.101" transform="translate(0 12.946)" fill="#10191a"/>
          <rect id="Прямоугольник_5593" data-name="Прямоугольник 5593" width="36" height="0.101" transform="translate(0 13.047)" fill="#0f1819"/>
          <rect id="Прямоугольник_5594" data-name="Прямоугольник 5594" width="36" height="0.101" transform="translate(0 13.147)" fill="#0f1719"/>
          <rect id="Прямоугольник_5595" data-name="Прямоугольник 5595" width="36" height="0.101" transform="translate(0 13.248)" fill="#0f1718"/>
          <rect id="Прямоугольник_5596" data-name="Прямоугольник 5596" width="36" height="0.101" transform="translate(0 13.349)" fill="#0f1617"/>
          <rect id="Прямоугольник_5597" data-name="Прямоугольник 5597" width="36" height="0.101" transform="translate(0 13.45)" fill="#0e1617"/>
          <rect id="Прямоугольник_5598" data-name="Прямоугольник 5598" width="36" height="0.101" transform="translate(0 13.551)" fill="#0e1516"/>
          <rect id="Прямоугольник_5599" data-name="Прямоугольник 5599" width="36" height="0.101" transform="translate(0 13.652)" fill="#0e1516"/>
          <rect id="Прямоугольник_5600" data-name="Прямоугольник 5600" width="36" height="0.101" transform="translate(0 13.753)" fill="#0d1415"/>
          <rect id="Прямоугольник_5601" data-name="Прямоугольник 5601" width="36" height="0.101" transform="translate(0 13.854)" fill="#0d1414"/>
          <rect id="Прямоугольник_5602" data-name="Прямоугольник 5602" width="36" height="0.101" transform="translate(0 13.955)" fill="#0d1314"/>
          <rect id="Прямоугольник_5603" data-name="Прямоугольник 5603" width="36" height="0.101" transform="translate(0 14.056)" fill="#0d1313"/>
          <rect id="Прямоугольник_5604" data-name="Прямоугольник 5604" width="36" height="0.101" transform="translate(0 14.156)" fill="#0c1213"/>
          <rect id="Прямоугольник_5605" data-name="Прямоугольник 5605" width="36" height="0.101" transform="translate(0 14.257)" fill="#0c1212"/>
          <rect id="Прямоугольник_5606" data-name="Прямоугольник 5606" width="36" height="0.101" transform="translate(0 14.358)" fill="#0c1112"/>
          <rect id="Прямоугольник_5607" data-name="Прямоугольник 5607" width="36" height="0.101" transform="translate(0 14.459)" fill="#0c1111"/>
          <rect id="Прямоугольник_5608" data-name="Прямоугольник 5608" width="36" height="0.101" transform="translate(0 14.56)" fill="#0c1011"/>
          <rect id="Прямоугольник_5609" data-name="Прямоугольник 5609" width="36" height="0.101" transform="translate(0 14.661)" fill="#0b1010"/>
          <rect id="Прямоугольник_5610" data-name="Прямоугольник 5610" width="36" height="0.101" transform="translate(0 14.762)" fill="#0b0f10"/>
          <rect id="Прямоугольник_5611" data-name="Прямоугольник 5611" width="36" height="0.101" transform="translate(0 14.863)" fill="#0b0f0f"/>
          <rect id="Прямоугольник_5612" data-name="Прямоугольник 5612" width="36" height="0.101" transform="translate(0 14.964)" fill="#0b0e0f"/>
          <rect id="Прямоугольник_5613" data-name="Прямоугольник 5613" width="36" height="0.101" transform="translate(0 15.065)" fill="#0a0e0f"/>
          <rect id="Прямоугольник_5614" data-name="Прямоугольник 5614" width="36" height="0.101" transform="translate(0 15.165)" fill="#0a0e0e"/>
          <rect id="Прямоугольник_5615" data-name="Прямоугольник 5615" width="36" height="0.101" transform="translate(0 15.266)" fill="#0a0d0e"/>
          <rect id="Прямоугольник_5616" data-name="Прямоугольник 5616" width="36" height="0.101" transform="translate(0 15.367)" fill="#0a0d0d"/>
          <rect id="Прямоугольник_5617" data-name="Прямоугольник 5617" width="36" height="0.101" transform="translate(0 15.468)" fill="#0a0d0d"/>
          <rect id="Прямоугольник_5618" data-name="Прямоугольник 5618" width="36" height="0.101" transform="translate(0 15.569)" fill="#0a0c0d"/>
          <rect id="Прямоугольник_5619" data-name="Прямоугольник 5619" width="36" height="0.101" transform="translate(0 15.67)" fill="#090c0c"/>
          <rect id="Прямоугольник_5620" data-name="Прямоугольник 5620" width="36" height="0.101" transform="translate(0 15.771)" fill="#090c0c"/>
          <rect id="Прямоугольник_5621" data-name="Прямоугольник 5621" width="36" height="0.101" transform="translate(0 15.872)" fill="#090b0c"/>
          <rect id="Прямоугольник_5622" data-name="Прямоугольник 5622" width="36" height="0.101" transform="translate(0 15.973)" fill="#090b0b"/>
          <rect id="Прямоугольник_5623" data-name="Прямоугольник 5623" width="36" height="0.101" transform="translate(0 16.074)" fill="#090b0b"/>
          <rect id="Прямоугольник_5624" data-name="Прямоугольник 5624" width="36" height="0.101" transform="translate(0 16.174)" fill="#090a0b"/>
          <rect id="Прямоугольник_5625" data-name="Прямоугольник 5625" width="36" height="0.101" transform="translate(0 16.275)" fill="#090a0a"/>
          <rect id="Прямоугольник_5626" data-name="Прямоугольник 5626" width="36" height="0.101" transform="translate(0 16.376)" fill="#080a0a"/>
          <rect id="Прямоугольник_5627" data-name="Прямоугольник 5627" width="36" height="0.101" transform="translate(0 16.477)" fill="#080a0a"/>
          <rect id="Прямоугольник_5628" data-name="Прямоугольник 5628" width="36" height="0.101" transform="translate(0 16.578)" fill="#080909"/>
          <rect id="Прямоугольник_5629" data-name="Прямоугольник 5629" width="36" height="0.101" transform="translate(0 16.679)" fill="#080909"/>
          <rect id="Прямоугольник_5630" data-name="Прямоугольник 5630" width="36" height="0.101" transform="translate(0 16.78)" fill="#080909"/>
          <rect id="Прямоугольник_5631" data-name="Прямоугольник 5631" width="36" height="0.101" transform="translate(0 16.881)" fill="#080909"/>
          <rect id="Прямоугольник_5632" data-name="Прямоугольник 5632" width="36" height="0.101" transform="translate(0 16.982)" fill="#080809"/>
          <rect id="Прямоугольник_5633" data-name="Прямоугольник 5633" width="36" height="0.101" transform="translate(0 17.083)" fill="#080808"/>
          <rect id="Прямоугольник_5634" data-name="Прямоугольник 5634" width="36" height="0.101" transform="translate(0 17.183)" fill="#080808"/>
          <rect id="Прямоугольник_5635" data-name="Прямоугольник 5635" width="36" height="0.101" transform="translate(0 17.284)" fill="#070808"/>
          <rect id="Прямоугольник_5636" data-name="Прямоугольник 5636" width="36" height="0.101" transform="translate(0 17.385)" fill="#070808"/>
          <rect id="Прямоугольник_5637" data-name="Прямоугольник 5637" width="36" height="0.101" transform="translate(0 17.486)" fill="#070808"/>
          <rect id="Прямоугольник_5638" data-name="Прямоугольник 5638" width="36" height="0.101" transform="translate(0 17.587)" fill="#070808"/>
          <rect id="Прямоугольник_5639" data-name="Прямоугольник 5639" width="36" height="0.101" transform="translate(0 17.688)" fill="#070707"/>
          <rect id="Прямоугольник_5640" data-name="Прямоугольник 5640" width="36" height="0.101" transform="translate(0 17.789)" fill="#070707"/>
          <rect id="Прямоугольник_5641" data-name="Прямоугольник 5641" width="36" height="0.101" transform="translate(0 17.89)" fill="#070707"/>
          <rect id="Прямоугольник_5642" data-name="Прямоугольник 5642" width="36" height="0.009" transform="translate(0 17.991)" fill="#070707"/>
        </g>
      </g>
    </g>
    <g id="Сгруппировать_778" data-name="Сгруппировать 778" transform="translate(459.281 377.192)">
      <path id="Контур_3502" data-name="Контур 3502" d="M461.372,393.317l-1.273-1.529.771-.631a7.313,7.313,0,0,0-.571-11.767l-.828-.555,1.12-1.642.829.556a9.285,9.285,0,0,1,.724,14.938Z" transform="translate(-459.471 -377.192)" fill="#201600"/>
    </g>
    <g id="Сгруппировать_779" data-name="Сгруппировать 779" transform="translate(446.659 377.192)">
      <path id="Контур_3503" data-name="Контур 3503" d="M451.033,393.38l-.779-.621a9.282,9.282,0,0,1,.633-15.011l.829-.556,1.12,1.642-.828.555a7.311,7.311,0,0,0-.5,11.825l.779.621Z" transform="translate(-446.736 -377.192)" fill="#201600"/>
    </g>
    <g id="Сгруппировать_780" data-name="Сгруппировать 780" transform="translate(454.821 384.079)">
      <rect id="Прямоугольник_5643" data-name="Прямоугольник 5643" width="2.398" height="2.398" fill="#070707"/>
    </g>
  </g>
</svg>
