<svg width="55" height="55" viewBox="0 0 55 55" fill="none" xmlns="http://www.w3.org/2000/svg">
<path d="M6.875 27.5C6.875 16.1305 16.1305 6.875 27.5 6.875V5.15625C15.1766 5.15625 5.15625 15.1766 5.15625 27.5H6.875Z" fill="white"/>
<path d="M49.8438 27.5H48.125C48.125 38.8695 38.8695 48.125 27.5 48.125V49.8438C39.8234 49.8438 49.8438 39.8234 49.8438 27.5Z" fill="white"/>
<path d="M29.2188 5.15625H30.9375V6.875H29.2188V5.15625Z" fill="white"/>
<path d="M24.0625 48.125H25.7812V49.8438H24.0625V48.125Z" fill="white"/>
<path d="M44.6875 27.5C44.6875 18.0211 36.9789 10.3125 27.5 10.3125C18.0211 10.3125 10.3125 18.0211 10.3125 27.5C10.3125 36.9789 18.0211 44.6875 27.5 44.6875C36.9789 44.6875 44.6875 36.9789 44.6875 27.5ZM12.0312 27.5C12.0312 18.9664 18.9664 12.0312 27.5 12.0312C36.0336 12.0312 42.9688 18.9664 42.9688 27.5C42.9688 36.0336 36.0336 42.9688 27.5 42.9688C18.9664 42.9688 12.0312 36.0336 12.0312 27.5Z" fill="white"/>
<path d="M36.1711 35.8355C36.7211 35.2684 37.2109 34.641 37.632 33.9793L36.1797 33.0512C35.8187 33.6184 35.3977 34.1512 34.925 34.641C32.9742 36.6863 30.3273 37.8121 27.4914 37.8121C21.8023 37.8121 17.1789 33.1887 17.1789 27.4996C17.1789 25.8238 17.5742 24.2254 18.3477 22.7387C18.6398 22.1715 18.9836 21.6387 19.3703 21.1574L18.0211 20.0918C17.5742 20.659 17.1703 21.2863 16.8266 21.948C15.9328 23.6496 15.4688 25.5746 15.4688 27.4996C15.4688 34.134 20.8656 39.5309 27.5 39.5309C30.8086 39.5309 33.8937 38.216 36.1711 35.8355Z" fill="white"/>
<path d="M23.5215 17.9781C24.7848 17.4539 26.1254 17.1875 27.5004 17.1875C33.1895 17.1875 37.8129 21.8109 37.8129 27.5C37.8129 28.3078 37.7184 29.107 37.5379 29.8805C37.4176 30.4133 37.2457 30.9461 37.0223 31.4617L38.6035 32.132C38.8613 31.5305 39.059 30.9031 39.2051 30.2758C39.4199 29.3734 39.5316 28.4453 39.5316 27.5C39.5316 20.8656 34.1348 15.4688 27.5004 15.4688C25.902 15.4688 24.3379 15.7781 22.8684 16.3969C21.7855 16.8523 20.7629 17.4711 19.8262 18.2445L20.9262 19.568C21.734 18.8977 22.6105 18.3648 23.5387 17.9781H23.5215Z" fill="white"/>
<path d="M22.9539 27.7496L21.7422 28.9613L25.1797 32.3988C25.343 32.5621 25.5578 32.648 25.7898 32.648H25.8414C26.082 32.6309 26.3141 32.5191 26.4688 32.3301L33.3438 23.7363L32.0031 22.6621L25.7297 30.5082L22.9711 27.7496H22.9539Z" fill="white"/>
</svg>
