<svg width="55" height="55" viewBox="0 0 55 55" fill="none" xmlns="http://www.w3.org/2000/svg">
<g id="Capa_1" clip-path="url(#clip0_1225_287)">
<g id="Group">
<g id="Group_2">
<path id="Vector" d="M22.9292 3.67725C12.3018 3.67725 3.68652 12.2925 3.68652 22.9199C3.68652 33.5474 12.3018 42.1627 22.9292 42.1627C33.5567 42.1627 42.1719 33.5474 42.1719 22.9199C42.1604 12.2973 33.5519 3.68881 22.9292 3.67725ZM22.9292 5.50988C28.5893 5.51435 33.8933 8.27293 37.1468 12.9046L34.856 15.1954C34.2986 14.8581 33.6604 14.6775 33.0087 14.6731C30.9845 14.6731 29.3435 16.3141 29.3435 18.3384C29.3467 18.9907 29.5261 19.6299 29.863 20.1884L23.863 26.1885C22.7268 25.4957 21.299 25.4957 20.1629 26.1885L15.9954 22.021C16.3323 21.4625 16.5118 20.8233 16.515 20.171C16.5175 18.1507 14.8819 16.511 12.8616 16.5085C11.1908 16.5064 9.73102 17.6366 9.31456 19.2547H5.91501C7.64995 11.2429 14.7318 5.52191 22.9292 5.50988ZM34.8414 18.3384C34.8414 19.3505 34.0209 20.171 33.0087 20.171C31.9965 20.171 31.1761 19.3505 31.1761 18.3384C31.1761 17.3262 31.9965 16.5057 33.0087 16.5057C34.0209 16.5057 34.8414 17.3262 34.8414 18.3384ZM23.8455 29.3342C23.8455 30.3464 23.0251 31.1668 22.0129 31.1668C21.0007 31.1668 20.1803 30.3464 20.1803 29.3342C20.1803 28.322 21.0007 27.5015 22.0129 27.5015C23.0251 27.5015 23.8455 28.322 23.8455 29.3342ZM14.6824 20.171C14.6824 21.1832 13.8619 22.0036 12.8497 22.0036C11.8375 22.0036 11.0171 21.1832 11.0171 20.171C11.0171 19.1588 11.8375 18.3384 12.8497 18.3384C13.8619 18.3384 14.6824 19.1588 14.6824 20.171ZM31.3885 38.143C28.8008 39.5798 25.8892 40.3325 22.9292 40.3299C13.3205 40.3364 5.52569 32.5524 5.51916 22.9437C5.5187 22.3235 5.55146 21.7038 5.61721 21.0872H9.31456C9.73114 22.7005 11.1835 23.8299 12.8497 23.8362C13.502 23.8329 14.1413 23.6535 14.6998 23.3166L18.8672 27.484C18.5303 28.0425 18.3508 28.6818 18.3476 29.3341C18.3476 31.3583 19.9886 32.9993 22.0129 32.9993C24.0372 32.9993 25.6782 31.3583 25.6782 29.3341C25.675 28.6818 25.4955 28.0425 25.1586 27.484L31.1587 21.484C31.7172 21.8208 32.3564 22.0003 33.0087 22.0035C35.033 22.0035 36.674 20.3625 36.674 18.3382C36.6708 17.6859 36.4913 17.0467 36.1545 16.4882L38.152 14.4915C42.8155 22.8905 39.7873 33.4796 31.3885 38.143Z" fill="#EBEBEB"/>
</g>
</g>
<g id="Group_3">
<g id="Group_4">
<path id="Vector_2" d="M45.8368 9.17541C47.503 9.16911 48.9554 8.03986 49.3719 6.42645H55V4.59382H49.3719C48.9554 2.98041 47.503 1.85116 45.8368 1.84486C43.8125 1.84486 42.1715 3.48587 42.1715 5.51013C42.1747 6.16244 42.3542 6.80169 42.6911 7.36018L41.0811 8.97016C33.3777 -1.06594 18.997 -2.957 8.96088 4.74638C-1.07522 12.4498 -2.96627 26.8306 4.73711 36.8667C12.0086 46.3399 25.3377 48.638 35.3614 42.1464L38.1269 44.9119L39.4225 46.2075L46.7989 53.5839C48.675 55.46 51.7165 55.46 53.5925 53.5839C55.4686 51.7079 55.4686 48.6664 53.5925 46.7903L46.2161 39.4139L44.9205 38.1183L42.155 35.3528C47.0641 27.7914 47.0641 18.0492 42.155 10.4876L43.9876 8.65494C44.5458 8.99192 45.1848 9.17175 45.8368 9.17541ZM45.8368 3.6775C46.849 3.6775 47.6694 4.49795 47.6694 5.51013C47.6694 6.52232 46.849 7.34277 45.8368 7.34277C44.8246 7.34277 44.0041 6.52232 44.0041 5.51013C44.0041 4.49795 44.8247 3.6775 45.8368 3.6775ZM52.2968 48.086C53.4704 49.2332 53.4918 51.1147 52.3446 52.2882C51.1974 53.4618 49.3159 53.4832 48.1424 52.336C48.1262 52.3203 48.1104 52.3044 48.0946 52.2882L40.7182 44.9119L44.9205 40.7096L52.2968 48.086ZM43.6248 39.4139L39.4225 43.6162L36.8862 41.0798C37.0154 40.9809 37.1363 40.8718 37.2637 40.7701C37.3911 40.6684 37.5386 40.5465 37.6751 40.432C37.8758 40.2634 38.0737 40.0929 38.268 39.9179C38.3679 39.8263 38.4632 39.7347 38.5612 39.643C38.9369 39.2912 39.3007 38.9274 39.6525 38.5517C39.7442 38.4536 39.8358 38.3583 39.9274 38.2585C40.1025 38.0642 40.2729 37.8663 40.4415 37.6656C40.5564 37.53 40.6691 37.3929 40.7796 37.2542C40.8804 37.1277 40.9894 37.0068 41.0884 36.8776L43.6248 39.4139ZM40.0713 35.1576C39.7827 35.5608 39.4849 35.9558 39.1706 36.336C39.0789 36.4469 38.9809 36.5541 38.8865 36.6632C38.6061 36.9894 38.3165 37.3058 38.0178 37.6125C37.8877 37.7468 37.7554 37.8791 37.6211 38.0092C37.3156 38.3079 36.9992 38.5975 36.6717 38.8779C36.5627 38.9695 36.4555 39.0694 36.3446 39.162C35.9644 39.4763 35.5694 39.7741 35.1662 40.0627C25.6805 46.8395 12.4971 44.6434 5.72032 35.1576C-1.05644 25.6719 1.13964 12.4885 10.6254 5.71173C20.1111 -1.06503 33.2945 1.13093 40.0713 10.6168C45.315 17.9567 45.315 27.8177 40.0713 35.1576Z" fill="#EBEBEB"/>
</g>
</g>
</g>
<defs>
<clipPath id="clip0_1225_287">
<rect width="55" height="55" fill="white"/>
</clipPath>
</defs>
</svg>
