<svg width="55" height="55" viewBox="0 0 55 55" fill="none" xmlns="http://www.w3.org/2000/svg">
<g id="Layer_3" clip-path="url(#clip0_1239_371)">
<path id="Vector" d="M53.2809 47.2656H50.7028V6.01562C50.7014 4.64852 50.1577 3.3378 49.1911 2.37111C48.2244 1.40442 46.9137 0.86074 45.5466 0.859375H8.59342C7.22632 0.86074 5.9156 1.40442 4.94891 2.37111C3.98222 3.3378 3.43854 4.64852 3.43717 6.01562V14.6094C3.43717 15.2931 3.7088 15.9489 4.19229 16.4324C4.67578 16.9159 5.33154 17.1875 6.0153 17.1875H12.0309V38.3161L10.8897 39.4573C10.4646 39.3579 10.0213 39.3682 9.60135 39.4874C9.18143 39.6067 8.79877 39.8308 8.48944 40.1388L2.17905 46.4484C1.75526 46.8655 1.41823 47.3624 1.18738 47.9103C0.956535 48.4583 0.83644 49.0466 0.834022 49.6412C0.831603 50.2358 0.946908 50.8251 1.17329 51.3749C1.39967 51.9248 1.73265 52.4244 2.15303 52.8449C2.57341 53.2655 3.07288 53.5986 3.62264 53.8252C4.17239 54.0519 4.76157 54.1674 5.35619 54.1652C5.95082 54.163 6.53913 54.0432 7.08721 53.8126C7.63529 53.5819 8.13231 53.2451 8.5496 52.8215L12.1676 49.2035C12.4302 50.5436 13.1334 51.7574 14.1651 52.6519C15.1968 53.5465 16.498 54.0705 17.8618 54.1406H18.0465H48.1247C49.7195 54.1386 51.2484 53.5041 52.3761 52.3764C53.5038 51.2487 54.1383 49.7198 54.1403 48.125C54.1403 47.8971 54.0498 47.6785 53.8886 47.5173C53.7274 47.3562 53.5088 47.2656 53.2809 47.2656ZM6.0153 15.4688C5.78738 15.4688 5.56879 15.3782 5.40763 15.217C5.24646 15.0559 5.15592 14.8373 5.15592 14.6094V6.01562C5.15592 5.10394 5.51809 4.2296 6.16274 3.58495C6.8074 2.94029 7.68174 2.57812 8.59342 2.57812C9.50511 2.57812 10.3794 2.94029 11.0241 3.58495C11.6688 4.2296 12.0309 5.10394 12.0309 6.01562V15.4688H6.0153ZM23.2028 12.0312C23.2028 11.8613 23.2532 11.6951 23.3476 11.5538C23.4421 11.4125 23.5763 11.3023 23.7333 11.2373C23.8903 11.1722 24.0631 11.1552 24.2298 11.1884C24.3965 11.2215 24.5497 11.3034 24.6698 11.4236C24.79 11.5438 24.8719 11.6969 24.905 11.8636C24.9382 12.0303 24.9212 12.2031 24.8561 12.3601C24.7911 12.5171 24.6809 12.6514 24.5396 12.7458C24.3983 12.8402 24.2321 12.8906 24.0622 12.8906C23.8343 12.8906 23.6157 12.8001 23.4545 12.6389C23.2933 12.4778 23.2028 12.2592 23.2028 12.0312ZM26.6403 18.9062C28.51 18.9062 30.3376 19.4607 31.8922 20.4994C33.4467 21.5381 34.6584 23.0145 35.3738 24.7418C36.0893 26.4692 36.2765 28.3699 35.9118 30.2036C35.547 32.0373 34.6467 33.7217 33.3247 35.0437C32.0026 36.3658 30.3182 37.2661 28.4845 37.6309C26.6508 37.9956 24.7501 37.8084 23.0227 37.0929C21.2954 36.3774 19.819 35.1658 18.7803 33.6112C17.7416 32.0567 17.1872 30.229 17.1872 28.3594C17.1901 25.8532 18.187 23.4504 19.9592 21.6783C21.7314 19.9061 24.1341 18.9092 26.6403 18.9062ZM19.9423 37.2797L14.609 42.613L12.3867 40.3906L17.72 35.0573C18.3531 35.8985 19.1012 36.6465 19.9423 37.2797ZM7.33444 51.6063C6.81159 52.1288 6.10259 52.4222 5.36341 52.422C4.62423 52.4218 3.91542 52.1279 3.39292 51.605C2.87041 51.0822 2.577 50.3732 2.57724 49.634C2.57749 48.8948 2.87136 48.186 3.3942 47.6635L9.7046 41.354C9.86575 41.1929 10.0843 41.1024 10.3122 41.1024C10.54 41.1024 10.7586 41.1929 10.9198 41.354L13.6457 44.0799C13.8068 44.2411 13.8973 44.4596 13.8973 44.6875C13.8973 44.9154 13.8068 45.1339 13.6457 45.2951L7.33444 51.6063ZM17.9142 52.4219C16.7725 52.3504 15.7024 51.8412 14.9266 51.0005C14.1509 50.1598 13.7293 49.0522 13.7497 47.9084V47.6214L14.8608 46.5102C15.1688 46.2009 15.393 45.8182 15.5122 45.3983C15.6315 44.9784 15.6418 44.535 15.5423 44.11L21.4222 38.2302C22.9284 39.0297 24.598 39.473 26.3024 39.526C28.0069 39.579 29.7008 39.2403 31.2538 38.5359C32.8067 37.8315 34.1774 36.7802 35.2604 35.4629C36.3433 34.1456 37.1096 32.5974 37.5002 30.9375H40.5484C40.7511 31.5109 41.15 31.9941 41.6746 32.3019C42.1992 32.6096 42.8157 32.722 43.4151 32.6191C44.0145 32.5163 44.5582 32.2048 44.9502 31.7399C45.3422 31.2749 45.5572 30.6863 45.5572 30.0781C45.5572 29.47 45.3422 28.8814 44.9502 28.4164C44.5582 27.9514 44.0145 27.64 43.4151 27.5371C42.8157 27.4343 42.1992 27.5467 41.6746 27.8544C41.15 28.1621 40.7511 28.6454 40.5484 29.2188H37.7683C37.7907 28.9343 37.8122 28.6498 37.8122 28.3594C37.8121 27.2032 37.6315 26.0541 37.2768 24.9537L39.8867 22.3438H42.2672C42.4699 22.9171 42.8688 23.4004 43.3934 23.7081C43.9179 24.0158 44.5344 24.1282 45.1338 24.0254C45.7332 23.9225 46.277 23.6111 46.669 23.1461C47.061 22.6811 47.276 22.0925 47.276 21.4844C47.276 20.8762 47.061 20.2876 46.669 19.8226C46.277 19.3577 45.7332 19.0462 45.1338 18.9434C44.5344 18.8405 43.9179 18.9529 43.3934 19.2606C42.8688 19.5684 42.4699 20.0516 42.2672 20.625H39.5309C39.303 20.625 39.0845 20.7156 38.9233 20.8768L36.5592 23.2409C36.1618 22.4741 35.677 21.7557 35.1146 21.1002L39.286 16.9297C39.6299 17.0979 40.0075 17.186 40.3903 17.1875C40.9002 17.1875 41.3987 17.0363 41.8226 16.753C42.2466 16.4697 42.577 16.0671 42.7722 15.596C42.9673 15.1249 43.0184 14.6065 42.9189 14.1064C42.8194 13.6063 42.5739 13.1469 42.2133 12.7864C41.8528 12.4258 41.3934 12.1803 40.8933 12.0808C40.3932 11.9813 39.8748 12.0324 39.4037 12.2275C38.9326 12.4226 38.53 12.7531 38.2467 13.177C37.9634 13.601 37.8122 14.0995 37.8122 14.6094C37.8137 14.9922 37.9018 15.3698 38.07 15.7137L33.8986 19.8851C33.2431 19.3226 32.5247 18.8379 31.7579 18.4405L34.122 16.0763C34.202 15.9966 34.2654 15.9019 34.3088 15.7977C34.3522 15.6934 34.3745 15.5817 34.3747 15.4688V12.7325C34.9481 12.5298 35.4313 12.1309 35.739 11.6063C36.0468 11.0817 36.1591 10.4653 36.0563 9.86585C35.9535 9.26644 35.642 8.72269 35.177 8.33069C34.7121 7.93869 34.1235 7.7237 33.5153 7.7237C32.9071 7.7237 32.3185 7.93869 31.8536 8.33069C31.3886 8.72269 31.0771 9.26644 30.9743 9.86585C30.8715 10.4653 30.9838 11.0817 31.2916 11.6063C31.5993 12.1309 32.0825 12.5298 32.6559 12.7325V15.113L30.046 17.7229C28.9456 17.3682 27.7965 17.1876 26.6403 17.1875C26.0645 17.192 25.4899 17.2409 24.9215 17.3336V14.4513C25.4949 14.2485 25.9782 13.8496 26.2859 13.3251C26.5936 12.8005 26.706 12.184 26.6032 11.5846C26.5003 10.9852 26.1889 10.4414 25.7239 10.0494C25.2589 9.65744 24.6703 9.44244 24.0622 9.44244C23.454 9.44244 22.8654 9.65744 22.4004 10.0494C21.9355 10.4414 21.624 10.9852 21.5212 11.5846C21.4183 12.184 21.5307 12.8005 21.8384 13.3251C22.1462 13.8496 22.6294 14.2485 23.2028 14.4513V17.7341C21.651 18.2337 20.2275 19.0674 19.0328 20.1766C17.838 21.2858 16.9009 22.6435 16.2876 24.154C15.6742 25.6645 15.3995 27.2911 15.4828 28.9192C15.5661 30.5474 16.0053 32.1375 16.7695 33.5775L13.7497 36.5973V6.01562C13.7493 4.74546 13.2778 3.52059 12.4262 2.57812H45.5466C46.4582 2.57812 47.3326 2.94029 47.9772 3.58495C48.6219 4.2296 48.9841 5.10394 48.9841 6.01562V47.2656H23.2028C22.9749 47.2656 22.7563 47.3562 22.5951 47.5173C22.434 47.6785 22.3434 47.8971 22.3434 48.125C22.3455 48.7006 22.2308 49.2707 22.0065 49.8008C21.7821 50.3309 21.4527 50.81 21.038 51.2093C20.6278 51.6142 20.139 51.9306 19.6017 52.1392C19.0645 52.3477 18.4901 52.444 17.9142 52.4219ZM42.1091 30.0781C42.1091 29.9082 42.1595 29.742 42.2539 29.6007C42.3483 29.4594 42.4825 29.3492 42.6396 29.2842C42.7966 29.2191 42.9694 29.2021 43.1361 29.2353C43.3028 29.2684 43.4559 29.3503 43.5761 29.4705C43.6963 29.5906 43.7781 29.7438 43.8113 29.9105C43.8444 30.0772 43.8274 30.25 43.7624 30.407C43.6973 30.564 43.5872 30.6982 43.4459 30.7927C43.3045 30.8871 43.1384 30.9375 42.9684 30.9375C42.7405 30.9375 42.5219 30.847 42.3608 30.6858C42.1996 30.5246 42.1091 30.306 42.1091 30.0781ZM43.8278 21.4844C43.8278 21.3144 43.8782 21.1483 43.9726 21.0069C44.0671 20.8656 44.2013 20.7555 44.3583 20.6904C44.5153 20.6254 44.6881 20.6084 44.8548 20.6415C45.0215 20.6747 45.1747 20.7565 45.2948 20.8767C45.415 20.9969 45.4969 21.15 45.53 21.3167C45.5632 21.4834 45.5462 21.6562 45.4811 21.8132C45.4161 21.9703 45.3059 22.1045 45.1646 22.1989C45.0233 22.2934 44.8571 22.3438 44.6872 22.3438C44.4593 22.3438 44.2407 22.2532 44.0795 22.092C43.9183 21.9309 43.8278 21.7123 43.8278 21.4844ZM39.5309 14.6094C39.5309 14.4394 39.5813 14.2733 39.6758 14.1319C39.7702 13.9906 39.9044 13.8805 40.0614 13.8154C40.2185 13.7504 40.3913 13.7334 40.558 13.7665C40.7247 13.7997 40.8778 13.8815 40.998 14.0017C41.1182 14.1219 41.2 14.275 41.2332 14.4417C41.2663 14.6084 41.2493 14.7812 41.1843 14.9382C41.1192 15.0953 41.0091 15.2295 40.8677 15.3239C40.7264 15.4183 40.5603 15.4688 40.3903 15.4688C40.1624 15.4688 39.9438 15.3782 39.7826 15.217C39.6215 15.0559 39.5309 14.8373 39.5309 14.6094ZM32.6559 10.3125C32.6559 10.1425 32.7063 9.97638 32.8008 9.83506C32.8952 9.69373 33.0294 9.58358 33.1864 9.51854C33.3435 9.4535 33.5163 9.43648 33.683 9.46964C33.8497 9.5028 34.0028 9.58464 34.123 9.70483C34.2432 9.82502 34.325 9.97814 34.3582 10.1448C34.3913 10.3115 34.3743 10.4843 34.3093 10.6414C34.2442 10.7984 34.1341 10.9326 33.9927 11.027C33.8514 11.1215 33.6853 11.1719 33.5153 11.1719C33.2874 11.1719 33.0688 11.0813 32.9076 10.9202C32.7465 10.759 32.6559 10.5404 32.6559 10.3125ZM48.1247 52.4219H22.2575C23.2041 51.5011 23.818 50.2919 24.0029 48.9844H52.3356C52.1363 49.9543 51.6086 50.8259 50.8415 51.4521C50.0744 52.0783 49.1149 52.4208 48.1247 52.4219Z" fill="white"/>
<path id="Vector_2" d="M26.6406 36.0938C28.1703 36.0938 29.6657 35.6401 30.9376 34.7903C32.2095 33.9404 33.2009 32.7325 33.7863 31.3192C34.3717 29.9059 34.5248 28.3508 34.2264 26.8505C33.928 25.3502 33.1913 23.972 32.1097 22.8904C31.028 21.8087 29.6498 21.072 28.1495 20.7736C26.6492 20.4752 25.0941 20.6284 23.6808 21.2137C22.2675 21.7991 21.0596 22.7905 20.2097 24.0624C19.3599 25.3343 18.9062 26.8297 18.9062 28.3594C18.9085 30.41 19.7241 32.3759 21.1741 33.8259C22.6241 35.2759 24.59 36.0915 26.6406 36.0938ZM26.6406 22.3438C27.8304 22.3438 28.9935 22.6966 29.9827 23.3576C30.972 24.0186 31.743 24.9581 32.1983 26.0573C32.6536 27.1565 32.7728 28.3661 32.5407 29.533C32.3085 30.6999 31.7356 31.7718 30.8943 32.6131C30.053 33.4544 28.9811 34.0273 27.8142 34.2594C26.6473 34.4915 25.4378 34.3724 24.3385 33.9171C23.2393 33.4618 22.2998 32.6907 21.6388 31.7015C20.9778 30.7122 20.625 29.5492 20.625 28.3594C20.627 26.7646 21.2615 25.2357 22.3892 24.108C23.5169 22.9802 25.0458 22.3458 26.6406 22.3438Z" fill="white"/>
<path id="Vector_3" d="M45.5469 45.5469C46.4961 45.5469 47.2656 44.7774 47.2656 43.8281C47.2656 42.8789 46.4961 42.1094 45.5469 42.1094C44.5976 42.1094 43.8281 42.8789 43.8281 43.8281C43.8281 44.7774 44.5976 45.5469 45.5469 45.5469Z" fill="white"/>
<path id="Vector_4" d="M40.3906 45.5469C41.3399 45.5469 42.1094 44.7774 42.1094 43.8281C42.1094 42.8789 41.3399 42.1094 40.3906 42.1094C39.4414 42.1094 38.6719 42.8789 38.6719 43.8281C38.6719 44.7774 39.4414 45.5469 40.3906 45.5469Z" fill="white"/>
<path id="Vector_5" d="M35.2344 45.5469C36.1836 45.5469 36.9531 44.7774 36.9531 43.8281C36.9531 42.8789 36.1836 42.1094 35.2344 42.1094C34.2851 42.1094 33.5156 42.8789 33.5156 43.8281C33.5156 44.7774 34.2851 45.5469 35.2344 45.5469Z" fill="white"/>
<path id="Vector_6" d="M47.2656 38.6719H33.5156V40.3906H47.2656V38.6719Z" fill="white"/>
<path id="Vector_7" d="M42.9688 4.29688H39.5312C38.8475 4.29688 38.1917 4.5685 37.7082 5.05199C37.2247 5.53548 36.9531 6.19124 36.9531 6.875C36.9531 7.55876 37.2247 8.21452 37.7082 8.69801C38.1917 9.1815 38.8475 9.45312 39.5312 9.45312H42.9688C43.6525 9.45312 44.3083 9.1815 44.7918 8.69801C45.2753 8.21452 45.5469 7.55876 45.5469 6.875C45.5469 6.19124 45.2753 5.53548 44.7918 5.05199C44.3083 4.5685 43.6525 4.29688 42.9688 4.29688ZM42.9688 7.73438H39.5312C39.3033 7.73438 39.0847 7.64383 38.9236 7.48267C38.7624 7.32151 38.6719 7.10292 38.6719 6.875C38.6719 6.64708 38.7624 6.42849 38.9236 6.26733C39.0847 6.10617 39.3033 6.01562 39.5312 6.01562H42.9688C43.1967 6.01562 43.4153 6.10617 43.5764 6.26733C43.7376 6.42849 43.8281 6.64708 43.8281 6.875C43.8281 7.10292 43.7376 7.32151 43.5764 7.48267C43.4153 7.64383 43.1967 7.73438 42.9688 7.73438Z" fill="white"/>
</g>
<defs>
<clipPath id="clip0_1239_371">
<rect width="55" height="55" fill="white"/>
</clipPath>
</defs>
</svg>
