<svg width="55" height="55" viewBox="0 0 55 55" fill="none" xmlns="http://www.w3.org/2000/svg">
<g id="Frame" clip-path="url(#clip0_1232_831)">
<path id="Vector" d="M6.33363 20.1464C6.49057 20.3033 6.6966 20.3822 6.90263 20.3822C7.10866 20.3822 7.3147 20.3038 7.47205 20.1464C7.78635 19.8321 7.78635 19.3223 7.47205 19.008L5.51747 17.0534L7.47205 15.0992C7.78635 14.7845 7.78635 14.2751 7.47205 13.9608C7.15776 13.6465 6.64792 13.6465 6.33363 13.9608L3.81004 16.4844C3.65898 16.6355 3.57422 16.8402 3.57422 17.0534C3.57422 17.267 3.65898 17.4718 3.81004 17.6228L6.33363 20.1464Z" fill="white"/>
<path id="Vector_2" d="M14.3211 17.0538L12.3665 19.0084C12.0522 19.3227 12.0522 19.8325 12.3669 20.1468C12.5239 20.3038 12.7299 20.3827 12.9359 20.3827C13.142 20.3827 13.348 20.3038 13.505 20.1468L16.029 17.6228C16.3433 17.3085 16.3433 16.7987 16.029 16.4848L13.505 13.9608C13.1907 13.6465 12.6812 13.6465 12.3669 13.9608C12.0522 14.2755 12.0522 14.7849 12.3669 15.0992L14.3211 17.0538Z" fill="white"/>
<path id="Vector_3" d="M8.71974 20.3265C8.81625 20.3643 8.91612 20.3824 9.01389 20.3824C9.33532 20.3824 9.6387 20.1885 9.76333 19.8717L11.746 14.8241C11.9088 14.4103 11.7049 13.9433 11.2912 13.7805C10.8778 13.6181 10.4104 13.8216 10.248 14.2354L8.26487 19.283C8.10248 19.6967 8.30599 20.1642 8.71974 20.3265Z" fill="white"/>
<path id="Vector_4" d="M4.8351 25.1047H10.2578C10.7022 25.1047 11.0627 24.7443 11.0627 24.2995C11.0627 23.8551 10.7022 23.4946 10.2578 23.4946H4.8351C4.39031 23.4946 4.03027 23.8551 4.03027 24.2995C4.03027 24.7443 4.39031 25.1047 4.8351 25.1047Z" fill="white"/>
<path id="Vector_5" d="M22.7468 23.4946H13.213C12.7687 23.4946 12.4082 23.8551 12.4082 24.2995C12.4082 24.7443 12.7687 25.1047 13.213 25.1047H22.7468C23.1916 25.1047 23.552 24.7443 23.552 24.2995C23.552 23.8551 23.1916 23.4946 22.7468 23.4946Z" fill="white"/>
<path id="Vector_6" d="M4.8351 28.4997H7.1451C7.58948 28.4997 7.94993 28.1393 7.94993 27.6945C7.94993 27.2501 7.58948 26.8896 7.1451 26.8896H4.8351C4.39031 26.8896 4.03027 27.2501 4.03027 27.6945C4.03027 28.1393 4.39031 28.4997 4.8351 28.4997Z" fill="white"/>
<path id="Vector_7" d="M19.8019 26.8896C19.3571 26.8896 18.9971 27.2501 18.9971 27.6945C18.9971 28.1393 19.3571 28.4997 19.8019 28.4997H21.2085C21.6533 28.4997 22.0137 28.1393 22.0137 27.6945C22.0137 27.2501 21.6533 26.8896 21.2085 26.8896H19.8019Z" fill="white"/>
<path id="Vector_8" d="M17.6832 27.6945C17.6832 27.2501 17.3227 26.8896 16.8783 26.8896H9.96889C9.52409 26.8896 9.16406 27.2501 9.16406 27.6945C9.16406 28.1393 9.52409 28.4997 9.96889 28.4997H16.8783C17.3227 28.4997 17.6832 28.1393 17.6832 27.6945Z" fill="white"/>
<path id="Vector_9" d="M22.9561 27.6945C22.9561 28.1393 23.3165 28.4997 23.7609 28.4997H26.3957C26.8405 28.4997 27.2009 28.1393 27.2009 27.6945C27.2009 27.2501 26.8405 26.8896 26.3957 26.8896H23.7609C23.3165 26.8896 22.9561 27.2501 22.9561 27.6945Z" fill="white"/>
<path id="Vector_10" d="M18.5728 17.6994H21.352C21.7968 17.6994 22.1572 17.339 22.1572 16.8942C22.1572 16.4498 21.7968 16.0894 21.352 16.0894H18.5728C18.128 16.0894 17.7676 16.4498 17.7676 16.8942C17.7676 17.339 18.128 17.6994 18.5728 17.6994Z" fill="white"/>
<path id="Vector_11" d="M24.4644 17.6994H41.4216C41.8664 17.6994 42.2265 17.339 42.2265 16.8942C42.2265 16.4498 41.8664 16.0894 41.4216 16.0894H24.4644C24.0196 16.0894 23.6592 16.4498 23.6592 16.8942C23.6592 17.339 24.0196 17.6994 24.4644 17.6994Z" fill="white"/>
<path id="Vector_12" d="M38.8459 19.6309H31.9767C31.5323 19.6309 31.1719 19.9913 31.1719 20.4361C31.1719 20.8805 31.5323 21.2409 31.9767 21.2409H38.8459C39.2902 21.2409 39.6507 20.8805 39.6507 20.4361C39.6507 19.9913 39.2902 19.6309 38.8459 19.6309Z" fill="white"/>
<path id="Vector_13" d="M29.4014 19.6309H27.0402C26.5954 19.6309 26.2354 19.9913 26.2354 20.4361C26.2354 20.8805 26.5954 21.2409 27.0402 21.2409H29.4014C29.8462 21.2409 30.2062 20.8805 30.2062 20.4361C30.2062 19.9913 29.8462 19.6309 29.4014 19.6309Z" fill="white"/>
<path id="Vector_14" d="M18.5728 21.2409H24.3573C24.8016 21.2409 25.1621 20.8805 25.1621 20.4361C25.1621 19.9913 24.8016 19.6309 24.3573 19.6309H18.5728C18.128 19.6309 17.7676 19.9913 17.7676 20.4361C17.7676 20.8805 18.128 21.2409 18.5728 21.2409Z" fill="white"/>
<path id="Vector_15" d="M16.8887 30.2563H11.4664C11.0216 30.2563 10.6611 30.6168 10.6611 31.0612C10.6611 31.5056 11.0216 31.866 11.4664 31.866H16.8887C17.3331 31.866 17.6935 31.5056 17.6935 31.0612C17.6935 30.6168 17.3331 30.2563 16.8887 30.2563Z" fill="white"/>
<path id="Vector_16" d="M9.00107 30.2563H4.8351C4.39031 30.2563 4.03027 30.6168 4.03027 31.0612C4.03027 31.5056 4.39031 31.866 4.8351 31.866H9.00107C9.44587 31.866 9.8059 31.5056 9.8059 31.0612C9.8059 30.6168 9.44587 30.2563 9.00107 30.2563Z" fill="white"/>
<path id="Vector_17" d="M26.7185 30.2563H19.6349C19.1901 30.2563 18.8301 30.6168 18.8301 31.0612C18.8301 31.5056 19.1901 31.866 19.6349 31.866H26.7185C27.1629 31.866 27.5233 31.5056 27.5233 31.0612C27.5233 30.6168 27.1629 30.2563 26.7185 30.2563Z" fill="white"/>
<path id="Vector_18" d="M36.2975 26.1216H32.424C31.9796 26.1216 31.6191 26.482 31.6191 26.9264C31.6191 27.3712 31.9796 27.7317 32.424 27.7317H36.2975C36.7423 27.7317 37.1023 27.3712 37.1023 26.9264C37.1023 26.482 36.7423 26.1216 36.2975 26.1216Z" fill="white"/>
<path id="Vector_19" d="M43.0197 27.7317H48.4877C48.9325 27.7317 49.293 27.3712 49.293 26.9264C49.293 26.482 48.9325 26.1216 48.4877 26.1216H43.0197C42.5749 26.1216 42.2148 26.482 42.2148 26.9264C42.2148 27.3712 42.5753 27.7317 43.0197 27.7317Z" fill="white"/>
<path id="Vector_20" d="M40.2848 26.1216H39.0318C38.587 26.1216 38.2266 26.482 38.2266 26.9264C38.2266 27.3712 38.587 27.7317 39.0318 27.7317H40.2848C40.7296 27.7317 41.0896 27.3712 41.0896 26.9264C41.0896 26.482 40.7296 26.1216 40.2848 26.1216Z" fill="white"/>
<path id="Vector_21" d="M32.424 36.5032H36.2975C36.7423 36.5032 37.1023 36.1432 37.1023 35.6984C37.1023 35.254 36.7423 34.8936 36.2975 34.8936H32.424C31.9796 34.8936 31.6191 35.254 31.6191 35.6984C31.6191 36.1432 31.9796 36.5032 32.424 36.5032Z" fill="white"/>
<path id="Vector_22" d="M43.0197 36.5032H48.4877C48.9325 36.5032 49.293 36.1432 49.293 35.6984C49.293 35.254 48.9325 34.8936 48.4877 34.8936H43.0197C42.5749 34.8936 42.2148 35.254 42.2148 35.6984C42.2148 36.1432 42.5753 36.5032 43.0197 36.5032Z" fill="white"/>
<path id="Vector_23" d="M39.0324 36.5032H40.2853C40.7301 36.5032 41.0906 36.1432 41.0906 35.6984C41.0906 35.254 40.7301 34.8936 40.2853 34.8936H39.0324C38.5876 34.8936 38.2275 35.254 38.2275 35.6984C38.2275 36.1432 38.5876 36.5032 39.0324 36.5032Z" fill="white"/>
<path id="Vector_24" d="M36.2975 43.666H32.424C31.9796 43.666 31.6191 44.0265 31.6191 44.4708C31.6191 44.9152 31.9796 45.2757 32.424 45.2757H36.2975C36.7423 45.2757 37.1023 44.9152 37.1023 44.4708C37.1023 44.0265 36.7423 43.666 36.2975 43.666Z" fill="white"/>
<path id="Vector_25" d="M48.4877 43.666H43.0197C42.5749 43.666 42.2148 44.0265 42.2148 44.4708C42.2148 44.9152 42.5749 45.2757 43.0197 45.2757H48.4877C48.9325 45.2757 49.293 44.9152 49.293 44.4708C49.293 44.0265 48.9325 43.666 48.4877 43.666Z" fill="white"/>
<path id="Vector_26" d="M40.2848 43.666H39.0318C38.587 43.666 38.2266 44.0265 38.2266 44.4708C38.2266 44.9152 38.587 45.2757 39.0318 45.2757H40.2848C40.7296 45.2757 41.0896 44.9152 41.0896 44.4708C41.0896 44.0265 40.7296 43.666 40.2848 43.666Z" fill="white"/>
<path id="Vector_27" d="M51.4578 0.107422H3.54284C1.58951 0.107422 0 1.69652 0 3.65026V42.598C0 44.5513 1.58951 46.1404 3.54284 46.1404H6.57206C7.01644 46.1404 7.37689 45.7804 7.37689 45.3356C7.37689 44.8912 7.01644 44.5307 6.57206 44.5307H3.54284C2.47701 44.5307 1.61008 43.6638 1.61008 42.598V39.5444H30.9359V40.9317H30.2977C29.4245 40.9317 28.7145 41.6417 28.7145 42.5149V44.5307H11.4661C11.0217 44.5307 10.6612 44.8912 10.6612 45.3356C10.6612 45.7804 11.0217 46.1404 11.4661 46.1404H19.2055V49.0274H16.7751C15.1537 49.0274 13.8348 50.3466 13.8348 51.9676V53.7065C13.8348 54.4463 14.4366 55.048 15.1763 55.048H39.7626C40.5024 55.048 41.1041 54.4463 41.1041 53.7065V51.9676C41.1041 50.3466 39.7853 49.0274 38.1639 49.0274H35.7334V48.0098H50.6144C51.4872 48.0098 52.1972 47.2998 52.1972 46.4266V46.0477C53.7661 45.6834 54.939 44.2756 54.939 42.598L54.9998 3.64984C55.0002 1.69652 53.4111 0.107422 51.4578 0.107422ZM30.3246 37.628V33.7696H50.5875V37.628H30.3246ZM32.5456 32.1595V30.466H48.3661V32.1595H32.5456ZM48.3661 39.2377V40.9317H32.5456V39.2377H48.3661ZM20.8152 46.1404H28.7145V46.427C28.7145 47.2998 29.4245 48.0098 30.2977 48.0098H34.1238V49.0274H20.8152V46.1404ZM38.1643 50.6374C38.8978 50.6374 39.4945 51.2341 39.4945 51.9676V53.4384H15.4445V51.9676C15.4445 51.2341 16.0416 50.6374 16.7751 50.6374H38.1643ZM50.5875 46.3997H30.3246V42.5417H50.5875V46.3997ZM53.3293 42.598C53.3293 43.3776 52.8644 44.0494 52.1976 44.3545V42.5145C52.1976 41.6417 51.4872 40.9317 50.6144 40.9317H49.9761V39.5444H53.3293V42.598ZM53.3293 37.9348H52.1712C52.1875 37.8437 52.1976 33.7428 52.1976 33.7428C52.1976 32.8695 51.4872 32.1595 50.6144 32.1595H49.9761V30.466H50.6144C51.4872 30.466 52.1976 29.7556 52.1976 28.8827V24.9706C52.1976 24.0978 51.4872 23.3874 50.6144 23.3874H46.0678C45.623 23.3874 45.263 23.7479 45.263 24.1927C45.263 24.6371 45.623 24.9975 46.0678 24.9975H50.5875V28.8559H30.3246V24.9975H41.0592C41.504 24.9975 41.8641 24.6371 41.8641 24.1927C41.8641 23.7479 41.504 23.3874 41.0592 23.3874H30.2977C29.4245 23.3874 28.7145 24.0978 28.7145 24.9706V28.8827C28.7145 29.7556 29.4245 30.466 30.2977 30.466H30.9359V32.1595H30.2977C29.4245 32.1595 28.7145 32.87 28.7145 33.7428C28.7145 33.7428 28.7246 37.8437 28.7409 37.9348H1.61008V11.0569H53.3293V37.9348ZM53.3293 9.44687H1.66924V3.64984C1.66924 2.58443 2.53617 1.7175 3.602 1.7175H51.3965C52.4624 1.7175 53.3293 2.58443 53.3293 3.65026V9.44687Z" fill="white"/>
<path id="Vector_28" d="M5.93625 3.19678C4.63376 3.19678 3.57422 4.25631 3.57422 5.55881C3.57422 6.8613 4.63376 7.92126 5.93625 7.92126C7.23875 7.92126 8.2987 6.8613 8.2987 5.55881C8.2987 4.25631 7.23875 3.19678 5.93625 3.19678ZM5.93625 6.31118C5.52167 6.31118 5.18387 5.97381 5.18387 5.55881C5.18387 5.14423 5.52167 4.80643 5.93625 4.80643C6.35125 4.80643 6.68863 5.14423 6.68863 5.55881C6.68863 5.97381 6.35125 6.31118 5.93625 6.31118Z" fill="white"/>
<path id="Vector_29" d="M11.9503 3.19678C10.6478 3.19678 9.58789 4.25631 9.58789 5.55881C9.58789 6.8613 10.6478 7.92126 11.9503 7.92126C13.2528 7.92126 14.3124 6.8613 14.3124 5.55881C14.3124 4.25631 13.2524 3.19678 11.9503 3.19678ZM11.9503 6.31118C11.5353 6.31118 11.198 5.97381 11.198 5.55881C11.198 5.14423 11.5353 4.80643 11.9503 4.80643C12.3649 4.80643 12.7027 5.14423 12.7027 5.55881C12.7027 5.97381 12.3649 6.31118 11.9503 6.31118Z" fill="white"/>
<path id="Vector_30" d="M17.9646 3.19678C16.6621 3.19678 15.6025 4.25631 15.6025 5.55881C15.6025 6.8613 16.6621 7.92126 17.9646 7.92126C19.2671 7.92126 20.327 6.8613 20.327 5.55881C20.327 4.25631 19.2671 3.19678 17.9646 3.19678ZM17.9646 6.31118C17.55 6.31118 17.2122 5.97381 17.2122 5.55881C17.2122 5.14423 17.55 4.80643 17.9646 4.80643C18.3796 4.80643 18.7169 5.14423 18.7169 5.55881C18.7169 5.97381 18.3796 6.31118 17.9646 6.31118Z" fill="white"/>
</g>
<defs>
<clipPath id="clip0_1232_831">
<rect width="55" height="55" fill="white"/>
</clipPath>
</defs>
</svg>
