<svg width="55" height="55" viewBox="0 0 55 55" fill="none" xmlns="http://www.w3.org/2000/svg">
<g id="a" clip-path="url(#clip0_1232_664)">
<path id="Vector" d="M6.41699 14.6665H35.7503C37.2665 14.6665 38.5003 13.4327 38.5003 11.9165V6.4165C38.5003 4.90034 37.2665 3.6665 35.7503 3.6665H6.41699C4.90083 3.6665 3.66699 4.90034 3.66699 6.4165V11.9165C3.66699 13.4327 4.90083 14.6665 6.41699 14.6665ZM5.50033 6.4165C5.50033 5.91142 5.91099 5.49984 6.41699 5.49984H35.7503C36.2563 5.49984 36.667 5.91142 36.667 6.4165V11.9165C36.667 12.4216 36.2563 12.8332 35.7503 12.8332H6.41699C5.91099 12.8332 5.50033 12.4216 5.50033 11.9165V6.4165Z" fill="white"/>
<path id="Vector_2" d="M4.58366 19.2498H26.5837C27.0906 19.2498 27.5003 18.8392 27.5003 18.3332C27.5003 17.8272 27.0906 17.4165 26.5837 17.4165H4.58366C4.07674 17.4165 3.66699 17.8272 3.66699 18.3332C3.66699 18.8392 4.07674 19.2498 4.58366 19.2498Z" fill="white"/>
<path id="Vector_3" d="M37.583 17.4165H30.2497C29.7428 17.4165 29.333 17.8272 29.333 18.3332C29.333 18.8392 29.7428 19.2498 30.2497 19.2498H37.583C38.0899 19.2498 38.4997 18.8392 38.4997 18.3332C38.4997 17.8272 38.0899 17.4165 37.583 17.4165Z" fill="white"/>
<path id="Vector_4" d="M4.58366 22.9168H11.0003C11.5072 22.9168 11.917 22.5062 11.917 22.0002C11.917 21.4942 11.5072 21.0835 11.0003 21.0835H4.58366C4.07674 21.0835 3.66699 21.4942 3.66699 22.0002C3.66699 22.5062 4.07674 22.9168 4.58366 22.9168Z" fill="white"/>
<path id="Vector_5" d="M37.5833 21.0835H14.6667C14.1598 21.0835 13.75 21.4942 13.75 22.0002C13.75 22.5062 14.1598 22.9168 14.6667 22.9168H37.5833C38.0903 22.9168 38.5 22.5062 38.5 22.0002C38.5 21.4942 38.0903 21.0835 37.5833 21.0835Z" fill="white"/>
<path id="Vector_6" d="M22.0003 47.6665H4.58366C4.07674 47.6665 3.66699 48.0772 3.66699 48.5832C3.66699 49.0892 4.07674 49.4998 4.58366 49.4998H22.0003C22.5072 49.4998 22.917 49.0892 22.917 48.5832C22.917 48.0772 22.5072 47.6665 22.0003 47.6665Z" fill="white"/>
<path id="Vector_7" d="M6.41699 42.1665H17.417C18.9332 42.1665 20.167 40.9327 20.167 39.4165V28.4165C20.167 26.9003 18.9332 25.6665 17.417 25.6665H6.41699C4.90083 25.6665 3.66699 26.9003 3.66699 28.4165V39.4165C3.66699 40.9327 4.90083 42.1665 6.41699 42.1665ZM5.50033 28.4165C5.50033 27.9114 5.91099 27.4998 6.41699 27.4998H13.7503V32.0832C13.7503 32.5892 14.1601 32.9998 14.667 32.9998C15.1739 32.9998 15.5837 32.5892 15.5837 32.0832V27.4998H17.417C17.923 27.4998 18.3337 27.9114 18.3337 28.4165V39.4165C18.3337 39.9216 17.923 40.3332 17.417 40.3332H6.41699C5.91099 40.3332 5.50033 39.9216 5.50033 39.4165V28.4165Z" fill="white"/>
<path id="Vector_8" d="M27.4999 36.6666C27.7346 36.6666 27.9692 36.5767 28.148 36.398L36.398 28.148C36.7564 27.7896 36.7564 27.2102 36.398 26.8518C36.0396 26.4934 35.4602 26.4934 35.1018 26.8518L27.4999 34.4537L25.398 32.3518C25.0396 31.9934 24.4602 31.9934 24.1018 32.3518C23.7434 32.7102 23.7434 33.2896 24.1018 33.648L26.8518 36.398C27.0306 36.5767 27.2652 36.6666 27.4999 36.6666Z" fill="white"/>
<path id="Vector_9" d="M50.4167 20.0173C49.192 20.0173 48.0407 20.4948 47.1763 21.3602L42.1667 26.3688V2.75C42.1667 1.23383 40.9328 0 39.4167 0H2.75C1.23383 0 0 1.23383 0 2.75V52.25C0 53.7662 1.23383 55 2.75 55H39.4167C40.9328 55 42.1667 53.7662 42.1667 52.25V38.0362L44.7618 35.4402C44.9139 35.4805 45.0688 35.508 45.2302 35.508C45.7206 35.508 46.1808 35.3173 46.5263 34.9718L53.6562 27.8419C54.5215 26.9766 54.9991 25.8253 54.9991 24.6006C54.9991 23.3759 54.5215 22.2255 53.6562 21.3602C52.7918 20.4948 51.6413 20.0173 50.4167 20.0173ZM40.3333 52.25C40.3333 52.7551 39.9227 53.1667 39.4167 53.1667H2.75C2.244 53.1667 1.83333 52.7551 1.83333 52.25V2.75C1.83333 2.24492 2.244 1.83333 2.75 1.83333H39.4167C39.9227 1.83333 40.3333 2.24492 40.3333 2.75V28.2022L40.0464 28.4891C39.5688 28.9667 39.4176 29.6432 39.578 30.2537L28.4286 41.4031C28.0766 41.7551 27.8034 42.1685 27.6164 42.6342L26.0288 46.6052C25.8793 46.9792 25.8711 47.3788 25.9692 47.7519L25.7858 47.9352C25.4274 48.2937 25.4274 48.873 25.7858 49.2314C25.9646 49.4102 26.1993 49.5 26.4339 49.5C26.6686 49.5 26.9033 49.4102 27.082 49.2314L27.2617 49.0518C27.4148 49.0921 27.5706 49.1205 27.7301 49.1205C27.9592 49.1205 28.1903 49.0774 28.4112 48.9885L32.3822 47.4008C32.846 47.2157 33.2603 46.9425 33.6142 46.5887L40.3333 39.8695V52.25ZM32.318 45.2925C32.142 45.4685 31.9339 45.6051 31.702 45.6977L27.731 47.2863L29.3178 43.3153C29.4122 43.0824 29.5478 42.8753 29.7238 42.6993L40.6936 31.7304L41.9897 33.0266L43.2859 34.3228L32.3171 45.2916L32.318 45.2925ZM52.3609 26.5448L45.232 33.6756L41.3435 29.7853L48.4733 22.6554C49.5119 21.6159 51.3233 21.6159 52.3618 22.6554C52.8807 23.1752 53.1676 23.8654 53.1676 24.5997C53.1676 25.3339 52.8816 26.0251 52.3618 26.5448H52.3609Z" fill="white"/>
</g>
<defs>
<clipPath id="clip0_1232_664">
<rect width="55" height="55" fill="white"/>
</clipPath>
</defs>
</svg>
