<svg xmlns="http://www.w3.org/2000/svg" width="20" height="20" fill="none" viewBox="0 0 20 20"><g stroke="currentColor" stroke-linecap="round" stroke-linejoin="round" stroke-width="1.66667"><path d="M10 6.667c4.142 0 7.5-1.12 7.5-2.5 0-1.381-3.358-2.5-7.5-2.5s-7.5 1.119-7.5 2.5c0 1.38 3.358 2.5 7.5 2.5"/><path d="M2.5 4.167v11.666c0 .663.79 1.3 2.197 1.768 1.406.469 3.314.732 5.303.732 1.99 0 3.897-.263 5.303-.732s2.197-1.105 2.197-1.768V4.167"/><path d="M2.5 10c0 .663.79 1.299 2.197 1.768 1.406.469 3.314.732 5.303.732 1.99 0 3.897-.263 5.303-.732C16.71 11.298 17.5 10.663 17.5 10"/></g></svg>