<svg width="55" height="55" viewBox="0 0 55 55" fill="none" xmlns="http://www.w3.org/2000/svg">
<g id="Frame" clip-path="url(#clip0_1227_431)">
<path id="Vector" d="M32.6533 3.4624H34.3712V5.18032H32.6533V3.4624Z" fill="white"/>
<path id="Vector_2" d="M20.6279 3.4624H22.3458V5.18032H20.6279V3.4624Z" fill="white"/>
<path id="Vector_3" d="M24.0635 3.4624H30.9352V5.18032H24.0635V3.4624Z" fill="white"/>
<path id="Vector_4" d="M27.4997 51.5644C28.9228 51.5644 30.0766 50.4106 30.0766 48.9875C30.0766 47.564 28.9228 46.4106 27.4997 46.4106C26.0762 46.4106 24.9229 47.564 24.9229 48.9875C24.9229 50.4106 26.0762 51.5644 27.4997 51.5644ZM27.4997 48.1286C27.9741 48.1286 28.3587 48.5132 28.3587 48.9875C28.3587 49.4619 27.9741 49.8465 27.4997 49.8465C27.0254 49.8465 26.6408 49.4619 26.6408 48.9875C26.6408 48.5132 27.0254 48.1286 27.4997 48.1286Z" fill="white"/>
<path id="Vector_5" d="M42.102 17.206H48.4704L51.0473 14.6292H54.9864V12.9112H50.3359L47.7591 15.4881H43.9692L47.8304 10.9828C48.1965 11.1183 48.5832 11.1891 48.9737 11.1933C50.6136 11.2114 52.043 10.0802 52.402 8.48014C52.7614 6.88008 51.9528 5.24646 50.4626 4.56156C48.972 3.87707 47.2063 4.32752 46.2261 5.64281C45.2459 6.95767 45.3189 8.77876 46.401 10.0114L42.961 14.0277V2.60373C42.961 1.18024 41.8072 0.0268555 40.3841 0.0268555H14.6153C13.1918 0.0268555 12.0384 1.18024 12.0384 2.60373V13.4145L8.95826 10.3344H6.76263C6.33021 8.65881 4.71924 7.56666 3.003 7.78475C1.28634 8.00285 0 9.46283 0 11.1933C0 12.9234 1.28634 14.3838 3.003 14.6015C4.71924 14.8196 6.33021 13.7274 6.76263 12.0523H8.24693L12.5417 16.3471H15.0834L14.8418 16.5882L16.5048 20.092L16.2774 20.6419H9.81722L6.38138 17.206H0.0130019V18.924H5.67005L9.10589 22.3598H14.8384L12.0384 23.3551V25.7956H0.0130019V27.5136H7.05622L3.83176 32.6673H0.0130019V34.3852H4.78341L9.07821 27.5136H12.0384V28.2358L15.6932 29.5355L16.5048 31.4988L15.9516 32.6673H10.7567L6.56005 38.1226C6.12176 37.9247 5.64699 37.8219 5.16676 37.8211C3.26891 37.8211 1.73092 39.3591 1.73092 41.2569C1.73092 43.1543 3.26891 44.6927 5.16676 44.6927C7.06419 44.6927 8.6026 43.1543 8.6026 41.2569C8.6005 40.5112 8.35346 39.7869 7.89966 39.1955L11.6018 34.3852H12.0384V52.4234C12.0384 53.8464 13.1918 55.0003 14.6153 55.0003H40.3841C41.8072 55.0003 42.961 53.8464 42.961 52.4234V40.684L45.9673 44.6927H54.9864V42.9748H46.8263L41.6725 36.1031H39.0571L40.1572 35.0026L38.6393 31.8084H42.5185L46.8133 37.8211H54.9864V36.1031H47.6978L44.6298 31.8084H48.2376C48.67 33.4835 50.2806 34.5756 51.9972 34.3575C53.7135 34.1399 54.9998 32.6795 54.9998 30.9494C54.9998 29.2189 53.7135 27.7589 51.9972 27.5408C50.2806 27.3227 48.67 28.4149 48.2376 30.0904H39.0759L39.3058 29.5355L42.961 28.2358V23.3551L40.1605 22.3598H54.9864V20.6419H38.7203L38.4925 20.092L39.8686 17.206H42.102ZM48.9737 6.03957C49.9224 6.03957 50.6916 6.80878 50.6916 7.75749C50.6916 8.7062 49.9224 9.47541 48.9737 9.47541C48.025 9.47541 47.2558 8.7062 47.2558 7.75749C47.2558 6.80878 48.025 6.03957 48.9737 6.03957ZM3.44884 12.9112C2.50013 12.9112 1.73092 12.142 1.73092 11.1933C1.73092 10.2446 2.50013 9.47541 3.44884 9.47541C4.39755 9.47541 5.16676 10.2446 5.16676 11.1933C5.16676 12.142 4.39755 12.9112 3.44884 12.9112ZM5.16676 42.9748C4.21804 42.9748 3.44884 42.2056 3.44884 41.2569C3.44884 40.3082 4.21804 39.539 5.16676 39.539C6.11547 39.539 6.88468 40.3082 6.88468 41.2569C6.88468 42.2056 6.11547 42.9748 5.16676 42.9748ZM51.5506 29.2315C52.4993 29.2315 53.2685 30.0007 53.2685 30.9494C53.2685 31.8981 52.4993 32.6673 51.5506 32.6673C50.6018 32.6673 49.8326 31.8981 49.8326 30.9494C49.8326 30.0007 50.6018 29.2315 51.5506 29.2315ZM13.7564 2.60373C13.7564 2.12938 14.141 1.74477 14.6153 1.74477H40.3841C40.8584 1.74477 41.2431 2.12938 41.2431 2.60373V6.89853H13.7564V2.60373ZM41.2431 52.4234C41.2431 52.8977 40.8584 53.2823 40.3841 53.2823H14.6153C14.141 53.2823 13.7564 52.8977 13.7564 52.4234V44.6927H41.2431V52.4234ZM40.8136 37.8211L41.2431 38.394V42.9748H13.7564V34.3852H15.135L14.8418 35.0026L18.2923 38.4531L21.7953 36.7901L23.7598 37.6038L25.06 41.2569H29.939L31.2396 37.6017L33.2037 36.7885L36.7067 38.4531L37.3777 37.7825V37.8211H40.8136ZM41.2431 24.568V27.0228L38.0106 28.1733L36.6131 31.5504L38.0853 34.6427L36.3468 36.3812L33.2545 34.9091L29.8799 36.3066L28.7269 39.539H26.2721L25.1229 36.3066L21.7445 34.9091L18.6522 36.3812L16.9137 34.6427L18.3858 31.5504L16.9884 28.1766L13.7564 27.0228V24.568L16.9884 23.418L18.3858 20.0404L16.9137 16.9481L18.6522 15.2096L21.7445 16.6818L25.1195 15.2843L26.2721 12.0523H28.7269L29.8765 15.2843L33.2545 16.6818L36.3468 15.2096L38.0853 16.9481L36.6131 20.0404L38.0106 23.4146L41.2431 24.568ZM36.7067 13.1377L33.2037 14.8007L31.2396 13.9875L29.939 10.3344H25.06L23.7598 13.9891L21.7953 14.8024L18.2923 13.1377L16.8013 14.6292H13.7564V8.61645H41.2431V15.4881H39.0571L36.7067 13.1377Z" fill="white"/>
<path id="Vector_6" d="M27.5002 18.0649C23.2305 18.0649 19.7695 21.5259 19.7695 25.7956C19.7695 30.0648 23.2305 33.5262 27.5002 33.5262C31.7694 33.5262 35.2308 30.0648 35.2308 25.7956C35.2258 21.528 31.7677 18.0696 27.5002 18.0649ZM27.5002 31.8083C24.1792 31.8083 21.4875 29.1161 21.4875 25.7956C21.4875 22.4747 24.1792 19.7829 27.5002 19.7829C30.8207 19.7829 33.5129 22.4747 33.5129 25.7956C33.5091 29.1148 30.819 31.8045 27.5002 31.8083Z" fill="white"/>
<path id="Vector_7" d="M27.4993 22.3599C25.6015 22.3599 24.0635 23.8979 24.0635 25.7957C24.0635 27.6931 25.6015 29.2315 27.4993 29.2315C29.3967 29.2315 30.9352 27.6931 30.9352 25.7957C30.9352 23.8979 29.3967 22.3599 27.4993 22.3599ZM27.4993 27.5136C26.5506 27.5136 25.7814 26.7444 25.7814 25.7957C25.7814 24.847 26.5506 24.0778 27.4993 24.0778C28.448 24.0778 29.2172 24.847 29.2172 25.7957C29.2172 26.7444 28.448 27.5136 27.4993 27.5136Z" fill="white"/>
</g>
<defs>
<clipPath id="clip0_1227_431">
<rect width="55" height="55" fill="white"/>
</clipPath>
</defs>
</svg>
