<svg width="55" height="55" viewBox="0 0 55 55" fill="none" xmlns="http://www.w3.org/2000/svg">
<g id="Capa_1" clip-path="url(#clip0_1227_439)">
<g id="Group">
<g id="Group_2">
<g id="Group_3">
<g id="Group_4">
<g id="Group_5">
<g id="Group_6">
<g id="Group_7">
<path id="Vector" fill-rule="evenodd" clip-rule="evenodd" d="M20.6795 30.9073C20.593 30.9073 20.5035 30.8923 20.4184 30.8684L16.6867 29.6717C16.236 29.5285 15.9854 29.0451 16.1316 28.59C16.2748 28.1393 16.7582 27.8887 17.2133 28.0349L20.9451 29.227C21.3957 29.3703 21.6463 29.8537 21.5002 30.3088C21.3808 30.6745 21.0407 30.9073 20.6795 30.9073Z" fill="white"/>
</g>
</g>
<g id="Group_8">
<g id="Group_9">
<path id="Vector_2" fill-rule="evenodd" clip-rule="evenodd" d="M37.4106 15.003C36.9346 15.003 36.5511 14.6195 36.5511 14.1435V2.04267H1.64365C1.16769 2.04267 0.78418 1.65915 0.78418 1.1832C0.78418 0.707244 1.16769 0.32373 1.64365 0.32373H37.4106C37.8865 0.32373 38.2701 0.707244 38.2701 1.1832V14.1435C38.2699 14.6195 37.8835 15.003 37.4106 15.003Z" fill="white"/>
</g>
</g>
<g id="Group_10">
<g id="Group_11">
<path id="Vector_3" fill-rule="evenodd" clip-rule="evenodd" d="M37.4101 46.9857H26.7237C26.2478 46.9857 25.8643 46.6022 25.8643 46.1263C25.8643 45.6503 26.2478 45.2668 26.7237 45.2668H36.5507V33.442C36.5507 32.966 36.9342 32.5825 37.4101 32.5825C37.8861 32.5825 38.2696 32.966 38.2696 33.442V46.1263C38.2695 46.5978 37.8831 46.9857 37.4101 46.9857Z" fill="white"/>
</g>
</g>
<g id="Group_12">
<g id="Group_13">
<path id="Vector_4" fill-rule="evenodd" clip-rule="evenodd" d="M26.688 55C26.5984 55 26.5119 54.9851 26.4268 54.9612L1.38058 46.9427C1.02551 46.8278 0.782227 46.4982 0.782227 46.1221V1.18031C0.782227 0.904271 0.914999 0.646186 1.1373 0.48497C1.3596 0.323755 1.64612 0.277593 1.90724 0.359658L26.9535 8.3737C27.3086 8.48864 27.5519 8.8183 27.5519 9.19435V54.1361C27.5519 54.4122 27.4191 54.6703 27.1968 54.8315C27.0461 54.9419 26.867 55 26.688 55ZM2.50268 45.4998L25.83 52.9662V9.82849L2.50268 2.36197V45.4998Z" fill="white"/>
</g>
</g>
<g id="Group_14">
<g id="Group_15">
<g id="Group_16">
<g id="Group_17">
<path id="Vector_5" fill-rule="evenodd" clip-rule="evenodd" d="M49.2733 18.9464L31.3966 18.9284C30.9206 18.9284 30.5371 18.542 30.5371 18.0689C30.5371 17.5959 30.9235 17.2095 31.3966 17.2095L49.2688 17.2274C49.7448 17.2274 50.1283 17.6139 50.1283 18.0869C50.1328 18.5584 49.7464 18.9464 49.2733 18.9464Z" fill="white"/>
</g>
</g>
<g id="Group_18">
<g id="Group_19">
<path id="Vector_6" fill-rule="evenodd" clip-rule="evenodd" d="M51.3248 20.9757C49.7282 20.9757 48.4316 19.6761 48.4316 18.0826C48.4316 16.4891 49.7313 15.1895 51.3248 15.1895C52.9183 15.1895 54.2179 16.4891 54.2179 18.0826C54.2179 19.6761 52.9184 20.9757 51.3248 20.9757ZM51.3248 16.9054C50.6772 16.9054 50.1505 17.432 50.1505 18.0797C50.1505 18.7273 50.6771 19.254 51.3248 19.254C51.9724 19.254 52.4991 18.7273 52.4991 18.0797C52.4991 17.432 51.9738 16.9054 51.3248 16.9054Z" fill="white"/>
</g>
</g>
</g>
<g id="Group_20">
<g id="Group_21">
<g id="Group_22">
<path id="Vector_7" fill-rule="evenodd" clip-rule="evenodd" d="M49.2733 30.1251L31.3966 30.1071C30.9206 30.1071 30.5371 29.7207 30.5371 29.2477C30.5371 28.7746 30.9235 28.3882 31.3966 28.3882L49.2688 28.4061C49.7448 28.4061 50.1283 28.7926 50.1283 29.2656C50.1328 29.7386 49.7464 30.1251 49.2733 30.1251Z" fill="white"/>
</g>
</g>
<g id="Group_23">
<g id="Group_24">
<path id="Vector_8" fill-rule="evenodd" clip-rule="evenodd" d="M51.3248 32.1559C49.7282 32.1559 48.4316 30.8563 48.4316 29.2628C48.4316 27.6693 49.7313 26.3696 51.3248 26.3696C52.9183 26.3696 54.2179 27.6693 54.2179 29.2628C54.218 30.8563 52.9184 32.1559 51.3248 32.1559ZM51.3248 28.084C50.6772 28.084 50.1505 28.6107 50.1505 29.2583C50.1505 29.9059 50.6771 30.4327 51.3248 30.4327C51.9724 30.4327 52.4991 29.906 52.4991 29.2583C52.4991 28.6151 51.9738 28.084 51.3248 28.084Z" fill="white"/>
</g>
</g>
</g>
<g id="Group_25">
<g id="Group_26">
<g id="Group_27">
<path id="Vector_9" fill-rule="evenodd" clip-rule="evenodd" d="M44.3673 15.2074H31.3966C30.9206 15.2074 30.5371 14.8238 30.5371 14.3479C30.5371 13.8719 30.9206 13.4884 31.3966 13.4884H43.5079V4.92685C43.5079 4.4509 43.8914 4.06738 44.3674 4.06738C44.8434 4.06738 45.2269 4.4509 45.2269 4.92685V14.3479C45.2267 14.8208 44.8403 15.2074 44.3673 15.2074Z" fill="white"/>
</g>
</g>
<g id="Group_28">
<g id="Group_29">
<path id="Vector_10" fill-rule="evenodd" clip-rule="evenodd" d="M44.3678 5.78628C42.7712 5.78628 41.4746 4.48665 41.4746 2.89314C41.4746 1.29963 42.7742 0 44.3678 0C45.9643 0 47.2609 1.29963 47.2609 2.89314C47.2609 4.48665 45.9613 5.78628 44.3678 5.78628ZM44.3678 1.71439C43.7202 1.71439 43.1934 2.24105 43.1934 2.88871C43.1934 3.53637 43.7201 4.06303 44.3678 4.06303C45.0153 4.06303 45.5421 3.53637 45.5421 2.88871C45.5421 2.24105 45.0153 1.71439 44.3678 1.71439Z" fill="white"/>
</g>
</g>
</g>
<g id="Group_30">
<g id="Group_31">
<g id="Group_32">
<path id="Vector_11" fill-rule="evenodd" clip-rule="evenodd" d="M44.3673 43.2436C43.8913 43.2436 43.5078 42.8601 43.5078 42.3841V33.8225H31.3966C30.9206 33.8225 30.5371 33.4389 30.5371 32.963C30.5371 32.487 30.9206 32.1035 31.3966 32.1035H44.3673C44.8432 32.1035 45.2267 32.487 45.2267 32.963V42.384C45.2267 42.8601 44.8403 43.2436 44.3673 43.2436Z" fill="white"/>
</g>
</g>
<g id="Group_33">
<g id="Group_34">
<path id="Vector_12" fill-rule="evenodd" clip-rule="evenodd" d="M44.3678 47.3141C42.7712 47.3141 41.4746 46.0145 41.4746 44.421C41.4746 42.8275 42.7742 41.5278 44.3678 41.5278C45.9643 41.5278 47.2609 42.8275 47.2609 44.421C47.2609 46.0145 45.9613 47.3141 44.3678 47.3141ZM44.3678 43.2437C43.7202 43.2437 43.1934 43.7704 43.1934 44.4181C43.1934 45.0656 43.7201 45.5924 44.3678 45.5924C45.0153 45.5924 45.5421 45.0657 45.5421 44.4181C45.5421 43.7689 45.0153 43.2437 44.3678 43.2437Z" fill="white"/>
</g>
</g>
</g>
<g id="Group_35">
<g id="Group_36">
<path id="Vector_13" fill-rule="evenodd" clip-rule="evenodd" d="M46.3881 26.398L31.3985 26.3801C30.9226 26.3801 30.5391 25.9936 30.5391 25.5206C30.5391 25.0476 30.9255 24.6611 31.3985 24.6611L46.3881 24.6791C46.8641 24.6791 47.2476 25.0655 47.2476 25.5386C47.2476 26.0145 46.8596 26.398 46.3881 26.398Z" fill="white"/>
</g>
</g>
<g id="Group_37">
<g id="Group_38">
<path id="Vector_14" fill-rule="evenodd" clip-rule="evenodd" d="M46.3881 22.6709L31.3985 22.653C30.9226 22.653 30.5391 22.2666 30.5391 21.7936C30.5391 21.3205 30.9255 20.9341 31.3985 20.9341L46.3881 20.952C46.8641 20.952 47.2476 21.3385 47.2476 21.8115C47.2476 22.2875 46.8596 22.6709 46.3881 22.6709Z" fill="white"/>
</g>
</g>
</g>
</g>
</g>
</g>
</g>
</g>
</g>
<defs>
<clipPath id="clip0_1227_439">
<rect width="55" height="55" fill="white"/>
</clipPath>
</defs>
</svg>
