<svg xmlns="http://www.w3.org/2000/svg" xmlns:xlink="http://www.w3.org/1999/xlink" width="20" height="20" fill="none" viewBox="0 0 20 20"><path stroke="currentColor" stroke-linecap="round" stroke-linejoin="round" stroke-width="1.66667" d="M11.527 13.807a.83.83 0 0 0 1.01-.253l.296-.387a1.67 1.67 0 0 1 1.334-.667h2.5a1.667 1.667 0 0 1 1.666 1.667v2.5a1.667 1.667 0 0 1-1.666 1.666 15 15 0 0 1-15-15 1.667 1.667 0 0 1 1.666-1.666h2.5A1.667 1.667 0 0 1 7.5 3.333v2.5a1.67 1.67 0 0 1-.667 1.334l-.39.292A.83.83 0 0 0 6.2 8.487a11.67 11.67 0 0 0 5.327 5.32"/></svg>