<svg width="55" height="55" viewBox="0 0 55 55" fill="none" xmlns="http://www.w3.org/2000/svg">
<path d="M50.7031 12.8904H48.9844V12.0311H49.8438C50.5275 12.0311 51.1833 11.7594 51.6668 11.2759C52.1502 10.7924 52.4219 10.1367 52.4219 9.45293C52.4219 8.76917 52.1502 8.11341 51.6668 7.62992C51.1833 7.14643 50.5275 6.87481 49.8438 6.87481H48.9844V2.57793C48.9856 2.44339 48.9542 2.31054 48.8928 2.1908C48.8315 2.07106 48.742 1.96799 48.632 1.89043C48.5256 1.80983 48.4017 1.7554 48.2703 1.73151C48.1389 1.70763 48.0038 1.71496 47.8758 1.75293L36.8242 5.15606H30.9375C30.7096 5.15606 30.491 5.2466 30.3298 5.40776C30.1687 5.56893 30.0781 5.78751 30.0781 6.01543V6.87481H28.3594C28.1315 6.87481 27.9129 6.96535 27.7517 7.12651C27.5905 7.28768 27.5 7.50626 27.5 7.73418V11.1717C27.5 11.3996 27.5905 11.6182 27.7517 11.7794C27.9129 11.9405 28.1315 12.0311 28.3594 12.0311H30.0781V12.8904H24.9219V5.15606C24.9219 4.92814 24.8313 4.70955 24.6702 4.54839C24.509 4.38722 24.2904 4.29668 24.0625 4.29668H6.875C6.64708 4.29668 6.42849 4.38722 6.26733 4.54839C6.10617 4.70955 6.01562 4.92814 6.01562 5.15606V12.8904H4.29688C3.61374 12.8925 2.95917 13.1648 2.47612 13.6478C1.99307 14.1309 1.72079 14.7854 1.71875 15.4686V42.9686C1.72079 43.6517 1.99307 44.3063 2.47612 44.7893C2.95917 45.2724 3.61374 45.5446 4.29688 45.5467H24.0625V48.1248H18.9062C18.6783 48.1248 18.4597 48.2153 18.2986 48.3765C18.1374 48.5377 18.0469 48.7563 18.0469 48.9842V52.4217C18.0469 52.6496 18.1374 52.8682 18.2986 53.0294C18.4597 53.1905 18.6783 53.2811 18.9062 53.2811H36.0938C36.3217 53.2811 36.5403 53.1905 36.7014 53.0294C36.8626 52.8682 36.9531 52.6496 36.9531 52.4217V48.9842C36.9531 48.7563 36.8626 48.5377 36.7014 48.3765C36.5403 48.2153 36.3217 48.1248 36.0938 48.1248H30.9375V45.5467H50.7031C51.3863 45.5446 52.0408 45.2724 52.5239 44.7893C53.0069 44.3063 53.2792 43.6517 53.2812 42.9686V15.4686C53.2792 14.7854 53.0069 14.1309 52.5239 13.6478C52.0408 13.1648 51.3863 12.8925 50.7031 12.8904ZM48.9844 8.59356H49.8438C50.0717 8.59356 50.2903 8.6841 50.4514 8.84526C50.6126 9.00643 50.7031 9.22501 50.7031 9.45293C50.7031 9.68085 50.6126 9.89944 50.4514 10.0606C50.2903 10.2218 50.0717 10.3123 49.8438 10.3123H48.9844V8.59356ZM37.8125 6.65137L47.2656 3.73809V15.1678L37.8125 12.2545V6.65137ZM31.7969 6.87481H36.0938V12.0311H31.7969V6.87481ZM34.2461 13.7498L33.6273 18.0467H32.6562V13.7498H34.2461ZM29.2188 10.3123V8.59356H30.0781V10.3123H29.2188ZM7.73438 6.01543H23.2031V18.0467H7.73438V6.01543ZM35.2344 49.8436V51.5623H19.7656V49.8436H35.2344ZM25.7812 48.1248V45.5467H29.2188V48.1248H25.7812ZM51.5625 42.9686C51.5625 43.1965 51.472 43.4151 51.3108 43.5762C51.1496 43.7374 50.931 43.8279 50.7031 43.8279H4.29688C4.06895 43.8279 3.85037 43.7374 3.68921 43.5762C3.52804 43.4151 3.4375 43.1965 3.4375 42.9686V42.1092H51.5625V42.9686ZM51.5625 40.3904H3.4375V15.4686C3.4375 15.2406 3.52804 15.0221 3.68921 14.8609C3.85037 14.6997 4.06895 14.6092 4.29688 14.6092H6.01562V18.9061C6.01562 19.134 6.10617 19.3526 6.26733 19.5137C6.42849 19.6749 6.64708 19.7654 6.875 19.7654H24.0625C24.2904 19.7654 24.509 19.6749 24.6702 19.5137C24.8313 19.3526 24.9219 19.134 24.9219 18.9061V14.6092H30.9375V18.9061C30.9375 19.134 31.028 19.3526 31.1892 19.5137C31.3504 19.6749 31.569 19.7654 31.7969 19.7654H34.375C34.5821 19.7654 34.7821 19.6906 34.9384 19.5548C35.0948 19.419 35.1968 19.2314 35.2258 19.0264L35.982 13.7498H36.8242L47.8758 17.1529C47.9565 17.1775 48.0406 17.1891 48.125 17.1873C48.3519 17.184 48.5685 17.0924 48.729 16.9319C48.8894 16.7715 48.981 16.5548 48.9844 16.3279V14.6092H50.7031C50.931 14.6092 51.1496 14.6997 51.3108 14.8609C51.472 15.0221 51.5625 15.2406 51.5625 15.4686V40.3904Z" fill="white"/>
<path d="M6.01562 38.6719H28.3594C28.5873 38.6719 28.8059 38.5813 28.967 38.4202C29.1282 38.259 29.2188 38.0404 29.2188 37.8125V24.0625C29.2188 23.8346 29.1282 23.616 28.967 23.4548C28.8059 23.2937 28.5873 23.2031 28.3594 23.2031H6.01562C5.7877 23.2031 5.56912 23.2937 5.40796 23.4548C5.24679 23.616 5.15625 23.8346 5.15625 24.0625V37.8125C5.15625 38.0404 5.24679 38.259 5.40796 38.4202C5.56912 38.5813 5.7877 38.6719 6.01562 38.6719ZM6.875 36.9531V25.5999L16.7372 31.6697C16.8726 31.753 17.0285 31.7971 17.1875 31.7971C17.3465 31.7971 17.5024 31.753 17.6378 31.6697L27.5 25.5999V36.9531H6.875ZM9.0518 24.9219H25.3232L17.1875 29.9286L9.0518 24.9219Z" fill="white"/>
<path d="M31.7969 33.5156H33.5156V36.0938C33.5156 36.3217 33.6062 36.5403 33.7673 36.7014C33.9285 36.8626 34.1471 36.9531 34.375 36.9531H48.9844C49.2123 36.9531 49.4309 36.8626 49.592 36.7014C49.7532 36.5403 49.8438 36.3217 49.8438 36.0938V25.7812C49.8438 25.5533 49.7532 25.3347 49.592 25.1736C49.4309 25.0124 49.2123 24.9219 48.9844 24.9219H48.125V22.3438C48.125 22.1158 48.0345 21.8972 47.8733 21.7361C47.7121 21.5749 47.4935 21.4844 47.2656 21.4844H31.7969C31.569 21.4844 31.3504 21.5749 31.1892 21.7361C31.028 21.8972 30.9375 22.1158 30.9375 22.3438V32.6562C30.9375 32.8842 31.028 33.1028 31.1892 33.2639C31.3504 33.4251 31.569 33.5156 31.7969 33.5156ZM48.125 35.2344H35.2344V26.6406H48.125V35.2344ZM32.6562 23.2031H46.4062V24.9219H34.375C34.1471 24.9219 33.9285 25.0124 33.7673 25.1736C33.6062 25.3347 33.5156 25.5533 33.5156 25.7812V31.7969H32.6562V23.2031Z" fill="white"/>
<path d="M36.9531 28.3594H38.6719V30.0781H36.9531V28.3594Z" fill="white"/>
<path d="M40.3906 28.3594H46.4062V30.0781H40.3906V28.3594Z" fill="white"/>
<path d="M36.9531 31.7969H40.3906V33.5156H36.9531V31.7969Z" fill="white"/>
<path d="M42.1094 31.7969H46.4062V33.5156H42.1094V31.7969Z" fill="white"/>
<path d="M13.298 15.3401C13.4226 15.4172 13.5648 15.4611 13.7111 15.4677C13.8575 15.4743 14.0031 15.4434 14.1341 15.3779L19.2904 12.7998C19.4334 12.7285 19.5537 12.6188 19.6378 12.4829C19.7219 12.3471 19.7664 12.1905 19.7664 12.0307C19.7664 11.8709 19.7219 11.7143 19.6378 11.5784C19.5537 11.4425 19.4334 11.3328 19.2904 11.2615L14.1341 8.68341C14.0031 8.61792 13.8575 8.58703 13.7111 8.59365C13.5648 8.60028 13.4225 8.64422 13.2979 8.72128C13.1733 8.79835 13.0705 8.90598 12.9992 9.03397C12.9279 9.16196 12.8906 9.30605 12.8906 9.45255V14.6088C12.8905 14.7553 12.9279 14.8994 12.9992 15.0274C13.0705 15.1554 13.1734 15.2631 13.298 15.3401ZM14.6094 10.843L16.9847 12.0307L14.6094 13.2183V10.843Z" fill="white"/>
</svg>
