<svg width="55" height="55" viewBox="0 0 55 55" fill="none" xmlns="http://www.w3.org/2000/svg">
<path d="M23.2031 6.875H14.6094C14.135 6.875 13.75 6.49 13.75 6.01562C13.75 5.54125 14.135 5.15625 14.6094 5.15625H23.2031C23.6775 5.15625 24.0625 5.54125 24.0625 6.01562C24.0625 6.49 23.6775 6.875 23.2031 6.875Z" fill="white"/>
<path d="M19.7656 49.8438H18.0469C17.5725 49.8438 17.1875 49.4588 17.1875 48.9844C17.1875 48.51 17.5725 48.125 18.0469 48.125H19.7656C20.24 48.125 20.625 48.51 20.625 48.9844C20.625 49.4588 20.24 49.8438 19.7656 49.8438Z" fill="white"/>
<path d="M28.3594 53.2812H9.45312C7.08297 53.2812 5.15625 51.3545 5.15625 48.9844V6.01562C5.15625 3.64547 7.08297 1.71875 9.45312 1.71875H28.3594C30.7295 1.71875 32.6562 3.64547 32.6562 6.01562V16.3281C32.6562 16.8025 32.2712 17.1875 31.7969 17.1875C31.3225 17.1875 30.9375 16.8025 30.9375 16.3281V6.01562C30.9375 4.59422 29.7808 3.4375 28.3594 3.4375H9.45312C8.03172 3.4375 6.875 4.59422 6.875 6.01562V48.9844C6.875 50.4058 8.03172 51.5625 9.45312 51.5625H28.3594C29.7808 51.5625 30.9375 50.4058 30.9375 48.9844C30.9375 48.51 31.3225 48.125 31.7969 48.125C32.2712 48.125 32.6562 48.51 32.6562 48.9844C32.6562 51.3545 30.7295 53.2812 28.3594 53.2812Z" fill="white"/>
<path d="M23.2027 46.406H21.4805C21.0061 46.406 20.6211 46.021 20.6211 45.5466C20.6211 45.0723 21.0061 44.6873 21.4805 44.6873H23.2027C28.6287 44.6873 41.2495 42.2587 41.2495 19.7654V13.7498H38.6714C38.3638 13.7498 38.0802 13.5848 37.9255 13.3184C37.7708 13.052 37.7742 12.722 37.9272 12.4573L43.9428 2.14477C44.2522 1.61711 45.1202 1.61711 45.4278 2.14477L51.4434 12.4573C51.5981 12.722 51.5998 13.052 51.4452 13.3184C51.2905 13.5848 51.0103 13.7498 50.7027 13.7498H48.1245V19.7654C48.1245 20.2398 47.7395 20.6248 47.2652 20.6248C46.7908 20.6248 46.4058 20.2398 46.4058 19.7654V12.8904C46.4058 12.416 46.7908 12.031 47.2652 12.031H49.2056L44.687 4.28289L40.1684 12.031H42.1089C42.5833 12.031 42.9683 12.416 42.9683 12.8904V19.7654C42.9683 43.809 29.1461 46.406 23.2027 46.406Z" fill="white"/>
<path d="M47.2617 30.9375C47.7363 30.9375 48.1211 30.5527 48.1211 30.0781C48.1211 29.6035 47.7363 29.2188 47.2617 29.2188C46.7871 29.2188 46.4023 29.6035 46.4023 30.0781C46.4023 30.5527 46.7871 30.9375 47.2617 30.9375Z" fill="white"/>
<path d="M47.2617 34.375C47.7363 34.375 48.1211 33.9902 48.1211 33.5156C48.1211 33.041 47.7363 32.6562 47.2617 32.6562C46.7871 32.6562 46.4023 33.041 46.4023 33.5156C46.4023 33.9902 46.7871 34.375 47.2617 34.375Z" fill="white"/>
<path d="M47.2656 39.5312C46.7913 39.5312 46.4062 39.1463 46.4062 38.6719V36.9531C46.4062 36.4788 46.7913 36.0938 47.2656 36.0938C47.74 36.0938 48.125 36.4788 48.125 36.9531V38.6719C48.125 39.1463 47.74 39.5312 47.2656 39.5312Z" fill="white"/>
<path d="M47.2656 49.8438H38.6719C38.1975 49.8438 37.8125 49.4587 37.8125 48.9844C37.8125 48.51 38.1975 48.125 38.6719 48.125H46.4062V42.1094C46.4062 41.635 46.7913 41.25 47.2656 41.25C47.74 41.25 48.125 41.635 48.125 42.1094V48.9844C48.125 49.4587 47.74 49.8438 47.2656 49.8438Z" fill="white"/>
<path d="M47.2617 30.9375C47.7363 30.9375 48.1211 30.5527 48.1211 30.0781C48.1211 29.6035 47.7363 29.2188 47.2617 29.2188C46.7871 29.2188 46.4023 29.6035 46.4023 30.0781C46.4023 30.5527 46.7871 30.9375 47.2617 30.9375Z" fill="white"/>
<path d="M47.2617 34.375C47.7363 34.375 48.1211 33.9902 48.1211 33.5156C48.1211 33.041 47.7363 32.6562 47.2617 32.6562C46.7871 32.6562 46.4023 33.041 46.4023 33.5156C46.4023 33.9902 46.7871 34.375 47.2617 34.375Z" fill="white"/>
<path d="M47.2617 24.0625C47.7363 24.0625 48.1211 23.6777 48.1211 23.2031C48.1211 22.7285 47.7363 22.3438 47.2617 22.3438C46.7871 22.3438 46.4023 22.7285 46.4023 23.2031C46.4023 23.6777 46.7871 24.0625 47.2617 24.0625Z" fill="white"/>
<path d="M47.2656 39.5312C46.7913 39.5312 46.4062 39.1463 46.4062 38.6719V36.9531C46.4062 36.4788 46.7913 36.0938 47.2656 36.0938C47.74 36.0938 48.125 36.4788 48.125 36.9531V38.6719C48.125 39.1463 47.74 39.5312 47.2656 39.5312Z" fill="white"/>
<path d="M47.2656 49.8438H38.6719C38.1975 49.8438 37.8125 49.4587 37.8125 48.9844C37.8125 48.51 38.1975 48.125 38.6719 48.125H46.4062V42.1094C46.4062 41.635 46.7913 41.25 47.2656 41.25C47.74 41.25 48.125 41.635 48.125 42.1094V48.9844C48.125 49.4587 47.74 49.8438 47.2656 49.8438Z" fill="white"/>
<path d="M24.7483 42.9688H21.6563C21.2523 42.9688 20.9034 42.6869 20.8175 42.2916L20.3088 39.9661C19.5955 39.7581 18.9097 39.4728 18.2566 39.1136L16.2525 40.3975C15.9156 40.6175 15.4688 40.5694 15.1817 40.2841L12.9972 38.0995C12.7119 37.8125 12.662 37.3656 12.8803 37.027L14.1642 35.023C13.805 34.3698 13.5197 33.6841 13.3117 32.9708L10.988 32.462C10.5944 32.3761 10.3125 32.0272 10.3125 31.6233V28.5313C10.3125 28.1273 10.5944 27.7784 10.988 27.6925L13.31 27.1838C13.5214 26.467 13.8067 25.7813 14.1642 25.1298L12.8803 23.1258C12.662 22.7872 12.7102 22.3403 12.9955 22.055L15.18 19.8705C15.4653 19.5834 15.9122 19.5388 16.2508 19.7553L18.2566 21.0392C18.9114 20.68 19.5989 20.3947 20.307 20.1884L20.8158 17.8647C20.9017 17.4694 21.2506 17.1875 21.6545 17.1875H24.7466C25.1505 17.1875 25.4994 17.4677 25.5853 17.8647L26.0941 20.1884C26.8039 20.3947 27.4914 20.68 28.1445 21.0392L30.1503 19.7553C30.4889 19.5405 30.9358 19.5834 31.2211 19.8705L33.4056 22.055C33.6909 22.3403 33.7391 22.7872 33.5208 23.1258L32.2369 25.1316C32.5961 25.7864 32.8814 26.4722 33.0894 27.182L35.4131 27.6908C35.8067 27.7767 36.0886 28.1256 36.0886 28.5295V31.6216C36.0886 32.0255 35.8067 32.3744 35.4131 32.4603L33.0894 32.9691C32.8814 33.6772 32.5978 34.3647 32.2369 35.0195L33.5208 37.0253C33.7391 37.3639 33.6909 37.8108 33.4056 38.0961L31.2211 40.2841C30.9341 40.5694 30.4872 40.6141 30.1486 40.3992L28.1445 39.1119C27.4931 39.4711 26.8073 39.7547 26.0941 39.9627L25.5853 42.2898C25.5028 42.6869 25.1522 42.9688 24.7483 42.9688ZM22.3489 41.25H24.0573L24.53 39.0861C24.6005 38.763 24.8514 38.5069 25.1745 38.4313C26.0752 38.2216 26.9294 37.8658 27.7166 37.3777C27.9984 37.2041 28.3559 37.2058 28.6344 37.3845L30.4992 38.5808L31.7075 37.3725L30.513 35.5059C30.3342 35.2275 30.3325 34.8717 30.5061 34.5916C30.9994 33.7941 31.3534 32.9381 31.5614 32.0495C31.637 31.7264 31.8897 31.4755 32.2145 31.405L34.375 30.9323V29.2239L32.2145 28.7513C31.8914 28.6808 31.637 28.4298 31.5614 28.1084C31.3517 27.2147 30.9977 26.3587 30.5061 25.5647C30.3325 25.2845 30.3342 24.9288 30.513 24.6503L31.7075 22.7855L30.5009 21.5772L28.6361 22.7717C28.3559 22.9505 28.0019 22.9505 27.7217 22.7803C26.9259 22.2887 26.07 21.933 25.178 21.725C24.8548 21.6494 24.6056 21.395 24.5334 21.0719L24.0573 18.9062H22.3489L21.8762 21.0684C21.8058 21.3916 21.5548 21.6459 21.2317 21.7216C20.3414 21.9278 19.4855 22.2836 18.688 22.7769C18.4061 22.9487 18.0503 22.947 17.7736 22.7683L15.9087 21.5738L14.7022 22.782L15.8967 24.6469C16.0755 24.9253 16.0772 25.2828 15.9036 25.563C15.4155 26.3467 15.0597 27.2027 14.8448 28.1067C14.7692 28.4298 14.5148 28.6773 14.1934 28.7478L12.0364 29.2205V30.9289L14.1969 31.4016C14.52 31.472 14.7744 31.723 14.85 32.0461C15.0597 32.9433 15.4155 33.7992 15.9053 34.5881C16.0806 34.8683 16.0772 35.2258 15.8984 35.5042L14.7039 37.3691L15.9105 38.5773L17.7753 37.3828C18.0555 37.2041 18.4113 37.2041 18.6931 37.3759C19.4803 37.8658 20.3362 38.2198 21.2352 38.4295C21.5583 38.5052 21.8075 38.7595 21.8797 39.0844L22.3489 41.25ZM23.2014 36.0938C19.8842 36.0938 17.1858 33.3953 17.1858 30.0781C17.1858 26.7609 19.8842 24.0625 23.2014 24.0625C26.5186 24.0625 29.217 26.7609 29.217 30.0781C29.217 30.5525 28.832 30.9375 28.3577 30.9375C27.8833 30.9375 27.4983 30.5525 27.4983 30.0781C27.4983 27.708 25.5698 25.7812 23.2014 25.7812C20.833 25.7812 18.9045 27.708 18.9045 30.0781C18.9045 32.4483 20.833 34.375 23.2014 34.375C23.4884 34.375 23.7686 34.3458 24.0384 34.2942C24.5077 34.198 24.9563 34.5056 25.0473 34.9714C25.1384 35.4372 24.8359 35.8892 24.3702 35.9803C23.9937 36.0559 23.6019 36.0938 23.2014 36.0938Z" fill="white"/>
<path d="M27.502 34.499C27.9766 34.499 28.3613 34.1143 28.3613 33.6396C28.3613 33.165 27.9766 32.7803 27.502 32.7803C27.0273 32.7803 26.6426 33.165 26.6426 33.6396C26.6426 34.1143 27.0273 34.499 27.502 34.499Z" fill="white"/>
</svg>
