<svg width="55" height="55" viewBox="0 0 55 55" fill="none" xmlns="http://www.w3.org/2000/svg">
<g id="Frame" clip-path="url(#clip0_1239_322)">
<path id="Vector" d="M13.75 19.7656C13.2746 19.7656 12.8906 19.3817 12.8906 18.9062V16.4414C12.8906 15.9664 13.2746 15.582 13.75 15.582C14.2254 15.582 14.6094 15.9664 14.6094 16.4414V18.9062C14.6094 19.3817 14.2254 19.7656 13.75 19.7656Z" fill="white"/>
<path id="Vector_2" d="M25.7812 19.7655C25.3058 19.7655 24.9219 19.3815 24.9219 18.9061V15.8975C24.9219 15.422 25.3058 15.0381 25.7812 15.0381C26.2567 15.0381 26.6406 15.422 26.6406 15.8975V18.9061C26.6406 19.3815 26.2567 19.7655 25.7812 19.7655Z" fill="white"/>
<path id="Vector_3" d="M25.7812 16.757C25.3058 16.757 24.9219 16.3726 24.9219 15.8976C24.9219 12.8176 22.4151 10.3125 19.3343 10.3125C16.2551 10.3125 13.75 12.8176 13.75 15.8976C13.75 16.3726 13.3661 16.757 12.8906 16.757C12.4152 16.757 12.0312 16.3726 12.0312 15.8976C12.0312 11.8705 15.308 8.59375 19.3343 8.59375C23.3638 8.59375 26.6406 11.8705 26.6406 15.8976C26.6406 16.3726 26.2567 16.757 25.7812 16.757Z" fill="white"/>
<path id="Vector_4" d="M25.7817 17.9351C25.5232 17.9351 25.2676 17.8189 25.0985 17.5981C23.439 15.4308 22.9879 15.6087 21.3052 16.2763C19.6922 16.9167 17.2525 17.8843 12.7564 17.1718C12.2876 17.098 11.9671 16.6578 12.0422 16.1886C12.116 15.7204 12.5575 15.3956 13.0253 15.4745C17.0566 16.1098 19.1471 15.2831 20.6728 14.678C22.7453 13.8564 24.1334 13.5102 26.4631 16.5525C26.7518 16.9288 26.6805 17.4685 26.3033 17.7572C26.1476 17.8776 25.9638 17.9351 25.7817 17.9351Z" fill="white"/>
<path id="Vector_5" d="M22.3425 15.8778C22.2162 15.8778 22.0865 15.8492 21.9644 15.7892C21.5389 15.5803 21.3635 15.0645 21.5725 14.6395L23.2912 11.1407C23.5002 10.7144 24.0113 10.5386 24.4418 10.7479C24.8673 10.9569 25.0427 11.4726 24.8338 11.8981L23.115 15.3965C22.9656 15.7015 22.6597 15.8778 22.3425 15.8778Z" fill="white"/>
<path id="Vector_6" d="M12.0312 30.9332C11.5558 30.9332 11.1719 30.5489 11.1719 30.0739C11.1719 28.1789 12.7135 26.6372 14.6094 26.6372C15.0848 26.6372 15.4688 27.0212 15.4688 27.4966C15.4688 27.9716 15.0848 28.356 14.6094 28.356C13.6615 28.356 12.8906 29.126 12.8906 30.0739C12.8906 30.5489 12.5067 30.9332 12.0312 30.9332Z" fill="white"/>
<path id="Vector_7" d="M17.1875 28.3608H14.6094C14.1339 28.3608 13.75 27.9769 13.75 27.5015C13.75 27.0265 14.1339 26.6421 14.6094 26.6421H17.1875C17.6629 26.6421 18.0469 27.0265 18.0469 27.5015C18.0469 27.9769 17.6629 28.3608 17.1875 28.3608Z" fill="white"/>
<path id="Vector_8" d="M12.0312 33.5154C11.5558 33.5154 11.1719 33.1315 11.1719 32.6561V30.0737C11.1719 29.5983 11.5558 29.2144 12.0312 29.2144C12.5067 29.2144 12.8906 29.5983 12.8906 30.0737V32.6561C12.8906 33.1315 12.5067 33.5154 12.0312 33.5154Z" fill="white"/>
<path id="Vector_9" d="M27.5 30.9332C27.0246 30.9332 26.6406 30.5489 26.6406 30.0739C26.6406 29.126 25.8698 28.356 24.9219 28.356C24.4464 28.356 24.0625 27.9716 24.0625 27.4966C24.0625 27.0212 24.4464 26.6372 24.9219 26.6372C26.8177 26.6372 28.3594 28.1789 28.3594 30.0739C28.3594 30.5489 27.9754 30.9332 27.5 30.9332Z" fill="white"/>
<path id="Vector_10" d="M24.9219 28.3608H22.3438C21.8683 28.3608 21.4844 27.9769 21.4844 27.5015C21.4844 27.0265 21.8683 26.6421 22.3438 26.6421H24.9219C25.3973 26.6421 25.7812 27.0265 25.7812 27.5015C25.7812 27.9769 25.3973 28.3608 24.9219 28.3608Z" fill="white"/>
<path id="Vector_11" d="M27.5 33.5154C27.0246 33.5154 26.6406 33.1315 26.6406 32.6561V30.0737C26.6406 29.5983 27.0246 29.2144 27.5 29.2144C27.9754 29.2144 28.3594 29.5983 28.3594 30.0737V32.6561C28.3594 33.1315 27.9754 33.5154 27.5 33.5154Z" fill="white"/>
<path id="Vector_12" d="M17.1875 28.3608C16.7121 28.3608 16.3281 27.9769 16.3281 27.5015V24.3354C16.3281 23.8604 16.7121 23.4761 17.1875 23.4761C17.6629 23.4761 18.0469 23.8604 18.0469 24.3354V27.5015C18.0469 27.9769 17.6629 28.3608 17.1875 28.3608Z" fill="white"/>
<path id="Vector_13" d="M22.3438 28.355C21.8683 28.355 21.4844 27.9706 21.4844 27.4956V24.3354C21.4844 23.8604 21.8683 23.4761 22.3438 23.4761C22.8192 23.4761 23.2031 23.8604 23.2031 24.3354V27.4956C23.2031 27.9706 22.8192 28.355 22.3438 28.355Z" fill="white"/>
<path id="Vector_14" d="M19.7656 25.7743C15.9748 25.7743 12.8906 22.6906 12.8906 18.9019C12.8906 18.4264 13.2746 18.0425 13.75 18.0425C14.2254 18.0425 14.6094 18.4264 14.6094 18.9019C14.6094 21.7435 16.9219 24.0556 19.7656 24.0556C22.6094 24.0556 24.9219 21.7435 24.9219 18.9019C24.9219 18.4264 25.3058 18.0425 25.7812 18.0425C26.2567 18.0425 26.6406 18.4264 26.6406 18.9019C26.6406 22.6906 23.5564 25.7743 19.7656 25.7743Z" fill="white"/>
<path id="Vector_15" d="M18.0475 29.2146C17.7319 29.2146 17.4286 29.0409 17.2775 28.7392C17.0652 28.3149 17.2372 27.7984 17.6614 27.5861L19.3802 26.7267C19.8048 26.516 20.3206 26.6852 20.5337 27.1106C20.746 27.5353 20.574 28.0518 20.1494 28.2642L18.4306 29.1235C18.3081 29.1852 18.1763 29.2146 18.0475 29.2146Z" fill="white"/>
<path id="Vector_16" d="M21.4847 29.2147C21.2648 29.2147 21.0445 29.1303 20.8771 28.9629C20.541 28.6268 20.541 28.0838 20.8771 27.7477L21.7365 26.8883C22.0726 26.5522 22.6156 26.5522 22.9517 26.8883C23.2878 27.2244 23.2878 27.7674 22.9517 28.1035L22.0923 28.9629C21.9249 29.1303 21.7046 29.2147 21.4847 29.2147Z" fill="white"/>
<path id="Vector_17" d="M18.0472 29.2147C17.8273 29.2147 17.607 29.1303 17.4396 28.9629L16.5802 28.1035C16.2441 27.7674 16.2441 27.2244 16.5802 26.8883C16.9163 26.5522 17.4593 26.5522 17.7954 26.8883L18.6548 27.7477C18.9909 28.0838 18.9909 28.6268 18.6548 28.9629C18.4874 29.1303 18.2671 29.2147 18.0472 29.2147Z" fill="white"/>
<path id="Vector_18" d="M21.4834 29.2147C21.3546 29.2147 21.2229 29.1853 21.1003 29.1244L19.3816 28.2651C18.9569 28.0527 18.7849 27.5362 18.9972 27.1115C19.2095 26.6865 19.7261 26.5169 20.1507 26.7276L21.8695 27.587C22.2937 27.7993 22.4658 28.3158 22.2534 28.7401C22.1024 29.0409 21.799 29.2147 21.4834 29.2147Z" fill="white"/>
<path id="Vector_19" d="M47.2673 16.329C46.7923 16.329 46.4079 15.945 46.4079 15.4696C46.4079 14.5208 45.6363 13.75 44.6875 13.75C44.2121 13.75 43.8281 13.3661 43.8281 12.8906C43.8281 12.4152 44.2121 12.0312 44.6875 12.0312C46.5842 12.0312 48.1267 13.5738 48.1267 15.4696C48.1267 15.945 47.7427 16.329 47.2673 16.329Z" fill="white"/>
<path id="Vector_20" d="M44.6875 13.75C44.2121 13.75 43.8281 13.3661 43.8281 12.8906V10.3125C43.8281 9.83707 44.2121 9.45312 44.6875 9.45312C45.1629 9.45312 45.5469 9.83707 45.5469 10.3125V12.8906C45.5469 13.3661 45.1629 13.75 44.6875 13.75Z" fill="white"/>
<path id="Vector_21" d="M35.2344 16.3281C34.7589 16.3281 34.375 15.9442 34.375 15.4688C34.375 12.1525 37.0744 9.45312 40.3906 9.45312C40.8661 9.45312 41.25 9.83707 41.25 10.3125C41.25 10.7879 40.8661 11.1719 40.3906 11.1719C38.0215 11.1719 36.0938 13.0996 36.0938 15.4688C36.0938 15.9442 35.7098 16.3281 35.2344 16.3281Z" fill="white"/>
<path id="Vector_22" d="M44.6875 11.1719H40.3906C39.9152 11.1719 39.5312 10.7879 39.5312 10.3125C39.5312 9.83707 39.9152 9.45312 40.3906 9.45312H44.6875C45.1629 9.45312 45.5469 9.83707 45.5469 10.3125C45.5469 10.7879 45.1629 11.1719 44.6875 11.1719Z" fill="white"/>
<path id="Vector_23" d="M41.2498 24.0626C36.4766 24.0626 34.5451 20.3095 34.465 20.1497C34.2527 19.7254 34.4247 19.2089 34.8489 18.9966C35.2719 18.7859 35.7876 18.9563 36.0008 19.3772C36.065 19.5018 37.5655 22.3438 41.2498 22.3438C44.9726 22.3438 46.4816 19.4107 46.4962 19.3818C46.7094 18.9571 47.226 18.7859 47.6494 18.9974C48.074 19.2097 48.246 19.7263 48.0337 20.1509C47.9544 20.3095 46.0229 24.0626 41.2498 24.0626Z" fill="white"/>
<path id="Vector_24" d="M35.2344 20.6249C34.7589 20.6249 34.375 20.241 34.375 19.7656V15.4653C34.375 14.9899 34.7589 14.606 35.2344 14.606C35.7098 14.606 36.0938 14.9899 36.0938 15.4653V19.7656C36.0938 20.241 35.7098 20.6249 35.2344 20.6249Z" fill="white"/>
<path id="Vector_25" d="M47.2656 20.6249C46.7902 20.6249 46.4062 20.241 46.4062 19.7656V15.4653C46.4062 14.9899 46.7902 14.606 47.2656 14.606C47.7411 14.606 48.125 14.9899 48.125 15.4653V19.7656C48.125 20.241 47.7411 20.6249 47.2656 20.6249Z" fill="white"/>
<path id="Vector_26" d="M30.9375 29.2145C30.4621 29.2145 30.0781 28.8301 30.0781 28.3551C30.0781 26.4601 31.6198 24.9185 33.5156 24.9185C33.9911 24.9185 34.375 25.3024 34.375 25.7778C34.375 26.2528 33.9911 26.6372 33.5156 26.6372C32.5677 26.6372 31.7969 27.4072 31.7969 28.3551C31.7969 28.8301 31.4129 29.2145 30.9375 29.2145Z" fill="white"/>
<path id="Vector_27" d="M38.6719 26.6421H33.5156C33.0402 26.6421 32.6562 26.2581 32.6562 25.7827C32.6562 25.3077 33.0402 24.9233 33.5156 24.9233H38.6719C39.1473 24.9233 39.5312 25.3077 39.5312 25.7827C39.5312 26.2581 39.1473 26.6421 38.6719 26.6421Z" fill="white"/>
<path id="Vector_28" d="M30.9375 46.4061C30.4621 46.4061 30.0781 46.0221 30.0781 45.5467V28.355C30.0781 27.8796 30.4621 27.4956 30.9375 27.4956C31.4129 27.4956 31.7969 27.8796 31.7969 28.355V45.5467C31.7969 46.0221 31.4129 46.4061 30.9375 46.4061Z" fill="white"/>
<path id="Vector_29" d="M51.5625 29.2145C51.0871 29.2145 50.7031 28.8301 50.7031 28.3551C50.7031 27.4072 49.9323 26.6372 48.9844 26.6372C48.5089 26.6372 48.125 26.2528 48.125 25.7778C48.125 25.3024 48.5089 24.9185 48.9844 24.9185C50.8802 24.9185 52.4219 26.4601 52.4219 28.3551C52.4219 28.8301 52.0379 29.2145 51.5625 29.2145Z" fill="white"/>
<path id="Vector_30" d="M48.9844 26.6421H43.8281C43.3527 26.6421 42.9688 26.2581 42.9688 25.7827C42.9688 25.3077 43.3527 24.9233 43.8281 24.9233H48.9844C49.4598 24.9233 49.8438 25.3077 49.8438 25.7827C49.8438 26.2581 49.4598 26.6421 48.9844 26.6421Z" fill="white"/>
<path id="Vector_31" d="M51.5625 46.4061C51.0871 46.4061 50.7031 46.0221 50.7031 45.5467V28.355C50.7031 27.8796 51.0871 27.4956 51.5625 27.4956C52.0379 27.4956 52.4219 27.8796 52.4219 28.355V45.5467C52.4219 46.0221 52.0379 46.4061 51.5625 46.4061Z" fill="white"/>
<path id="Vector_32" d="M41.25 26.6337C37.4592 26.6337 34.375 23.5499 34.375 19.7612C34.375 19.2858 34.7589 18.9019 35.2344 18.9019C35.7098 18.9019 36.0938 19.2858 36.0938 19.7612C36.0938 22.6029 38.4063 24.915 41.25 24.915C44.0937 24.915 46.4062 22.6029 46.4062 19.7612C46.4062 19.2858 46.7902 18.9019 47.2656 18.9019C47.7411 18.9019 48.125 19.2858 48.125 19.7612C48.125 23.5499 45.0408 26.6337 41.25 26.6337Z" fill="white"/>
<path id="Vector_33" d="M43.8281 26.6362H38.6719C38.1964 26.6362 37.8125 26.2519 37.8125 25.7769C37.8125 25.3014 38.1964 24.9175 38.6719 24.9175H43.8281C44.3036 24.9175 44.6875 25.3014 44.6875 25.7769C44.6875 26.2519 44.3036 26.6362 43.8281 26.6362Z" fill="white"/>
<path id="Vector_34" d="M30.9375 36.0938H0.859375C0.383949 36.0938 0 35.7098 0 35.2344C0 34.7589 0.383949 34.375 0.859375 34.375H30.9375C31.4129 34.375 31.7969 34.7589 31.7969 35.2344C31.7969 35.7098 31.4129 36.0938 30.9375 36.0938Z" fill="white"/>
<path id="Vector_35" d="M54.1406 36.9531H51.5625C51.0871 36.9531 50.7031 36.5692 50.7031 36.0938C50.7031 35.6183 51.0871 35.2344 51.5625 35.2344H54.1406C54.6161 35.2344 55 35.6183 55 36.0938C55 36.5692 54.6161 36.9531 54.1406 36.9531Z" fill="white"/>
<path id="Vector_36" d="M54.1406 36.9531C53.6652 36.9531 53.2812 36.5692 53.2812 36.0938V33.5156C53.2812 33.0402 53.6652 32.6562 54.1406 32.6562C54.6161 32.6562 55 33.0402 55 33.5156V36.0938C55 36.5692 54.6161 36.9531 54.1406 36.9531Z" fill="white"/>
<path id="Vector_37" d="M54.1406 34.375H51.5625C51.0871 34.375 50.7031 33.9911 50.7031 33.5156C50.7031 33.0402 51.0871 32.6562 51.5625 32.6562H54.1406C54.6161 32.6562 55 33.0402 55 33.5156C55 33.9911 54.6161 34.375 54.1406 34.375Z" fill="white"/>
<path id="Vector_38" d="M30.9375 33.5156H0.859375C0.383949 33.5156 0 33.1317 0 32.6562C0 32.1808 0.383949 31.7969 0.859375 31.7969H30.9375C31.4129 31.7969 31.7969 32.1808 31.7969 32.6562C31.7969 33.1317 31.4129 33.5156 30.9375 33.5156Z" fill="white"/>
<path id="Vector_39" d="M0.859375 36.0938C0.383949 36.0938 0 35.7098 0 35.2344V32.6562C0 32.1808 0.383949 31.7969 0.859375 31.7969C1.3348 31.7969 1.71875 32.1808 1.71875 32.6562V35.2344C1.71875 35.7098 1.3348 36.0938 0.859375 36.0938Z" fill="white"/>
<path id="Vector_40" d="M3.4375 46.4062C2.96207 46.4062 2.57812 46.0223 2.57812 45.5469V35.2344C2.57812 34.7589 2.96207 34.375 3.4375 34.375C3.91293 34.375 4.29688 34.7589 4.29688 35.2344V45.5469C4.29688 46.0223 3.91293 46.4062 3.4375 46.4062Z" fill="white"/>
<path id="Vector_41" d="M6.875 46.4062C6.39957 46.4062 6.01562 46.0223 6.01562 45.5469V35.2344C6.01562 34.7589 6.39957 34.375 6.875 34.375C7.35043 34.375 7.73438 34.7589 7.73438 35.2344V45.5469C7.73438 46.0223 7.35043 46.4062 6.875 46.4062Z" fill="white"/>
<path id="Vector_42" d="M46.4062 33.5156H36.0938C35.6183 33.5156 35.2344 33.1317 35.2344 32.6562C35.2344 32.1808 35.6183 31.7969 36.0938 31.7969H46.4062C46.8817 31.7969 47.2656 32.1808 47.2656 32.6562C47.2656 33.1317 46.8817 33.5156 46.4062 33.5156Z" fill="white"/>
<path id="Vector_43" d="M46.4062 38.6719H36.0938C35.6183 38.6719 35.2344 38.2879 35.2344 37.8125C35.2344 37.3371 35.6183 36.9531 36.0938 36.9531H46.4062C46.8817 36.9531 47.2656 37.3371 47.2656 37.8125C47.2656 38.2879 46.8817 38.6719 46.4062 38.6719Z" fill="white"/>
<path id="Vector_44" d="M46.4062 43.8281H36.0938C35.6183 43.8281 35.2344 43.4442 35.2344 42.9688C35.2344 42.4933 35.6183 42.1094 36.0938 42.1094H46.4062C46.8817 42.1094 47.2656 42.4933 47.2656 42.9688C47.2656 43.4442 46.8817 43.8281 46.4062 43.8281Z" fill="white"/>
<path id="Vector_45" d="M8.59375 30.0781H0.859375C0.383949 30.0781 0 29.6942 0 29.2188V17.1875C0 16.7121 0.383949 16.3281 0.859375 16.3281H4.2952C4.52389 16.3281 4.74209 16.4183 4.9028 16.5799L9.20135 20.8768C9.36291 21.0375 9.45312 21.2557 9.45312 21.4844V29.2188C9.45312 29.6942 9.06918 30.0781 8.59375 30.0781ZM1.71875 28.3594H7.73438V21.8402L3.93936 18.0469H1.71875V28.3594Z" fill="white"/>
<path id="Vector_46" d="M8.59375 22.3438H4.29688C3.82145 22.3438 3.4375 21.9598 3.4375 21.4844C3.4375 21.0089 3.82145 20.625 4.29688 20.625H8.59375C9.06918 20.625 9.45312 21.0089 9.45312 21.4844C9.45312 21.9598 9.06918 22.3438 8.59375 22.3438Z" fill="white"/>
<path id="Vector_47" d="M4.29492 22.3438C3.8195 22.3438 3.43555 21.9598 3.43555 21.4844V17.1875C3.43555 16.7121 3.8195 16.3281 4.29492 16.3281C4.76993 16.3281 5.1543 16.7121 5.1543 17.1875V21.4844C5.1543 21.9598 4.76993 22.3438 4.29492 22.3438Z" fill="white"/>
<path id="Vector_48" d="M12.8906 17.1832C12.4152 17.1832 12.0312 16.7988 12.0312 16.3238V15.8975C12.0312 15.422 12.4152 15.0381 12.8906 15.0381C13.3661 15.0381 13.75 15.422 13.75 15.8975V16.3238C13.75 16.7988 13.3661 17.1832 12.8906 17.1832Z" fill="white"/>
</g>
<defs>
<clipPath id="clip0_1239_322">
<rect width="55" height="55" fill="white"/>
</clipPath>
</defs>
</svg>
