<svg width="55" height="55" viewBox="0 0 55 55" fill="none" xmlns="http://www.w3.org/2000/svg">
<g clip-path="url(#clip0_1227_521)">
<path d="M47.1112 33.1452C46.6117 32.8572 46.0598 32.6716 45.4877 32.5993C44.9157 32.527 44.3349 32.5694 43.7794 32.7241L41.1429 27.9443C41.0687 27.8098 40.9598 27.6976 40.8275 27.6195C40.6953 27.5414 40.5445 27.5001 40.3909 27.5H36.9534V24.9219H38.6722C38.9001 24.9219 39.1187 24.8313 39.2798 24.6702C39.441 24.509 39.5315 24.2904 39.5315 24.0625C39.5315 23.8346 39.441 23.616 39.2798 23.4548C39.1187 23.2937 38.9001 23.2031 38.6722 23.2031H36.9534V21.4844H39.5315C39.7595 21.4844 39.9781 21.3938 40.1392 21.2327C40.3004 21.0715 40.3909 20.8529 40.3909 20.625V18.859C40.5332 18.8826 40.6766 18.8984 40.8206 18.9063C41.6159 18.9078 42.3922 18.6636 43.0434 18.2071C43.6946 17.7506 44.1888 17.104 44.4586 16.3559C44.7283 15.6078 44.7604 14.7946 44.5504 14.0276C44.3404 13.2606 43.8985 12.5771 43.2853 12.0708L47.2719 8.08415C47.4285 7.92207 47.5151 7.70499 47.5131 7.47966C47.5112 7.25434 47.4208 7.03879 47.2615 6.87946C47.1021 6.72012 46.8866 6.62975 46.6613 6.62779C46.4359 6.62583 46.2189 6.71245 46.0568 6.86899L41.6542 11.2716C41.3809 11.2077 41.1013 11.1743 40.8206 11.1719C39.9916 11.1726 39.1848 11.4397 38.5191 11.9338C37.8534 12.4279 37.3642 13.1229 37.1234 13.9162C36.8827 14.7095 36.9033 15.5591 37.1822 16.3398C37.461 17.1205 37.9834 17.791 38.6722 18.2523V19.7656H36.9534C36.9506 19.0058 36.696 18.2682 36.2296 17.6684C35.7631 17.0685 35.111 16.6401 34.3753 16.4502V14.0439L38.2631 9.04407C39.0796 9.44766 40.0125 9.54924 40.8967 9.3308C41.7809 9.11236 42.5592 8.58801 43.0938 7.85064C43.6283 7.11327 43.8847 6.21048 43.8173 5.30222C43.75 4.39395 43.3633 3.53884 42.7258 2.88837C42.1523 2.29416 41.4014 1.90213 40.586 1.77118C40.549 1.76173 40.5112 1.75399 40.4734 1.74798C40.3035 1.72676 40.1324 1.717 39.9612 1.71876C39.2359 1.71778 38.5249 1.9211 37.9097 2.30544C37.2945 2.68978 36.8 3.2396 36.4828 3.89194C36.1656 4.54427 36.0386 5.27275 36.1162 5.99395C36.1938 6.71516 36.4729 7.39993 36.9216 7.96985L32.837 13.2224C32.7199 13.3733 32.6564 13.559 32.6565 13.75V16.3281H30.0784V12.8047C31.0498 12.6075 31.923 12.0805 32.5503 11.313C33.1776 10.5456 33.5202 9.58492 33.5202 8.59376C33.5202 7.60259 33.1776 6.6419 32.5503 5.87447C31.923 5.10704 31.0498 4.58006 30.0784 4.38282V0.859382C30.0782 0.747233 30.0557 0.636241 30.0123 0.532844C29.9689 0.429447 29.9053 0.335701 29.8254 0.257041C29.7455 0.178381 29.6507 0.116373 29.5466 0.0746107C29.4425 0.0328489 29.3312 0.0121647 29.219 0.0137573C28.9899 0.0164744 28.7711 0.109536 28.6101 0.272711C28.4492 0.435887 28.3592 0.655986 28.3597 0.885163V4.38282C27.3883 4.58006 26.515 5.10704 25.8878 5.87447C25.2605 6.6419 24.9179 7.60259 24.9179 8.59376C24.9179 9.58492 25.2605 10.5456 25.8878 11.313C26.515 12.0805 27.3883 12.6075 28.3597 12.8047V16.3281H25.7815V14.6094C25.7816 14.4669 25.7461 14.3266 25.6784 14.2012L22.0519 7.46798C22.4168 7.1108 22.7066 6.6843 22.9044 6.21352C23.1021 5.74275 23.2038 5.23719 23.2034 4.72657C23.2024 4.03009 23.0136 3.34677 22.657 2.7485C22.3004 2.15023 21.7891 1.65914 21.177 1.32688C20.685 1.05931 20.1405 0.902412 19.5815 0.867153C19.0225 0.831895 18.4626 0.919126 17.9409 1.12275C17.4191 1.32638 16.9481 1.64148 16.5608 2.04605C16.1735 2.45062 15.8792 2.93488 15.6985 3.46501C10.4563 7.0211 10.1564 12.5469 9.94756 16.604C9.94733 17.8676 9.79616 19.1266 9.49725 20.3543C8.67483 22.8284 5.53209 26.9113 4.21983 28.5519C3.79946 29.0797 3.53645 29.7153 3.46099 30.3859C3.38552 31.0564 3.50067 31.7346 3.7932 32.3426C4.08574 32.9507 4.5438 33.4639 5.11482 33.8234C5.68583 34.1829 6.34664 34.3741 7.02139 34.375H9.41905C9.38983 36.3739 9.59952 41.0953 12.0238 43.713C12.5681 44.3092 13.2341 44.7814 13.9768 45.0978C14.7194 45.4142 15.5214 45.5674 16.3284 45.5469C18.2728 45.4767 20.2093 45.261 22.1215 44.9015L20.3744 53.9782C20.3504 54.1026 20.3543 54.2306 20.3856 54.3533C20.4169 54.476 20.475 54.5903 20.5556 54.6879C20.6363 54.7855 20.7375 54.8641 20.852 54.9181C20.9666 54.972 21.0916 55 21.2183 55H43.6394C43.766 55 43.891 54.972 44.0056 54.9181C44.1201 54.8641 44.2214 54.7855 44.302 54.6879C44.3826 54.5903 44.4407 54.476 44.472 54.3533C44.5034 54.2306 44.5072 54.1026 44.4833 53.9782L44.2426 52.7321C43.5068 48.8829 43.6265 44.9189 44.5933 41.1211C44.7076 41.1306 44.8219 41.1469 44.937 41.1469C45.8799 41.1463 46.7964 40.8357 47.5453 40.2628C48.2942 39.6899 48.8339 38.8866 49.0811 37.9767C49.3283 37.0668 49.2694 36.1009 48.9134 35.2278C48.5575 34.3547 47.9242 33.6229 47.1112 33.1452ZM40.8206 12.8906C41.0792 12.8886 41.3357 12.9368 41.576 13.0324H41.5812L41.5966 13.0393C42.0617 13.2219 42.4486 13.561 42.6907 13.9981C42.9329 14.4352 43.015 14.943 42.9232 15.4342C42.8313 15.9253 42.5711 16.3691 42.1873 16.6891C41.8036 17.0091 41.3203 17.1854 40.8206 17.1875C40.5018 17.1897 40.1868 17.1182 39.9002 16.9787C39.4604 16.7692 39.1048 16.4164 38.8919 15.9782C38.6789 15.54 38.6212 15.0425 38.7282 14.5672C38.8352 14.0919 39.1006 13.6671 39.4808 13.3624C39.861 13.0578 40.3334 12.8914 40.8206 12.8906ZM39.9612 3.43751C40.0283 3.43751 40.0927 3.43751 40.1563 3.4461C40.1897 3.45463 40.2235 3.46094 40.2577 3.46501C40.7275 3.52518 41.1626 3.7441 41.4909 4.08548L41.4969 4.09149C41.8905 4.48923 42.1107 5.02644 42.1097 5.58594C42.1097 6.15575 41.8833 6.70221 41.4804 7.10512C41.0775 7.50803 40.531 7.73438 39.9612 7.73438C39.3921 7.73212 38.847 7.50504 38.4446 7.10262C38.0421 6.7002 37.8151 6.15505 37.8128 5.58594C37.8128 5.01614 38.0392 4.46968 38.4421 4.06677C38.845 3.66386 39.3914 3.43751 39.9612 3.43751ZM26.6409 8.59376C26.6409 8.08385 26.7921 7.5854 27.0754 7.16143C27.3587 6.73746 27.7614 6.40701 28.2324 6.21188C28.7035 6.01675 29.2219 5.96569 29.722 6.06517C30.2221 6.16465 30.6815 6.41019 31.0421 6.77075C31.4026 7.1313 31.6482 7.59068 31.7476 8.09079C31.8471 8.5909 31.7961 9.10927 31.6009 9.58036C31.4058 10.0515 31.0753 10.4541 30.6514 10.7374C30.2274 11.0207 29.729 11.1719 29.219 11.1719C28.5353 11.1719 27.8795 10.9003 27.396 10.4168C26.9125 9.93328 26.6409 9.27752 26.6409 8.59376ZM35.2347 19.7656V28.3594C35.2347 28.8152 35.0536 29.2524 34.7313 29.5747C34.4089 29.8971 33.9718 30.0781 33.5159 30.0781H24.9222C24.4663 30.0781 24.0292 29.8971 23.7068 29.5747C23.3845 29.2524 23.2034 28.8152 23.2034 28.3594V19.7656C23.2034 19.3098 23.3845 18.8726 23.7068 18.5503C24.0292 18.228 24.4663 18.0469 24.9222 18.0469H33.5159C33.9718 18.0469 34.4089 18.228 34.7313 18.5503C35.0536 18.8726 35.2347 19.3098 35.2347 19.7656ZM19.3362 2.57813C19.69 2.57792 20.0381 2.66657 20.3486 2.83594C20.6793 3.01293 20.9578 3.27359 21.1563 3.59188C21.3548 3.91018 21.4663 4.27498 21.4797 4.64985C21.4931 5.02472 21.4079 5.39654 21.2326 5.72819C21.0574 6.05984 20.7982 6.33971 20.4809 6.53985C20.1407 6.76187 19.7425 6.87846 19.3362 6.87501C18.7664 6.87501 18.22 6.64865 17.8171 6.24574C17.4142 5.84283 17.1878 5.29637 17.1878 4.72657C17.1891 4.55239 17.2128 4.3791 17.2583 4.21094C17.3699 3.74439 17.6358 3.32923 18.013 3.03284C18.3902 2.73644 18.8565 2.57621 19.3362 2.57813ZM22.2581 53.2813L24.0465 43.9906C24.0732 43.8519 24.0653 43.7089 24.0235 43.574C23.9818 43.4392 23.9075 43.3167 23.8071 43.2174C23.7068 43.1181 23.5836 43.045 23.4483 43.0046C23.313 42.9643 23.1699 42.9579 23.0315 42.9859C20.8209 43.4312 18.5805 43.7127 16.3284 43.8281C15.7588 43.8481 15.1917 43.7439 14.6664 43.5228C14.1411 43.3017 13.6701 42.9689 13.2862 42.5477C10.7313 39.7891 11.1653 33.6428 11.1722 33.5809C11.1812 33.4627 11.1656 33.3439 11.1265 33.232C11.0874 33.1201 11.0255 33.0174 10.9448 32.9306C10.8641 32.8437 10.7662 32.7745 10.6575 32.7273C10.5487 32.6801 10.4314 32.6559 10.3128 32.6563H7.02139C6.67037 32.6557 6.3266 32.5563 6.02946 32.3694C5.73233 32.1825 5.49386 31.9157 5.34138 31.5995C5.1889 31.2834 5.12857 30.9306 5.16732 30.5818C5.20607 30.2329 5.34232 29.902 5.56045 29.627C7.26373 27.5 10.2518 23.5357 11.1275 20.8966C11.4837 19.5236 11.6638 18.1109 11.6637 16.6925C11.8476 13.1235 12.084 8.77251 15.6083 5.69938C15.7385 6.21561 15.9748 6.69905 16.3022 7.11888C16.6296 7.53871 17.0409 7.88574 17.5098 8.13783C17.9788 8.38992 18.4951 8.54155 19.0258 8.58306C19.5566 8.62457 20.0902 8.55504 20.5926 8.37891L24.0628 14.8259V16.4502C23.327 16.6401 22.675 17.0685 22.2085 17.6684C21.7421 18.2682 21.4875 19.0058 21.4847 19.7656H18.0472C17.8193 19.7656 17.6007 19.8562 17.4395 20.0173C17.2783 20.1785 17.1878 20.3971 17.1878 20.625C17.1878 20.8529 17.2783 21.0715 17.4395 21.2327C17.6007 21.3938 17.8193 21.4844 18.0472 21.4844H21.4847V23.2031H16.3284C16.1005 23.2031 15.8819 23.2937 15.7208 23.4548C15.5596 23.616 15.469 23.8346 15.469 24.0625C15.469 24.2904 15.5596 24.509 15.7208 24.6702C15.8819 24.8313 16.1005 24.9219 16.3284 24.9219H21.4847V26.6406H18.0472C17.8193 26.6406 17.6007 26.7312 17.4395 26.8923C17.2783 27.0535 17.1878 27.2721 17.1878 27.5C17.1878 27.7279 17.2783 27.9465 17.4395 28.1077C17.6007 28.2688 17.8193 28.3594 18.0472 28.3594H21.4847C21.4847 29.2711 21.8468 30.1454 22.4915 30.7901C23.1362 31.4347 24.0105 31.7969 24.9222 31.7969V34.375C24.9222 34.6029 25.0127 34.8215 25.1739 34.9827C25.335 35.1438 25.5536 35.2344 25.7815 35.2344C26.0095 35.2344 26.2281 35.1438 26.3892 34.9827C26.5504 34.8215 26.6409 34.6029 26.6409 34.375V31.7969H28.3597V36.0938C28.3597 36.3217 28.4502 36.5403 28.6114 36.7014C28.7725 36.8626 28.9911 36.9531 29.219 36.9531C29.447 36.9531 29.6656 36.8626 29.8267 36.7014C29.9879 36.5403 30.0784 36.3217 30.0784 36.0938V31.7969H31.7972V34.375C31.7972 34.6029 31.8877 34.8215 32.0489 34.9827C32.21 35.1438 32.4286 35.2344 32.6565 35.2344C32.8845 35.2344 33.1031 35.1438 33.2642 34.9827C33.4254 34.8215 33.5159 34.6029 33.5159 34.375V31.7969C34.2758 31.794 35.0133 31.5395 35.6132 31.073C36.213 30.6066 36.6414 29.9545 36.8314 29.2188H39.8839L42.2489 33.507C41.7465 33.9073 41.341 34.4158 41.0624 34.9947C40.7839 35.5735 40.6395 36.2077 40.6401 36.85C40.645 37.6313 40.8617 38.3966 41.2671 39.0644C41.6726 39.7322 42.2515 40.2776 42.9424 40.6424C41.9003 44.7015 41.768 48.9408 42.5548 53.057L42.5978 53.2813H22.2581ZM44.937 39.4281C44.6879 39.4285 44.4402 39.3911 44.2023 39.3173C43.7085 39.1702 43.2702 38.8787 42.9438 38.4802C42.6173 38.0817 42.4178 37.5945 42.3708 37.0815C42.3238 36.5686 42.4316 36.0532 42.6802 35.6021C42.9288 35.1509 43.3069 34.7846 43.7657 34.5503C44.1295 34.3685 44.5303 34.2732 44.937 34.2719C45.3951 34.2707 45.8449 34.3934 46.239 34.6268C46.7267 34.9132 47.1068 35.3521 47.3205 35.8757C47.5343 36.3994 47.5699 36.9788 47.4218 37.5247C47.2738 38.0706 46.9504 38.5527 46.5013 38.8967C46.0523 39.2406 45.5026 39.4274 44.937 39.4281Z" fill="white"/>
<path d="M30.0781 20.625C30.0781 20.3971 29.9876 20.1785 29.8264 20.0173C29.6653 19.8562 29.4467 19.7656 29.2188 19.7656H25.7812C25.5533 19.7656 25.3347 19.8562 25.1736 20.0173C25.0124 20.1785 24.9219 20.3971 24.9219 20.625V27.5C24.9219 27.7279 25.0124 27.9465 25.1736 28.1077C25.3347 28.2688 25.5533 28.3594 25.7812 28.3594C26.0092 28.3594 26.2278 28.2688 26.3889 28.1077C26.5501 27.9465 26.6406 27.7279 26.6406 27.5V21.4844H29.2188C29.4467 21.4844 29.6653 21.3938 29.8264 21.2327C29.9876 21.0715 30.0781 20.8529 30.0781 20.625Z" fill="white"/>
<path d="M32.6562 19.7656C32.4283 19.7656 32.2097 19.8562 32.0486 20.0173C31.8874 20.1785 31.7969 20.3971 31.7969 20.625V26.6406H29.2188C28.9908 26.6406 28.7722 26.7312 28.6111 26.8923C28.4499 27.0535 28.3594 27.2721 28.3594 27.5C28.3594 27.7279 28.4499 27.9465 28.6111 28.1077C28.7722 28.2688 28.9908 28.3594 29.2188 28.3594H32.6562C32.8842 28.3594 33.1028 28.2688 33.2639 28.1077C33.4251 27.9465 33.5156 27.7279 33.5156 27.5V20.625C33.5156 20.3971 33.4251 20.1785 33.2639 20.0173C33.1028 19.8562 32.8842 19.7656 32.6562 19.7656Z" fill="white"/>
<path d="M51.2746 20.8914C50.7612 20.3785 50.1132 20.0213 49.4054 19.861C48.6976 19.7008 47.9589 19.744 47.2747 19.9858C46.5904 20.2275 45.9885 20.6579 45.5385 21.2272C45.0884 21.7965 44.8086 22.4815 44.7313 23.2031H42.9688V22.6771L50.4453 14.4753C50.588 14.3052 50.6594 14.0864 50.6444 13.8649C50.6294 13.6433 50.5293 13.4362 50.365 13.2868C50.2006 13.1375 49.9849 13.0576 49.7629 13.0638C49.5409 13.07 49.33 13.1619 49.1743 13.3203L41.4743 21.7679C41.3307 21.9254 41.2508 22.1306 41.25 22.3437V24.0625C41.25 24.2904 41.3405 24.509 41.5017 24.6701C41.6629 24.8313 41.8815 24.9218 42.1094 24.9218H44.917C45.1848 25.6734 45.6777 26.3241 46.3286 26.7854C46.9796 27.2468 47.7569 27.4963 48.5547 27.5C49.1153 27.5007 49.6692 27.3771 50.1763 27.1382C50.846 26.8289 51.4132 26.3345 51.811 25.7134C52.2089 25.0923 52.4209 24.3704 52.4219 23.6328C52.4232 23.1224 52.3224 22.6169 52.1254 22.1461C51.9283 21.6753 51.6391 21.2487 51.2746 20.8914ZM49.4484 25.5818C49.1692 25.7144 48.8638 25.7826 48.5547 25.7812C48.0329 25.7773 47.5301 25.5851 47.1388 25.2399C46.7476 24.8947 46.4941 24.4198 46.4252 23.9026C46.4106 23.8134 46.4042 23.7231 46.4062 23.6328C46.4062 23.063 46.6326 22.5165 47.0355 22.1136C47.4384 21.7107 47.9849 21.4843 48.5547 21.4843C48.8346 21.4836 49.1119 21.5385 49.3705 21.6457C49.6291 21.753 49.8639 21.9105 50.0612 22.1091H50.0655C50.2682 22.3076 50.4291 22.5447 50.5386 22.8064C50.6481 23.0681 50.7041 23.3491 50.7031 23.6328C50.7022 24.0436 50.5836 24.4456 50.3612 24.791C50.1388 25.1365 49.822 25.4109 49.4484 25.5818Z" fill="white"/>
<path d="M33.7674 4.90456C33.9295 5.0611 34.1466 5.14772 34.3719 5.14577C34.5972 5.14381 34.8128 5.05343 34.9721 4.89409C35.1315 4.73476 35.2218 4.51922 35.2238 4.29389C35.2258 4.06857 35.1391 3.85149 34.9826 3.68941L33.5156 2.22245V0.902452C33.5145 0.674532 33.4229 0.456399 33.2609 0.296041C33.0989 0.135683 32.8799 0.0462344 32.652 0.047374C32.424 0.0485136 32.2059 0.140148 32.0456 0.302117C31.8852 0.464087 31.7957 0.683125 31.7969 0.911046V2.57823C31.7969 2.80614 31.8875 3.02469 32.0487 3.18581L33.7674 4.90456Z" fill="white"/>
<path d="M25.7813 4.29698C26.0092 4.29698 26.2278 4.20644 26.3889 4.04528C26.5501 3.88411 26.6406 3.66553 26.6406 3.43761V1.1173C26.6395 0.889375 26.5479 0.671243 26.3859 0.510885C26.2239 0.350526 26.0049 0.261078 25.777 0.262218C25.549 0.263357 25.3309 0.354991 25.1706 0.516961C25.0102 0.678931 24.9207 0.897969 24.9219 1.12589V3.43761C24.9219 3.66553 25.0124 3.88411 25.1736 4.04528C25.3348 4.20644 25.5533 4.29698 25.7813 4.29698Z" fill="white"/>
<path d="M45.7985 13.4981C45.9596 13.6592 46.1782 13.7497 46.4061 13.7497C46.6339 13.7497 46.8525 13.6592 47.0136 13.4981L49.2222 11.2895C49.3043 11.2103 49.3698 11.1154 49.4148 11.0106C49.4599 10.9057 49.4836 10.793 49.4846 10.6789C49.4856 10.5647 49.4638 10.4516 49.4206 10.346C49.3774 10.2404 49.3136 10.1444 49.2329 10.0637C49.1522 9.98303 49.0562 9.91922 48.9506 9.87601C48.845 9.8328 48.7319 9.81105 48.6178 9.81204C48.5036 9.81304 48.3909 9.83674 48.286 9.88178C48.1812 9.92682 48.0864 9.99229 48.0071 10.0744L45.7985 12.283C45.6374 12.4441 45.5469 12.6627 45.5469 12.8905C45.5469 13.1184 45.6374 13.337 45.7985 13.4981Z" fill="white"/>
<path d="M48.5375 29.2188H45.9766L43.6563 26.125C43.5195 25.9427 43.3159 25.8221 43.0903 25.7899C42.8647 25.7577 42.6355 25.8164 42.4531 25.9531C42.2708 26.0899 42.1502 26.2935 42.118 26.5191C42.0858 26.7447 42.1445 26.9739 42.2813 27.1563L44.8594 30.5938C44.9394 30.7005 45.0432 30.7871 45.1626 30.8468C45.2819 30.9064 45.4135 30.9375 45.5469 30.9375H48.5375C48.7654 30.9375 48.984 30.847 49.1452 30.6858C49.3063 30.5246 49.3969 30.306 49.3969 30.0781C49.3969 29.8502 49.3063 29.6316 49.1452 29.4705C48.984 29.3093 48.7654 29.2188 48.5375 29.2188Z" fill="white"/>
<path d="M40.2576 43.565C40.0377 43.507 39.8037 43.5386 39.607 43.6528C39.4104 43.767 39.267 43.9546 39.2083 44.1743C38.6849 46.2855 38.6333 48.4862 39.057 50.6196C39.1026 50.8065 39.2097 50.9728 39.361 51.0917C39.5123 51.2105 39.6991 51.2752 39.8915 51.2753C39.9604 51.2753 40.029 51.2672 40.096 51.2513C40.2057 51.2246 40.3091 51.1765 40.4003 51.1098C40.4914 51.0431 40.5685 50.9592 40.6272 50.8627C40.6858 50.7662 40.7249 50.6591 40.7421 50.5475C40.7594 50.4359 40.7545 50.322 40.7277 50.2123C40.3745 48.3567 40.4229 46.447 40.8695 44.6117C40.9266 44.3918 40.8942 44.1582 40.7796 43.9621C40.6649 43.7659 40.4772 43.6231 40.2576 43.565Z" fill="white"/>
</g>
<defs>
<clipPath id="clip0_1227_521">
<rect width="55" height="55" fill="white"/>
</clipPath>
</defs>
</svg>
