<svg width="55" height="55" viewBox="0 0 55 55" fill="none" xmlns="http://www.w3.org/2000/svg">
<g clip-path="url(#clip0_1227_596)">
<path d="M54.9936 35.4838C54.925 34.2547 54.3188 33.129 53.3301 32.3955C51.7304 31.2085 49.5107 31.3322 48.0527 32.6901L39.184 40.9494C39.2381 39.1323 38.0436 37.5285 36.2547 37.0746L25.4236 34.3256C23.5243 33.8435 21.5352 33.9084 19.6713 34.5137L12.1837 36.9446V34.7901C12.1837 34.1969 11.7027 33.7159 11.1096 33.7159H1.07411C0.480929 33.7159 0 34.197 0 34.7901V53.9238C0 54.5169 0.481036 54.9979 1.07411 54.9979H11.1097C11.7029 54.9979 12.1838 54.5168 12.1838 53.9238V39.2034L20.3348 36.557C21.8125 36.0772 23.3894 36.0258 24.8952 36.4077L35.7264 39.1568C36.5677 39.3703 37.1157 40.1521 37.0295 41.016C36.9403 41.9091 36.1961 42.5828 35.2985 42.5828H26.6744C26.0812 42.5828 25.6003 43.0638 25.6003 43.6569C25.6003 44.2501 26.0813 44.731 26.6744 44.731H30.0627C30.1031 44.7356 30.144 44.7385 30.1857 44.7385H35.5127C37.2894 44.7385 38.984 44.0715 40.2845 42.8607L49.5171 34.2622C50.2169 33.6103 51.2824 33.551 52.0505 34.1208C52.5251 34.4728 52.816 35.0132 52.8489 35.6032C52.8819 36.1933 52.6525 36.7625 52.22 37.1653L39.5012 49.0053C38.6239 49.8219 37.4805 50.2717 36.282 50.2717H19.6363C19.0431 50.2717 18.5622 50.7528 18.5622 51.3458C18.5622 51.939 19.0433 52.42 19.6363 52.42H36.2822C38.0257 52.42 39.6888 51.7656 40.9652 50.5777L53.6836 38.7376C54.5846 37.8988 55.0621 36.7129 54.9936 35.4838ZM10.0356 52.8496H2.14823V35.8643H10.0355L10.0356 52.8496Z" fill="white"/>
<path d="M16.061 50.5862C15.8613 50.3863 15.5842 50.2715 15.3007 50.2715C15.018 50.2715 14.741 50.3863 14.5413 50.5862C14.3415 50.7861 14.2266 51.0632 14.2266 51.3456C14.2266 51.628 14.3414 51.9053 14.5413 52.1049C14.7422 52.3047 15.0182 52.4197 15.3007 52.4197C15.5843 52.4197 15.8603 52.3048 16.061 52.1049C16.2608 51.9052 16.3759 51.628 16.3759 51.3456C16.3759 51.0632 16.2609 50.786 16.061 50.5862Z" fill="white"/>
<path d="M6.85213 49.4758C6.65125 49.276 6.3741 49.1621 6.09169 49.1621C5.80917 49.1621 5.53202 49.276 5.33232 49.4758C5.13252 49.6767 5.01758 49.9538 5.01758 50.2362C5.01758 50.5186 5.13241 50.7948 5.33232 50.9956C5.5332 51.1954 5.80928 51.3103 6.09169 51.3103C6.37421 51.3103 6.65136 51.1954 6.85213 50.9956C7.05183 50.7958 7.16581 50.5186 7.16581 50.2362C7.16581 49.9526 7.05183 49.6767 6.85213 49.4758Z" fill="white"/>
<path d="M23.3698 0.00195312H22.203C16.9828 0.00195312 12.7359 4.24889 12.7359 9.46906V12.26C9.36511 12.5853 6.7207 15.4332 6.7207 18.8879C6.7207 22.5599 9.70833 25.5475 13.3803 25.5475H13.81C14.4032 25.5475 14.8841 25.0664 14.8841 24.4734V9.46906C14.8841 5.43354 18.1674 2.15018 22.203 2.15018H23.3698C23.963 2.15018 24.444 1.66914 24.444 1.07607C24.444 0.482882 23.963 0.00195312 23.3698 0.00195312ZM12.7359 21.5421V23.3533C10.5526 23.0396 8.86904 21.1567 8.86904 18.8878C8.86904 16.619 10.5526 14.7361 12.7359 14.4224V21.5421Z" fill="white"/>
<path d="M27.5436 0.00195312H27.4979C26.9048 0.00195312 26.4238 0.482989 26.4238 1.07607C26.4238 1.66925 26.9049 2.15018 27.4979 2.15018H27.5436C28.1368 2.15018 28.6177 1.66914 28.6177 1.07607C28.6177 0.482882 28.1368 0.00195312 27.5436 0.00195312Z" fill="white"/>
<path d="M42.2591 12.2598V9.46906C42.2591 4.24889 38.0122 0.00195312 32.792 0.00195312H31.5881C30.9949 0.00195312 30.514 0.482989 30.514 1.07607C30.514 1.66925 30.9951 2.15018 31.5882 2.15018H32.7921C36.8276 2.15018 40.111 5.43343 40.111 9.46906V27.4816C40.111 27.847 39.8136 28.1444 39.4483 28.1444H31.4529C31.0316 27.1361 30.0354 26.4256 28.8762 26.4256H26.4183C24.8792 26.4256 23.627 27.6779 23.627 29.217V29.2197C23.627 30.7588 24.8792 32.0111 26.4183 32.0111H28.8762C30.035 32.0111 31.0308 31.3012 31.4524 30.2924H39.4482C40.9982 30.2924 42.2591 29.0314 42.2591 27.4814V25.5156C45.6299 25.1903 48.2743 22.3423 48.2743 18.8876C48.2743 15.4329 45.6299 12.5852 42.2591 12.2598ZM28.8762 29.8629H26.4183C26.0636 29.8629 25.7752 29.5744 25.7752 29.2198V29.2171C25.7752 28.8624 26.0637 28.574 26.4183 28.574H28.8762C29.2309 28.574 29.5194 28.8625 29.5194 29.2199C29.5194 29.5744 29.2309 29.8629 28.8762 29.8629ZM42.2592 23.3533V21.5421V14.4224C44.4426 14.7361 46.1261 16.619 46.1261 18.8878C46.1261 21.1567 44.4427 23.0396 42.2592 23.3533Z" fill="white"/>
<path d="M36.9505 11.9033H35.948C35.8072 11.4719 35.6337 11.0527 35.4282 10.6479L36.1371 9.93917C36.3385 9.73765 36.4517 9.46447 36.4517 9.1797C36.4517 8.89492 36.3385 8.62153 36.1371 8.42022L33.7461 6.02933C33.3266 5.60985 32.6466 5.60995 32.227 6.02933L31.5181 6.73799C31.1134 6.5326 30.6942 6.35901 30.2629 6.21829V5.21572C30.2629 4.62253 29.7819 4.1416 29.1888 4.1416H25.8073C25.2141 4.1416 24.7331 4.62264 24.7331 5.21572V6.2214C24.3028 6.36234 23.8848 6.53593 23.4811 6.74122L22.7694 6.02944C22.3499 5.61017 21.67 5.61006 21.2502 6.02944L18.8592 8.42033C18.6578 8.62175 18.5446 8.89503 18.5446 9.1798C18.5446 9.46458 18.6578 9.73786 18.8592 9.93928L19.5745 10.6546C19.3704 11.0574 19.1979 11.4743 19.058 11.9034H18.0458C17.4526 11.9034 16.9717 12.3844 16.9717 12.9775V16.3588C16.9717 16.952 17.4527 17.4329 18.0458 17.4329H19.0613C19.2014 17.8609 19.3739 18.2766 19.5778 18.6785L18.8594 19.3969C18.658 19.5984 18.5448 19.8716 18.5448 20.1564C18.5448 20.4412 18.658 20.7145 18.8594 20.9159L21.2504 23.3069C21.67 23.7263 22.3499 23.7263 22.7696 23.3069L23.488 22.5884C23.8898 22.7924 24.3055 22.965 24.7336 23.1051V24.1205C24.7336 24.7137 25.2146 25.1946 25.8077 25.1946H29.1891C29.7823 25.1946 30.2632 24.7136 30.2632 24.1205V23.1083C30.6923 22.9683 31.1092 22.7959 31.512 22.5917L32.2271 23.307C32.6467 23.7264 33.3266 23.7264 33.7463 23.307L36.1373 20.916C36.3387 20.7145 36.4519 20.4413 36.4519 20.1565C36.4519 19.8717 36.3387 19.5984 36.1372 19.397L35.4252 18.685C35.6306 18.2814 35.8042 17.8634 35.945 17.433H36.9506C37.5438 17.433 38.0247 16.952 38.0247 16.3589V12.9776C38.0246 12.3843 37.5437 11.9033 36.9505 11.9033ZM35.8764 15.2845H35.1299C34.6251 15.2845 34.1848 15.6392 34.0766 16.1313C33.9061 16.8985 33.6047 17.6234 33.181 18.2859C32.9092 18.7108 32.9696 19.2676 33.3265 19.6242L33.8585 20.1563L32.9867 21.0281L32.4523 20.4937C32.0962 20.1376 31.5404 20.0768 31.1156 20.3474C30.4515 20.7704 29.7258 21.0705 28.9582 21.2394C28.4656 21.3479 28.1149 21.7843 28.1149 22.2885V23.0461H26.8815V22.2865C26.8815 21.7828 26.5314 21.3468 26.0396 21.2377C25.2729 21.0679 24.5481 20.7672 23.8854 20.3443C23.4606 20.073 22.9043 20.1335 22.5479 20.4901L22.0097 21.0282L21.1378 20.1564L21.6759 19.6183C22.0323 19.262 22.0931 18.7058 21.8218 18.2808C21.3988 17.6181 21.0983 16.8932 20.9285 16.1265C20.8194 15.6346 20.3834 15.2846 19.8797 15.2846H19.12V14.0516H19.8755C20.36 14.0516 20.7868 13.7254 20.9143 13.2581C20.919 13.2411 20.9232 13.2239 20.927 13.2066C21.0959 12.4398 21.3959 11.7144 21.8187 11.0508C22.0893 10.626 22.0284 10.0703 21.6723 9.71423L21.1378 9.1798L22.0097 8.30797L22.5417 8.84014C22.8984 9.19678 23.4551 9.25726 23.88 8.98559C24.5388 8.56417 25.2591 8.26382 26.0208 8.09302C26.5116 7.99365 26.8815 7.55945 26.8815 7.03953V6.29004H28.1146V7.03158C28.1146 7.53012 28.4636 7.97055 28.9488 8.08485C28.9535 8.08603 28.9584 8.08711 28.9631 8.08807C29.7307 8.25759 30.4567 8.55848 31.1206 8.98215C31.5452 9.25296 32.1015 9.1927 32.4579 8.83627L32.9864 8.30786L33.8582 9.1797L33.3313 9.7066C32.9728 10.0652 32.9147 10.6267 33.1868 11.0501C33.6064 11.7086 33.9052 12.4282 34.0751 13.1893C34.1737 13.681 34.6081 14.0515 35.1287 14.0515H35.876V15.2845H35.8764Z" fill="white"/>
<path d="M27.4977 10.5869C25.2471 10.5869 23.416 12.418 23.416 14.6686C23.416 16.9192 25.2471 18.7503 27.4977 18.7503C29.7483 18.7503 31.5794 16.9192 31.5794 14.6686C31.5794 12.418 29.7483 10.5869 27.4977 10.5869ZM27.4977 16.6021C26.4317 16.6021 25.5642 15.7348 25.5642 14.6686C25.5642 13.6026 26.4316 12.7351 27.4977 12.7351C28.5638 12.7351 29.4312 13.6025 29.4312 14.6686C29.4312 15.7347 28.5638 16.6021 27.4977 16.6021Z" fill="white"/>
<path d="M6.09169 37.8115C5.49851 37.8115 5.01758 38.2926 5.01758 38.8856V46.2972C5.01758 46.8904 5.49851 47.3713 6.09169 47.3713C6.68488 47.3713 7.1658 46.8903 7.1658 46.2972V38.8856C7.1658 38.2926 6.68477 37.8115 6.09169 37.8115Z" fill="white"/>
</g>
<defs>
<clipPath id="clip0_1227_596">
<rect width="55" height="55" fill="white"/>
</clipPath>
</defs>
</svg>
