<svg width="55" height="55" viewBox="0 0 55 55" fill="none" xmlns="http://www.w3.org/2000/svg">
<g id="Capa_1" clip-path="url(#clip0_1227_301)">
<g id="Group">
<g id="Group_2">
<path id="Vector" d="M41.25 0.458496H0.916667C0.410437 0.458496 0 0.868934 0 1.37516V53.6252C0 54.1314 0.410437 54.5418 0.916667 54.5418H41.25C41.7562 54.5418 42.1667 54.1314 42.1667 53.6252V1.37516C42.1667 0.868934 41.7562 0.458496 41.25 0.458496ZM40.3333 52.7085H1.83333V2.29183H40.3333V52.7085Z" fill="white"/>
</g>
</g>
<g id="Group_3">
<g id="Group_4">
<path id="Vector_2" d="M25.6663 9.625H16.4997C15.9934 9.625 15.583 10.0354 15.583 10.5417C15.583 11.0479 15.9934 11.4583 16.4997 11.4583H25.6663C26.1726 11.4583 26.583 11.0479 26.583 10.5417C26.583 10.0354 26.1726 9.625 25.6663 9.625Z" fill="white"/>
</g>
</g>
<g id="Group_5">
<g id="Group_6">
<path id="Vector_3" d="M13.7497 20.625H8.24967C7.74345 20.625 7.33301 21.0354 7.33301 21.5417C7.33301 22.0479 7.74345 22.4583 8.24967 22.4583H13.7497C14.2559 22.4583 14.6663 22.0479 14.6663 21.5417C14.6663 21.0354 14.2559 20.625 13.7497 20.625Z" fill="white"/>
</g>
</g>
<g id="Group_7">
<g id="Group_8">
<path id="Vector_4" d="M37.5833 20.625H17.4167C16.9104 20.625 16.5 21.0354 16.5 21.5417C16.5 22.0479 16.9104 22.4583 17.4167 22.4583H37.5833C38.0896 22.4583 38.5 22.0479 38.5 21.5417C38.5 21.0354 38.0896 20.625 37.5833 20.625Z" fill="white"/>
</g>
</g>
<g id="Group_9">
<g id="Group_10">
<path id="Vector_5" d="M37.5837 24.2915H4.58366C4.07743 24.2915 3.66699 24.7019 3.66699 25.2082C3.66699 25.7144 4.07743 26.1248 4.58366 26.1248H37.5837C38.0899 26.1248 38.5003 25.7144 38.5003 25.2082C38.5003 24.7019 38.0899 24.2915 37.5837 24.2915Z" fill="white"/>
</g>
</g>
<g id="Group_11">
<g id="Group_12">
<path id="Vector_6" d="M28.417 27.9585H4.58366C4.07743 27.9585 3.66699 28.3689 3.66699 28.8752C3.66699 29.3814 4.07743 29.7918 4.58366 29.7918H28.417C28.9232 29.7918 29.3337 29.3814 29.3337 28.8752C29.3337 28.3689 28.9232 27.9585 28.417 27.9585Z" fill="white"/>
</g>
</g>
<g id="Group_13">
<g id="Group_14">
<path id="Vector_7" d="M37.5837 27.9585H32.0837C31.5774 27.9585 31.167 28.3689 31.167 28.8752C31.167 29.3814 31.5774 29.7918 32.0837 29.7918H37.5837C38.0899 29.7918 38.5003 29.3814 38.5003 28.8752C38.5003 28.3689 38.0899 27.9585 37.5837 27.9585Z" fill="white"/>
</g>
</g>
<g id="Group_15">
<g id="Group_16">
<path id="Vector_8" d="M37.5837 31.625H21.0837C20.5774 31.625 20.167 32.0354 20.167 32.5417C20.167 33.0479 20.5774 33.4583 21.0837 33.4583H37.5837C38.0899 33.4583 38.5003 33.0479 38.5003 32.5417C38.5003 32.0354 38.0899 31.625 37.5837 31.625Z" fill="white"/>
</g>
</g>
<g id="Group_17">
<g id="Group_18">
<path id="Vector_9" d="M17.417 31.625H4.58366C4.07743 31.625 3.66699 32.0354 3.66699 32.5417C3.66699 33.0479 4.07743 33.4583 4.58366 33.4583H17.417C17.9232 33.4583 18.3337 33.0479 18.3337 32.5417C18.3337 32.0354 17.9232 31.625 17.417 31.625Z" fill="white"/>
</g>
</g>
<g id="Group_19">
<g id="Group_20">
<path id="Vector_10" d="M37.5833 35.2915H33.9167C33.4104 35.2915 33 35.7019 33 36.2082C33 36.7144 33.4104 37.1248 33.9167 37.1248H37.5833C38.0896 37.1248 38.5 36.7144 38.5 36.2082C38.5 35.7019 38.0896 35.2915 37.5833 35.2915Z" fill="white"/>
</g>
</g>
<g id="Group_21">
<g id="Group_22">
<path id="Vector_11" d="M9.16699 35.2915H4.58366C4.07743 35.2915 3.66699 35.7019 3.66699 36.2082C3.66699 36.7144 4.07743 37.1248 4.58366 37.1248H9.16699C9.67322 37.1248 10.0837 36.7144 10.0837 36.2082C10.0837 35.7019 9.67322 35.2915 9.16699 35.2915Z" fill="white"/>
</g>
</g>
<g id="Group_23">
<g id="Group_24">
<path id="Vector_12" d="M30.2503 35.2915H12.8337C12.3274 35.2915 11.917 35.7019 11.917 36.2082C11.917 36.7144 12.3274 37.1248 12.8337 37.1248H30.2503C30.7566 37.1248 31.167 36.7144 31.167 36.2082C31.167 35.7019 30.7566 35.2915 30.2503 35.2915Z" fill="white"/>
</g>
</g>
<g id="Group_25">
<g id="Group_26">
<path id="Vector_13" d="M36.667 46.2915H23.8337C23.3274 46.2915 22.917 46.7019 22.917 47.2082C22.917 47.7144 23.3274 48.1248 23.8337 48.1248H36.667C37.1732 48.1248 37.5837 47.7144 37.5837 47.2082C37.5837 46.7019 37.1732 46.2915 36.667 46.2915Z" fill="white"/>
</g>
</g>
<g id="Group_27">
<g id="Group_28">
<path id="Vector_14" d="M29.3337 5.9585H12.8337C12.3274 5.9585 11.917 6.36893 11.917 6.87516C11.917 7.38139 12.3274 7.79183 12.8337 7.79183H29.3337C29.8399 7.79183 30.2503 7.38139 30.2503 6.87516C30.2503 6.36893 29.8399 5.9585 29.3337 5.9585Z" fill="white"/>
</g>
</g>
<g id="Group_29">
<g id="Group_30">
<path id="Vector_15" d="M54.0834 8.70817H51.3334C51.3334 6.68314 49.6917 5.0415 47.6667 5.0415C45.6417 5.0415 44 6.68314 44 8.70817V41.7082C43.9926 44.3007 45.0232 46.7885 46.8619 48.6162L47.0186 48.7729C47.3766 49.1308 47.9568 49.1308 48.3148 48.7729L48.4715 48.6162C50.3103 46.7885 51.3408 44.3007 51.3334 41.7082V10.5415H53.1667V18.7915H55V9.62484C55 9.11861 54.5896 8.70817 54.0834 8.70817ZM47.6667 46.7828C46.6784 45.6013 46.0591 44.1554 45.8856 42.6248H49.4478C49.2743 44.1554 48.655 45.6013 47.6667 46.7828ZM49.5 40.7915H45.8334V10.5415H49.5V40.7915ZM45.8334 8.70817C45.8334 7.6956 46.6541 6.87484 47.6667 6.87484C48.6793 6.87484 49.5 7.6956 49.5 8.70817H45.8334Z" fill="white"/>
</g>
</g>
<g id="Group_31">
<g id="Group_32">
<path id="Vector_16" d="M37.5837 15.125H26.5837C26.0774 15.125 25.667 15.5354 25.667 16.0417C25.667 16.5479 26.0774 16.9583 26.5837 16.9583H37.5837C38.0899 16.9583 38.5003 16.5479 38.5003 16.0417C38.5003 15.5354 38.0899 15.125 37.5837 15.125Z" fill="white"/>
</g>
</g>
<g id="Group_33">
<g id="Group_34">
<path id="Vector_17" d="M24.7503 38.9585H4.58366C4.07743 38.9585 3.66699 39.3689 3.66699 39.8752C3.66699 40.3814 4.07743 40.7918 4.58366 40.7918H24.7503C25.2566 40.7918 25.667 40.3814 25.667 39.8752C25.667 39.3689 25.2566 38.9585 24.7503 38.9585Z" fill="white"/>
</g>
</g>
</g>
<defs>
<clipPath id="clip0_1227_301">
<rect width="55" height="55" fill="white"/>
</clipPath>
</defs>
</svg>
