<svg width="55" height="55" viewBox="0 0 55 55" fill="none" xmlns="http://www.w3.org/2000/svg">
<path d="M38.6719 0.859375H16.3281C14.9611 0.860854 13.6504 1.40457 12.6837 2.37124C11.7171 3.3379 11.1734 4.64856 11.1719 6.01562V48.9844C11.1734 50.3514 11.7171 51.6621 12.6837 52.6288C13.6504 53.5954 14.9611 54.1391 16.3281 54.1406H38.6719C40.0389 54.1391 41.3496 53.5954 42.3163 52.6288C43.2829 51.6621 43.8266 50.3514 43.8281 48.9844V6.01562C43.8266 4.64856 43.2829 3.3379 42.3163 2.37124C41.3496 1.40457 40.0389 0.860854 38.6719 0.859375ZM42.1094 48.9844C42.1084 49.8957 41.7459 50.7695 41.1014 51.4139C40.457 52.0584 39.5832 52.4209 38.6719 52.4219H16.3281C15.4168 52.4209 14.543 52.0584 13.8986 51.4139C13.2541 50.7695 12.8916 49.8957 12.8906 48.9844V6.01562C12.8916 5.10426 13.2541 4.23051 13.8986 3.58608C14.543 2.94164 15.4168 2.57915 16.3281 2.57812H38.6719C39.5832 2.57915 40.457 2.94164 41.1014 3.58608C41.7459 4.23051 42.1084 5.10426 42.1094 6.01562V48.9844Z" fill="white"/>
<path d="M37.8125 4.29688H33.5156C33.346 4.29695 33.1801 4.34718 33.0389 4.44125L30.6773 6.01562H24.3227L21.9611 4.44125C21.8199 4.34718 21.654 4.29695 21.4844 4.29688H17.1875C16.504 4.29764 15.8487 4.56951 15.3653 5.05284C14.882 5.53616 14.6101 6.19147 14.6094 6.875V36.9531C14.6094 37.181 14.6999 37.3996 14.8611 37.5608C15.0222 37.722 15.2408 37.8125 15.4688 37.8125C15.6967 37.8125 15.9153 37.722 16.0764 37.5608C16.2376 37.3996 16.3281 37.181 16.3281 36.9531V6.875C16.3284 6.64718 16.4191 6.42877 16.5802 6.26768C16.7413 6.10658 16.9597 6.01594 17.1875 6.01562H21.2242L23.5858 7.59C23.727 7.68407 23.8928 7.7343 24.0625 7.73438H30.9375C31.1072 7.7343 31.273 7.68407 31.4142 7.59L33.7758 6.01562H37.8125C38.0403 6.01594 38.2587 6.10658 38.4198 6.26768C38.5809 6.42877 38.6716 6.64718 38.6719 6.875V12.8906C38.6719 13.1185 38.7624 13.3371 38.9236 13.4983C39.0847 13.6595 39.3033 13.75 39.5312 13.75C39.7592 13.75 39.9778 13.6595 40.1389 13.4983C40.3001 13.3371 40.3906 13.1185 40.3906 12.8906V6.875C40.3899 6.19147 40.118 5.53616 39.6347 5.05284C39.1513 4.56951 38.496 4.29764 37.8125 4.29688Z" fill="white"/>
<path d="M39.5312 15.4688C39.3033 15.4688 39.0847 15.5593 38.9236 15.7205C38.7624 15.8816 38.6719 16.1002 38.6719 16.3281V48.125C38.6716 48.3528 38.5809 48.5712 38.4198 48.7323C38.2587 48.8934 38.0403 48.9841 37.8125 48.9844H33.5156V48.125C33.5149 47.4415 33.243 46.7862 32.7597 46.3028C32.2763 45.8195 31.621 45.5476 30.9375 45.5469H24.0625C23.379 45.5476 22.7237 45.8195 22.2403 46.3028C21.757 46.7862 21.4851 47.4415 21.4844 48.125V48.9844H17.1875C16.9597 48.9841 16.7413 48.8934 16.5802 48.7323C16.4191 48.5712 16.3284 48.3528 16.3281 48.125V40.3906C16.3281 40.1627 16.2376 39.9441 16.0764 39.783C15.9153 39.6218 15.6967 39.5312 15.4688 39.5312C15.2408 39.5312 15.0222 39.6218 14.8611 39.783C14.6999 39.9441 14.6094 40.1627 14.6094 40.3906V48.125C14.6101 48.8085 14.882 49.4638 15.3653 49.9472C15.8487 50.4305 16.504 50.7024 17.1875 50.7031H37.8125C38.496 50.7024 39.1513 50.4305 39.6347 49.9472C40.118 49.4638 40.3899 48.8085 40.3906 48.125V16.3281C40.3906 16.1002 40.3001 15.8816 40.1389 15.7205C39.9778 15.5593 39.7592 15.4688 39.5312 15.4688ZM23.2031 48.125C23.2034 47.8972 23.2941 47.6788 23.4552 47.5177C23.6163 47.3566 23.8347 47.2659 24.0625 47.2656H30.9375C31.1653 47.2659 31.3837 47.3566 31.5448 47.5177C31.7059 47.6788 31.7966 47.8972 31.7969 48.125V48.9844H23.2031V48.125Z" fill="white"/>
<path d="M25.7812 5.15625H29.2188C29.4467 5.15625 29.6653 5.06571 29.8264 4.90454C29.9876 4.74338 30.0781 4.5248 30.0781 4.29688C30.0781 4.06895 29.9876 3.85037 29.8264 3.68921C29.6653 3.52804 29.4467 3.4375 29.2188 3.4375H25.7812C25.5533 3.4375 25.3347 3.52804 25.1736 3.68921C25.0124 3.85037 24.9219 4.06895 24.9219 4.29688C24.9219 4.5248 25.0124 4.74338 25.1736 4.90454C25.3347 5.06571 25.5533 5.15625 25.7812 5.15625Z" fill="white"/>
<path d="M18.9062 19.7656H22.3438C22.3438 20.4494 22.6154 21.1051 23.0989 21.5886C23.5824 22.0721 24.2381 22.3438 24.9219 22.3438C25.6056 22.3438 26.2614 22.0721 26.7449 21.5886C27.2284 21.1051 27.5 20.4494 27.5 19.7656H36.0938C36.3217 19.7656 36.5403 19.6751 36.7014 19.5139C36.8626 19.3528 36.9531 19.1342 36.9531 18.9062C36.9531 18.6783 36.8626 18.4597 36.7014 18.2986C36.5403 18.1374 36.3217 18.0469 36.0938 18.0469H27.5C27.5 17.3631 27.2284 16.7074 26.7449 16.2239C26.2614 15.7404 25.6056 15.4688 24.9219 15.4688C24.2381 15.4688 23.5824 15.7404 23.0989 16.2239C22.6154 16.7074 22.3438 17.3631 22.3438 18.0469H18.9062C18.6783 18.0469 18.4597 18.1374 18.2986 18.2986C18.1374 18.4597 18.0469 18.6783 18.0469 18.9062C18.0469 19.1342 18.1374 19.3528 18.2986 19.5139C18.4597 19.6751 18.6783 19.7656 18.9062 19.7656ZM24.0625 18.0469C24.0625 17.819 24.153 17.6004 24.3142 17.4392C24.4754 17.278 24.694 17.1875 24.9219 17.1875C25.1498 17.1875 25.3684 17.278 25.5295 17.4392C25.6907 17.6004 25.7812 17.819 25.7812 18.0469V19.7656C25.7812 19.9935 25.6907 20.2121 25.5295 20.3733C25.3684 20.5345 25.1498 20.625 24.9219 20.625C24.694 20.625 24.4754 20.5345 24.3142 20.3733C24.153 20.2121 24.0625 19.9935 24.0625 19.7656V18.0469Z" fill="white"/>
<path d="M18.9062 28.3594H28.3594C28.3594 29.0431 28.631 29.6989 29.1145 30.1824C29.598 30.6659 30.2537 30.9375 30.9375 30.9375C31.6213 30.9375 32.277 30.6659 32.7605 30.1824C33.244 29.6989 33.5156 29.0431 33.5156 28.3594H36.0938C36.3217 28.3594 36.5403 28.2688 36.7014 28.1077C36.8626 27.9465 36.9531 27.7279 36.9531 27.5C36.9531 27.2721 36.8626 27.0535 36.7014 26.8923C36.5403 26.7312 36.3217 26.6406 36.0938 26.6406H33.5156C33.5156 25.9569 33.244 25.3011 32.7605 24.8176C32.277 24.3341 31.6213 24.0625 30.9375 24.0625C30.2537 24.0625 29.598 24.3341 29.1145 24.8176C28.631 25.3011 28.3594 25.9569 28.3594 26.6406H18.9062C18.6783 26.6406 18.4597 26.7312 18.2986 26.8923C18.1374 27.0535 18.0469 27.2721 18.0469 27.5C18.0469 27.7279 18.1374 27.9465 18.2986 28.1077C18.4597 28.2688 18.6783 28.3594 18.9062 28.3594ZM30.0781 26.6406C30.0781 26.4127 30.1687 26.1941 30.3298 26.033C30.491 25.8718 30.7096 25.7812 30.9375 25.7812C31.1654 25.7812 31.384 25.8718 31.5452 26.033C31.7063 26.1941 31.7969 26.4127 31.7969 26.6406V28.3594C31.7969 28.5873 31.7063 28.8059 31.5452 28.967C31.384 29.1282 31.1654 29.2188 30.9375 29.2188C30.7096 29.2188 30.491 29.1282 30.3298 28.967C30.1687 28.8059 30.0781 28.5873 30.0781 28.3594V26.6406Z" fill="white"/>
<path d="M18.9062 36.9531H22.3438C22.3438 37.6369 22.6154 38.2926 23.0989 38.7761C23.5824 39.2596 24.2381 39.5312 24.9219 39.5312C25.6056 39.5312 26.2614 39.2596 26.7449 38.7761C27.2284 38.2926 27.5 37.6369 27.5 36.9531H36.0938C36.3217 36.9531 36.5403 36.8626 36.7014 36.7014C36.8626 36.5403 36.9531 36.3217 36.9531 36.0938C36.9531 35.8658 36.8626 35.6472 36.7014 35.4861C36.5403 35.3249 36.3217 35.2344 36.0938 35.2344H27.5C27.5 34.5506 27.2284 33.8949 26.7449 33.4114C26.2614 32.9279 25.6056 32.6562 24.9219 32.6562C24.2381 32.6562 23.5824 32.9279 23.0989 33.4114C22.6154 33.8949 22.3438 34.5506 22.3438 35.2344H18.9062C18.6783 35.2344 18.4597 35.3249 18.2986 35.4861C18.1374 35.6472 18.0469 35.8658 18.0469 36.0938C18.0469 36.3217 18.1374 36.5403 18.2986 36.7014C18.4597 36.8626 18.6783 36.9531 18.9062 36.9531ZM24.0625 35.2344C24.0625 35.0065 24.153 34.7879 24.3142 34.6267C24.4754 34.4655 24.694 34.375 24.9219 34.375C25.1498 34.375 25.3684 34.4655 25.5295 34.6267C25.6907 34.7879 25.7812 35.0065 25.7812 35.2344V36.9531C25.7812 37.181 25.6907 37.3996 25.5295 37.5608C25.3684 37.722 25.1498 37.8125 24.9219 37.8125C24.694 37.8125 24.4754 37.722 24.3142 37.5608C24.153 37.3996 24.0625 37.181 24.0625 36.9531V35.2344Z" fill="white"/>
</svg>
