<svg width="55" height="55" viewBox="0 0 55 55" fill="none" xmlns="http://www.w3.org/2000/svg">
<g clip-path="url(#clip0_1227_550)">
<path d="M49.2642 42.3976H43.5355C42.9028 42.3976 42.3901 41.8849 42.3901 41.2522V30.9411C42.3901 30.3084 42.9028 29.7953 43.5355 29.7953H46.9725C50.1364 29.7953 52.7012 27.2306 52.7012 24.0671C52.7012 20.9032 50.1364 18.3384 46.9725 18.3384L46.8009 18.3489C46.4573 18.3598 46.1267 18.2159 45.9006 17.9571C45.6744 17.6978 45.5771 17.3508 45.6346 17.0118C45.7583 16.3153 45.823 15.6092 45.8272 14.9014C45.8318 8.56942 41.1348 3.21837 34.8557 2.40275C28.5766 1.5867 22.6679 5.55951 21.0539 11.6821C20.9364 12.126 20.5655 12.4571 20.1107 12.5229C19.6563 12.5888 19.2066 12.3769 18.9678 11.9846C18.1757 10.6605 16.5961 10.0291 15.1096 10.4428C13.6231 10.8564 12.5968 12.2129 12.6023 13.756C12.6069 14.1605 12.6845 14.5611 12.8314 14.9383C12.9849 15.3529 12.8863 15.8186 12.578 16.1353C12.2696 16.4521 11.8064 16.5633 11.3881 16.4206C8.8057 15.5328 5.94305 16.2578 4.09406 18.2671C2.24548 20.2764 1.76131 23.1898 2.86097 25.6891C3.96022 28.1884 6.43477 29.8004 9.16526 29.7953H12.6023C13.235 29.7953 13.7481 30.3084 13.7481 30.9411V40.1064C13.7481 40.7391 13.235 41.2522 12.6023 41.2522H9.12415V38.9606H11.4569V32.0865H9.16526C4.10329 32.0865 0 27.9833 0 22.9213C0 17.8593 4.10329 13.756 9.16526 13.756C9.54832 13.7556 9.93096 13.7803 10.3111 13.829V13.756C10.3149 10.5938 12.8775 8.03113 16.0393 8.02735C17.2837 8.02442 18.4946 8.43181 19.4843 9.18576C22.2072 2.62763 29.1828 -1.0947 36.1467 0.295302C43.1101 1.68572 48.1221 7.80079 48.1184 14.9014C48.1184 15.3004 48.0991 15.7036 48.0621 16.1206C52.2439 16.69 55.2689 20.4027 54.9815 24.6129C54.6941 28.8232 51.1929 32.0907 46.9725 32.0865H44.6813V40.1064H49.2642V42.3976Z" fill="white"/>
<path d="M35.7097 7.27433C34.907 7.01336 34.0683 6.8812 33.2246 6.88246V4.59083C34.3096 4.58957 35.3874 4.75991 36.4187 5.0964L35.7097 7.27433Z" fill="white"/>
<path d="M43.5355 14.9016H41.2442C41.2388 12.3486 40.0233 9.94953 37.9688 8.43451L39.3264 6.58887C41.9667 8.53688 43.5279 11.6206 43.5355 14.9016Z" fill="white"/>
<path d="M27.4961 37.8151H22.9132C22.2805 37.8151 21.7678 37.302 21.7678 36.6693V26.3582H20.622C20.1588 26.3582 19.7409 26.0788 19.5639 25.6508C19.3864 25.2229 19.4846 24.7303 19.8118 24.4027L24.3947 19.8198C24.8419 19.3726 25.5673 19.3726 26.0146 19.8198L30.5974 24.4027C30.9251 24.7303 31.0229 25.2229 30.8458 25.6508C30.6683 26.0788 30.2509 26.3582 29.7873 26.3582H28.6419V36.6693C28.6419 37.302 28.1288 37.8151 27.4961 37.8151ZM24.059 35.5235H26.3502V25.2124C26.3502 24.7345 26.6465 24.3066 27.0941 24.1392L25.2048 22.2499L23.3156 24.1392C23.7628 24.3066 24.0595 24.7345 24.059 25.2124V35.5235Z" fill="white"/>
<path d="M29.7877 48.1259C29.4839 48.1259 29.1927 48.005 28.9779 47.7902L24.3951 43.2074C24.0674 42.8797 23.9696 42.3871 24.1467 41.9588C24.3242 41.5308 24.7416 41.2518 25.2052 41.2518H26.3506V38.9602H28.6423V42.3972C28.6423 42.8751 28.3461 43.303 27.8984 43.4709L29.7877 45.3601L31.6769 43.4709C31.2297 43.303 30.9331 42.8751 30.9335 42.3972V32.0861H29.7877V29.7949H32.0793C32.712 29.7949 33.2247 30.308 33.2247 30.9407V41.2518H34.3705C34.8337 41.2518 35.2516 41.5308 35.4286 41.9588C35.6061 42.3871 35.5079 42.8797 35.1807 43.2074L30.5978 47.7902C30.383 48.005 30.0914 48.1259 29.7877 48.1259Z" fill="white"/>
<path d="M38.9528 46.9801H36.6611V30.9407C36.6611 30.308 37.1743 29.7949 37.8069 29.7949H43.5352V32.0861H38.9528V46.9801Z" fill="white"/>
<path d="M19.4765 49.2713H17.1853V32.0861H11.457V29.7949H18.3311C18.9638 29.7949 19.4765 30.308 19.4765 30.9407V49.2713Z" fill="white"/>
<path d="M51.5552 44.6895C49.6571 44.6895 48.1182 43.1505 48.1182 41.2525C48.1182 39.354 49.6571 37.8154 51.5552 37.8154C53.4533 37.8154 54.9922 39.354 54.9922 41.2525C54.9922 43.1505 53.4533 44.6895 51.5552 44.6895ZM51.5552 40.1066C50.9225 40.1066 50.4094 40.6198 50.4094 41.2525C50.4094 41.8852 50.9225 42.3979 51.5552 42.3979C52.1879 42.3979 52.701 41.8852 52.701 41.2525C52.701 40.6198 52.1879 40.1066 51.5552 40.1066Z" fill="white"/>
<path d="M6.87453 43.544C4.97644 43.544 3.4375 42.005 3.4375 40.1069C3.4375 38.2089 4.97644 36.6699 6.87453 36.6699C8.77261 36.6699 10.3116 38.2089 10.3116 40.1069C10.3116 42.005 8.77261 43.544 6.87453 43.544ZM6.87453 38.9611C6.24183 38.9611 5.72871 39.4743 5.72871 40.1069C5.72871 40.7396 6.24183 41.2528 6.87453 41.2528C7.50722 41.2528 8.02034 40.7396 8.02034 40.1069C8.02034 39.4743 7.50722 38.9611 6.87453 38.9611Z" fill="white"/>
<path d="M18.3306 55C16.4321 55 14.8936 53.4611 14.8936 51.563C14.8936 49.6645 16.4321 48.126 18.3306 48.126C20.2287 48.126 21.7676 49.6645 21.7676 51.563C21.7676 53.4611 20.2287 55 18.3306 55ZM18.3306 50.4172C17.6979 50.4172 17.1848 50.9303 17.1848 51.563C17.1848 52.1957 17.6979 52.7084 18.3306 52.7084C18.9633 52.7084 19.476 52.1957 19.476 51.563C19.476 50.9303 18.9633 50.4172 18.3306 50.4172Z" fill="white"/>
<path d="M37.8071 52.709C35.9091 52.709 34.3701 51.1705 34.3701 49.272C34.3701 47.3739 35.9091 45.835 37.8071 45.835C39.7052 45.835 41.2442 47.3739 41.2442 49.272C41.2442 51.1705 39.7052 52.709 37.8071 52.709ZM37.8071 48.1266C37.1744 48.1266 36.6613 48.6393 36.6613 49.272C36.6613 49.9047 37.1744 50.4178 37.8071 50.4178C38.4398 50.4178 38.953 49.9047 38.953 49.272C38.953 48.6393 38.4398 48.1266 37.8071 48.1266Z" fill="white"/>
</g>
<defs>
<clipPath id="clip0_1227_550">
<rect width="55" height="55" fill="white"/>
</clipPath>
</defs>
</svg>
